<svg width="191" height="51" viewBox="0 0 191 51" fill="none" xmlns="http://www.w3.org/2000/svg">
<path d="M94.832 13.49H96.284L98.484 19.034L100.706 13.49H102.18L99.452 20.156L102.444 27.218L108.098 13.38H109.77L103.148 29H101.784L98.506 21.278L95.206 29H93.864L87.264 13.38H88.914L94.59 27.218L97.56 20.156L94.832 13.49ZM122.462 27.636V29H111.968V13.38H122.264V14.744H113.508V20.376H121.142V21.674H113.508V27.636H122.462ZM137.122 24.974C137.122 25.7513 136.924 26.448 136.528 27.064C136.132 27.6653 135.597 28.142 134.922 28.494C134.262 28.8313 133.536 29 132.744 29H125.374V13.38H132.898C133.631 13.38 134.262 13.578 134.79 13.974C135.333 14.3553 135.743 14.854 136.022 15.47C136.315 16.0713 136.462 16.702 136.462 17.362C136.462 18.1393 136.264 18.858 135.868 19.518C135.472 20.178 134.922 20.6693 134.218 20.992C135.113 21.256 135.817 21.7473 136.33 22.466C136.858 23.1847 137.122 24.0207 137.122 24.974ZM135.582 24.71C135.582 24.182 135.465 23.698 135.23 23.258C134.995 22.8033 134.673 22.4367 134.262 22.158C133.866 21.8793 133.411 21.74 132.898 21.74H126.914V27.658H132.744C133.272 27.658 133.749 27.5187 134.174 27.24C134.599 26.9613 134.937 26.602 135.186 26.162C135.45 25.7073 135.582 25.2233 135.582 24.71ZM126.914 14.722V20.486H132.282C132.795 20.486 133.25 20.354 133.646 20.09C134.042 19.8113 134.357 19.452 134.592 19.012C134.827 18.572 134.944 18.1027 134.944 17.604C134.944 17.076 134.834 16.5993 134.614 16.174C134.394 15.734 134.093 15.382 133.712 15.118C133.331 14.854 132.898 14.722 132.414 14.722H126.914ZM147.549 13.38L150.915 20.288L154.325 13.38H158.263L152.697 23.676V29H149.111V23.632L143.633 13.38H147.549ZM165.549 29.132C164.376 29.132 163.312 28.912 162.359 28.472C161.42 28.0173 160.606 27.416 159.917 26.668C159.242 25.9053 158.722 25.0547 158.355 24.116C157.988 23.1627 157.805 22.18 157.805 21.168C157.805 20.1267 157.996 19.1367 158.377 18.198C158.773 17.2593 159.316 16.4233 160.005 15.69C160.709 14.942 161.538 14.3553 162.491 13.93C163.444 13.5047 164.486 13.292 165.615 13.292C166.774 13.292 167.822 13.5193 168.761 13.974C169.714 14.414 170.528 15.0153 171.203 15.778C171.892 16.5407 172.42 17.3987 172.787 18.352C173.154 19.2907 173.337 20.2513 173.337 21.234C173.337 22.2753 173.146 23.2653 172.765 24.204C172.384 25.1427 171.841 25.986 171.137 26.734C170.433 27.4673 169.604 28.054 168.651 28.494C167.712 28.9193 166.678 29.132 165.549 29.132ZM161.479 21.212C161.479 21.8133 161.567 22.4 161.743 22.972C161.919 23.5293 162.176 24.028 162.513 24.468C162.865 24.908 163.298 25.26 163.811 25.524C164.324 25.788 164.911 25.92 165.571 25.92C166.26 25.92 166.862 25.788 167.375 25.524C167.888 25.2453 168.314 24.8787 168.651 24.424C168.988 23.9693 169.238 23.4633 169.399 22.906C169.575 22.334 169.663 21.7547 169.663 21.168C169.663 20.5667 169.575 19.9873 169.399 19.43C169.223 18.8727 168.959 18.374 168.607 17.934C168.255 17.4793 167.822 17.1273 167.309 16.878C166.796 16.6287 166.216 16.504 165.571 16.504C164.882 16.504 164.28 16.636 163.767 16.9C163.268 17.164 162.843 17.5233 162.491 17.978C162.154 18.418 161.897 18.924 161.721 19.496C161.56 20.0533 161.479 20.6253 161.479 21.212ZM182.132 29.132C180.885 29.132 179.822 28.9267 178.942 28.516C178.062 28.0907 177.343 27.5187 176.786 26.8C176.243 26.0667 175.84 25.238 175.576 24.314C175.326 23.3753 175.202 22.3927 175.202 21.366V13.38H178.81V21.366C178.81 21.9527 178.868 22.5247 178.986 23.082C179.103 23.6247 179.294 24.1087 179.558 24.534C179.822 24.9593 180.159 25.2967 180.57 25.546C180.995 25.7953 181.516 25.92 182.132 25.92C182.762 25.92 183.29 25.7953 183.716 25.546C184.141 25.282 184.478 24.9373 184.728 24.512C184.977 24.072 185.16 23.5807 185.278 23.038C185.395 22.4953 185.454 21.938 185.454 21.366V13.38H189.062V21.366C189.062 22.4513 188.922 23.4633 188.644 24.402C188.38 25.3407 187.969 26.1693 187.412 26.888C186.854 27.592 186.136 28.142 185.256 28.538C184.39 28.934 183.349 29.132 182.132 29.132Z" fill="white"/>
<path d="M80.246 50V40.06H83.62C84.6747 40.06 85.552 40.284 86.252 40.732C86.9613 41.1707 87.4933 41.768 87.848 42.524C88.2027 43.2707 88.38 44.1013 88.38 45.016C88.38 46.024 88.184 46.9013 87.792 47.648C87.4093 48.3947 86.8587 48.9733 86.14 49.384C85.4307 49.7947 84.5907 50 83.62 50H80.246ZM87.4 45.016C87.4 44.2227 87.2507 43.518 86.952 42.902C86.6627 42.286 86.238 41.8053 85.678 41.46C85.118 41.1053 84.432 40.928 83.62 40.928H81.226V49.132H83.62C84.4413 49.132 85.132 48.95 85.692 48.586C86.252 48.222 86.6767 47.732 86.966 47.116C87.2553 46.4907 87.4 45.7907 87.4 45.016ZM90.2538 50V40.06H91.2338V50H90.2538ZM97.7165 50.07C97.0538 50.07 96.4378 49.93 95.8685 49.65C95.2991 49.3607 94.8045 48.9733 94.3845 48.488C93.9645 48.0027 93.6378 47.4613 93.4045 46.864C93.1805 46.2667 93.0685 45.6507 93.0685 45.016C93.0685 44.344 93.1805 43.7093 93.4045 43.112C93.6378 42.5053 93.9598 41.9687 94.3705 41.502C94.7811 41.0353 95.2665 40.6667 95.8265 40.396C96.3865 40.1253 96.9978 39.99 97.6605 39.99C98.6405 39.99 99.4385 40.1907 100.054 40.592C100.67 40.9933 101.137 41.516 101.454 42.16L100.698 42.664C100.381 42.048 99.9565 41.5953 99.4245 41.306C98.8925 41.0167 98.2998 40.872 97.6465 40.872C97.0958 40.872 96.5965 40.9887 96.1485 41.222C95.7098 41.4553 95.3318 41.768 95.0145 42.16C94.6971 42.552 94.4545 42.9953 94.2865 43.49C94.1278 43.9847 94.0485 44.498 94.0485 45.03C94.0485 45.59 94.1418 46.122 94.3285 46.626C94.5151 47.1207 94.7811 47.564 95.1265 47.956C95.4718 48.3387 95.8685 48.642 96.3165 48.866C96.7738 49.0807 97.2638 49.188 97.7865 49.188C98.3931 49.188 98.9671 49.0387 99.5085 48.74C100.05 48.432 100.568 47.9607 101.062 47.326V48.362C100.12 49.5007 99.0045 50.07 97.7165 50.07ZM100.908 45.87H98.6965V45.114H101.734V50H100.908V45.87ZM103.748 50V40.06H104.728V50H103.748ZM114.277 40.928H110.735V50H109.755V40.928H106.213V40.06H114.277V40.928ZM117.889 40.06H118.715L122.845 50H121.809L120.521 46.892H116.055L114.781 50H113.731L117.889 40.06ZM120.297 46.122L118.295 41.208L116.265 46.122H120.297ZM124.269 50V40.06H125.249V49.132H130.989V50H124.269ZM138.232 40.06H139.058L143.188 50H142.152L140.864 46.892H136.398L135.124 50H134.074L138.232 40.06ZM140.64 46.122L138.638 41.208L136.608 46.122H140.64ZM148.234 50.07C147.571 50.07 146.955 49.93 146.386 49.65C145.817 49.3607 145.322 48.9733 144.902 48.488C144.482 48.0027 144.155 47.4613 143.922 46.864C143.698 46.2667 143.586 45.6507 143.586 45.016C143.586 44.344 143.698 43.7093 143.922 43.112C144.155 42.5053 144.477 41.9687 144.888 41.502C145.299 41.0353 145.784 40.6667 146.344 40.396C146.904 40.1253 147.515 39.99 148.178 39.99C149.158 39.99 149.956 40.1907 150.572 40.592C151.188 40.9933 151.655 41.516 151.972 42.16L151.216 42.664C150.899 42.048 150.474 41.5953 149.942 41.306C149.41 41.0167 148.817 40.872 148.164 40.872C147.613 40.872 147.114 40.9887 146.666 41.222C146.227 41.4553 145.849 41.768 145.532 42.16C145.215 42.552 144.972 42.9953 144.804 43.49C144.645 43.9847 144.566 44.498 144.566 45.03C144.566 45.59 144.659 46.122 144.846 46.626C145.033 47.1207 145.299 47.564 145.644 47.956C145.989 48.3387 146.386 48.642 146.834 48.866C147.291 49.0807 147.781 49.188 148.304 49.188C148.911 49.188 149.485 49.0387 150.026 48.74C150.567 48.432 151.085 47.9607 151.58 47.326V48.362C150.637 49.5007 149.522 50.07 148.234 50.07ZM151.426 45.87H149.214V45.114H152.252V50H151.426V45.87ZM160.944 49.132V50H154.266V40.06H160.818V40.928H155.246V44.512H160.104V45.338H155.246V49.132H160.944ZM163.777 41.866V50H162.797V40.06H163.609L170.133 48.348V40.074H171.113V50H170.203L163.777 41.866ZM172.953 44.96C172.953 44.3533 173.056 43.7607 173.261 43.182C173.476 42.594 173.784 42.062 174.185 41.586C174.587 41.1007 175.081 40.718 175.669 40.438C176.257 40.1487 176.925 40.004 177.671 40.004C178.558 40.004 179.314 40.2093 179.939 40.62C180.574 41.0213 181.041 41.5393 181.339 42.174L180.569 42.65C180.355 42.2113 180.084 41.866 179.757 41.614C179.431 41.3527 179.081 41.166 178.707 41.054C178.343 40.942 177.979 40.886 177.615 40.886C177.018 40.886 176.491 41.0073 176.033 41.25C175.576 41.4833 175.189 41.8007 174.871 42.202C174.563 42.594 174.33 43.0373 174.171 43.532C174.013 44.0173 173.933 44.512 173.933 45.016C173.933 45.5667 174.027 46.094 174.213 46.598C174.4 47.102 174.661 47.55 174.997 47.942C175.333 48.3247 175.725 48.6327 176.173 48.866C176.631 49.09 177.125 49.202 177.657 49.202C178.031 49.202 178.413 49.1367 178.805 49.006C179.197 48.8753 179.561 48.6747 179.897 48.404C180.243 48.1333 180.518 47.7833 180.723 47.354L181.535 47.774C181.33 48.2687 181.013 48.6887 180.583 49.034C180.154 49.3793 179.673 49.6407 179.141 49.818C178.619 49.9953 178.105 50.084 177.601 50.084C176.92 50.084 176.295 49.9393 175.725 49.65C175.156 49.3513 174.661 48.9593 174.241 48.474C173.831 47.9793 173.513 47.4287 173.289 46.822C173.065 46.206 172.953 45.5853 172.953 44.96ZM183.019 40.06L186.267 45.408L189.543 40.06H190.607L186.757 46.304V50H185.777V46.276L181.941 40.06H183.019Z" fill="white"/>
<g clip-path="url(#clip0_1579_14415)">
<path opacity="0.7" d="M36.1187 50H50.9261L70.0001 13.1143L55.9335 13.4428L36.1187 50Z" fill="#00A2EA"/>
<path opacity="0.7" d="M50.9258 50H36.1184L24.2295 19.9072L32.0369 6.15002L50.9258 50Z" fill="#0FCE00"/>
<path opacity="0.7" d="M10.3706 44.2857H25.1854L50.3706 0H35.5558L10.3706 44.2857Z" fill="#FFE91F"/>
<path opacity="0.7" d="M0 15.3572H12.9778L25.1852 44.2857H10.6815L0 15.3572Z" fill="#FF3B3B"/>
</g>
<defs>
<clipPath id="clip0_1579_14415">
<rect width="70" height="50" fill="white"/>
</clipPath>
</defs>
</svg>
