<?xml version="1.0" encoding="UTF-8"?>
<!DOCTYPE svg PUBLIC "-//W3C//DTD SVG 1.1//EN" "http://www.w3.org/Graphics/SVG/1.1/DTD/svg11.dtd">
<!-- Creator: CorelDRAW -->
<svg xmlns="http://www.w3.org/2000/svg" xml:space="preserve" width="1440px" height="3996px" version="1.1" style="shape-rendering:geometricPrecision; text-rendering:geometricPrecision; image-rendering:optimizeQuality; fill-rule:evenodd; clip-rule:evenodd"
viewBox="0 0 144000000 399625000"
 xmlns:xlink="http://www.w3.org/1999/xlink"
 xmlns:xodm="http://www.corel.com/coreldraw/odm/2003">
 <defs>
  <style type="text/css">
   <![CDATA[
    .fil0 {fill:#C279FF;fill-rule:nonzero}
    .fil1 {fill:url(#id0)}
   ]]>
  </style>
  <linearGradient id="id0" gradientUnits="userSpaceOnUse" x1="53321000" y1="309709000" x2="66479000" y2="386526000">
   <stop offset="0" style="stop-opacity:1; stop-color:#161616"/>
   <stop offset="0.321569" style="stop-opacity:1; stop-color:#260046"/>
   <stop offset="0.568627" style="stop-opacity:1; stop-color:#2A004E"/>
   <stop offset="0.788235" style="stop-opacity:1; stop-color:#500092"/>
   <stop offset="1" style="stop-opacity:1; stop-color:#2A004E"/>
  </linearGradient>
 </defs>
 <g id="Слой_x0020_1">
  <metadata id="CorelCorpID_0Corel-Layer"/>
  <path class="fil0" d="M0 312990000l144000000 0 0 55054000c0,2872000 -2035000,5341000 -4855000,5890000l-132000000 25666000c-3704000,720000 -7145000,-2116000 -7145000,-5889000l0 -80721000z"/>
  <path class="fil1" d="M144000000 363302000l-144000000 0 0 23653000c0,3691000 3301000,6507000 6946000,5925000l132000000 -21083000c2912000,-465000 5054000,-2977000 5054000,-5925000l0 -2570000zm0 0l-144000000 0 0 -363215000 144000000 0 0 363215000z"/>
 </g>
</svg>
