<svg width="320" height="32" viewBox="0 0 320 32" fill="none" xmlns="http://www.w3.org/2000/svg">
<path d="M15.0446 3.09181C15.335 2.15213 16.665 2.15213 16.9554 3.09181L19.7771 12.2229H29.0437C30.0002 12.2229 30.4109 13.4369 29.6508 14.0176L22.1115 19.7771L24.9648 29.0108C25.2523 29.941 24.176 30.6918 23.4024 30.1007L16 24.4458L8.59765 30.1007C7.82396 30.6918 6.74771 29.941 7.03516 29.0108L9.88854 19.7771L2.34924 14.0176C1.58912 13.4369 1.99976 12.2229 2.9563 12.2229H12.2229L15.0446 3.09181Z" fill="#35CC00"/>
<path d="M47.0446 3.09181C47.335 2.15213 48.665 2.15213 48.9554 3.09181L51.7771 12.2229H61.0437C62.0002 12.2229 62.4109 13.4369 61.6508 14.0176L54.1115 19.7771L56.9648 29.0108C57.2523 29.941 56.176 30.6918 55.4024 30.1007L48 24.4458L40.5977 30.1007C39.824 30.6918 38.7477 29.941 39.0352 29.0108L41.8885 19.7771L34.3492 14.0176C33.5891 13.4369 33.9998 12.2229 34.9563 12.2229H44.2229L47.0446 3.09181Z" fill="#35CC00"/>
<path d="M79.0446 3.09181C79.335 2.15213 80.665 2.15213 80.9554 3.09181L83.7771 12.2229H93.0437C94.0002 12.2229 94.4109 13.4369 93.6508 14.0176L86.1115 19.7771L88.9648 29.0108C89.2523 29.941 88.176 30.6918 87.4024 30.1007L80 24.4458L72.5977 30.1007C71.824 30.6918 70.7477 29.941 71.0352 29.0108L73.8885 19.7771L66.3492 14.0176C65.5891 13.4369 65.9998 12.2229 66.9563 12.2229H76.2229L79.0446 3.09181Z" fill="#35CC00"/>
<path d="M111.045 3.09181C111.335 2.15213 112.665 2.15213 112.955 3.09181L115.777 12.2229H125.044C126 12.2229 126.411 13.4369 125.651 14.0176L118.111 19.7771L120.965 29.0108C121.252 29.941 120.176 30.6918 119.402 30.1007L112 24.4458L104.598 30.1007C103.824 30.6918 102.748 29.941 103.035 29.0108L105.889 19.7771L98.3492 14.0176C97.5891 13.4369 97.9998 12.2229 98.9563 12.2229H108.223L111.045 3.09181Z" fill="#35CC00"/>
<path d="M143.045 3.09181C143.335 2.15213 144.665 2.15213 144.955 3.09181L147.777 12.2229H157.044C158 12.2229 158.411 13.4369 157.651 14.0176L150.111 19.7771L152.965 29.0108C153.252 29.941 152.176 30.6918 151.402 30.1007L144 24.4458L136.598 30.1007C135.824 30.6918 134.748 29.941 135.035 29.0108L137.889 19.7771L130.349 14.0176C129.589 13.4369 130 12.2229 130.956 12.2229H140.223L143.045 3.09181Z" fill="#35CC00"/>
</svg>
