<svg width="844" height="766" viewBox="0 0 844 766" fill="none" xmlns="http://www.w3.org/2000/svg">
<path d="M714.224 310.186H714.161C714.161 309.734 714.224 309.283 714.224 308.831C714.224 247.24 665.28 197.258 604.827 197.258C597.049 197.258 589.461 198.097 582.189 199.709C560.499 145.922 508.71 108 448.13 108C402.664 108 362.131 129.412 335.572 162.819C317.94 153.674 298.441 148.901 278.66 148.889C213.212 148.889 159.462 199.709 153.202 264.783C82.0624 268.652 24.9611 328.115 24.0125 401.959C23.0008 478.835 83.3903 542.038 158.767 543.005C164.647 543.07 170.339 542.683 176.03 541.973C205.181 604.661 267.721 648 340.251 648C384.01 648 424.101 632.199 455.466 605.951C479.432 624.073 509.026 634.908 541.149 634.908C607.04 634.908 662.498 589.827 679.761 528.236C690.637 531.913 702.209 533.976 714.287 533.976C774.866 533.976 824 483.865 824 422.081C823.937 360.297 774.866 310.186 714.224 310.186Z" fill="url(#paint0_radial_1927_4098)"/>
<circle cx="424" cy="378" r="288" stroke="#A6F4A9" stroke-width="4"/>
<circle cx="424" cy="378" r="228" stroke="#E1FFE3" stroke-width="4"/>
<circle cx="424" cy="378" r="168" stroke="white" stroke-width="4"/>
<path d="M318.508 324H329.008C335.968 324 339.088 327.6 337.408 334.44L332.128 355.56C330.388 362.46 325.468 366 318.568 366H308.008L318.508 324ZM325.108 331.32L318.268 358.68H320.308C322.108 358.68 323.188 357.72 323.668 355.68L329.008 334.26C329.548 332.22 329.008 331.32 327.268 331.32H325.108ZM342.664 352.62L341.584 356.88C341.164 358.68 341.644 359.76 342.904 359.76C344.164 359.76 345.364 358.68 345.784 356.88L346.384 354.42H354.364L353.824 356.46C352.324 362.64 347.344 366.6 341.164 366.6C334.984 366.6 332.164 362.7 333.724 356.46L336.604 344.94C338.164 338.7 342.964 334.8 349.144 334.8C355.264 334.8 358.264 338.76 356.704 344.94L354.784 352.62H342.664ZM344.704 344.52L343.744 348.3H347.944L348.904 344.52C349.324 342.72 348.844 341.64 347.584 341.64C346.324 341.64 345.124 342.72 344.704 344.52ZM359.5 335.4H367.42L364 356.7H364.54L371.74 335.4H379.66L367.6 366H356.32L359.5 335.4ZM383.68 352.62L382.6 356.88C382.18 358.68 382.66 359.76 383.92 359.76C385.18 359.76 386.38 358.68 386.8 356.88L387.4 354.42H395.38L394.84 356.46C393.34 362.64 388.36 366.6 382.18 366.6C376 366.6 373.18 362.7 374.74 356.46L377.62 344.94C379.18 338.7 383.98 334.8 390.16 334.8C396.28 334.8 399.28 338.76 397.72 344.94L395.8 352.62H383.68ZM385.72 344.52L384.76 348.3H388.96L389.92 344.52C390.34 342.72 389.86 341.64 388.6 341.64C387.34 341.64 386.14 342.72 385.72 344.52ZM394.434 366L405.234 322.8H413.214L402.414 366H394.434ZM409.672 344.94C411.112 339 415.612 334.8 422.092 334.8C428.632 334.8 431.212 339.06 429.712 344.94L426.832 356.46C425.392 362.34 420.652 366.6 414.172 366.6C407.692 366.6 405.292 362.4 406.792 356.46L409.672 344.94ZM417.712 344.52L414.592 356.94C414.172 358.68 414.652 359.76 415.912 359.76C417.172 359.76 418.312 358.68 418.732 356.94L421.852 344.52C422.332 342.66 421.792 341.64 420.532 341.64C419.272 341.64 418.192 342.66 417.712 344.52ZM433.986 335.4H441.966L441.006 339.3H441.546C444.306 335.88 446.346 334.8 448.206 334.8C451.806 334.8 453.366 338.34 452.046 343.56L448.446 358.02C447.126 363.18 443.946 366.6 440.586 366.6C438.366 366.6 436.446 365.1 435.846 362.1H435.306L431.286 378.18H423.306L433.986 335.4ZM439.746 344.28L436.506 357.18C436.626 358.38 437.346 359.22 438.306 359.22C439.386 359.22 440.466 358.14 440.826 356.64L443.766 344.76C444.126 343.32 443.646 342.24 442.626 342.24C441.666 342.24 440.466 343.08 439.746 344.28ZM448.339 366L456.019 335.4H463.939L463.099 338.88L463.639 338.82C465.499 336.24 467.719 334.8 469.939 334.8C472.339 334.8 473.779 336.3 474.139 338.88H474.679C476.599 336.24 479.179 334.8 481.459 334.8C484.819 334.8 487.099 337.74 485.779 343.08L480.079 366H472.099L477.559 344.28C477.919 342.78 477.499 341.76 476.479 341.76C475.699 341.76 474.799 342.3 473.839 343.32C473.779 343.44 473.779 343.5 473.779 343.56L468.199 366H460.219L465.679 344.28C466.039 342.78 465.619 341.76 464.599 341.76C463.699 341.76 462.619 342.54 461.839 343.8L456.319 366H448.339ZM493.133 352.62L492.053 356.88C491.633 358.68 492.113 359.76 493.373 359.76C494.633 359.76 495.833 358.68 496.253 356.88L496.853 354.42H504.833L504.293 356.46C502.793 362.64 497.813 366.6 491.633 366.6C485.453 366.6 482.633 362.7 484.193 356.46L487.073 344.94C488.633 338.7 493.433 334.8 499.613 334.8C505.733 334.8 508.733 338.76 507.173 344.94L505.253 352.62H493.133ZM495.173 344.52L494.213 348.3H498.413L499.373 344.52C499.793 342.72 499.313 341.64 498.053 341.64C496.793 341.64 495.593 342.72 495.173 344.52ZM503.827 366L511.447 335.4H519.427L518.527 338.88L519.127 338.82C521.047 336.18 523.327 334.8 525.667 334.8C528.967 334.8 531.007 337.5 529.627 343.08L523.927 366H515.947L521.407 344.22C521.767 342.72 521.287 341.7 520.207 341.7C519.247 341.7 518.167 342.48 517.327 343.68L511.807 366H503.827ZM530.784 342.24L532.464 335.4H535.224L536.844 328.8L544.884 328.32L543.144 335.4H548.304L546.564 342.24H541.464L537.924 356.34C537.324 358.74 538.524 359.52 540.204 359.52C540.804 359.52 541.584 359.4 542.364 359.22L540.744 366.06C538.944 366.42 537.264 366.6 535.824 366.6C530.784 366.6 528.024 364.2 529.884 356.76L533.484 342.24H530.784ZM313.167 397.24L314.847 390.4H317.607L319.227 383.8L327.267 383.32L325.527 390.4H330.687L328.947 397.24H323.847L320.307 411.34C319.707 413.74 320.907 414.52 322.587 414.52C323.187 414.52 323.967 414.4 324.747 414.22L323.127 421.06C321.327 421.42 319.647 421.6 318.207 421.6C313.167 421.6 310.407 419.2 312.267 411.76L315.867 397.24H313.167ZM335.399 407.62L334.319 411.88C333.899 413.68 334.379 414.76 335.639 414.76C336.899 414.76 338.099 413.68 338.519 411.88L339.119 409.42H347.099L346.559 411.46C345.059 417.64 340.079 421.6 333.899 421.6C327.719 421.6 324.899 417.7 326.459 411.46L329.339 399.94C330.899 393.7 335.699 389.8 341.879 389.8C347.999 389.8 350.999 393.76 349.439 399.94L347.519 407.62H335.399ZM337.439 399.52L336.479 403.3H340.679L341.639 399.52C342.059 397.72 341.579 396.64 340.319 396.64C339.059 396.64 337.859 397.72 337.439 399.52ZM359.413 399.52L356.293 411.94C355.813 413.68 356.353 414.76 357.613 414.76C358.873 414.76 360.013 413.68 360.433 411.94L361.693 407.02H369.613L368.533 411.46C366.973 417.64 362.053 421.6 355.873 421.6C349.693 421.6 346.873 417.7 348.433 411.46L351.313 399.94C352.873 393.7 357.613 389.8 363.793 389.8C369.973 389.8 372.913 393.76 371.413 399.94L370.273 404.38H362.353L363.553 399.52C363.973 397.72 363.493 396.64 362.233 396.64C360.973 396.64 359.833 397.72 359.413 399.52ZM368.007 421L378.807 377.8H386.727L382.707 393.88H383.307C385.167 391.18 387.447 389.8 389.847 389.8C393.147 389.8 395.187 392.5 393.807 398.08L388.107 421H380.127L385.527 399.34C385.887 397.84 385.407 396.82 384.327 396.82C383.367 396.82 382.287 397.6 381.507 398.8L375.987 421H368.007ZM389.98 421L397.6 390.4H405.58L404.68 393.88L405.28 393.82C407.2 391.18 409.48 389.8 411.82 389.8C415.12 389.8 417.16 392.5 415.78 398.08L410.08 421H402.1L407.56 399.22C407.92 397.72 407.44 396.7 406.36 396.7C405.4 396.7 404.32 397.48 403.48 398.68L397.96 421H389.98ZM417.172 399.94C418.612 394 423.112 389.8 429.592 389.8C436.132 389.8 438.712 394.06 437.212 399.94L434.332 411.46C432.892 417.34 428.152 421.6 421.672 421.6C415.192 421.6 412.792 417.4 414.292 411.46L417.172 399.94ZM425.212 399.52L422.092 411.94C421.672 413.68 422.152 414.76 423.412 414.76C424.672 414.76 425.812 413.68 426.232 411.94L429.352 399.52C429.832 397.66 429.292 396.64 428.032 396.64C426.772 396.64 425.692 397.66 425.212 399.52ZM433.926 421L444.726 377.8H452.706L441.906 421H433.926ZM449.164 399.94C450.604 394 455.104 389.8 461.584 389.8C468.124 389.8 470.704 394.06 469.204 399.94L466.324 411.46C464.884 417.34 460.144 421.6 453.664 421.6C447.184 421.6 444.784 417.4 446.284 411.46L449.164 399.94ZM457.204 399.52L454.084 411.94C453.664 413.68 454.144 414.76 455.404 414.76C456.664 414.76 457.804 413.68 458.224 411.94L461.344 399.52C461.824 397.66 461.284 396.64 460.024 396.64C458.764 396.64 457.684 397.66 457.204 399.52ZM493.518 390.4L485.058 424.36C483.558 430.18 479.058 433.6 472.818 433.6C466.518 433.6 463.638 430.12 465.078 424.42L465.438 422.92H473.418L473.178 423.94C472.698 425.68 473.178 426.76 474.378 426.76C475.638 426.76 476.778 425.68 477.198 423.82L478.758 417.52H478.218C476.358 420.16 473.958 421.6 471.678 421.6C468.018 421.6 466.458 418.18 467.778 412.96L471.498 398.08C472.758 393.04 475.938 389.8 479.538 389.8C481.818 389.8 483.558 391.18 484.098 393.88H484.698L485.538 390.4H493.518ZM483.438 398.92C483.258 397.66 482.598 396.82 481.698 396.82C480.618 396.82 479.538 397.9 479.118 399.34L475.998 411.88C475.638 413.44 476.058 414.64 477.078 414.64C478.038 414.64 479.238 413.74 480.018 412.48L483.438 398.92ZM496.833 383.44C497.553 380.74 499.533 379.42 502.293 379.42C505.113 379.42 506.553 380.8 505.833 383.44C505.173 386.2 503.133 387.52 500.313 387.52C497.553 387.52 496.173 386.2 496.833 383.44ZM495.693 390.4H503.613L495.993 421H488.013L495.693 390.4ZM509.305 407.62L508.225 411.88C507.805 413.68 508.285 414.76 509.545 414.76C510.805 414.76 512.005 413.68 512.425 411.88L513.025 409.42H521.005L520.465 411.46C518.965 417.64 513.985 421.6 507.805 421.6C501.625 421.6 498.805 417.7 500.365 411.46L503.245 399.94C504.805 393.7 509.605 389.8 515.785 389.8C521.905 389.8 524.905 393.76 523.345 399.94L521.425 407.62H509.305ZM511.345 399.52L510.385 403.3H514.585L515.545 399.52C515.965 397.72 515.485 396.64 514.225 396.64C512.965 396.64 511.765 397.72 511.345 399.52ZM544.899 401.2H536.979L537.399 399.52C537.819 397.72 537.459 396.7 536.139 396.7C534.939 396.7 533.859 397.66 533.439 399.22V399.34C533.019 401.02 533.379 401.68 535.359 402.46L538.719 404.2C542.079 405.7 543.339 407.74 542.319 411.82L542.079 412.66C540.879 417.4 536.079 421.6 529.719 421.6C523.359 421.6 520.899 417.4 522.279 411.82L522.699 410.2H530.619L530.259 411.82C529.779 413.56 530.259 414.64 531.519 414.64C532.779 414.64 533.979 413.62 534.339 412.12V411.94C534.819 410.14 534.459 409.54 532.239 408.7L528.699 407.08C525.399 405.64 524.439 403.54 525.459 399.52L525.639 398.8C526.839 393.94 531.399 389.8 537.759 389.8C544.119 389.8 546.699 394 545.319 399.52L544.899 401.2Z" fill="white"/>
<g filter="url(#filter0_d_1927_4098)">
<path d="M350.472 614.339C351.336 603.973 360.001 596 370.403 596H480.264C491.965 596 501.167 606.001 500.195 617.661L493.528 697.661C492.664 708.027 483.999 716 473.597 716H363.736C352.035 716 342.833 705.999 343.805 694.339L350.472 614.339Z" fill="white"/>
</g>
<g clip-path="url(#clip0_1927_4098)">
<path fill-rule="evenodd" clip-rule="evenodd" d="M481.299 643.236L486.734 643.267C486.734 643.267 476.63 657.223 475.805 658.36C475.537 658.728 475.13 659.126 474.923 659.618C474.401 660.856 473.865 663.571 473.865 663.571L468.893 663.596C468.893 663.596 469.666 660.766 469.635 659.259C469.607 657.942 468.947 656.626 468.577 655.306C468.203 653.969 467.695 651.352 467.695 651.352H472.808L473.513 654.227L481.299 643.236Z" fill="#1A1918"/>
<path fill-rule="evenodd" clip-rule="evenodd" d="M471.009 646.179C472.012 646.796 472.627 650.196 472.627 650.196C472.627 650.196 467.379 650.274 464.524 650.274H462.056L459.059 663.571H454.475C454.475 663.571 457.328 649.121 458.001 646.501C458.219 645.653 459.496 645.798 461.652 645.798H465.095C467.318 645.798 469.916 645.509 471.009 646.179ZM449.672 652.655C449.672 652.655 449.814 651.802 449.187 650.813C448.651 649.971 448.156 649.775 446.745 649.73C442.763 649.602 442.841 652.61 442.841 652.61L449.672 652.655ZM453.99 649.21C454.574 651.356 453.462 656.398 453.462 656.398C453.462 656.398 447.653 656.299 444.471 656.398C443.482 656.429 442.298 656.288 442.003 656.758C441.589 657.415 442.155 658.427 442.634 658.854C443.186 659.347 444.261 659.403 444.648 659.453C447.23 659.787 452.635 659.539 452.635 659.539L451.699 663.765C451.699 663.765 444.061 664.155 440.24 663.226C439.486 663.043 438.779 662.673 438.301 662.148C438.171 662.004 438.058 661.809 437.934 661.639C437.836 661.504 437.549 661.061 437.42 660.71C436.547 658.34 437.522 653.8 438.477 651.367C438.588 651.085 438.728 650.727 438.874 650.423C439.057 650.044 439.213 649.617 439.359 649.39C439.457 649.234 439.579 649.133 439.682 648.986C439.8 648.812 439.937 648.643 440.064 648.492C440.417 648.075 440.817 647.78 441.298 647.414C442.89 646.199 445.77 645.256 449.231 645.617C450.534 645.753 452.501 646.228 453.462 647.594C453.719 647.958 453.846 648.682 453.99 649.21ZM432.969 645.782L437.413 645.755C437.413 645.755 434.936 657.731 433.674 663.571H428.561C424.988 663.571 421.806 664.022 420.452 661.415C419.139 658.883 420.393 654.72 420.981 651.891C421.397 649.89 422.274 645.798 422.274 645.798L426.878 645.755C426.878 645.755 425.577 652.125 425.036 655.306C424.842 656.445 424.442 657.518 424.86 658.36C425.256 659.162 425.812 659.219 427.504 659.259C428.04 659.272 429.796 659.259 429.796 659.259L432.969 645.782ZM412.167 654.407C412.632 652.722 413.311 650.894 413.225 649.376C413.131 647.752 411.795 646.273 410.933 645.962C408.337 645.028 405.906 646.334 404.939 647.399C403.69 648.779 403.266 650.391 402.824 652.611C402.495 654.258 402.225 655.997 402.824 657.282C403.885 659.553 407.194 659.057 410.757 659.079C411.286 657.634 411.723 656.012 412.167 654.407ZM418.337 647.759C418.845 651.521 416.897 655.674 415.555 659.286C416.923 659.411 418.122 659.266 418.208 659.37C418.298 659.505 417.292 663.681 416.941 663.692C415.855 663.72 412.257 663.751 410.757 663.751C405.861 663.751 401.282 664.076 398.946 661.595C397.998 660.587 397.342 658.858 397.183 657.641C396.918 655.611 397.25 653.376 397.712 651.532C398.13 649.868 398.665 648.298 399.475 646.86C401.532 643.2 405.11 640.483 411.109 641.11C412.273 641.233 413.944 641.752 414.988 642.368C415.06 642.411 415.312 642.616 415.37 642.652C416.781 643.567 418.066 645.75 418.337 647.759ZM396.677 645.804C396.381 647.178 396.085 648.736 395.773 650.095H390.837C391.219 648.589 391.512 647.092 391.894 645.782C393.474 645.782 394.942 645.804 396.677 645.804M390.66 651.353H395.42C394.798 654.864 393.566 660.527 392.6 664.47C391.995 666.937 391.591 668.737 389.955 670.04C389.809 670.157 389.724 670.101 389.603 670.219C389.301 670.513 387.907 670.852 387.135 670.938C385.88 671.077 384.461 670.956 382.918 670.924C383.322 669.42 383.778 667.614 384.138 666.266C387.898 666.73 387.993 663.107 388.721 659.618C389.143 657.602 390.419 652.161 390.66 651.353Z" fill="#1A1918"/>
<path fill-rule="evenodd" clip-rule="evenodd" d="M379.553 660.517L379.451 660.786C377.713 664.236 374.633 666.353 370.241 666.446C368.187 666.489 366.23 665.952 364.952 665.368C362.193 664.105 359.873 661.762 358.606 659.259C356.788 655.67 356.46 650.679 360.24 646.95C360.298 646.95 359.781 647.759 359.84 647.759L359.736 648.104C357.012 656.795 365.403 664.243 373.56 663.391C375.52 663.187 378.02 662.092 379.553 660.517Z" fill="#21609B"/>
<path fill-rule="evenodd" clip-rule="evenodd" d="M374.618 656.923C376.67 656.937 378.814 655.959 380.083 654.587C378.973 657.46 375.757 659.307 371.445 658.72C367.835 658.227 364.396 654.524 364.041 650.813C363.782 648.113 364.706 646.501 366.227 644.546C365.698 645.569 365.501 646.357 365.452 646.86C364.874 652.702 370.03 656.892 374.618 656.923Z" fill="#21609B"/>
<path fill-rule="evenodd" clip-rule="evenodd" d="M379.875 649.667C379.557 650.413 377.72 651.821 376.909 651.997C373.697 652.695 371.64 651.142 370.562 649.376C370.402 649.112 370.106 648.391 370.053 648.208C369.635 646.76 369.827 644.569 371.074 643.435C370.698 644.514 370.643 645.766 370.841 646.58C370.961 647.072 371.326 647.932 371.691 648.472C372.355 649.457 372.777 649.696 373.63 650.219C374.014 650.454 374.427 650.643 374.605 650.695C375.414 650.937 377.122 651.577 379.875 649.667Z" fill="#21609B"/>
</g>
<g filter="url(#filter1_d_1927_4098)">
<path d="M127.472 531.339C128.336 520.973 137.001 513 147.403 513H257.264C268.965 513 278.167 523.001 277.195 534.661L270.528 614.661C269.664 625.027 260.999 633 250.597 633H140.736C129.035 633 119.833 622.999 120.805 611.339L127.472 531.339Z" fill="white"/>
</g>
<g clip-path="url(#clip1_1927_4098)">
<path fill-rule="evenodd" clip-rule="evenodd" d="M134.244 601.502H138.555V584.011L145.203 599.265C145.992 601.094 147.046 601.739 149.152 601.739C151.258 601.739 152.311 601.094 153.101 599.265L159.748 584.011V601.502H164.026V584.044C164.026 582.35 163.368 581.535 162.019 581.094C158.761 580.044 156.555 580.959 155.569 583.231L149.053 598.248L142.735 583.231C141.781 580.959 139.543 580.044 136.285 581.094C134.903 581.535 134.245 582.349 134.245 584.044V601.502H134.244ZM167.613 587.264H171.891V596.891C171.858 597.433 172.055 598.654 174.425 598.688C175.61 598.721 183.672 598.688 183.738 598.688V587.23H188.049C188.081 587.23 188.049 602.856 188.049 602.924C188.081 606.788 183.409 607.601 181.27 607.67H167.712V604.687C167.712 604.687 181.237 604.721 181.27 604.687C184.034 604.416 183.705 602.993 183.705 602.518V601.365H174.59C170.344 601.298 167.645 599.399 167.613 597.195C167.613 596.992 167.712 587.367 167.613 587.264ZM260.052 576.18C257.42 576.112 255.412 576.349 253.667 577.128C253.175 577.332 252.417 577.332 252.319 577.976C252.582 578.246 252.647 578.687 252.845 579.061C253.273 579.74 253.965 580.654 254.589 581.128C255.248 581.672 255.939 582.213 256.663 582.688C257.979 583.501 259.427 583.942 260.644 584.757C261.401 585.23 262.125 585.842 262.849 586.384C263.178 586.655 263.442 587.062 263.869 587.231V587.164C263.639 586.858 263.573 586.418 263.375 586.077L262.388 585.061C261.435 583.773 260.216 582.62 258.932 581.672C257.912 580.926 255.609 579.875 255.181 578.655C255.148 578.621 255.115 578.621 255.115 578.586C255.839 578.484 256.695 578.214 257.353 578.043C258.473 577.739 259.492 577.806 260.643 577.501C261.171 577.331 261.697 577.196 262.224 577.027V576.721C261.632 576.111 261.237 575.264 260.579 574.722C258.901 573.23 257.057 571.772 255.182 570.552C254.128 569.84 252.845 569.4 251.727 568.824C251.364 568.654 250.705 568.553 250.444 568.214C249.85 567.468 249.555 566.485 249.094 565.603C248.128 563.67 247.228 561.702 246.396 559.705C245.837 558.383 245.441 557.061 244.751 555.84C241.328 550.077 237.675 546.586 231.982 543.162C230.765 542.45 229.318 542.146 227.77 541.773C226.948 541.704 226.125 541.671 225.302 541.602C224.808 541.399 224.282 540.755 223.788 540.45C221.912 539.23 217.075 536.552 215.692 540.077C214.803 542.28 217.008 544.45 217.798 545.569C218.358 546.348 219.048 547.231 219.444 548.111C219.706 548.687 219.739 549.264 219.97 549.874C220.529 551.399 220.99 553.06 221.681 554.45C222.042 555.161 222.437 555.907 222.898 556.552C223.161 556.925 223.655 557.094 223.72 557.704C223.259 558.382 223.227 559.399 222.964 560.246C221.812 564.077 222.24 568.789 223.951 571.636C224.478 572.483 225.695 574.347 227.407 573.636C228.888 572.992 228.559 571.093 228.986 569.365C229.086 568.992 229.02 568.72 229.216 568.449V568.517C229.644 569.466 230.105 570.381 230.566 571.296C231.553 572.957 233.331 574.72 234.845 575.872C235.601 576.482 236.226 577.533 237.246 577.871V577.803H237.148C236.951 577.499 236.654 577.363 236.424 577.125C235.832 576.515 235.174 575.769 234.68 575.092C233.331 573.193 232.114 571.092 230.995 568.922C230.467 567.871 230.006 566.719 229.58 565.668C229.414 565.261 229.414 564.651 229.053 564.413C228.559 565.193 227.869 565.837 227.472 566.753C226.88 568.211 226.782 570.007 226.585 571.838C226.452 571.905 226.485 571.871 226.419 571.939C225.367 571.668 225.004 570.549 224.61 569.6C223.656 567.193 223.458 563.329 224.313 560.549C224.543 559.838 225.565 557.6 225.137 556.922C224.938 556.278 224.313 555.872 223.952 555.364C223.491 554.753 223.063 553.94 222.735 553.228C221.946 551.329 221.583 549.228 220.726 547.33C220.299 546.415 219.641 545.499 219.082 544.72C218.456 543.804 217.765 543.161 217.272 542.076C217.108 541.703 216.878 541.093 217.108 540.685C217.206 540.414 217.306 540.312 217.567 540.211C217.995 539.872 219.214 540.347 219.673 540.515C220.858 541.058 221.878 541.533 222.898 542.244C223.393 542.583 223.887 543.227 224.479 543.397H225.138C226.191 543.634 227.375 543.465 228.362 543.77C230.106 544.312 231.685 545.16 233.101 546.109C237.445 548.922 240.967 552.922 243.401 557.702C243.796 558.481 243.96 559.193 244.29 560.007C244.982 561.669 245.869 563.363 246.56 564.956C247.219 566.583 247.91 568.211 248.864 569.532C249.391 570.244 251.365 570.617 252.254 570.989C252.879 571.26 253.898 571.565 254.492 571.939C255.643 572.616 256.729 573.464 257.815 574.244C258.341 574.621 259.985 575.468 260.052 576.18Z" fill="#00678C"/>
<path fill-rule="evenodd" clip-rule="evenodd" d="M226.485 546.723C226.031 546.723 225.578 546.78 225.137 546.893V546.961H225.235C225.498 547.503 225.959 547.876 226.288 548.35C226.518 548.893 226.782 549.435 227.012 549.978L227.11 549.876C227.571 549.571 227.769 549.029 227.769 548.182C227.605 547.978 227.571 547.741 227.408 547.503C227.177 547.164 226.782 546.994 226.485 546.723Z" fill="#00678C"/>
<path fill-rule="evenodd" clip-rule="evenodd" d="M191.373 601.502H203.713C205.161 601.502 206.576 601.197 207.695 600.654C209.537 599.774 210.459 598.586 210.459 597.027V593.773C210.459 592.52 209.406 591.3 207.4 590.52C206.313 590.079 204.997 589.875 203.713 589.875H198.514C196.77 589.875 195.947 589.332 195.75 588.147C195.717 588.012 195.717 587.876 195.717 587.74V585.74C195.717 585.605 195.717 585.503 195.75 585.368C195.947 584.452 196.408 584.181 197.922 584.046C198.053 584.046 198.218 584.012 198.35 584.012H210.624V581.063H198.547C196.803 581.063 195.914 581.198 195.092 581.435C192.525 582.282 191.406 583.571 191.406 585.843V588.419C191.406 590.419 193.611 592.113 197.264 592.52C197.692 592.52 198.086 592.554 198.514 592.554H202.957C203.122 592.554 203.285 592.554 203.417 592.588C204.8 592.724 205.359 592.961 205.787 593.468C206.017 593.739 206.116 593.977 206.116 594.282V596.859C206.116 597.164 205.919 597.571 205.491 597.909C205.128 598.249 204.502 598.453 203.68 598.52C203.516 598.52 203.385 598.554 203.219 598.554H191.373V601.502ZM237.247 596.348C237.247 599.399 239.419 601.094 243.862 601.433C244.256 601.467 244.684 601.502 245.079 601.502H256.268V598.551H245.012C242.478 598.551 241.524 597.907 241.524 596.348V581.062H237.246V596.348H237.247ZM213.191 596.518V586.01C213.191 583.332 215 581.706 218.62 581.197C218.983 581.128 219.411 581.128 219.772 581.128H227.933C228.327 581.128 228.69 581.128 229.118 581.197C232.705 581.706 234.547 583.332 234.547 586.01V596.518C234.547 598.688 233.758 599.84 231.98 600.586L236.226 604.518H231.224L227.801 601.366L224.345 601.569H219.771C218.982 601.569 218.159 601.468 217.237 601.197C214.507 600.45 213.191 598.959 213.191 596.518ZM217.831 596.248C217.831 596.417 217.864 596.552 217.897 596.723C218.161 597.942 219.279 598.621 220.957 598.621H224.874L221.287 595.298H226.289L229.414 598.18C229.975 597.875 230.369 597.4 230.501 596.79C230.534 596.62 230.534 596.486 230.534 596.349V586.248C230.534 586.146 230.534 586.011 230.501 585.875C230.237 584.723 229.119 584.079 227.473 584.079H220.957C219.049 584.079 217.832 584.926 217.832 586.248L217.831 596.248ZM258.243 601.502H258.868V599.061H259.724V598.552H257.387V599.061H258.243V601.502ZM263.047 601.502H263.606V598.552H262.751L261.995 600.587L261.239 598.552H260.35V601.502H260.942V599.265L261.765 601.502H262.192L263.015 599.265H263.048V601.502H263.047Z" fill="#CE8B2C"/>
</g>
<g filter="url(#filter2_d_1927_4098)">
<path d="M573.472 501.339C574.336 490.973 583.001 483 593.403 483H703.264C714.965 483 724.167 493.001 723.195 504.661L716.528 584.661C715.664 595.027 706.999 603 696.597 603H586.736C575.035 603 565.833 592.999 566.805 581.339L573.472 501.339Z" fill="white"/>
</g>
<g clip-path="url(#clip2_1927_4098)">
<path d="M645 578.58C680.899 578.58 710 562.556 710 542.79C710 523.024 680.899 507 645 507C609.101 507 580 523.024 580 542.79C580 562.556 609.101 578.58 645 578.58Z" fill="#8993BE"/>
<path fill-rule="evenodd" clip-rule="evenodd" d="M598.254 563.982L605.378 525.837H621.849C628.973 526.308 632.534 530.075 632.534 536.668C632.534 547.97 624.076 554.563 616.507 554.092H608.494L606.713 563.982H598.254ZM610.274 547.029L612.501 532.901H618.288C621.405 532.901 623.63 534.313 623.63 537.139C623.185 545.145 619.624 546.558 615.617 547.029H610.274ZM630.879 554.092L638.002 515.948H646.462L644.681 525.837H652.694C659.818 526.308 662.489 530.075 661.598 534.784L658.482 554.092H649.578L652.694 536.668C653.139 534.313 653.139 532.901 650.023 532.901H643.345L639.338 554.092H630.879ZM657.912 563.982L665.035 525.837H681.507C688.631 526.308 692.193 530.075 692.193 536.668C692.193 547.97 683.733 554.563 676.165 554.092H668.151L666.37 563.982H657.912ZM669.932 547.029L672.158 532.901H677.946C681.062 532.901 683.288 534.313 683.288 537.139C682.843 545.145 679.281 546.558 675.275 547.029H669.932H669.932Z" fill="#232531"/>
</g>
<g filter="url(#filter3_d_1927_4098)">
<path d="M56.3977 351.546C57.16 341.092 65.8634 333 76.3448 333H167.489C179.107 333 188.281 342.867 187.436 354.454L181.602 434.454C180.84 444.908 172.137 453 161.655 453H70.5114C58.8928 453 49.7194 443.133 50.5644 431.546L56.3977 351.546Z" fill="white"/>
</g>
<g clip-path="url(#clip3_1927_4098)">
<path d="M74 348H164V438H74V348Z" fill="#F0DB4F"/>
<path d="M156.635 416.535C155.977 412.429 153.299 408.981 145.368 405.764C142.613 404.498 139.542 403.591 138.627 401.504C138.302 400.289 138.259 399.605 138.464 398.869C139.055 396.482 141.903 395.738 144.162 396.422C145.616 396.91 146.994 398.03 147.824 399.818C151.708 397.303 151.699 397.32 154.411 395.592C153.419 394.052 152.888 393.342 152.238 392.684C149.902 390.074 146.72 388.731 141.63 388.834C140.748 388.945 139.859 389.065 138.978 389.176C136.437 389.818 134.016 391.152 132.595 392.94C128.335 397.774 129.55 406.235 134.734 409.717C139.842 413.55 147.344 414.422 148.303 418.007C149.235 422.396 145.077 423.816 140.945 423.311C137.9 422.678 136.206 421.129 134.375 418.315C131.004 420.265 131.004 420.265 127.539 422.259C128.361 424.055 129.225 424.868 130.602 426.425C137.121 433.038 153.436 432.713 156.362 422.703C156.481 422.361 157.269 420.068 156.635 416.535ZM122.928 389.364H114.51C114.51 396.636 114.476 403.856 114.476 411.128C114.476 415.757 114.715 420 113.962 421.3C112.73 423.858 109.539 423.542 108.085 423.046C106.605 422.318 105.852 421.283 104.98 419.82C104.74 419.401 104.56 419.076 104.5 419.05C102.216 420.445 99.9405 421.848 97.6562 423.242C98.7942 425.578 100.471 427.605 102.618 428.923C105.826 430.848 110.138 431.438 114.647 430.403C117.581 429.547 120.113 427.777 121.44 425.082C123.356 421.548 122.945 417.271 122.928 412.54C122.971 404.823 122.928 397.106 122.928 389.364Z" fill="#323330"/>
</g>
<g filter="url(#filter4_d_1927_4098)">
<path d="M643.472 321.339C644.336 310.973 653.001 303 663.403 303H773.264C784.965 303 794.167 313.001 793.195 324.661L786.528 404.661C785.664 415.027 776.999 423 766.597 423H656.736C645.035 423 635.833 412.999 636.805 401.339L643.472 321.339Z" fill="white"/>
</g>
<g clip-path="url(#clip4_1927_4098)">
<path d="M666.181 335.13H763.819C769.998 335.13 775 339.315 775 344.485V375.668C775 380.838 769.998 385.023 763.819 385.023H728.805L733.611 394.87L712.474 385.023H666.23C660.051 385.023 655.049 380.838 655.049 375.668V344.485C655 339.356 660.001 335.13 666.181 335.13Z" fill="#9B5C8F"/>
<path d="M661.88 343.657C662.563 342.881 663.587 342.474 664.952 342.392C667.439 342.228 668.853 343.207 669.194 345.329C670.706 353.856 672.364 361.077 674.119 366.993L684.797 349.98C685.773 348.43 686.992 347.614 688.455 347.532C690.601 347.41 691.917 348.552 692.453 350.959C693.672 356.385 695.233 360.995 697.085 364.912C698.353 354.549 700.499 347.083 703.522 342.474C704.253 341.331 705.326 340.76 706.74 340.678C707.862 340.597 708.886 340.882 709.812 341.494C710.738 342.106 711.226 342.881 711.324 343.82C711.372 344.554 711.226 345.166 710.836 345.778C708.934 348.715 707.374 353.652 706.106 360.506C704.887 367.156 704.448 372.337 704.741 376.05C704.839 377.069 704.643 377.967 704.156 378.742C703.57 379.64 702.693 380.129 701.571 380.211C700.304 380.292 698.987 379.803 697.719 378.701C693.185 374.825 689.576 369.032 686.943 361.322C683.774 366.544 681.433 370.46 679.922 373.071C677.045 377.681 674.607 380.048 672.559 380.17C671.242 380.252 670.121 379.313 669.146 377.355C666.659 372.011 663.977 361.689 661.101 346.39C660.905 345.329 661.198 344.391 661.88 343.657ZM766.667 350.062C764.912 347.492 762.327 345.941 758.865 345.329C757.939 345.166 757.062 345.084 756.232 345.084C751.551 345.084 747.748 347.124 744.774 351.204C742.238 354.672 740.97 358.507 740.97 362.709C740.97 365.85 741.75 368.543 743.311 370.787C745.066 373.357 747.651 374.907 751.112 375.519C752.039 375.682 752.916 375.764 753.746 375.764C758.475 375.764 762.278 373.724 765.204 369.644C767.74 366.136 769.007 362.301 769.007 358.099C769.056 354.917 768.227 352.265 766.667 350.062ZM760.523 361.363C759.841 364.055 758.621 366.054 756.817 367.4C755.403 368.461 754.087 368.91 752.868 368.706C751.697 368.502 750.722 367.645 749.991 366.054C749.405 364.789 749.113 363.525 749.113 362.341C749.113 361.322 749.211 360.302 749.454 359.364C749.894 357.691 750.722 356.059 752.039 354.509C753.648 352.509 755.355 351.694 757.11 351.979C758.28 352.183 759.256 353.04 759.987 354.631C760.572 355.896 760.864 357.16 760.864 358.343C760.864 359.404 760.767 360.424 760.523 361.363ZM736.143 350.062C734.387 347.492 731.754 345.941 728.341 345.329C727.415 345.166 726.537 345.084 725.708 345.084C721.027 345.084 717.224 347.124 714.249 351.204C711.714 354.672 710.446 358.507 710.446 362.709C710.446 365.85 711.226 368.543 712.786 370.787C714.542 373.357 717.126 374.907 720.588 375.519C721.515 375.682 722.392 375.764 723.221 375.764C727.951 375.764 731.754 373.724 734.68 369.644C737.216 366.136 738.483 362.301 738.483 358.099C738.483 354.917 737.703 352.265 736.143 350.062ZM729.95 361.363C729.268 364.055 728.048 366.054 726.244 367.4C724.83 368.461 723.514 368.91 722.294 368.706C721.124 368.502 720.149 367.645 719.417 366.054C718.833 364.789 718.54 363.525 718.54 362.341C718.54 361.322 718.638 360.302 718.881 359.364C719.32 357.691 720.149 356.059 721.466 354.509C723.075 352.509 724.782 351.694 726.537 351.979C727.707 352.183 728.683 353.04 729.414 354.631C729.999 355.896 730.291 357.16 730.291 358.343C730.341 359.404 730.194 360.424 729.95 361.363Z" fill="white"/>
</g>
<g filter="url(#filter5_d_1927_4098)">
<path d="M549.398 141.546C550.16 131.092 558.863 123 569.345 123H660.489C672.107 123 681.281 132.867 680.436 144.454L674.602 224.454C673.84 234.908 665.137 243 654.655 243H563.511C551.893 243 542.719 233.133 543.564 221.546L549.398 141.546Z" fill="white"/>
</g>
<path d="M605.86 223.164L603.814 231.414C603.638 232.14 603.858 232.536 604.408 232.536C604.98 232.536 605.442 232.118 605.618 231.414L606.498 227.894H609.578L608.764 231.172C608.104 233.746 606.256 235.22 603.726 235.22C601.196 235.22 600.14 233.768 600.8 231.172L602.736 223.384C603.374 220.788 605.156 219.358 607.664 219.358C610.238 219.358 611.338 220.832 610.7 223.384L609.886 226.684H606.784L607.664 223.164C607.862 222.416 607.642 222.042 607.07 222.042C606.498 222.042 606.058 222.438 605.86 223.164ZM618.94 225.056H615.86L616.322 223.186C616.52 222.46 616.3 222.064 615.772 222.064C615.2 222.064 614.76 222.482 614.584 223.186L614.32 224.22C614.1 225.144 614.232 225.474 615.75 226.288L616.41 226.618C617.862 227.366 618.126 228.422 617.532 230.82L617.444 231.172C616.806 233.746 614.958 235.22 612.406 235.22C609.876 235.22 608.82 233.79 609.48 231.172L609.876 229.544H612.956L612.494 231.414C612.318 232.14 612.538 232.536 613.088 232.536C613.66 232.536 614.122 232.118 614.298 231.414L614.584 230.314C614.804 229.39 614.65 229.082 613.242 228.312L612.494 227.938C611.042 227.168 610.778 226.068 611.372 223.67L611.482 223.23C612.098 220.81 613.858 219.38 616.344 219.38C618.896 219.38 619.996 220.854 619.358 223.406L618.94 225.056ZM627.62 225.056H624.54L625.002 223.186C625.2 222.46 624.98 222.064 624.452 222.064C623.88 222.064 623.44 222.482 623.264 223.186L623 224.22C622.78 225.144 622.912 225.474 624.43 226.288L625.09 226.618C626.542 227.366 626.806 228.422 626.212 230.82L626.124 231.172C625.486 233.746 623.638 235.22 621.086 235.22C618.556 235.22 617.5 233.79 618.16 231.172L618.556 229.544H621.636L621.174 231.414C620.998 232.14 621.218 232.536 621.768 232.536C622.34 232.536 622.802 232.118 622.978 231.414L623.264 230.314C623.484 229.39 623.33 229.082 621.922 228.312L621.174 227.938C619.722 227.168 619.458 226.068 620.052 223.67L620.162 223.23C620.778 220.81 622.538 219.38 625.024 219.38C627.576 219.38 628.676 220.854 628.038 223.406L627.62 225.056Z" fill="black"/>
<g clip-path="url(#clip5_1927_4098)">
<path d="M582.861 204.619L577 133.134L647 133.278L640.802 204.619L612.264 212.866L582.861 204.619Z" fill="#1B73BA"/>
<path d="M612.266 205.962V139.942L641.092 140.038L635.952 199.106L612.266 205.962Z" fill="#1C88C7"/>
<path d="M633.932 148.381H589.588L590.789 157.01H611.832L591.126 165.88L592.326 174.223H622.835L621.729 185.873L611.4 187.887L602.032 185.49L601.311 178.873H592.711L593.864 192.634L612.312 197.763L629.993 192.154L632.251 165.257H613.561L633.932 156.819L633.932 148.381Z" fill="white"/>
</g>
<g filter="url(#filter6_d_1927_4098)">
<path d="M169.398 171.546C170.16 161.092 178.863 153 189.345 153H280.489C292.107 153 301.281 162.867 300.436 174.454L294.602 254.454C293.84 264.908 285.137 273 274.655 273H183.511C171.893 273 162.719 263.133 163.564 251.546L169.398 171.546Z" fill="white"/>
</g>
<path d="M224.238 249.6H227.34L223.49 265H220.41L222.038 258.444H220.432L218.804 265H215.724L219.574 249.6H222.654L221.114 255.76H222.698L224.238 249.6ZM235.429 249.578L234.769 252.262H232.503L229.335 264.978H226.255L229.423 252.262H227.179L227.839 249.578H235.429ZM236.009 249.6H240.013L238.385 259.72H238.605L242.015 249.6H246.019L242.169 265H239.331L242.191 254.946H241.993L238.187 265H236.163L237.373 254.946H237.175L234.997 265H232.181L236.009 249.6ZM246.795 249.578H249.875L246.685 262.316H249.215L248.555 265H242.945L246.795 249.578Z" fill="black"/>
<g clip-path="url(#clip6_1927_4098)">
<path d="M202.861 234.62L197 163.134L267 163.277L260.802 234.62L232.264 242.866L202.861 234.62Z" fill="#E34F26"/>
<path d="M232.266 235.962V169.942L261.092 170.038L255.952 229.106L232.266 235.962Z" fill="#EF652A"/>
<path d="M253.163 186.435L253.979 177.709H209.635L212.085 204.462H242.689L241.489 215.873L231.688 218.51L221.743 215.633L221.214 208.825H212.421L213.623 222.729L231.687 227.763L249.895 222.729L252.345 195.592H220.205L219.292 186.435H253.163Z" fill="white"/>
</g>
<g filter="url(#filter7_d_1927_4098)">
<path d="M359.398 68.5455C360.16 58.0919 368.863 50 379.345 50H470.489C482.107 50 491.281 59.8667 490.436 71.4545L484.602 151.454C483.84 161.908 475.137 170 464.655 170H373.511C361.893 170 352.719 160.133 353.564 148.546L359.398 68.5455Z" fill="white"/>
</g>
<path d="M422.001 150C399.834 150 381.834 132.333 382.001 110C382.168 87.6672 399.001 70 422.001 70C445.002 70 462 88 462 110C462 132 444.167 150 422.001 150ZM433.833 143.833L422.501 113.333L411.834 144.5C419.668 146.334 425.001 146.833 433.833 143.833ZM406.168 142.167L389.168 95.6672C386.834 100.667 386.335 104.834 386.001 110C386.168 123.666 393.834 136.166 406.168 142.167ZM457.834 110C458 101.167 454.002 94.1672 453.667 93.1672C454.002 100.002 453 103.5 451.835 107.334L440.168 140.834C454.834 132 457.666 118.833 458 110H457.834ZM420.835 108.5L415.168 93L411.001 92.6672C409.335 91.5 410.334 89.6672 411.501 89.6672C419.001 90.1672 423.166 90.1672 430.668 89.6672C432.502 89.6672 433 92.3344 430.833 92.6672L426.833 93L439.832 131.333L445.997 110.333C446.331 101.167 443.83 100.167 440.497 93.5C437.83 88.3328 440.664 83.3328 445.831 83.1672C441.663 79.1672 433.164 74.1672 421.997 74C410.83 73.8328 398.998 79.5 391.998 90.1672L404.332 89.8344C405.832 90.5016 405.165 92.6672 404.332 92.8344L399.999 93.1672L412.999 132.167L420.835 108.5Z" fill="#21759B"/>
<defs>
<filter id="filter0_d_1927_4098" x="293.734" y="546" width="256.531" height="220" filterUnits="userSpaceOnUse" color-interpolation-filters="sRGB">
<feFlood flood-opacity="0" result="BackgroundImageFix"/>
<feColorMatrix in="SourceAlpha" type="matrix" values="0 0 0 0 0 0 0 0 0 0 0 0 0 0 0 0 0 0 127 0" result="hardAlpha"/>
<feOffset/>
<feGaussianBlur stdDeviation="25"/>
<feComposite in2="hardAlpha" operator="out"/>
<feColorMatrix type="matrix" values="0 0 0 0 0 0 0 0 0 0.591667 0 0 0 0 0.0234789 0 0 0 0.16 0"/>
<feBlend mode="normal" in2="BackgroundImageFix" result="effect1_dropShadow_1927_4098"/>
<feBlend mode="normal" in="SourceGraphic" in2="effect1_dropShadow_1927_4098" result="shape"/>
</filter>
<filter id="filter1_d_1927_4098" x="70.7344" y="463" width="256.531" height="220" filterUnits="userSpaceOnUse" color-interpolation-filters="sRGB">
<feFlood flood-opacity="0" result="BackgroundImageFix"/>
<feColorMatrix in="SourceAlpha" type="matrix" values="0 0 0 0 0 0 0 0 0 0 0 0 0 0 0 0 0 0 127 0" result="hardAlpha"/>
<feOffset/>
<feGaussianBlur stdDeviation="25"/>
<feComposite in2="hardAlpha" operator="out"/>
<feColorMatrix type="matrix" values="0 0 0 0 0 0 0 0 0 0.591667 0 0 0 0 0.0234789 0 0 0 0.16 0"/>
<feBlend mode="normal" in2="BackgroundImageFix" result="effect1_dropShadow_1927_4098"/>
<feBlend mode="normal" in="SourceGraphic" in2="effect1_dropShadow_1927_4098" result="shape"/>
</filter>
<filter id="filter2_d_1927_4098" x="516.734" y="433" width="256.531" height="220" filterUnits="userSpaceOnUse" color-interpolation-filters="sRGB">
<feFlood flood-opacity="0" result="BackgroundImageFix"/>
<feColorMatrix in="SourceAlpha" type="matrix" values="0 0 0 0 0 0 0 0 0 0 0 0 0 0 0 0 0 0 127 0" result="hardAlpha"/>
<feOffset/>
<feGaussianBlur stdDeviation="25"/>
<feComposite in2="hardAlpha" operator="out"/>
<feColorMatrix type="matrix" values="0 0 0 0 0 0 0 0 0 0.591667 0 0 0 0 0.0234789 0 0 0 0.16 0"/>
<feBlend mode="normal" in2="BackgroundImageFix" result="effect1_dropShadow_1927_4098"/>
<feBlend mode="normal" in="SourceGraphic" in2="effect1_dropShadow_1927_4098" result="shape"/>
</filter>
<filter id="filter3_d_1927_4098" x="0.509766" y="283" width="236.98" height="220" filterUnits="userSpaceOnUse" color-interpolation-filters="sRGB">
<feFlood flood-opacity="0" result="BackgroundImageFix"/>
<feColorMatrix in="SourceAlpha" type="matrix" values="0 0 0 0 0 0 0 0 0 0 0 0 0 0 0 0 0 0 127 0" result="hardAlpha"/>
<feOffset/>
<feGaussianBlur stdDeviation="25"/>
<feComposite in2="hardAlpha" operator="out"/>
<feColorMatrix type="matrix" values="0 0 0 0 0 0 0 0 0 0.591667 0 0 0 0 0.0234789 0 0 0 0.16 0"/>
<feBlend mode="normal" in2="BackgroundImageFix" result="effect1_dropShadow_1927_4098"/>
<feBlend mode="normal" in="SourceGraphic" in2="effect1_dropShadow_1927_4098" result="shape"/>
</filter>
<filter id="filter4_d_1927_4098" x="586.734" y="253" width="256.531" height="220" filterUnits="userSpaceOnUse" color-interpolation-filters="sRGB">
<feFlood flood-opacity="0" result="BackgroundImageFix"/>
<feColorMatrix in="SourceAlpha" type="matrix" values="0 0 0 0 0 0 0 0 0 0 0 0 0 0 0 0 0 0 127 0" result="hardAlpha"/>
<feOffset/>
<feGaussianBlur stdDeviation="25"/>
<feComposite in2="hardAlpha" operator="out"/>
<feColorMatrix type="matrix" values="0 0 0 0 0 0 0 0 0 0.591667 0 0 0 0 0.0234789 0 0 0 0.16 0"/>
<feBlend mode="normal" in2="BackgroundImageFix" result="effect1_dropShadow_1927_4098"/>
<feBlend mode="normal" in="SourceGraphic" in2="effect1_dropShadow_1927_4098" result="shape"/>
</filter>
<filter id="filter5_d_1927_4098" x="493.51" y="73" width="236.98" height="220" filterUnits="userSpaceOnUse" color-interpolation-filters="sRGB">
<feFlood flood-opacity="0" result="BackgroundImageFix"/>
<feColorMatrix in="SourceAlpha" type="matrix" values="0 0 0 0 0 0 0 0 0 0 0 0 0 0 0 0 0 0 127 0" result="hardAlpha"/>
<feOffset/>
<feGaussianBlur stdDeviation="25"/>
<feComposite in2="hardAlpha" operator="out"/>
<feColorMatrix type="matrix" values="0 0 0 0 0 0 0 0 0 0.591667 0 0 0 0 0.0234789 0 0 0 0.16 0"/>
<feBlend mode="normal" in2="BackgroundImageFix" result="effect1_dropShadow_1927_4098"/>
<feBlend mode="normal" in="SourceGraphic" in2="effect1_dropShadow_1927_4098" result="shape"/>
</filter>
<filter id="filter6_d_1927_4098" x="113.51" y="103" width="236.98" height="220" filterUnits="userSpaceOnUse" color-interpolation-filters="sRGB">
<feFlood flood-opacity="0" result="BackgroundImageFix"/>
<feColorMatrix in="SourceAlpha" type="matrix" values="0 0 0 0 0 0 0 0 0 0 0 0 0 0 0 0 0 0 127 0" result="hardAlpha"/>
<feOffset/>
<feGaussianBlur stdDeviation="25"/>
<feComposite in2="hardAlpha" operator="out"/>
<feColorMatrix type="matrix" values="0 0 0 0 0 0 0 0 0 0.591667 0 0 0 0 0.0234789 0 0 0 0.16 0"/>
<feBlend mode="normal" in2="BackgroundImageFix" result="effect1_dropShadow_1927_4098"/>
<feBlend mode="normal" in="SourceGraphic" in2="effect1_dropShadow_1927_4098" result="shape"/>
</filter>
<filter id="filter7_d_1927_4098" x="303.51" y="0" width="236.98" height="220" filterUnits="userSpaceOnUse" color-interpolation-filters="sRGB">
<feFlood flood-opacity="0" result="BackgroundImageFix"/>
<feColorMatrix in="SourceAlpha" type="matrix" values="0 0 0 0 0 0 0 0 0 0 0 0 0 0 0 0 0 0 127 0" result="hardAlpha"/>
<feOffset/>
<feGaussianBlur stdDeviation="25"/>
<feComposite in2="hardAlpha" operator="out"/>
<feColorMatrix type="matrix" values="0 0 0 0 0 0 0 0 0 0.591667 0 0 0 0 0.0234789 0 0 0 0.16 0"/>
<feBlend mode="normal" in2="BackgroundImageFix" result="effect1_dropShadow_1927_4098"/>
<feBlend mode="normal" in="SourceGraphic" in2="effect1_dropShadow_1927_4098" result="shape"/>
</filter>
<radialGradient id="paint0_radial_1927_4098" cx="0" cy="0" r="1" gradientUnits="userSpaceOnUse" gradientTransform="translate(424 378) rotate(90) scale(270 400)">
<stop stop-color="#19DF21" stop-opacity="0.8"/>
<stop offset="0.380208" stop-color="#19DF21" stop-opacity="0.6"/>
<stop offset="0.770833" stop-color="#19DF21" stop-opacity="0.2"/>
<stop offset="1" stop-color="#15E61D" stop-opacity="0.06"/>
</radialGradient>
<clipPath id="clip0_1927_4098">
<rect width="130" height="30" fill="white" transform="translate(357 641)"/>
</clipPath>
<clipPath id="clip1_1927_4098">
<rect width="130" height="70" fill="white" transform="translate(134 538)"/>
</clipPath>
<clipPath id="clip2_1927_4098">
<rect width="130" height="72" fill="white" transform="translate(580 507)"/>
</clipPath>
<clipPath id="clip3_1927_4098">
<rect width="90" height="90" fill="white" transform="translate(74 348)"/>
</clipPath>
<clipPath id="clip4_1927_4098">
<rect width="120" height="60" fill="white" transform="translate(655 335)"/>
</clipPath>
<clipPath id="clip5_1927_4098">
<rect width="70" height="80" fill="white" transform="translate(577 133)"/>
</clipPath>
<clipPath id="clip6_1927_4098">
<rect width="70" height="80" fill="white" transform="translate(197 163)"/>
</clipPath>
</defs>
</svg>
