<svg width="854" height="766" viewBox="0 0 854 766" fill="none" xmlns="http://www.w3.org/2000/svg">
<path d="M714.224 310.186H714.161C714.161 309.734 714.224 309.283 714.224 308.831C714.224 247.24 665.28 197.258 604.827 197.258C597.049 197.258 589.461 198.097 582.189 199.709C560.499 145.922 508.71 108 448.13 108C402.664 108 362.131 129.412 335.572 162.819C317.94 153.674 298.441 148.901 278.66 148.889C213.212 148.889 159.462 199.709 153.202 264.783C82.0624 268.652 24.9611 328.115 24.0125 401.959C23.0008 478.835 83.3903 542.038 158.767 543.005C164.647 543.07 170.339 542.683 176.03 541.973C205.181 604.661 267.721 648 340.251 648C384.01 648 424.101 632.199 455.466 605.951C479.432 624.073 509.026 634.908 541.149 634.908C607.04 634.908 662.498 589.827 679.761 528.236C690.637 531.913 702.209 533.976 714.287 533.976C774.866 533.976 824 483.865 824 422.081C823.937 360.297 774.866 310.186 714.224 310.186Z" fill="url(#paint0_radial_1909_3654)"/>
<circle cx="424" cy="378" r="288" stroke="#A6F4A9" stroke-width="4"/>
<circle cx="424" cy="378" r="228" stroke="#E1FFE3" stroke-width="4"/>
<circle cx="424" cy="378" r="168" stroke="white" stroke-width="4"/>
<path d="M318.508 324H329.008C335.968 324 339.088 327.6 337.408 334.44L332.128 355.56C330.388 362.46 325.468 366 318.568 366H308.008L318.508 324ZM325.108 331.32L318.268 358.68H320.308C322.108 358.68 323.188 357.72 323.668 355.68L329.008 334.26C329.548 332.22 329.008 331.32 327.268 331.32H325.108ZM342.664 352.62L341.584 356.88C341.164 358.68 341.644 359.76 342.904 359.76C344.164 359.76 345.364 358.68 345.784 356.88L346.384 354.42H354.364L353.824 356.46C352.324 362.64 347.344 366.6 341.164 366.6C334.984 366.6 332.164 362.7 333.724 356.46L336.604 344.94C338.164 338.7 342.964 334.8 349.144 334.8C355.264 334.8 358.264 338.76 356.704 344.94L354.784 352.62H342.664ZM344.704 344.52L343.744 348.3H347.944L348.904 344.52C349.324 342.72 348.844 341.64 347.584 341.64C346.324 341.64 345.124 342.72 344.704 344.52ZM359.5 335.4H367.42L364 356.7H364.54L371.74 335.4H379.66L367.6 366H356.32L359.5 335.4ZM383.68 352.62L382.6 356.88C382.18 358.68 382.66 359.76 383.92 359.76C385.18 359.76 386.38 358.68 386.8 356.88L387.4 354.42H395.38L394.84 356.46C393.34 362.64 388.36 366.6 382.18 366.6C376 366.6 373.18 362.7 374.74 356.46L377.62 344.94C379.18 338.7 383.98 334.8 390.16 334.8C396.28 334.8 399.28 338.76 397.72 344.94L395.8 352.62H383.68ZM385.72 344.52L384.76 348.3H388.96L389.92 344.52C390.34 342.72 389.86 341.64 388.6 341.64C387.34 341.64 386.14 342.72 385.72 344.52ZM394.434 366L405.234 322.8H413.214L402.414 366H394.434ZM409.672 344.94C411.112 339 415.612 334.8 422.092 334.8C428.632 334.8 431.212 339.06 429.712 344.94L426.832 356.46C425.392 362.34 420.652 366.6 414.172 366.6C407.692 366.6 405.292 362.4 406.792 356.46L409.672 344.94ZM417.712 344.52L414.592 356.94C414.172 358.68 414.652 359.76 415.912 359.76C417.172 359.76 418.312 358.68 418.732 356.94L421.852 344.52C422.332 342.66 421.792 341.64 420.532 341.64C419.272 341.64 418.192 342.66 417.712 344.52ZM433.986 335.4H441.966L441.006 339.3H441.546C444.306 335.88 446.346 334.8 448.206 334.8C451.806 334.8 453.366 338.34 452.046 343.56L448.446 358.02C447.126 363.18 443.946 366.6 440.586 366.6C438.366 366.6 436.446 365.1 435.846 362.1H435.306L431.286 378.18H423.306L433.986 335.4ZM439.746 344.28L436.506 357.18C436.626 358.38 437.346 359.22 438.306 359.22C439.386 359.22 440.466 358.14 440.826 356.64L443.766 344.76C444.126 343.32 443.646 342.24 442.626 342.24C441.666 342.24 440.466 343.08 439.746 344.28ZM448.339 366L456.019 335.4H463.939L463.099 338.88L463.639 338.82C465.499 336.24 467.719 334.8 469.939 334.8C472.339 334.8 473.779 336.3 474.139 338.88H474.679C476.599 336.24 479.179 334.8 481.459 334.8C484.819 334.8 487.099 337.74 485.779 343.08L480.079 366H472.099L477.559 344.28C477.919 342.78 477.499 341.76 476.479 341.76C475.699 341.76 474.799 342.3 473.839 343.32C473.779 343.44 473.779 343.5 473.779 343.56L468.199 366H460.219L465.679 344.28C466.039 342.78 465.619 341.76 464.599 341.76C463.699 341.76 462.619 342.54 461.839 343.8L456.319 366H448.339ZM493.133 352.62L492.053 356.88C491.633 358.68 492.113 359.76 493.373 359.76C494.633 359.76 495.833 358.68 496.253 356.88L496.853 354.42H504.833L504.293 356.46C502.793 362.64 497.813 366.6 491.633 366.6C485.453 366.6 482.633 362.7 484.193 356.46L487.073 344.94C488.633 338.7 493.433 334.8 499.613 334.8C505.733 334.8 508.733 338.76 507.173 344.94L505.253 352.62H493.133ZM495.173 344.52L494.213 348.3H498.413L499.373 344.52C499.793 342.72 499.313 341.64 498.053 341.64C496.793 341.64 495.593 342.72 495.173 344.52ZM503.827 366L511.447 335.4H519.427L518.527 338.88L519.127 338.82C521.047 336.18 523.327 334.8 525.667 334.8C528.967 334.8 531.007 337.5 529.627 343.08L523.927 366H515.947L521.407 344.22C521.767 342.72 521.287 341.7 520.207 341.7C519.247 341.7 518.167 342.48 517.327 343.68L511.807 366H503.827ZM530.784 342.24L532.464 335.4H535.224L536.844 328.8L544.884 328.32L543.144 335.4H548.304L546.564 342.24H541.464L537.924 356.34C537.324 358.74 538.524 359.52 540.204 359.52C540.804 359.52 541.584 359.4 542.364 359.22L540.744 366.06C538.944 366.42 537.264 366.6 535.824 366.6C530.784 366.6 528.024 364.2 529.884 356.76L533.484 342.24H530.784ZM313.167 397.24L314.847 390.4H317.607L319.227 383.8L327.267 383.32L325.527 390.4H330.687L328.947 397.24H323.847L320.307 411.34C319.707 413.74 320.907 414.52 322.587 414.52C323.187 414.52 323.967 414.4 324.747 414.22L323.127 421.06C321.327 421.42 319.647 421.6 318.207 421.6C313.167 421.6 310.407 419.2 312.267 411.76L315.867 397.24H313.167ZM335.399 407.62L334.319 411.88C333.899 413.68 334.379 414.76 335.639 414.76C336.899 414.76 338.099 413.68 338.519 411.88L339.119 409.42H347.099L346.559 411.46C345.059 417.64 340.079 421.6 333.899 421.6C327.719 421.6 324.899 417.7 326.459 411.46L329.339 399.94C330.899 393.7 335.699 389.8 341.879 389.8C347.999 389.8 350.999 393.76 349.439 399.94L347.519 407.62H335.399ZM337.439 399.52L336.479 403.3H340.679L341.639 399.52C342.059 397.72 341.579 396.64 340.319 396.64C339.059 396.64 337.859 397.72 337.439 399.52ZM359.413 399.52L356.293 411.94C355.813 413.68 356.353 414.76 357.613 414.76C358.873 414.76 360.013 413.68 360.433 411.94L361.693 407.02H369.613L368.533 411.46C366.973 417.64 362.053 421.6 355.873 421.6C349.693 421.6 346.873 417.7 348.433 411.46L351.313 399.94C352.873 393.7 357.613 389.8 363.793 389.8C369.973 389.8 372.913 393.76 371.413 399.94L370.273 404.38H362.353L363.553 399.52C363.973 397.72 363.493 396.64 362.233 396.64C360.973 396.64 359.833 397.72 359.413 399.52ZM368.007 421L378.807 377.8H386.727L382.707 393.88H383.307C385.167 391.18 387.447 389.8 389.847 389.8C393.147 389.8 395.187 392.5 393.807 398.08L388.107 421H380.127L385.527 399.34C385.887 397.84 385.407 396.82 384.327 396.82C383.367 396.82 382.287 397.6 381.507 398.8L375.987 421H368.007ZM389.98 421L397.6 390.4H405.58L404.68 393.88L405.28 393.82C407.2 391.18 409.48 389.8 411.82 389.8C415.12 389.8 417.16 392.5 415.78 398.08L410.08 421H402.1L407.56 399.22C407.92 397.72 407.44 396.7 406.36 396.7C405.4 396.7 404.32 397.48 403.48 398.68L397.96 421H389.98ZM417.172 399.94C418.612 394 423.112 389.8 429.592 389.8C436.132 389.8 438.712 394.06 437.212 399.94L434.332 411.46C432.892 417.34 428.152 421.6 421.672 421.6C415.192 421.6 412.792 417.4 414.292 411.46L417.172 399.94ZM425.212 399.52L422.092 411.94C421.672 413.68 422.152 414.76 423.412 414.76C424.672 414.76 425.812 413.68 426.232 411.94L429.352 399.52C429.832 397.66 429.292 396.64 428.032 396.64C426.772 396.64 425.692 397.66 425.212 399.52ZM433.926 421L444.726 377.8H452.706L441.906 421H433.926ZM449.164 399.94C450.604 394 455.104 389.8 461.584 389.8C468.124 389.8 470.704 394.06 469.204 399.94L466.324 411.46C464.884 417.34 460.144 421.6 453.664 421.6C447.184 421.6 444.784 417.4 446.284 411.46L449.164 399.94ZM457.204 399.52L454.084 411.94C453.664 413.68 454.144 414.76 455.404 414.76C456.664 414.76 457.804 413.68 458.224 411.94L461.344 399.52C461.824 397.66 461.284 396.64 460.024 396.64C458.764 396.64 457.684 397.66 457.204 399.52ZM493.518 390.4L485.058 424.36C483.558 430.18 479.058 433.6 472.818 433.6C466.518 433.6 463.638 430.12 465.078 424.42L465.438 422.92H473.418L473.178 423.94C472.698 425.68 473.178 426.76 474.378 426.76C475.638 426.76 476.778 425.68 477.198 423.82L478.758 417.52H478.218C476.358 420.16 473.958 421.6 471.678 421.6C468.018 421.6 466.458 418.18 467.778 412.96L471.498 398.08C472.758 393.04 475.938 389.8 479.538 389.8C481.818 389.8 483.558 391.18 484.098 393.88H484.698L485.538 390.4H493.518ZM483.438 398.92C483.258 397.66 482.598 396.82 481.698 396.82C480.618 396.82 479.538 397.9 479.118 399.34L475.998 411.88C475.638 413.44 476.058 414.64 477.078 414.64C478.038 414.64 479.238 413.74 480.018 412.48L483.438 398.92ZM496.833 383.44C497.553 380.74 499.533 379.42 502.293 379.42C505.113 379.42 506.553 380.8 505.833 383.44C505.173 386.2 503.133 387.52 500.313 387.52C497.553 387.52 496.173 386.2 496.833 383.44ZM495.693 390.4H503.613L495.993 421H488.013L495.693 390.4ZM509.305 407.62L508.225 411.88C507.805 413.68 508.285 414.76 509.545 414.76C510.805 414.76 512.005 413.68 512.425 411.88L513.025 409.42H521.005L520.465 411.46C518.965 417.64 513.985 421.6 507.805 421.6C501.625 421.6 498.805 417.7 500.365 411.46L503.245 399.94C504.805 393.7 509.605 389.8 515.785 389.8C521.905 389.8 524.905 393.76 523.345 399.94L521.425 407.62H509.305ZM511.345 399.52L510.385 403.3H514.585L515.545 399.52C515.965 397.72 515.485 396.64 514.225 396.64C512.965 396.64 511.765 397.72 511.345 399.52ZM544.899 401.2H536.979L537.399 399.52C537.819 397.72 537.459 396.7 536.139 396.7C534.939 396.7 533.859 397.66 533.439 399.22V399.34C533.019 401.02 533.379 401.68 535.359 402.46L538.719 404.2C542.079 405.7 543.339 407.74 542.319 411.82L542.079 412.66C540.879 417.4 536.079 421.6 529.719 421.6C523.359 421.6 520.899 417.4 522.279 411.82L522.699 410.2H530.619L530.259 411.82C529.779 413.56 530.259 414.64 531.519 414.64C532.779 414.64 533.979 413.62 534.339 412.12V411.94C534.819 410.14 534.459 409.54 532.239 408.7L528.699 407.08C525.399 405.64 524.439 403.54 525.459 399.52L525.639 398.8C526.839 393.94 531.399 389.8 537.759 389.8C544.119 389.8 546.699 394 545.319 399.52L544.899 401.2Z" fill="white"/>
<g filter="url(#filter0_d_1909_3654)">
<path d="M362.398 614.546C363.16 604.092 371.863 596 382.345 596H473.489C485.107 596 494.281 605.867 493.436 617.454L487.602 697.454C486.84 707.908 478.137 716 467.655 716H376.511C364.893 716 355.719 706.133 356.564 694.546L362.398 614.546Z" fill="white"/>
</g>
<g clip-path="url(#clip0_1909_3654)">
<path d="M464.644 637.642C464.644 636.144 464.323 634.82 463.675 633.684C463.039 632.566 462.085 631.63 460.806 630.889C450.25 624.803 439.683 618.735 429.13 612.642C426.285 611 423.526 611.06 420.702 612.726C416.5 615.204 395.463 627.255 389.194 630.886C386.612 632.38 385.356 634.667 385.356 637.64C385.352 649.88 385.356 662.12 385.352 674.36C385.352 675.825 385.659 677.124 386.279 678.243C386.916 679.394 387.882 680.357 389.191 681.114C395.46 684.745 416.5 696.795 420.701 699.274C423.526 700.94 426.285 701 429.131 699.357C439.684 693.264 450.252 687.197 460.81 681.11C462.118 680.353 463.085 679.39 463.722 678.24C464.34 677.121 464.649 675.822 464.649 674.357C464.649 674.357 464.649 649.883 464.644 637.642Z" fill="#A179DC"/>
<path d="M425.12 655.881L386.277 678.243C386.914 679.394 387.881 680.357 389.189 681.114C395.459 684.745 416.499 696.795 420.699 699.274C423.525 700.94 426.283 701 429.129 699.357C439.683 693.264 450.25 687.197 460.808 681.11C462.117 680.353 463.084 679.39 463.72 678.24L425.12 655.881Z" fill="#280068"/>
<path d="M464.644 637.642C464.644 636.144 464.323 634.82 463.675 633.684L425.121 655.881L463.722 678.24C464.34 677.121 464.648 675.822 464.648 674.357C464.648 674.357 464.648 649.883 464.644 637.642Z" fill="#390091"/>
<path d="M447.991 647.521V651.701H452.172V647.521H454.262V651.701H458.442V653.791H454.262V657.971H458.442V660.061H454.262V664.241H452.172V660.061H447.991V664.241H445.901V660.061H441.721V657.971H445.901V653.791H441.721V651.701H445.901V647.521H447.991ZM452.172 653.791H447.991V657.971H452.172V653.791Z" fill="white"/>
<path d="M425.207 626.528C436.111 626.528 445.631 632.449 450.73 641.25L450.68 641.166L437.851 648.552C435.324 644.273 430.69 641.385 425.375 641.325L425.207 641.324C417.102 641.324 410.53 647.895 410.53 656C410.528 658.554 411.195 661.065 412.466 663.281C414.996 667.697 419.752 670.675 425.207 670.675C430.697 670.675 435.48 667.659 437.997 663.196L437.936 663.303L450.745 670.723C445.702 679.45 436.313 685.352 425.536 685.47L425.207 685.472C414.269 685.472 404.723 679.514 399.636 670.666C397.153 666.347 395.732 661.34 395.732 656C395.732 639.723 408.928 626.528 425.207 626.528L425.207 626.528Z" fill="white"/>
</g>
<g filter="url(#filter1_d_1909_3654)">
<path d="M152.398 531.546C153.16 521.092 161.863 513 172.345 513H263.489C275.107 513 284.281 522.867 283.436 534.454L277.602 614.454C276.84 624.908 268.137 633 257.655 633H166.511C154.893 633 145.719 623.133 146.564 611.546L152.398 531.546Z" fill="white"/>
</g>
<path d="M254.128 564.252C254.128 558.86 247.581 553.75 237.544 550.581C239.86 540.029 238.831 531.634 234.294 528.946C233.249 528.315 232.026 528.017 230.691 528.017V531.716C231.431 531.716 232.026 531.866 232.525 532.148C234.713 533.442 235.662 538.37 234.922 544.708C234.745 546.267 234.455 547.91 234.102 549.585C230.949 548.789 227.506 548.175 223.887 547.777C221.716 544.708 219.464 541.92 217.196 539.481C222.439 534.454 227.362 531.7 230.708 531.7V528C226.284 528 220.493 531.252 214.638 536.893C208.783 531.285 202.992 528.066 198.569 528.066V531.766C201.899 531.766 206.837 534.504 212.081 539.498C209.829 541.937 207.577 544.708 205.437 547.777C201.802 548.175 198.36 548.789 195.207 549.602C194.837 547.943 194.564 546.333 194.37 544.79C193.615 538.453 194.547 533.525 196.719 532.214C197.201 531.916 197.829 531.783 198.569 531.783V528.083C197.218 528.083 195.995 528.382 194.934 529.012C190.414 531.7 189.4 540.079 191.732 550.598C181.727 553.783 175.213 558.877 175.213 564.252C175.213 569.645 181.76 574.755 191.797 577.923C189.48 588.476 190.51 596.871 195.046 599.559C196.092 600.189 197.314 600.488 198.665 600.488C203.089 600.488 208.88 597.236 214.735 591.595C220.59 597.203 226.381 600.422 230.804 600.422C232.155 600.422 233.377 600.123 234.439 599.492C238.959 596.804 239.973 588.426 237.64 577.907C247.613 574.738 254.128 569.628 254.128 564.252ZM233.185 553.186C232.589 555.326 231.85 557.533 231.013 559.739C230.354 558.412 229.662 557.085 228.906 555.757C228.166 554.43 227.378 553.136 226.589 551.875C228.873 552.223 231.077 552.655 233.185 553.186ZM225.817 570.856C224.563 573.096 223.276 575.219 221.941 577.194C219.544 577.409 217.115 577.525 214.67 577.525C212.241 577.525 209.812 577.409 207.432 577.21C206.097 575.236 204.794 573.129 203.539 570.905C202.317 568.732 201.207 566.525 200.193 564.302C201.191 562.079 202.317 559.855 203.523 557.682C204.778 555.442 206.064 553.318 207.4 551.344C209.797 551.128 212.225 551.012 214.67 551.012C217.099 551.012 219.528 551.128 221.909 551.328C223.244 553.302 224.547 555.409 225.801 557.632C227.024 559.806 228.134 562.012 229.147 564.236C228.134 566.459 227.024 568.682 225.817 570.856ZM231.013 568.699C231.857 570.861 232.598 573.065 233.233 575.302C231.125 575.833 228.906 576.281 226.606 576.629C227.394 575.352 228.182 574.041 228.922 572.697C229.662 571.37 230.354 570.026 231.013 568.699ZM214.702 586.402C213.206 584.809 211.71 583.034 210.231 581.093C211.678 581.159 213.158 581.209 214.654 581.209C216.166 581.209 217.662 581.176 219.126 581.093C217.745 582.943 216.269 584.716 214.702 586.402ZM202.735 576.629C200.451 576.281 198.247 575.85 196.14 575.319C196.735 573.178 197.475 570.972 198.311 568.765C198.971 570.092 199.663 571.42 200.418 572.747C201.175 574.074 201.947 575.368 202.735 576.629ZM214.622 542.103C216.118 543.695 217.614 545.471 219.094 547.412C217.646 547.346 216.166 547.296 214.67 547.296C213.158 547.296 211.662 547.329 210.199 547.412C211.579 545.561 213.056 543.789 214.622 542.103ZM202.719 551.875C201.931 553.153 201.143 554.463 200.403 555.807C199.663 557.134 198.971 558.462 198.311 559.789C197.467 557.627 196.726 555.423 196.092 553.186C198.199 552.671 200.418 552.223 202.719 551.875ZM188.162 572.647C182.467 570.142 178.784 566.857 178.784 564.252C178.784 561.647 182.467 558.346 188.162 555.857C189.545 555.243 191.057 554.696 192.617 554.181C193.534 557.433 194.741 560.818 196.236 564.285C194.757 567.737 193.566 571.104 192.665 574.34C191.073 573.825 189.561 573.261 188.162 572.647ZM196.816 596.357C194.628 595.063 193.679 590.135 194.419 583.797C194.596 582.237 194.885 580.595 195.239 578.919C198.392 579.715 201.834 580.329 205.453 580.727C207.625 583.797 209.877 586.584 212.145 589.023C206.901 594.05 201.979 596.804 198.633 596.804C197.909 596.788 197.298 596.639 196.816 596.357ZM234.97 583.714C235.726 590.052 234.793 594.979 232.621 596.29C232.139 596.589 231.512 596.722 230.772 596.722C227.442 596.722 222.504 593.984 217.26 588.99C219.512 586.551 221.764 583.78 223.903 580.711C227.539 580.313 230.981 579.699 234.134 578.886C234.504 580.562 234.793 582.171 234.97 583.714ZM241.163 572.647C239.779 573.261 238.267 573.809 236.707 574.323C235.79 571.071 234.584 567.687 233.088 564.219C234.568 560.768 235.758 557.4 236.659 554.165C238.252 554.679 239.763 555.243 241.179 555.857C246.873 558.362 250.557 561.647 250.557 564.252C250.541 566.857 246.857 570.159 241.163 572.647Z" fill="#61DAFB"/>
<path d="M214.654 571.835C218.714 571.835 222.005 568.44 222.005 564.252C222.005 560.065 218.714 556.67 214.654 556.67C210.594 556.67 207.303 560.065 207.303 564.252C207.303 568.44 210.594 571.835 214.654 571.835ZM178.796 613.543H176.369V617.853H175V607.198H178.42C179.584 607.198 180.478 607.471 181.102 608.018C181.731 608.564 182.046 609.359 182.046 610.403C182.046 611.067 181.871 611.645 181.521 612.138C181.175 612.631 180.693 612.999 180.073 613.243L182.5 617.766V617.853H181.038L178.796 613.543ZM176.369 612.394H178.463C179.139 612.394 179.676 612.213 180.073 611.852C180.475 611.491 180.676 611.008 180.676 610.403C180.676 609.745 180.485 609.24 180.102 608.888C179.723 608.537 179.174 608.359 178.455 608.354H176.369V612.394ZM186.942 618C185.901 618 185.054 617.649 184.401 616.946C183.749 616.238 183.422 615.294 183.422 614.114V613.865C183.422 613.079 183.566 612.379 183.855 611.765C184.148 611.145 184.555 610.662 185.075 610.315C185.6 609.964 186.168 609.788 186.778 609.788C187.776 609.788 188.552 610.127 189.105 610.806C189.659 611.484 189.936 612.455 189.936 613.718V614.282H184.735C184.754 615.063 184.974 615.695 185.395 616.178C185.82 616.656 186.36 616.895 187.012 616.895C187.476 616.895 187.869 616.797 188.19 616.602C188.512 616.407 188.793 616.148 189.035 615.826L189.836 616.47C189.193 617.49 188.228 618 186.942 618ZM186.778 610.901C186.248 610.901 185.804 611.101 185.444 611.501C185.085 611.896 184.863 612.452 184.777 613.17H188.623V613.067C188.585 612.379 188.406 611.847 188.084 611.472C187.762 611.091 187.327 610.901 186.778 610.901ZM196.201 617.853C196.125 617.697 196.064 617.419 196.016 617.019C195.406 617.673 194.678 618 193.831 618C193.074 618 192.452 617.78 191.965 617.341C191.483 616.897 191.241 616.336 191.241 615.658C191.241 614.834 191.544 614.194 192.149 613.741C192.759 613.282 193.616 613.052 194.718 613.052H195.995V612.431C195.995 611.957 195.858 611.581 195.584 611.303C195.309 611.02 194.905 610.879 194.37 610.879C193.902 610.879 193.509 611.001 193.193 611.245C192.876 611.489 192.717 611.784 192.717 612.13H191.397C191.397 611.735 191.532 611.355 191.802 610.988C192.076 610.618 192.445 610.325 192.909 610.11C193.377 609.896 193.89 609.788 194.448 609.788C195.333 609.788 196.026 610.018 196.527 610.476C197.029 610.93 197.289 611.557 197.308 612.357V616.002C197.308 616.729 197.398 617.307 197.577 617.736V617.853H196.201ZM194.023 616.822C194.434 616.822 194.824 616.712 195.193 616.492C195.562 616.273 195.829 615.987 195.995 615.636V614.011H194.966C193.358 614.011 192.554 614.497 192.554 615.468C192.554 615.892 192.691 616.224 192.965 616.463C193.24 616.702 193.592 616.822 194.023 616.822ZM202.445 616.895C202.913 616.895 203.322 616.748 203.672 616.456C204.022 616.163 204.216 615.797 204.254 615.358H205.496C205.472 615.811 205.321 616.243 205.042 616.653C204.763 617.063 204.389 617.39 203.92 617.634C203.457 617.878 202.965 618 202.445 618C201.399 618 200.567 617.641 199.947 616.924C199.332 616.202 199.025 615.216 199.025 613.967V613.741C199.025 612.97 199.162 612.284 199.436 611.684C199.711 611.084 200.103 610.618 200.614 610.286C201.13 609.954 201.738 609.788 202.438 609.788C203.299 609.788 204.013 610.054 204.581 610.586C205.153 611.118 205.458 611.808 205.496 612.657H204.254C204.216 612.145 204.027 611.725 203.686 611.398C203.351 611.067 202.934 610.901 202.438 610.901C201.771 610.901 201.253 611.149 200.884 611.647C200.52 612.14 200.337 612.855 200.337 613.792V614.048C200.337 614.96 200.52 615.663 200.884 616.155C201.248 616.648 201.769 616.895 202.445 616.895ZM208.752 608.018V609.935H210.186V610.981H208.752V615.892C208.752 616.209 208.817 616.448 208.944 616.609C209.072 616.765 209.29 616.844 209.597 616.844C209.748 616.844 209.956 616.814 210.221 616.756V617.853C209.876 617.951 209.54 618 209.214 618C208.627 618 208.185 617.817 207.887 617.451C207.589 617.085 207.44 616.565 207.44 615.892V610.981H206.042V609.935H207.44V608.018H208.752ZM223.475 617.853H222.106L216.905 609.642V617.853H215.536V607.198H216.905L222.12 615.446V607.198H223.475V617.853ZM230.429 617.853C230.353 617.697 230.291 617.419 230.244 617.019C229.634 617.673 228.906 618 228.059 618C227.302 618 226.68 617.78 226.193 617.341C225.711 616.897 225.469 616.336 225.469 615.658C225.469 614.834 225.772 614.194 226.377 613.741C226.987 613.282 227.844 613.052 228.946 613.052H230.223V612.431C230.223 611.957 230.086 611.581 229.811 611.303C229.537 611.02 229.133 610.879 228.598 610.879C228.13 610.879 227.737 611.001 227.42 611.245C227.104 611.489 226.945 611.784 226.945 612.13H225.625C225.625 611.735 225.76 611.355 226.03 610.988C226.304 610.618 226.673 610.325 227.137 610.11C227.605 609.896 228.118 609.788 228.676 609.788C229.561 609.788 230.254 610.018 230.755 610.476C231.257 610.93 231.517 611.557 231.536 612.357V616.002C231.536 616.729 231.626 617.307 231.805 617.736V617.853H230.429ZM228.251 616.822C228.662 616.822 229.052 616.712 229.421 616.492C229.79 616.273 230.057 615.987 230.223 615.636V614.011H229.194C227.586 614.011 226.782 614.497 226.782 615.468C226.782 615.892 226.919 616.224 227.193 616.463C227.468 616.702 227.82 616.822 228.251 616.822ZM235.374 608.018V609.935H236.808V610.981H235.374V615.892C235.374 616.209 235.438 616.448 235.566 616.609C235.694 616.765 235.911 616.844 236.219 616.844C236.37 616.844 236.578 616.814 236.843 616.756V617.853C236.497 617.951 236.162 618 235.835 618C235.249 618 234.807 617.817 234.508 617.451C234.211 617.085 234.062 616.565 234.062 615.892V610.981H232.664V609.935H234.062V608.018H235.374ZM239.773 617.853H238.461V609.935H239.773V617.853ZM238.354 607.834C238.354 607.615 238.418 607.429 238.546 607.278C238.678 607.127 238.872 607.051 239.127 607.051C239.383 607.051 239.577 607.127 239.709 607.278C239.842 607.429 239.908 607.615 239.908 607.834C239.908 608.054 239.842 608.237 239.709 608.383C239.577 608.529 239.383 608.603 239.127 608.603C238.872 608.603 238.678 608.529 238.546 608.383C238.418 608.237 238.354 608.054 238.354 607.834ZM244.414 616.017L246.315 609.935H247.656L244.903 617.853H243.903L241.122 609.935H242.462L244.414 616.017ZM252.006 618C250.965 618 250.118 617.649 249.466 616.946C248.813 616.238 248.486 615.294 248.486 614.114V613.865C248.486 613.079 248.631 612.379 248.919 611.765C249.212 611.145 249.619 610.662 250.14 610.315C250.665 609.964 251.232 609.788 251.842 609.788C252.84 609.788 253.616 610.127 254.17 610.806C254.723 611.484 255 612.455 255 613.718V614.282H249.799C249.818 615.063 250.038 615.695 250.459 616.178C250.884 616.656 251.424 616.895 252.076 616.895C252.54 616.895 252.933 616.797 253.254 616.602C253.576 616.407 253.858 616.148 254.099 615.826L254.901 616.47C254.257 617.49 253.292 618 252.006 618ZM251.842 610.901C251.313 610.901 250.868 611.101 250.509 611.501C250.149 611.896 249.927 612.452 249.842 613.17H253.687V613.067C253.649 612.379 253.47 611.847 253.148 611.472C252.826 611.091 252.391 610.901 251.842 610.901Z" fill="#61DAFB"/>
<g filter="url(#filter2_d_1909_3654)">
<path d="M572.398 501.546C573.16 491.092 581.863 483 592.345 483H683.489C695.107 483 704.281 492.867 703.436 504.454L697.602 584.454C696.84 594.908 688.137 603 677.655 603H586.511C574.893 603 565.719 593.133 566.564 581.546L572.398 501.546Z" fill="white"/>
</g>
<g clip-path="url(#clip1_1909_3654)">
<path d="M602.171 574.946C602.171 571.378 601.109 569.598 598.981 569.532C598.117 569.47 597.321 569.659 596.522 569.915C595.855 570.105 595.459 570.36 595.258 570.553V578.959C596.586 579.788 597.782 580.171 598.848 580.105C601.041 579.911 602.171 578.193 602.171 574.946ZM604.764 575.074C604.764 576.858 604.364 578.321 603.435 579.532C602.438 580.871 601.109 581.572 599.316 581.572C597.987 581.634 596.659 581.189 595.262 580.36V588.004L593 587.238V570.232C593.4 569.787 593.864 569.404 594.397 569.087C595.726 568.324 597.39 567.941 599.247 567.941C600.976 567.941 602.369 568.642 603.302 569.981C604.296 571.444 604.764 573.034 604.764 575.074ZM618.519 580.105C618.519 582.524 618.253 584.18 617.788 585.074C617.255 585.964 616.326 586.731 614.929 587.303C613.733 587.748 612.538 588.004 611.205 588.004L610.806 586.665C612.203 586.475 613.132 586.282 613.665 586.154C614.727 585.771 615.527 585.264 615.922 584.498C616.253 583.925 616.387 582.779 616.387 581.123V580.55C614.86 581.25 613.196 581.568 611.537 581.568C610.406 581.568 609.408 581.25 608.613 580.55C607.684 579.85 607.215 578.894 607.215 577.748V568.769L609.473 568.007V577.051C609.473 578.007 609.804 578.77 610.47 579.281C611.137 579.791 611.932 580.043 612.994 580.043C614.057 580.043 615.123 579.66 616.318 578.897V568.32H618.576L618.519 580.105ZM627.291 581.506H626.56C625.296 581.506 624.302 581.189 623.567 580.616C622.836 580.043 622.505 579.215 622.505 578.197V569.663H620.978V568.32H622.505V564.69L624.763 563.928V568.32H627.287V569.659H624.763V578.065C624.763 578.894 624.96 579.466 625.429 579.784C625.829 580.039 626.426 580.229 627.291 580.295V581.506ZM640.981 581.312H638.723V572.968C638.723 572.14 638.526 571.378 638.126 570.805C637.661 570.105 636.995 569.787 636.131 569.787C635.069 569.787 633.805 570.298 632.278 571.378V581.378H630.021V561.443L632.278 560.743V569.787C633.74 568.769 635.271 568.258 636.995 568.258C638.19 568.258 639.123 568.642 639.919 569.404C640.65 570.166 641.05 571.122 641.05 572.272L640.981 581.312ZM652.943 574.563C652.943 573.224 652.676 572.078 652.147 571.188C651.481 570.105 650.552 569.532 649.155 569.47C646.695 569.598 645.431 571.316 645.431 574.563C645.431 576.092 645.698 577.303 646.227 578.321C646.893 579.594 647.887 580.233 649.219 580.233C651.679 580.167 652.943 578.321 652.943 574.563ZM655.402 574.563C655.402 576.475 654.869 578.131 653.876 579.404C652.745 580.805 651.15 581.568 649.223 581.568C647.228 581.568 645.702 580.867 644.571 579.404C643.574 578.131 643.045 576.537 643.045 574.563C643.045 572.717 643.578 571.188 644.704 569.977C645.9 568.638 647.362 568.003 649.223 568.003C651.085 568.003 652.612 568.642 653.807 569.977C654.869 571.25 655.402 572.779 655.402 574.563ZM668.362 581.312H666.104V572.523C666.104 571.567 665.773 570.805 665.175 570.294C664.578 569.783 663.778 569.466 662.716 569.532C661.654 569.532 660.588 569.915 659.659 570.55V581.44H657.401V570.294C658.665 569.404 659.861 568.765 660.992 568.51C662.054 568.255 662.918 568.127 663.717 568.127C664.251 568.127 664.78 568.189 665.244 568.255C666.108 568.444 666.839 568.827 667.372 569.338C667.97 569.911 668.301 570.677 668.301 571.502L668.362 581.312Z" fill="#656565"/>
<path d="M629.685 498.012C627.557 498.012 625.498 498.201 623.705 498.522C618.39 499.413 617.457 501.263 617.457 504.765V509.351H629.952V510.88H612.805C609.215 510.88 606.028 512.981 605.031 516.929C603.9 521.515 603.835 524.317 605.031 529.093C605.895 532.661 608.023 535.142 611.678 535.142H615.999V529.665C615.999 525.718 619.589 522.215 623.773 522.215H636.2C639.656 522.215 642.447 519.475 642.447 516.101V504.699C642.447 501.452 639.588 499.029 636.2 498.457C634.003 498.139 631.81 497.95 629.685 498.012ZM622.905 501.642C624.169 501.642 625.231 502.66 625.231 503.933C625.231 505.206 624.169 506.224 622.905 506.224C621.641 506.224 620.579 505.206 620.579 503.933C620.579 502.66 621.576 501.642 622.905 501.642Z" fill="url(#paint1_linear_1909_3654)"/>
<path d="M643.974 510.748V516.035C643.974 520.176 640.319 523.613 636.131 523.613H623.705C620.316 523.613 617.457 526.415 617.457 529.727V541.129C617.457 544.376 620.381 546.288 623.705 547.244C627.626 548.389 631.414 548.583 636.2 547.244C639.321 546.353 642.447 544.631 642.447 541.129V536.543H629.948V535.014H648.69C652.281 535.014 653.674 532.595 654.938 528.965C656.267 525.207 656.202 521.643 654.938 516.801C654.074 513.361 652.345 510.752 648.69 510.752L643.974 510.748ZM636.926 539.6C638.19 539.6 639.253 540.618 639.253 541.891C639.253 543.164 638.19 544.182 636.926 544.182C635.662 544.182 634.6 543.164 634.6 541.891C634.6 540.618 635.666 539.6 636.926 539.6Z" fill="url(#paint2_linear_1909_3654)"/>
<path d="M672.679 566.412H673.079V564.055H674.008V563.738H671.75V564.055H672.679V566.412ZM674.407 566.412H674.738V564.249L675.469 566.412H675.869L676.6 564.249V566.412H677V563.738H676.536L675.671 566.029L674.94 563.738H674.407V566.412Z" fill="#656565"/>
<path opacity="0.444" d="M646.829 554.949C646.829 556.667 639.321 558.068 630.081 558.068C620.841 558.068 613.334 556.667 613.334 554.949C613.334 553.231 620.841 551.83 630.081 551.83C639.321 551.83 646.829 553.227 646.829 554.949Z" fill="url(#paint3_radial_1909_3654)"/>
</g>
<g filter="url(#filter3_d_1909_3654)">
<path d="M56.3977 351.546C57.16 341.092 65.8634 333 76.3448 333H167.489C179.107 333 188.281 342.867 187.436 354.454L181.602 434.454C180.84 444.908 172.137 453 161.655 453H70.5114C58.8928 453 49.7194 443.133 50.5644 431.546L56.3977 351.546Z" fill="white"/>
</g>
<g clip-path="url(#clip2_1909_3654)">
<path d="M74 348H164V438H74V348Z" fill="#F0DB4F"/>
<path d="M156.635 416.535C155.977 412.429 153.299 408.981 145.368 405.764C142.613 404.498 139.542 403.591 138.627 401.504C138.302 400.289 138.259 399.605 138.464 398.869C139.055 396.482 141.903 395.738 144.162 396.422C145.616 396.91 146.994 398.03 147.824 399.818C151.708 397.303 151.699 397.32 154.411 395.592C153.419 394.052 152.888 393.342 152.238 392.684C149.902 390.074 146.72 388.731 141.63 388.834C140.748 388.945 139.859 389.065 138.978 389.176C136.437 389.818 134.016 391.152 132.595 392.94C128.335 397.774 129.55 406.235 134.734 409.717C139.842 413.55 147.344 414.422 148.303 418.007C149.235 422.396 145.077 423.816 140.945 423.311C137.9 422.678 136.206 421.129 134.375 418.315C131.004 420.265 131.004 420.265 127.539 422.259C128.361 424.055 129.225 424.868 130.602 426.425C137.121 433.038 153.436 432.713 156.362 422.703C156.481 422.361 157.269 420.068 156.635 416.535ZM122.928 389.364H114.51C114.51 396.636 114.476 403.856 114.476 411.128C114.476 415.757 114.715 420 113.962 421.3C112.73 423.858 109.539 423.542 108.085 423.046C106.605 422.318 105.852 421.283 104.98 419.82C104.74 419.401 104.56 419.076 104.5 419.05C102.216 420.445 99.9405 421.848 97.6562 423.242C98.7942 425.578 100.471 427.605 102.618 428.923C105.826 430.848 110.138 431.438 114.647 430.403C117.581 429.547 120.113 427.777 121.44 425.082C123.356 421.548 122.945 417.271 122.928 412.54C122.971 404.823 122.928 397.106 122.928 389.364Z" fill="#323330"/>
</g>
<g filter="url(#filter4_d_1909_3654)">
<path d="M672.398 321.546C673.16 311.092 681.863 303 692.345 303H783.489C795.107 303 804.281 312.867 803.436 324.454L797.602 404.454C796.84 414.908 788.137 423 777.655 423H686.511C674.893 423 665.719 413.133 666.564 401.546L672.398 321.546Z" fill="white"/>
</g>
<path d="M738.695 394.578L738.035 397.262H735.769L732.601 409.978H729.521L732.689 397.262H730.445L731.105 394.578H738.695ZM735.338 410L739.298 394.16H742.202L740.728 400.056H740.948C741.63 399.066 742.466 398.56 743.346 398.56C744.556 398.56 745.304 399.55 744.798 401.596L742.708 410H739.782L741.762 402.058C741.894 401.508 741.718 401.134 741.322 401.134C740.97 401.134 740.574 401.42 740.288 401.86L738.264 410H735.338ZM749.115 398.78L748.675 400.496H748.763C749.423 399.352 750.325 398.56 751.491 398.56C751.601 398.56 751.711 398.56 751.799 398.582L751.095 401.486C750.919 401.464 750.721 401.442 750.545 401.442C749.071 401.442 748.213 402.388 747.817 403.95L746.299 410H743.395L746.189 398.78H749.115ZM753.374 405.094L752.978 406.656C752.824 407.316 753 407.712 753.462 407.712C753.924 407.712 754.364 407.316 754.518 406.656L754.738 405.754H757.664L757.466 406.502C756.916 408.768 755.09 410.22 752.824 410.22C750.558 410.22 749.524 408.79 750.096 406.502L751.152 402.278C751.724 399.99 753.484 398.56 755.75 398.56C757.994 398.56 759.094 400.012 758.522 402.278L757.818 405.094H753.374ZM754.122 402.124L753.77 403.51H755.31L755.662 402.124C755.816 401.464 755.64 401.068 755.178 401.068C754.716 401.068 754.276 401.464 754.122 402.124ZM761.409 405.094L761.013 406.656C760.859 407.316 761.035 407.712 761.497 407.712C761.959 407.712 762.399 407.316 762.553 406.656L762.773 405.754H765.699L765.501 406.502C764.951 408.768 763.125 410.22 760.859 410.22C758.593 410.22 757.559 408.79 758.131 406.502L759.187 402.278C759.759 399.99 761.519 398.56 763.785 398.56C766.029 398.56 767.129 400.012 766.557 402.278L765.853 405.094H761.409ZM762.157 402.124L761.805 403.51H763.345L763.697 402.124C763.851 401.464 763.675 401.068 763.213 401.068C762.751 401.068 762.311 401.464 762.157 402.124ZM765.706 408.46C765.97 407.404 766.652 406.832 767.664 406.832C768.654 406.832 769.072 407.426 768.808 408.482C768.544 409.538 767.84 410.11 766.85 410.11C765.838 410.11 765.442 409.538 765.706 408.46ZM772.735 396.206C772.977 395.194 773.747 394.732 774.737 394.732C775.749 394.732 776.277 395.216 776.035 396.206C775.771 397.24 775.023 397.702 774.011 397.702C772.999 397.702 772.493 397.24 772.735 396.206ZM772.163 410.968C771.547 413.432 770.139 414.62 768.335 414.62C767.917 414.62 767.455 414.554 766.993 414.4L767.631 411.914C767.785 411.958 767.939 411.98 768.071 411.98C768.621 411.98 769.083 411.672 769.237 411.012L772.295 398.758H775.199L772.163 410.968ZM782.324 402.74H779.42L779.574 402.124C779.728 401.464 779.596 401.09 779.112 401.09C778.672 401.09 778.276 401.442 778.122 402.014V402.058C777.968 402.674 778.1 402.916 778.826 403.202L780.058 403.84C781.29 404.39 781.752 405.138 781.378 406.634L781.29 406.942C780.85 408.68 779.09 410.22 776.758 410.22C774.426 410.22 773.524 408.68 774.03 406.634L774.184 406.04H777.088L776.956 406.634C776.78 407.272 776.956 407.668 777.418 407.668C777.88 407.668 778.32 407.294 778.452 406.744V406.678C778.628 406.018 778.496 405.798 777.682 405.49L776.384 404.896C775.174 404.368 774.822 403.598 775.196 402.124L775.262 401.86C775.702 400.078 777.374 398.56 779.706 398.56C782.038 398.56 782.984 400.1 782.478 402.124L782.324 402.74Z" fill="black"/>
<path d="M710.072 399.541L689.688 318.473L770.312 341.115" fill="white"/>
<path d="M720.027 364.697L725.12 384.975" stroke="black" stroke-width="2" stroke-miterlimit="10"/>
<path d="M740.143 370.395L720.027 364.697" stroke="black" stroke-width="2" stroke-miterlimit="10"/>
<path d="M725.121 384.975L740.144 370.395" stroke="black" stroke-width="2" stroke-miterlimit="10"/>
<path d="M725.122 384.975L705.006 379.277" stroke="black" stroke-width="2" stroke-miterlimit="10"/>
<path d="M705.006 379.277L710.099 399.568L725.122 384.975" stroke="black" stroke-width="2" stroke-miterlimit="10"/>
<path d="M705.006 379.277L720.029 364.697" stroke="black" stroke-width="2" stroke-miterlimit="10"/>
<path d="M720.027 364.697L735.064 350.104" stroke="black" stroke-width="2" stroke-miterlimit="10"/>
<path d="M735.064 350.104L750.088 335.525" stroke="black" stroke-width="2" stroke-miterlimit="10"/>
<path d="M729.973 329.827L735.065 350.104" stroke="black" stroke-width="2" stroke-miterlimit="10"/>
<path d="M735.065 350.104L714.936 344.42" stroke="black" stroke-width="2" stroke-miterlimit="10"/>
<path d="M714.936 344.42L720.028 364.697" stroke="black" stroke-width="2" stroke-miterlimit="10"/>
<path d="M720.028 364.697L699.912 359" stroke="black" stroke-width="2" stroke-miterlimit="10"/>
<path d="M699.912 359L705.005 379.277" stroke="black" stroke-width="2" stroke-miterlimit="10"/>
<path d="M694.82 338.723L699.913 359" stroke="black" stroke-width="2" stroke-miterlimit="10"/>
<path d="M714.936 344.42L694.82 338.723" stroke="black" stroke-width="2" stroke-miterlimit="10"/>
<path d="M699.912 359L714.935 344.42" stroke="black" stroke-width="2" stroke-miterlimit="10"/>
<path d="M714.936 344.407L729.972 329.827" stroke="black" stroke-width="2" stroke-miterlimit="10"/>
<path d="M729.973 329.827L709.844 324.13" stroke="black" stroke-width="2" stroke-miterlimit="10"/>
<path d="M709.844 324.13L714.937 344.407" stroke="black" stroke-width="2" stroke-miterlimit="10"/>
<path d="M694.819 338.723L689.727 318.432L709.843 324.13" stroke="black" stroke-width="2" stroke-miterlimit="10"/>
<path d="M694.82 338.723L709.843 324.13" stroke="black" stroke-width="2" stroke-miterlimit="10"/>
<path d="M755.181 355.802L770.204 341.222L750.088 335.525" stroke="black" stroke-width="2" stroke-miterlimit="10"/>
<path d="M750.088 335.525L755.181 355.802" stroke="black" stroke-width="2" stroke-miterlimit="10"/>
<path d="M755.18 355.802L735.064 350.104" stroke="black" stroke-width="2" stroke-miterlimit="10"/>
<path d="M735.064 350.104L740.144 370.395" stroke="black" stroke-width="2" stroke-miterlimit="10"/>
<path d="M740.145 370.395L755.181 355.802" stroke="black" stroke-width="2" stroke-miterlimit="10"/>
<path d="M750.089 335.525L729.973 329.827" stroke="black" stroke-width="2" stroke-miterlimit="10"/>
<g filter="url(#filter5_d_1909_3654)">
<path d="M549.398 141.546C550.16 131.092 558.863 123 569.345 123H660.489C672.107 123 681.281 132.867 680.436 144.454L674.602 224.454C673.84 234.908 665.137 243 654.655 243H563.511C551.893 243 542.719 233.133 543.564 221.546L549.398 141.546Z" fill="white"/>
</g>
<path d="M595.421 217.6H599.205C601.757 217.6 602.879 218.986 602.197 221.714L602.131 222C601.559 224.288 600.063 225.564 598.941 225.674L598.897 225.894C599.931 226.004 600.789 227.412 600.217 229.656L600.173 229.876C599.843 231.196 599.645 232.142 599.601 233H596.543C596.565 232.076 596.807 231.042 597.115 229.854L597.489 228.27C597.687 227.478 597.511 227.126 596.851 227.126H596.125L594.651 233.022H591.571L595.421 217.6ZM597.819 220.284L596.785 224.442H597.489C598.171 224.442 598.567 223.98 598.743 223.232L599.183 221.45C599.381 220.636 599.205 220.284 598.545 220.284H597.819ZM604.256 228.094L603.86 229.656C603.706 230.316 603.882 230.712 604.344 230.712C604.806 230.712 605.246 230.316 605.4 229.656L605.62 228.754H608.546L608.348 229.502C607.798 231.768 605.972 233.22 603.706 233.22C601.44 233.22 600.406 231.79 600.978 229.502L602.034 225.278C602.606 222.99 604.366 221.56 606.632 221.56C608.876 221.56 609.976 223.012 609.404 225.278L608.7 228.094H604.256ZM605.004 225.124L604.652 226.51H606.192L606.544 225.124C606.698 224.464 606.522 224.068 606.06 224.068C605.598 224.068 605.158 224.464 605.004 225.124ZM614.579 225.102C614.755 224.464 614.579 224.068 614.117 224.068C613.677 224.068 613.281 224.464 613.105 225.102L612.775 226.444H609.849L610.157 225.278C610.707 222.99 612.445 221.56 614.711 221.56C616.955 221.56 618.033 223.012 617.461 225.278L615.525 233H612.599L612.885 231.9H612.797C612.005 232.78 611.147 233.22 610.311 233.22C609.013 233.22 608.353 232.23 608.727 230.778L609.079 229.348C609.431 227.896 610.773 226.928 612.445 226.928H614.117L614.579 225.102ZM613.281 230.272L613.765 228.358H613.259C612.577 228.358 612.159 228.622 612.027 229.172L611.785 230.14C611.675 230.624 611.829 230.932 612.247 230.932C612.621 230.932 613.017 230.69 613.281 230.272ZM621.096 225.124L619.952 229.678C619.776 230.316 619.974 230.712 620.436 230.712C620.898 230.712 621.316 230.316 621.47 229.678L621.932 227.874H624.836L624.44 229.502C623.868 231.768 622.064 233.22 619.798 233.22C617.532 233.22 616.498 231.79 617.07 229.502L618.126 225.278C618.698 222.99 620.436 221.56 622.702 221.56C624.968 221.56 626.046 223.012 625.496 225.278L625.078 226.906H622.174L622.614 225.124C622.768 224.464 622.592 224.068 622.13 224.068C621.668 224.068 621.25 224.464 621.096 225.124ZM626.075 224.288L626.691 221.78H627.703L628.297 219.36L631.245 219.184L630.607 221.78H632.499L631.861 224.288H629.991L628.693 229.458C628.473 230.338 628.913 230.624 629.529 230.624C629.749 230.624 630.035 230.58 630.321 230.514L629.727 233.022C629.067 233.154 628.451 233.22 627.923 233.22C626.075 233.22 625.063 232.34 625.745 229.612L627.065 224.288H626.075Z" fill="black"/>
<path d="M611.999 179.214C616.233 179.214 619.664 175.76 619.664 171.5C619.664 167.24 616.233 163.786 611.999 163.786C607.766 163.786 604.334 167.24 604.334 171.5C604.334 175.76 607.766 179.214 611.999 179.214Z" fill="#61DAFB"/>
<path d="M612.002 187.304C634.717 187.304 653.132 180.228 653.132 171.5C653.132 162.772 634.717 155.696 612.002 155.696C589.286 155.696 570.871 162.772 570.871 171.5C570.871 180.228 589.286 187.304 612.002 187.304Z" stroke="#61DAFB" stroke-width="4"/>
<path d="M598.402 179.402C609.759 199.199 625.056 211.71 632.567 207.346C640.078 202.981 636.96 183.395 625.602 163.598C614.244 143.801 598.948 131.29 591.437 135.655C583.925 140.019 587.044 159.605 598.402 179.402Z" stroke="#61DAFB" stroke-width="4"/>
<path d="M598.4 163.598C587.042 183.395 583.924 202.981 591.435 207.346C598.946 211.71 614.243 199.199 625.601 179.402C636.959 159.605 640.077 140.019 632.566 135.655C625.054 131.29 609.758 143.801 598.4 163.598Z" stroke="#61DAFB" stroke-width="4"/>
<g filter="url(#filter6_d_1909_3654)">
<path d="M169.398 171.546C170.16 161.092 178.863 153 189.345 153H280.489C292.107 153 301.281 162.867 300.436 174.454L294.602 254.454C293.84 264.908 285.137 273 274.655 273H183.511C171.893 273 162.719 263.133 163.564 251.546L169.398 171.546Z" fill="white"/>
</g>
<g clip-path="url(#clip3_1909_3654)">
<path d="M262.329 215.018C262.329 214.874 262.287 214.771 262.202 214.703C262.108 214.631 261.945 214.592 261.718 214.592H261.391V215.45H261.785C262.149 215.45 262.329 215.306 262.329 215.018ZM262.838 216.806H262.389L262.103 216.203C261.958 215.901 261.802 215.749 261.633 215.749H261.391V216.806H261.022V214.291H261.762C262.091 214.291 262.339 214.359 262.508 214.501C262.652 214.624 262.724 214.78 262.724 214.976C262.724 215.149 262.665 215.295 262.547 215.415C262.432 215.538 262.267 215.62 262.055 215.663V215.674C262.202 215.707 262.349 215.861 262.491 216.138L262.838 216.808V216.806ZM263.657 215.573C263.657 215.079 263.48 214.661 263.128 214.33C262.774 213.998 262.343 213.832 261.834 213.832C261.309 213.832 260.872 213.998 260.526 214.332C260.179 214.668 260.007 215.083 260.007 215.573C260.007 216.075 260.186 216.494 260.543 216.828C260.895 217.162 261.327 217.327 261.834 217.327C262.339 217.327 262.77 217.161 263.125 216.823C263.48 216.49 263.657 216.072 263.657 215.573ZM263.906 215.563C263.906 216.118 263.706 216.584 263.305 216.959C262.904 217.337 262.412 217.525 261.824 217.525C261.232 217.525 260.74 217.34 260.349 216.975C259.958 216.606 259.764 216.141 259.764 215.578C259.764 215.027 259.962 214.563 260.359 214.183C260.756 213.803 261.25 213.614 261.841 213.614C262.421 213.614 262.907 213.795 263.301 214.157C263.705 214.528 263.906 214.995 263.906 215.563Z" fill="black"/>
<path d="M207.671 222.576H206.396V215.6C206.396 215.049 206.434 214.378 206.502 213.586H206.473C206.354 214.049 206.245 214.385 206.148 214.592L202.442 222.576H201.821L198.107 214.65C198.002 214.429 197.893 214.073 197.782 213.586H197.754C197.793 214.003 197.815 214.677 197.815 215.613V222.576H196.586V212.187H198.268L201.602 219.431C201.854 219.977 202.016 220.392 202.095 220.675H202.148C202.365 220.108 202.538 219.682 202.669 219.401L206.075 212.187H207.671V222.576H207.671Z" fill="black"/>
<path d="M211.594 222.576H210.354V215.157H211.594V222.576ZM211.808 212.497C211.808 212.716 211.727 212.899 211.568 213.048C211.411 213.198 211.217 213.274 210.99 213.274C210.768 213.274 210.576 213.201 210.418 213.057C210.259 212.911 210.182 212.725 210.182 212.497C210.182 212.283 210.26 212.1 210.418 211.952C210.576 211.803 210.768 211.732 210.99 211.732C211.217 211.732 211.411 211.803 211.568 211.952C211.727 212.1 211.808 212.283 211.808 212.497Z" fill="black"/>
<path d="M219.34 222.232C218.745 222.582 218.035 222.755 217.214 222.755C216.101 222.755 215.205 222.402 214.521 221.696C213.856 221.012 213.521 220.128 213.521 219.045C213.521 217.83 213.885 216.846 214.618 216.099C215.347 215.35 216.328 214.976 217.562 214.976C218.236 214.976 218.834 215.102 219.357 215.352V216.571C218.778 216.182 218.165 215.99 217.508 215.99C216.718 215.99 216.075 216.254 215.576 216.78C215.057 217.319 214.794 218.039 214.794 218.938C214.794 219.801 215.034 220.484 215.511 220.989C215.99 221.49 216.627 221.742 217.431 221.742C218.109 221.742 218.745 221.529 219.34 221.104V222.232Z" fill="black"/>
<path d="M225.266 216.36C225.047 216.2 224.733 216.121 224.317 216.121C223.812 216.121 223.388 216.337 223.045 216.773C222.655 217.259 222.461 217.933 222.461 218.793V222.575H221.219V215.156H222.461V216.686H222.491C222.674 216.145 222.955 215.728 223.332 215.433C223.684 215.163 224.083 215.027 224.521 215.027C224.852 215.027 225.098 215.061 225.266 215.128V216.36L225.266 216.36Z" fill="black"/>
<path d="M232.191 218.88C232.191 217.93 231.967 217.204 231.518 216.707C231.083 216.229 230.474 215.989 229.691 215.989C228.919 215.989 228.299 216.231 227.836 216.715C227.346 217.232 227.101 217.962 227.101 218.909C227.101 219.796 227.334 220.493 227.805 220.991C228.272 221.491 228.901 221.741 229.691 221.741C230.508 221.741 231.133 221.487 231.561 220.981C231.981 220.486 232.191 219.787 232.191 218.88ZM233.465 218.838C233.465 220.02 233.116 220.97 232.42 221.682C231.721 222.396 230.781 222.754 229.599 222.754C228.434 222.754 227.507 222.396 226.827 221.682C226.161 220.993 225.826 220.083 225.826 218.952C225.826 217.661 226.204 216.666 226.963 215.96C227.665 215.304 228.604 214.975 229.78 214.975C230.937 214.975 231.842 215.319 232.493 216.003C233.139 216.69 233.465 217.635 233.465 218.838Z" fill="black"/>
<path d="M239.625 220.591C239.625 221.198 239.388 221.701 238.912 222.103C238.393 222.537 237.68 222.754 236.783 222.754C236.048 222.754 235.404 222.607 234.857 222.308V221.031C235.466 221.503 236.137 221.741 236.875 221.741C237.858 221.741 238.351 221.395 238.351 220.705C238.351 220.415 238.243 220.174 238.025 219.989C237.806 219.799 237.382 219.573 236.751 219.307C236.101 219.035 235.638 218.756 235.365 218.466C235.037 218.122 234.872 217.676 234.872 217.126C234.872 216.51 235.129 215.998 235.638 215.59C236.149 215.18 236.804 214.975 237.609 214.975C238.226 214.975 238.778 215.091 239.268 215.323V216.519C238.757 216.165 238.172 215.989 237.507 215.989C237.096 215.989 236.765 216.087 236.519 216.278C236.271 216.473 236.146 216.722 236.146 217.026C236.146 217.354 236.25 217.61 236.458 217.793C236.642 217.962 237.033 218.168 237.622 218.408C238.285 218.674 238.764 218.949 239.056 219.23C239.434 219.586 239.625 220.04 239.625 220.591Z" fill="black"/>
<path d="M247.217 218.88C247.217 217.93 246.992 217.204 246.542 216.707C246.108 216.229 245.498 215.989 244.716 215.989C243.944 215.989 243.325 216.231 242.859 216.715C242.37 217.232 242.127 217.962 242.127 218.909C242.127 219.797 242.36 220.493 242.826 220.991C243.299 221.491 243.928 221.741 244.716 221.741C245.534 221.741 246.158 221.487 246.587 220.981C247.007 220.486 247.217 219.787 247.217 218.88ZM248.493 218.838C248.493 220.02 248.141 220.97 247.444 221.682C246.748 222.396 245.807 222.754 244.626 222.754C243.46 222.754 242.532 222.396 241.852 221.682C241.187 220.993 240.852 220.083 240.852 218.952C240.852 217.661 241.233 216.666 241.987 215.96C242.689 215.304 243.629 214.975 244.807 214.975C245.964 214.975 246.867 215.32 247.517 216.003C248.164 216.69 248.493 217.635 248.493 218.838Z" fill="black"/>
<path d="M253.967 212.636C253.723 212.507 253.451 212.441 253.142 212.441C252.272 212.441 251.841 212.964 251.841 214.013V215.157H253.66V216.163H251.841V222.575H250.597V216.163H249.277V215.157H250.597V213.954C250.597 213.138 250.859 212.497 251.391 212.035C251.847 211.634 252.404 211.435 253.067 211.435C253.451 211.435 253.75 211.479 253.967 211.564V212.636Z" fill="black"/>
<path d="M258.87 222.501C258.577 222.662 258.186 222.742 257.703 222.742C256.348 222.742 255.671 222.012 255.671 220.552V216.164H254.34V215.156H255.671V213.346C256.068 213.227 256.481 213.096 256.916 212.961V215.156H258.87V216.164H256.916V220.35C256.916 220.848 257.001 221.204 257.179 221.41C257.359 221.623 257.652 221.727 258.067 221.727C258.376 221.727 258.643 221.648 258.87 221.488V222.501Z" fill="black"/>
<path d="M191.716 251.531C191.716 252.112 191.499 252.615 191.061 253.04C190.624 253.463 190.093 253.676 189.471 253.676C188.862 253.676 188.345 253.463 187.921 253.04C187.496 252.615 187.285 252.112 187.285 251.531C187.285 250.933 187.496 250.429 187.921 250.011C188.345 249.592 188.862 249.384 189.471 249.384C190.093 249.384 190.624 249.594 191.061 250.019C191.499 250.444 191.716 250.948 191.716 251.531Z" fill="black"/>
<path d="M219.531 253.239H215.479L200.772 231.528C200.428 231.006 200.132 230.438 199.881 229.819H199.76C199.865 230.4 199.918 231.648 199.918 233.56V253.239H196.578V226.001H200.913L215.18 247.37C215.748 248.217 216.136 248.825 216.333 249.191H216.412C216.28 248.407 216.211 247.071 216.211 245.186V226.001H219.531V253.239H219.531Z" fill="black"/>
<path d="M240.942 253.239H225.84V226.001H240.286V228.887H229.177V237.948H239.471V240.836H229.177V250.352H240.942V253.239Z" fill="black"/>
<path d="M263.849 228.887H255.641V253.24H252.302V228.887H244.078V225.999H263.849V228.887Z" fill="black"/>
<path d="M218.398 178.953C221.62 188.371 222.841 205.173 232.263 205.173C232.98 205.173 233.705 205.106 234.432 204.974C225.868 203.065 224.853 186.446 219.626 177.839C219.216 178.195 218.81 178.566 218.398 178.953Z" fill="url(#paint4_linear_1909_3654)"/>
<path d="M219.627 177.839C224.853 186.446 225.868 203.065 234.433 204.974C235.106 204.856 235.78 204.677 236.456 204.452C228.768 200.851 226.643 184.713 220.708 176.943C220.349 177.229 219.988 177.529 219.627 177.839Z" fill="url(#paint5_linear_1909_3654)"/>
<path d="M227.156 172.721C226.44 172.721 225.714 172.788 224.985 172.92C223.079 173.264 221.142 174.049 219.189 175.236C219.723 175.739 220.23 176.315 220.708 176.943C222.693 175.368 224.666 174.204 226.631 173.504C227.369 173.243 228.104 173.047 228.841 172.918C228.309 172.788 227.748 172.721 227.156 172.721Z" fill="#14559A"/>
<path d="M242.457 201.132C243.244 200.535 244.032 199.873 244.821 199.152C241.547 189.777 240.376 172.735 230.888 172.735C230.209 172.735 229.525 172.795 228.842 172.916C237.484 174.971 238.591 192.945 242.457 201.132Z" fill="url(#paint6_linear_1909_3654)"/>
<path d="M228.841 172.917C228.309 172.788 227.749 172.72 227.156 172.72L230.887 172.734C230.209 172.734 229.524 172.794 228.841 172.916" fill="#3092C4"/>
<path d="M242.291 203.124C241.92 202.786 241.568 202.415 241.221 202.019C239.625 203.099 238.035 203.918 236.455 204.452C237.017 204.714 237.607 204.909 238.232 205.03C238.717 205.125 239.218 205.173 239.746 205.173C241.519 205.173 242.921 204.973 244.114 204.426C243.457 204.086 242.855 203.646 242.291 203.124Z" fill="#1969BC"/>
<path d="M226.633 173.506C234.374 177.376 235.047 194.902 241.223 202.019C241.637 201.74 242.047 201.444 242.457 201.132C238.591 192.945 237.485 174.97 228.844 172.916C228.107 173.048 227.37 173.243 226.633 173.506Z" fill="url(#paint7_linear_1909_3654)"/>
<path d="M220.707 176.943C226.642 184.713 228.767 200.851 236.455 204.452C238.035 203.918 239.625 203.099 241.221 202.019C235.044 194.902 234.372 177.376 226.631 173.506C224.665 174.204 222.693 175.368 220.707 176.943Z" fill="url(#paint8_linear_1909_3654)"/>
<path d="M214.602 178.726C213.671 180.737 212.721 183.38 211.572 186.829C213.857 183.752 216.134 181.101 218.399 178.953C218.087 178.036 217.752 177.191 217.391 176.438C216.465 177.115 215.532 177.878 214.602 178.726Z" fill="url(#paint9_linear_1909_3654)"/>
<path d="M218.214 175.858C217.941 176.045 217.667 176.236 217.391 176.438C217.751 177.191 218.085 178.036 218.397 178.953C218.808 178.568 219.216 178.196 219.625 177.84C219.186 177.119 218.72 176.454 218.214 175.858Z" fill="#2B74B1"/>
<path d="M219.19 175.236C218.865 175.433 218.541 175.64 218.215 175.857C218.721 176.454 219.187 177.119 219.627 177.841C219.988 177.529 220.348 177.228 220.708 176.943C220.231 176.315 219.723 175.739 219.19 175.236Z" fill="#125A9E"/>
<path d="M271.989 172.004C267.611 188.143 258.467 201.106 250.801 204.375H250.786C250.647 204.435 250.509 204.49 250.372 204.544C250.353 204.555 250.336 204.556 250.322 204.562C250.282 204.578 250.244 204.59 250.204 204.605C250.185 204.616 250.168 204.62 250.151 204.626C250.086 204.648 250.023 204.667 249.96 204.691C249.932 204.702 249.906 204.709 249.88 204.718C249.852 204.728 249.819 204.739 249.786 204.747C249.757 204.758 249.727 204.766 249.694 204.778C249.666 204.789 249.637 204.794 249.612 204.804C249.556 204.82 249.504 204.833 249.448 204.852C249.425 204.852 249.403 204.864 249.379 204.869C249.344 204.88 249.305 204.888 249.268 204.898C249.242 204.909 249.221 204.912 249.193 204.918C249.154 204.929 249.111 204.939 249.072 204.948C249.021 204.958 248.975 204.969 248.926 204.978C249.272 205.101 249.633 205.163 250.023 205.163C257.292 205.163 264.622 192.709 276.749 172H271.987L271.989 172.004Z" fill="url(#paint10_linear_1909_3654)"/>
<path d="M209.993 173.376C209.998 173.376 210.004 173.365 210.006 173.365C210.012 173.365 210.021 173.365 210.024 173.354H210.033C210.073 173.341 210.111 173.326 210.151 173.311C210.161 173.311 210.166 173.311 210.174 173.3C210.184 173.3 210.194 173.29 210.204 173.288C210.247 173.275 210.29 173.26 210.331 173.245H210.338C210.434 173.218 210.523 173.184 210.616 173.152C210.63 173.152 210.642 173.141 210.658 173.141C210.697 173.129 210.737 173.116 210.777 173.107C210.796 173.096 210.815 173.096 210.832 173.09C210.874 173.078 210.914 173.065 210.953 173.056C210.97 173.056 210.986 173.045 210.999 173.044C211.133 173.009 211.265 172.976 211.399 172.945C211.417 172.945 211.433 172.934 211.453 172.933C211.492 172.922 211.528 172.917 211.57 172.911C211.587 172.9 211.607 172.9 211.627 172.895C211.666 172.884 211.703 172.883 211.745 172.874H211.772C211.853 172.858 211.935 172.845 212.015 172.831H212.064C212.103 172.82 212.138 172.819 212.176 172.812C212.198 172.812 212.22 172.801 212.24 172.801C212.276 172.801 212.312 172.79 212.347 172.786C212.366 172.786 212.385 172.786 212.406 172.775C212.491 172.764 212.579 172.759 212.668 172.753C212.416 172.729 212.158 172.714 211.895 172.714C203.708 172.714 192.429 187.234 187.348 206.039H188.327C189.953 203.267 191.414 200.644 192.749 198.183C196.308 184.864 203.556 175.78 209.994 173.374" fill="url(#paint11_linear_1909_3654)"/>
<path d="M214.602 178.726C215.532 177.878 216.465 177.115 217.391 176.438C217.18 175.995 216.961 175.585 216.727 175.21C215.978 176.079 215.293 177.225 214.602 178.726Z" fill="#0D82CA"/>
<path d="M215.275 173.486C215.81 173.915 216.289 174.505 216.728 175.211C216.866 175.049 217.005 174.899 217.15 174.759C216.542 174.216 215.885 173.771 215.172 173.435C215.201 173.451 215.229 173.463 215.259 173.475C215.259 173.475 215.271 173.486 215.276 173.486" fill="#0D82CA"/>
<path d="M192.748 198.184C200.213 184.434 203.75 175.731 209.993 173.375C203.556 175.783 196.307 184.867 192.748 198.184Z" fill="url(#paint12_linear_1909_3654)"/>
<path d="M217.149 174.758C217.004 174.9 216.866 175.048 216.727 175.211C216.961 175.586 217.179 175.994 217.392 176.438C217.668 176.236 217.943 176.045 218.216 175.858C217.878 175.459 217.522 175.09 217.149 174.758Z" fill="#127BCA"/>
<path d="M196.137 205.979C196.091 205.99 196.045 205.99 196.002 205.994H195.976C195.937 205.994 195.897 206.005 195.861 206.005H195.842C195.749 206.016 195.657 206.016 195.568 206.023H195.539C203.095 205.821 206.548 202.205 208.262 196.96C209.564 192.984 210.634 189.634 211.572 186.824C208.407 191.082 205.228 196.157 202.032 201.843C200.491 204.584 198.147 205.728 196.137 205.973" fill="url(#paint13_linear_1909_3654)"/>
<path d="M196.139 205.976C198.149 205.731 200.492 204.588 202.034 201.846C205.23 196.161 208.41 191.084 211.572 186.826C212.722 183.375 213.671 180.734 214.602 178.723C208.301 184.457 201.975 193.991 196.139 205.973" fill="url(#paint14_linear_1909_3654)"/>
<path d="M192.749 198.185C191.413 200.646 189.952 203.269 188.326 206.041H191.174C191.551 203.288 192.086 200.663 192.749 198.186" fill="#05A1E6"/>
<path d="M212.406 172.782C212.383 172.782 212.366 172.793 212.345 172.793C212.311 172.803 212.275 172.803 212.239 172.807C212.218 172.807 212.197 172.807 212.176 172.818C212.137 172.829 212.101 172.83 212.064 172.837C212.046 172.837 212.029 172.837 212.015 172.848C211.933 172.861 211.852 172.875 211.772 172.888H211.744C211.703 172.899 211.665 172.905 211.627 172.91C211.606 172.921 211.586 172.921 211.568 172.926C211.529 172.936 211.49 172.941 211.453 172.948C211.432 172.959 211.417 172.959 211.398 172.96C211.264 172.99 211.132 173.023 210.998 173.059C210.984 173.059 210.969 173.069 210.952 173.072C210.912 173.083 210.873 173.094 210.831 173.106C210.814 173.117 210.794 173.117 210.777 173.121C210.737 173.132 210.696 173.143 210.657 173.155C210.642 173.155 210.629 173.166 210.614 173.166C210.522 173.199 210.432 173.232 210.337 173.259C210.297 173.271 210.253 173.287 210.21 173.301C210.193 173.312 210.177 173.315 210.157 173.322C210.117 173.334 210.077 173.35 210.039 173.364C210.025 173.375 210.011 173.376 210.001 173.382C203.758 175.737 200.221 184.44 192.756 198.191C192.093 200.667 191.557 203.292 191.182 206.045H191.581C192.707 206.045 193.025 206.034 194.32 206.034H194.386H194.579H194.645H194.664H194.73H194.767H194.793H194.845H195.006H195.167H195.302H195.338H195.575C195.665 206.024 195.757 206.024 195.85 206.017H195.867C195.906 206.017 195.945 206.006 195.982 206.006H196.01C196.051 206.006 196.099 205.995 196.145 205.99C201.981 194.008 208.307 184.474 214.608 178.74C215.301 177.239 215.984 176.093 216.732 175.226C216.295 174.52 215.816 173.929 215.281 173.5C215.281 173.5 215.267 173.5 215.266 173.489C215.235 173.477 215.207 173.462 215.177 173.448C215.146 173.433 215.12 173.421 215.089 173.405C215.062 173.394 215.03 173.38 215.003 173.366C214.965 173.355 214.935 173.339 214.902 173.325C214.875 173.314 214.85 173.303 214.823 173.292C214.767 173.271 214.711 173.249 214.658 173.226C214.633 173.215 214.61 173.209 214.587 173.201C214.548 173.187 214.504 173.17 214.463 173.153C214.443 173.143 214.42 173.14 214.397 173.132C214.338 173.114 214.281 173.094 214.226 173.076H214.212C214.146 173.055 214.081 173.04 214.013 173.023C213.998 173.012 213.985 173.012 213.969 173.009C213.91 172.994 213.858 172.979 213.802 172.964C213.788 172.964 213.775 172.953 213.763 172.953C213.628 172.919 213.489 172.892 213.348 172.867C213.333 172.867 213.319 172.856 213.305 172.856C213.244 172.845 213.185 172.835 213.125 172.828C213.111 172.817 213.102 172.817 213.089 172.817C213.017 172.806 212.947 172.799 212.876 172.791H212.839C212.782 172.78 212.728 172.779 212.675 172.773C212.584 172.784 212.498 172.789 212.413 172.796" fill="url(#paint15_linear_1909_3654)"/>
<path d="M254.889 180.939C253.453 185.337 252.29 188.965 251.277 191.95C255.218 186.766 259.1 180.245 262.797 172.719C258.485 174.013 256.184 176.976 254.889 180.939Z" fill="url(#paint16_linear_1909_3654)"/>
<path d="M251.402 204.099C251.2 204.197 250.999 204.29 250.801 204.374C258.467 201.106 267.611 188.143 271.989 172.003H271.102C261.043 189.179 257.808 200.677 251.402 204.099Z" fill="url(#paint17_linear_1909_3654)"/>
<path d="M246.397 202.657C248.065 200.711 249.423 197.403 251.278 191.95C249.139 194.76 246.985 197.174 244.83 199.144C244.83 199.155 244.83 199.155 244.818 199.162C245.289 200.508 245.805 201.697 246.393 202.657" fill="#079AE1"/>
<path d="M246.396 202.657C245.828 203.319 245.228 203.824 244.559 204.198C244.412 204.279 244.264 204.356 244.113 204.426C244.819 204.79 245.59 205.033 246.452 205.131C246.579 205.143 246.704 205.154 246.835 205.163H246.858C246.917 205.163 246.979 205.163 247.042 205.173H247.067H247.256H247.459H247.522H247.666C247.689 205.173 247.713 205.173 247.736 205.163C247.781 205.163 247.828 205.163 247.874 205.152H247.89H247.942C247.989 205.152 248.041 205.141 248.091 205.136H248.103C248.118 205.136 248.134 205.125 248.149 205.125C248.202 205.114 248.257 205.11 248.308 205.102H248.356C248.414 205.091 248.475 205.084 248.535 205.074H248.547H248.564C248.685 205.051 248.803 205.03 248.922 205.001C247.933 204.655 247.105 203.838 246.391 202.676" fill="#1969BC"/>
<path d="M232.262 205.173C232.979 205.173 233.704 205.106 234.431 204.973C235.104 204.856 235.778 204.677 236.454 204.452C237.016 204.714 237.606 204.91 238.23 205.03C238.714 205.125 239.218 205.173 239.745 205.173H232.262Z" fill="#1E5CB3"/>
<path d="M239.747 205.173C241.519 205.173 242.922 204.973 244.114 204.426C244.82 204.79 245.59 205.033 246.453 205.131C246.58 205.143 246.705 205.154 246.835 205.163H246.859C246.917 205.163 246.979 205.163 247.043 205.174H247.069H247.257H239.742L239.747 205.173Z" fill="#1E5CB3"/>
<path d="M247.262 205.173H247.466H247.529H247.672C247.696 205.173 247.719 205.173 247.742 205.163C247.787 205.163 247.834 205.163 247.881 205.152H247.896H247.949C247.996 205.152 248.048 205.141 248.097 205.136H248.11C248.125 205.136 248.14 205.126 248.155 205.126C248.208 205.115 248.263 205.11 248.314 205.102C248.332 205.102 248.345 205.102 248.364 205.092C248.422 205.081 248.483 205.075 248.544 205.064H248.555H248.572C248.693 205.042 248.811 205.02 248.93 204.991C249.277 205.114 249.638 205.176 250.027 205.176L247.264 205.187L247.262 205.173Z" fill="#1D60B5"/>
<path d="M244.821 199.162V199.151C244.032 199.872 243.244 200.534 242.458 201.131C242.046 201.443 241.637 201.739 241.223 202.018C241.569 202.414 241.921 202.785 242.292 203.123C242.856 203.645 243.458 204.085 244.115 204.424C244.265 204.354 244.414 204.277 244.56 204.196C245.23 203.822 245.831 203.318 246.399 202.656C245.81 201.696 245.294 200.507 244.824 199.16" fill="#175FAB"/>
<path d="M268.293 172.004H264.563H264.192H263.841H263.828C263.586 172.014 263.352 172.022 263.12 172.037C263.011 172.261 262.899 172.485 262.791 172.71C259.095 180.236 255.213 186.758 251.272 191.942C249.419 197.394 248.058 200.702 246.391 202.648C247.104 203.811 247.933 204.629 248.92 204.975C248.948 204.964 248.971 204.964 248.997 204.958H249.013C249.031 204.958 249.049 204.948 249.068 204.948C249.108 204.937 249.151 204.93 249.192 204.918C249.217 204.907 249.239 204.906 249.265 204.898C249.302 204.887 249.341 204.879 249.376 204.871C249.399 204.86 249.422 204.856 249.445 204.852C249.502 204.834 249.554 204.821 249.608 204.804C249.634 204.794 249.662 204.785 249.69 204.778C249.722 204.767 249.754 204.759 249.783 204.746C249.816 204.735 249.849 204.73 249.877 204.718C249.903 204.707 249.931 204.7 249.955 204.69C250.02 204.668 250.083 204.649 250.148 204.625C250.165 204.625 250.182 204.61 250.201 204.606C250.24 204.591 250.28 204.579 250.319 204.562C250.333 204.552 250.35 204.55 250.369 204.545C250.504 204.491 250.644 204.436 250.783 204.376H250.798C250.996 204.292 251.197 204.198 251.397 204.101C257.805 200.679 261.04 189.181 271.099 172.005H268.29L268.293 172.004Z" fill="url(#paint18_linear_1909_3654)"/>
<path d="M212.668 172.758C212.684 172.758 212.698 172.758 212.714 172.769C212.753 172.769 212.792 172.769 212.83 172.781H212.869C212.94 172.792 213.01 172.798 213.082 172.808C213.095 172.808 213.107 172.808 213.118 172.819C213.177 172.83 213.237 172.839 213.298 172.847C213.311 172.847 213.328 172.858 213.342 172.858C213.48 172.885 213.621 172.912 213.756 172.946C213.769 172.946 213.782 172.957 213.794 172.957C213.851 172.97 213.903 172.987 213.961 173.002C213.978 173.002 213.991 173.013 214.007 173.015C214.074 173.032 214.137 173.048 214.204 173.069C214.206 173.069 214.21 173.069 214.218 173.08C214.274 173.097 214.332 173.118 214.391 173.136C214.414 173.147 214.435 173.152 214.457 173.157C214.497 173.174 214.542 173.19 214.58 173.206C214.603 173.206 214.626 173.221 214.651 173.229C214.704 173.252 214.76 173.273 214.815 173.295C214.843 173.306 214.868 173.318 214.895 173.328C214.927 173.343 214.96 173.357 214.994 173.368C215.023 173.381 215.055 173.396 215.082 173.408C215.112 173.423 215.141 173.435 215.17 173.451C215.883 173.786 216.54 174.233 217.148 174.774C217.372 174.549 217.607 174.347 217.85 174.165C216.52 173.264 215.013 172.75 213.275 172.75C213.073 172.75 212.872 172.761 212.668 172.775" fill="#7DCBEC"/>
<path d="M217.148 174.758C217.521 175.09 217.877 175.459 218.215 175.858C218.542 175.641 218.865 175.432 219.19 175.237C218.764 174.83 218.316 174.464 217.849 174.149C217.606 174.33 217.373 174.533 217.148 174.758Z" fill="#5EC5ED"/>
<path d="M212.668 172.758C212.872 172.742 213.073 172.735 213.275 172.735C215.013 172.735 216.52 173.249 217.85 174.149C219.253 173.091 220.95 172.721 223.306 172.721H211.895C212.158 172.721 212.415 172.736 212.668 172.758Z" fill="url(#paint19_linear_1909_3654)"/>
<path d="M223.306 172.721C220.949 172.721 219.253 173.091 217.85 174.149C218.315 174.464 218.764 174.829 219.19 175.236C221.144 174.049 223.079 173.263 224.987 172.919C225.714 172.789 226.44 172.721 227.156 172.721H223.306Z" fill="url(#paint20_linear_1909_3654)"/>
<path d="M251.277 191.953C252.291 188.965 253.451 185.338 254.89 180.939C256.187 176.975 258.483 174.012 262.795 172.718C262.909 172.497 263.016 172.269 263.127 172.045C256.098 172.448 252.813 175.866 251.159 180.928C248.268 189.765 246.517 195.493 244.83 199.144C246.984 197.176 249.138 194.759 251.277 191.953Z" fill="url(#paint21_linear_1909_3654)"/>
<path d="M261.591 202.819H260.794V205.186H260.469V202.819H259.67V202.538H261.591V202.819Z" fill="black"/>
<path d="M264.852 205.186H264.528V203.407C264.528 203.267 264.54 203.095 264.555 202.893C264.522 203.014 264.494 203.098 264.469 203.152L263.525 205.186H263.367L262.421 203.167C262.394 203.111 262.366 203.02 262.336 202.893H262.325C262.336 203 262.34 203.172 262.34 203.411V205.186H262.029V202.537H262.458L263.307 204.386C263.372 204.525 263.412 204.632 263.433 204.703H263.445C263.501 204.558 263.547 204.449 263.579 204.377L264.446 202.537H264.854V205.186H264.852Z" fill="black"/>
</g>
<g filter="url(#filter7_d_1909_3654)">
<path d="M350.199 68.0099C351.221 57.7859 359.825 50 370.1 50H479.9C491.733 50 500.978 60.2164 499.801 71.9901L493.801 131.99C492.779 142.214 484.175 150 473.9 150H364.1C352.267 150 343.022 139.784 344.199 128.01L350.199 68.0099Z" fill="white"/>
</g>
<g clip-path="url(#clip4_1909_3654)">
<path d="M398.12 112.929L390.32 99.3988L398.12 85.8686L401.88 99.3988L398.12 112.929ZM380.76 111.609L370.96 101.585H386.56L394.36 115.115L380.76 111.609ZM380.76 87.1475L394.32 83.6411L386.52 97.1712H370.92L380.76 87.1475ZM400.68 77L382.96 81.7439L380.32 86.405L375 86.3636L362 99.3988L375 112.434L380.32 112.392L382.96 117.054L400.68 121.839L405.44 104.06L402.76 99.4401L405.44 94.82L400.68 77ZM440.92 90.1589C438.56 90.1589 436.96 91.1898 435.76 93.0875H435.68V90.6539H431.52V108.556H435.76V98.4088C435.76 95.9751 437.24 94.2836 439.28 94.2836C441.2 94.2836 442.64 95.4802 442.64 97.5839V108.598H446.88V96.8823C446.92 92.9637 444.52 90.1589 440.92 90.1589ZM425.08 101.007C425.08 103.4 423.76 105.05 421.6 105.05C419.64 105.05 418.4 103.895 418.4 101.791V90.6539H414.16V102.616C414.16 106.535 416.32 109.093 420.2 109.093C422.64 109.093 424 108.144 425.16 106.494H425.28V108.598H429.36V90.6539H425.12V101.007H425.08ZM449.16 90.6539H453.4V108.556H449.16V90.6539ZM449.16 85.0851H453.4V88.6739H449.16V85.0851ZM477.44 90.6539L474.92 98.7386C474.36 100.389 473.92 102.658 473.92 102.658H473.8C473.8 102.658 473.24 100.389 472.68 98.7386L469.84 90.6539H465.28L469.96 103.4C470.96 106.123 471.28 107.277 471.28 108.267C471.28 109.752 470.52 110.701 468.72 110.701H467.08V114.455H469.8C473.32 114.455 474.56 113.011 475.88 109.051L482 90.6948H477.44V90.6539ZM461.32 103.317V93.83H464.04V90.6948H461.32V85.0851H457.08V90.6539H454.68V93.7886H457.08V104.307C457.08 107.69 459.56 108.598 461.8 108.598C463.64 108.598 464.12 108.515 464.12 108.515V105.05H463.04C462.04 105.091 461.32 104.638 461.32 103.317Z" fill="#110B09"/>
</g>
<defs>
<filter id="filter0_d_1909_3654" x="306.51" y="546" width="236.98" height="220" filterUnits="userSpaceOnUse" color-interpolation-filters="sRGB">
<feFlood flood-opacity="0" result="BackgroundImageFix"/>
<feColorMatrix in="SourceAlpha" type="matrix" values="0 0 0 0 0 0 0 0 0 0 0 0 0 0 0 0 0 0 127 0" result="hardAlpha"/>
<feOffset/>
<feGaussianBlur stdDeviation="25"/>
<feComposite in2="hardAlpha" operator="out"/>
<feColorMatrix type="matrix" values="0 0 0 0 0 0 0 0 0 0.591667 0 0 0 0 0.0234789 0 0 0 0.16 0"/>
<feBlend mode="normal" in2="BackgroundImageFix" result="effect1_dropShadow_1909_3654"/>
<feBlend mode="normal" in="SourceGraphic" in2="effect1_dropShadow_1909_3654" result="shape"/>
</filter>
<filter id="filter1_d_1909_3654" x="96.5098" y="463" width="236.98" height="220" filterUnits="userSpaceOnUse" color-interpolation-filters="sRGB">
<feFlood flood-opacity="0" result="BackgroundImageFix"/>
<feColorMatrix in="SourceAlpha" type="matrix" values="0 0 0 0 0 0 0 0 0 0 0 0 0 0 0 0 0 0 127 0" result="hardAlpha"/>
<feOffset/>
<feGaussianBlur stdDeviation="25"/>
<feComposite in2="hardAlpha" operator="out"/>
<feColorMatrix type="matrix" values="0 0 0 0 0 0 0 0 0 0.591667 0 0 0 0 0.0234789 0 0 0 0.16 0"/>
<feBlend mode="normal" in2="BackgroundImageFix" result="effect1_dropShadow_1909_3654"/>
<feBlend mode="normal" in="SourceGraphic" in2="effect1_dropShadow_1909_3654" result="shape"/>
</filter>
<filter id="filter2_d_1909_3654" x="516.51" y="433" width="236.98" height="220" filterUnits="userSpaceOnUse" color-interpolation-filters="sRGB">
<feFlood flood-opacity="0" result="BackgroundImageFix"/>
<feColorMatrix in="SourceAlpha" type="matrix" values="0 0 0 0 0 0 0 0 0 0 0 0 0 0 0 0 0 0 127 0" result="hardAlpha"/>
<feOffset/>
<feGaussianBlur stdDeviation="25"/>
<feComposite in2="hardAlpha" operator="out"/>
<feColorMatrix type="matrix" values="0 0 0 0 0 0 0 0 0 0.591667 0 0 0 0 0.0234789 0 0 0 0.16 0"/>
<feBlend mode="normal" in2="BackgroundImageFix" result="effect1_dropShadow_1909_3654"/>
<feBlend mode="normal" in="SourceGraphic" in2="effect1_dropShadow_1909_3654" result="shape"/>
</filter>
<filter id="filter3_d_1909_3654" x="0.509766" y="283" width="236.98" height="220" filterUnits="userSpaceOnUse" color-interpolation-filters="sRGB">
<feFlood flood-opacity="0" result="BackgroundImageFix"/>
<feColorMatrix in="SourceAlpha" type="matrix" values="0 0 0 0 0 0 0 0 0 0 0 0 0 0 0 0 0 0 127 0" result="hardAlpha"/>
<feOffset/>
<feGaussianBlur stdDeviation="25"/>
<feComposite in2="hardAlpha" operator="out"/>
<feColorMatrix type="matrix" values="0 0 0 0 0 0 0 0 0 0.591667 0 0 0 0 0.0234789 0 0 0 0.16 0"/>
<feBlend mode="normal" in2="BackgroundImageFix" result="effect1_dropShadow_1909_3654"/>
<feBlend mode="normal" in="SourceGraphic" in2="effect1_dropShadow_1909_3654" result="shape"/>
</filter>
<filter id="filter4_d_1909_3654" x="616.51" y="253" width="236.98" height="220" filterUnits="userSpaceOnUse" color-interpolation-filters="sRGB">
<feFlood flood-opacity="0" result="BackgroundImageFix"/>
<feColorMatrix in="SourceAlpha" type="matrix" values="0 0 0 0 0 0 0 0 0 0 0 0 0 0 0 0 0 0 127 0" result="hardAlpha"/>
<feOffset/>
<feGaussianBlur stdDeviation="25"/>
<feComposite in2="hardAlpha" operator="out"/>
<feColorMatrix type="matrix" values="0 0 0 0 0 0 0 0 0 0.591667 0 0 0 0 0.0234789 0 0 0 0.16 0"/>
<feBlend mode="normal" in2="BackgroundImageFix" result="effect1_dropShadow_1909_3654"/>
<feBlend mode="normal" in="SourceGraphic" in2="effect1_dropShadow_1909_3654" result="shape"/>
</filter>
<filter id="filter5_d_1909_3654" x="493.51" y="73" width="236.98" height="220" filterUnits="userSpaceOnUse" color-interpolation-filters="sRGB">
<feFlood flood-opacity="0" result="BackgroundImageFix"/>
<feColorMatrix in="SourceAlpha" type="matrix" values="0 0 0 0 0 0 0 0 0 0 0 0 0 0 0 0 0 0 127 0" result="hardAlpha"/>
<feOffset/>
<feGaussianBlur stdDeviation="25"/>
<feComposite in2="hardAlpha" operator="out"/>
<feColorMatrix type="matrix" values="0 0 0 0 0 0 0 0 0 0.591667 0 0 0 0 0.0234789 0 0 0 0.16 0"/>
<feBlend mode="normal" in2="BackgroundImageFix" result="effect1_dropShadow_1909_3654"/>
<feBlend mode="normal" in="SourceGraphic" in2="effect1_dropShadow_1909_3654" result="shape"/>
</filter>
<filter id="filter6_d_1909_3654" x="113.51" y="103" width="236.98" height="220" filterUnits="userSpaceOnUse" color-interpolation-filters="sRGB">
<feFlood flood-opacity="0" result="BackgroundImageFix"/>
<feColorMatrix in="SourceAlpha" type="matrix" values="0 0 0 0 0 0 0 0 0 0 0 0 0 0 0 0 0 0 127 0" result="hardAlpha"/>
<feOffset/>
<feGaussianBlur stdDeviation="25"/>
<feComposite in2="hardAlpha" operator="out"/>
<feColorMatrix type="matrix" values="0 0 0 0 0 0 0 0 0 0.591667 0 0 0 0 0.0234789 0 0 0 0.16 0"/>
<feBlend mode="normal" in2="BackgroundImageFix" result="effect1_dropShadow_1909_3654"/>
<feBlend mode="normal" in="SourceGraphic" in2="effect1_dropShadow_1909_3654" result="shape"/>
</filter>
<filter id="filter7_d_1909_3654" x="294.098" y="0" width="255.805" height="200" filterUnits="userSpaceOnUse" color-interpolation-filters="sRGB">
<feFlood flood-opacity="0" result="BackgroundImageFix"/>
<feColorMatrix in="SourceAlpha" type="matrix" values="0 0 0 0 0 0 0 0 0 0 0 0 0 0 0 0 0 0 127 0" result="hardAlpha"/>
<feOffset/>
<feGaussianBlur stdDeviation="25"/>
<feComposite in2="hardAlpha" operator="out"/>
<feColorMatrix type="matrix" values="0 0 0 0 0 0 0 0 0 0.591667 0 0 0 0 0.0234789 0 0 0 0.16 0"/>
<feBlend mode="normal" in2="BackgroundImageFix" result="effect1_dropShadow_1909_3654"/>
<feBlend mode="normal" in="SourceGraphic" in2="effect1_dropShadow_1909_3654" result="shape"/>
</filter>
<radialGradient id="paint0_radial_1909_3654" cx="0" cy="0" r="1" gradientUnits="userSpaceOnUse" gradientTransform="translate(424 378) rotate(90) scale(270 400)">
<stop stop-color="#19DF21" stop-opacity="0.8"/>
<stop offset="0.380208" stop-color="#19DF21" stop-opacity="0.6"/>
<stop offset="0.770833" stop-color="#19DF21" stop-opacity="0.2"/>
<stop offset="1" stop-color="#15E61D" stop-opacity="0.06"/>
</radialGradient>
<linearGradient id="paint1_linear_1909_3654" x1="602.781" y1="499.368" x2="630.534" y2="524.044" gradientUnits="userSpaceOnUse">
<stop stop-color="#5CA0D5"/>
<stop offset="1" stop-color="#316A99"/>
</linearGradient>
<linearGradient id="paint2_linear_1909_3654" x1="642.427" y1="537.514" x2="632.672" y2="523.251" gradientUnits="userSpaceOnUse">
<stop stop-color="#FFD43E"/>
<stop offset="1" stop-color="#FFE975"/>
</linearGradient>
<radialGradient id="paint3_radial_1909_3654" cx="0" cy="0" r="1" gradientUnits="userSpaceOnUse" gradientTransform="translate(630.07 554.425) rotate(-90) scale(3.10751 14.2562)">
<stop stop-color="#B8B8B8" stop-opacity="0.498"/>
<stop offset="1" stop-color="#7F8080" stop-opacity="0"/>
</radialGradient>
<linearGradient id="paint4_linear_1909_3654" x1="1020.05" y1="-355.61" x2="1020.05" y2="3721" gradientUnits="userSpaceOnUse">
<stop stop-color="#0994DC"/>
<stop offset="0.350006" stop-color="#66CEF5"/>
<stop offset="0.846161" stop-color="#127BCA"/>
<stop offset="1" stop-color="#127BCA"/>
</linearGradient>
<linearGradient id="paint5_linear_1909_3654" x1="1061.09" y1="-370.108" x2="1061.09" y2="3810.39" gradientUnits="userSpaceOnUse">
<stop stop-color="#0E76BC"/>
<stop offset="0.360001" stop-color="#36AEE8"/>
<stop offset="0.846161" stop-color="#00ADEF"/>
<stop offset="1" stop-color="#00ADEF"/>
</linearGradient>
<linearGradient id="paint6_linear_1909_3654" x1="1027.79" y1="3322.64" x2="1027.79" y2="-3.72625" gradientUnits="userSpaceOnUse">
<stop stop-color="#1C63B7"/>
<stop offset="0.5" stop-color="#33BDF2"/>
<stop offset="1" stop-color="#33BDF2" stop-opacity="0.419608"/>
</linearGradient>
<linearGradient id="paint7_linear_1909_3654" x1="1017.85" y1="-395.023" x2="1017.85" y2="3945.42" gradientUnits="userSpaceOnUse">
<stop stop-color="#166AB8"/>
<stop offset="0.399994" stop-color="#36AEE8"/>
<stop offset="0.846161" stop-color="#0798DD"/>
<stop offset="1" stop-color="#0798DD"/>
</linearGradient>
<linearGradient id="paint8_linear_1909_3654" x1="1246.38" y1="-430.588" x2="1246.38" y2="4184.9" gradientUnits="userSpaceOnUse">
<stop stop-color="#124379"/>
<stop offset="0.389999" stop-color="#1487CB"/>
<stop offset="0.780228" stop-color="#165197"/>
<stop offset="1" stop-color="#165197"/>
</linearGradient>
<linearGradient id="paint9_linear_1909_3654" x1="211.574" y1="696.032" x2="894.224" y2="696.032" gradientUnits="userSpaceOnUse">
<stop stop-color="#33BDF2" stop-opacity="0.698039"/>
<stop offset="1" stop-color="#1DACD8"/>
</linearGradient>
<linearGradient id="paint10_linear_1909_3654" x1="1640.37" y1="3312.04" x2="1640.37" y2="71.6973" gradientUnits="userSpaceOnUse">
<stop stop-color="#136AB4"/>
<stop offset="0.6" stop-color="#59CAF5" stop-opacity="0.54902"/>
<stop offset="1" stop-color="#59CAF5" stop-opacity="0.235294"/>
</linearGradient>
<linearGradient id="paint11_linear_1909_3654" x1="187.328" y1="1838.94" x2="2719.37" y2="1838.94" gradientUnits="userSpaceOnUse">
<stop stop-color="#05A1E6" stop-opacity="0.247059"/>
<stop offset="1" stop-color="#05A1E6"/>
</linearGradient>
<linearGradient id="paint12_linear_1909_3654" x1="1054.95" y1="3257.49" x2="1054.95" y2="-60.3605" gradientUnits="userSpaceOnUse">
<stop stop-color="#318ED5"/>
<stop offset="1" stop-color="#38A7E4"/>
</linearGradient>
<linearGradient id="paint13_linear_1909_3654" x1="997.142" y1="1937.76" x2="997.142" y2="-1287.37" gradientUnits="userSpaceOnUse">
<stop stop-color="#05A1E6"/>
<stop offset="1" stop-color="#05A1E6" stop-opacity="0.54902"/>
</linearGradient>
<linearGradient id="paint14_linear_1909_3654" x1="1119.33" y1="2904.29" x2="1119.33" y2="179.001" gradientUnits="userSpaceOnUse">
<stop stop-color="#1959A6"/>
<stop offset="0.5" stop-color="#05A1E6"/>
<stop offset="0.917587" stop-color="#7EC5EA"/>
<stop offset="1" stop-color="#7EC5EA"/>
</linearGradient>
<linearGradient id="paint15_linear_1909_3654" x1="1719.2" y1="3319.24" x2="828.699" y2="472.309" gradientUnits="userSpaceOnUse">
<stop stop-color="#165096"/>
<stop offset="1" stop-color="#0D82CA"/>
</linearGradient>
<linearGradient id="paint16_linear_1909_3654" x1="827.186" y1="1653.53" x2="827.186" y2="109.274" gradientUnits="userSpaceOnUse">
<stop stop-color="#05A1E6"/>
<stop offset="0.873627" stop-color="#0495D6"/>
<stop offset="1" stop-color="#0495D6"/>
</linearGradient>
<linearGradient id="paint17_linear_1909_3654" x1="1633.62" y1="37.294" x2="237.52" y2="3279.98" gradientUnits="userSpaceOnUse">
<stop stop-color="#38A7E4" stop-opacity="0.329412"/>
<stop offset="0.961533" stop-color="#0E88D3"/>
<stop offset="1" stop-color="#0E88D3"/>
</linearGradient>
<linearGradient id="paint18_linear_1909_3654" x1="1482.22" y1="162.251" x2="1482.22" y2="3531.21" gradientUnits="userSpaceOnUse">
<stop stop-color="#168CD4"/>
<stop offset="0.5" stop-color="#1C87CC"/>
<stop offset="1" stop-color="#154B8D"/>
</linearGradient>
<linearGradient id="paint19_linear_1909_3654" x1="402.168" y1="-119.395" x2="416.125" y2="233.985" gradientUnits="userSpaceOnUse">
<stop stop-color="#97D6EE"/>
<stop offset="0.703293" stop-color="#55C1EA"/>
<stop offset="1" stop-color="#55C1EA"/>
</linearGradient>
<linearGradient id="paint20_linear_1909_3654" x1="281.974" y1="159.39" x2="345.217" y2="-215.857" gradientUnits="userSpaceOnUse">
<stop stop-color="#7ACCEC"/>
<stop offset="1" stop-color="#3FB7ED"/>
</linearGradient>
<linearGradient id="paint21_linear_1909_3654" x1="1159.62" y1="344.47" x2="1159.62" y2="3639.65" gradientUnits="userSpaceOnUse">
<stop stop-color="#1DA7E7"/>
<stop offset="1" stop-color="#37ABE7" stop-opacity="0"/>
</linearGradient>
<clipPath id="clip0_1909_3654">
<rect width="80" height="90" fill="white" transform="translate(385 611)"/>
</clipPath>
<clipPath id="clip1_1909_3654">
<rect width="84" height="90" fill="white" transform="translate(593 498)"/>
</clipPath>
<clipPath id="clip2_1909_3654">
<rect width="90" height="90" fill="white" transform="translate(74 348)"/>
</clipPath>
<clipPath id="clip3_1909_3654">
<rect width="90" height="82" fill="white" transform="translate(187 172)"/>
</clipPath>
<clipPath id="clip4_1909_3654">
<rect width="120" height="45" fill="white" transform="translate(362 77)"/>
</clipPath>
</defs>
</svg>
