<svg width="854" height="766" viewBox="0 0 854 766" fill="none" xmlns="http://www.w3.org/2000/svg">
<path d="M714.224 310.186H714.161C714.161 309.734 714.224 309.283 714.224 308.831C714.224 247.24 665.28 197.258 604.827 197.258C597.049 197.258 589.461 198.097 582.189 199.709C560.499 145.922 508.71 108 448.13 108C402.664 108 362.131 129.412 335.572 162.819C317.94 153.674 298.441 148.901 278.66 148.889C213.212 148.889 159.462 199.709 153.202 264.783C82.0624 268.652 24.9611 328.115 24.0125 401.959C23.0008 478.835 83.3903 542.038 158.767 543.005C164.647 543.07 170.339 542.683 176.03 541.973C205.181 604.661 267.721 648 340.251 648C384.01 648 424.101 632.199 455.466 605.951C479.432 624.073 509.026 634.908 541.149 634.908C607.04 634.908 662.498 589.827 679.761 528.236C690.637 531.913 702.209 533.976 714.287 533.976C774.866 533.976 824 483.865 824 422.081C823.937 360.297 774.866 310.186 714.224 310.186Z" fill="url(#paint0_radial_2007_6030)"/>
<circle cx="424" cy="378" r="288" stroke="#A6F4A9" stroke-width="4"/>
<circle cx="424" cy="378" r="228" stroke="#E1FFE3" stroke-width="4"/>
<circle cx="424" cy="378" r="168" stroke="white" stroke-width="4"/>
<path d="M318.508 324H329.008C335.968 324 339.088 327.6 337.408 334.44L332.128 355.56C330.388 362.46 325.468 366 318.568 366H308.008L318.508 324ZM325.108 331.32L318.268 358.68H320.308C322.108 358.68 323.188 357.72 323.668 355.68L329.008 334.26C329.548 332.22 329.008 331.32 327.268 331.32H325.108ZM342.664 352.62L341.584 356.88C341.164 358.68 341.644 359.76 342.904 359.76C344.164 359.76 345.364 358.68 345.784 356.88L346.384 354.42H354.364L353.824 356.46C352.324 362.64 347.344 366.6 341.164 366.6C334.984 366.6 332.164 362.7 333.724 356.46L336.604 344.94C338.164 338.7 342.964 334.8 349.144 334.8C355.264 334.8 358.264 338.76 356.704 344.94L354.784 352.62H342.664ZM344.704 344.52L343.744 348.3H347.944L348.904 344.52C349.324 342.72 348.844 341.64 347.584 341.64C346.324 341.64 345.124 342.72 344.704 344.52ZM359.5 335.4H367.42L364 356.7H364.54L371.74 335.4H379.66L367.6 366H356.32L359.5 335.4ZM383.68 352.62L382.6 356.88C382.18 358.68 382.66 359.76 383.92 359.76C385.18 359.76 386.38 358.68 386.8 356.88L387.4 354.42H395.38L394.84 356.46C393.34 362.64 388.36 366.6 382.18 366.6C376 366.6 373.18 362.7 374.74 356.46L377.62 344.94C379.18 338.7 383.98 334.8 390.16 334.8C396.28 334.8 399.28 338.76 397.72 344.94L395.8 352.62H383.68ZM385.72 344.52L384.76 348.3H388.96L389.92 344.52C390.34 342.72 389.86 341.64 388.6 341.64C387.34 341.64 386.14 342.72 385.72 344.52ZM394.434 366L405.234 322.8H413.214L402.414 366H394.434ZM409.672 344.94C411.112 339 415.612 334.8 422.092 334.8C428.632 334.8 431.212 339.06 429.712 344.94L426.832 356.46C425.392 362.34 420.652 366.6 414.172 366.6C407.692 366.6 405.292 362.4 406.792 356.46L409.672 344.94ZM417.712 344.52L414.592 356.94C414.172 358.68 414.652 359.76 415.912 359.76C417.172 359.76 418.312 358.68 418.732 356.94L421.852 344.52C422.332 342.66 421.792 341.64 420.532 341.64C419.272 341.64 418.192 342.66 417.712 344.52ZM433.986 335.4H441.966L441.006 339.3H441.546C444.306 335.88 446.346 334.8 448.206 334.8C451.806 334.8 453.366 338.34 452.046 343.56L448.446 358.02C447.126 363.18 443.946 366.6 440.586 366.6C438.366 366.6 436.446 365.1 435.846 362.1H435.306L431.286 378.18H423.306L433.986 335.4ZM439.746 344.28L436.506 357.18C436.626 358.38 437.346 359.22 438.306 359.22C439.386 359.22 440.466 358.14 440.826 356.64L443.766 344.76C444.126 343.32 443.646 342.24 442.626 342.24C441.666 342.24 440.466 343.08 439.746 344.28ZM448.339 366L456.019 335.4H463.939L463.099 338.88L463.639 338.82C465.499 336.24 467.719 334.8 469.939 334.8C472.339 334.8 473.779 336.3 474.139 338.88H474.679C476.599 336.24 479.179 334.8 481.459 334.8C484.819 334.8 487.099 337.74 485.779 343.08L480.079 366H472.099L477.559 344.28C477.919 342.78 477.499 341.76 476.479 341.76C475.699 341.76 474.799 342.3 473.839 343.32C473.779 343.44 473.779 343.5 473.779 343.56L468.199 366H460.219L465.679 344.28C466.039 342.78 465.619 341.76 464.599 341.76C463.699 341.76 462.619 342.54 461.839 343.8L456.319 366H448.339ZM493.133 352.62L492.053 356.88C491.633 358.68 492.113 359.76 493.373 359.76C494.633 359.76 495.833 358.68 496.253 356.88L496.853 354.42H504.833L504.293 356.46C502.793 362.64 497.813 366.6 491.633 366.6C485.453 366.6 482.633 362.7 484.193 356.46L487.073 344.94C488.633 338.7 493.433 334.8 499.613 334.8C505.733 334.8 508.733 338.76 507.173 344.94L505.253 352.62H493.133ZM495.173 344.52L494.213 348.3H498.413L499.373 344.52C499.793 342.72 499.313 341.64 498.053 341.64C496.793 341.64 495.593 342.72 495.173 344.52ZM503.827 366L511.447 335.4H519.427L518.527 338.88L519.127 338.82C521.047 336.18 523.327 334.8 525.667 334.8C528.967 334.8 531.007 337.5 529.627 343.08L523.927 366H515.947L521.407 344.22C521.767 342.72 521.287 341.7 520.207 341.7C519.247 341.7 518.167 342.48 517.327 343.68L511.807 366H503.827ZM530.784 342.24L532.464 335.4H535.224L536.844 328.8L544.884 328.32L543.144 335.4H548.304L546.564 342.24H541.464L537.924 356.34C537.324 358.74 538.524 359.52 540.204 359.52C540.804 359.52 541.584 359.4 542.364 359.22L540.744 366.06C538.944 366.42 537.264 366.6 535.824 366.6C530.784 366.6 528.024 364.2 529.884 356.76L533.484 342.24H530.784ZM313.167 397.24L314.847 390.4H317.607L319.227 383.8L327.267 383.32L325.527 390.4H330.687L328.947 397.24H323.847L320.307 411.34C319.707 413.74 320.907 414.52 322.587 414.52C323.187 414.52 323.967 414.4 324.747 414.22L323.127 421.06C321.327 421.42 319.647 421.6 318.207 421.6C313.167 421.6 310.407 419.2 312.267 411.76L315.867 397.24H313.167ZM335.399 407.62L334.319 411.88C333.899 413.68 334.379 414.76 335.639 414.76C336.899 414.76 338.099 413.68 338.519 411.88L339.119 409.42H347.099L346.559 411.46C345.059 417.64 340.079 421.6 333.899 421.6C327.719 421.6 324.899 417.7 326.459 411.46L329.339 399.94C330.899 393.7 335.699 389.8 341.879 389.8C347.999 389.8 350.999 393.76 349.439 399.94L347.519 407.62H335.399ZM337.439 399.52L336.479 403.3H340.679L341.639 399.52C342.059 397.72 341.579 396.64 340.319 396.64C339.059 396.64 337.859 397.72 337.439 399.52ZM359.413 399.52L356.293 411.94C355.813 413.68 356.353 414.76 357.613 414.76C358.873 414.76 360.013 413.68 360.433 411.94L361.693 407.02H369.613L368.533 411.46C366.973 417.64 362.053 421.6 355.873 421.6C349.693 421.6 346.873 417.7 348.433 411.46L351.313 399.94C352.873 393.7 357.613 389.8 363.793 389.8C369.973 389.8 372.913 393.76 371.413 399.94L370.273 404.38H362.353L363.553 399.52C363.973 397.72 363.493 396.64 362.233 396.64C360.973 396.64 359.833 397.72 359.413 399.52ZM368.007 421L378.807 377.8H386.727L382.707 393.88H383.307C385.167 391.18 387.447 389.8 389.847 389.8C393.147 389.8 395.187 392.5 393.807 398.08L388.107 421H380.127L385.527 399.34C385.887 397.84 385.407 396.82 384.327 396.82C383.367 396.82 382.287 397.6 381.507 398.8L375.987 421H368.007ZM389.98 421L397.6 390.4H405.58L404.68 393.88L405.28 393.82C407.2 391.18 409.48 389.8 411.82 389.8C415.12 389.8 417.16 392.5 415.78 398.08L410.08 421H402.1L407.56 399.22C407.92 397.72 407.44 396.7 406.36 396.7C405.4 396.7 404.32 397.48 403.48 398.68L397.96 421H389.98ZM417.172 399.94C418.612 394 423.112 389.8 429.592 389.8C436.132 389.8 438.712 394.06 437.212 399.94L434.332 411.46C432.892 417.34 428.152 421.6 421.672 421.6C415.192 421.6 412.792 417.4 414.292 411.46L417.172 399.94ZM425.212 399.52L422.092 411.94C421.672 413.68 422.152 414.76 423.412 414.76C424.672 414.76 425.812 413.68 426.232 411.94L429.352 399.52C429.832 397.66 429.292 396.64 428.032 396.64C426.772 396.64 425.692 397.66 425.212 399.52ZM433.926 421L444.726 377.8H452.706L441.906 421H433.926ZM449.164 399.94C450.604 394 455.104 389.8 461.584 389.8C468.124 389.8 470.704 394.06 469.204 399.94L466.324 411.46C464.884 417.34 460.144 421.6 453.664 421.6C447.184 421.6 444.784 417.4 446.284 411.46L449.164 399.94ZM457.204 399.52L454.084 411.94C453.664 413.68 454.144 414.76 455.404 414.76C456.664 414.76 457.804 413.68 458.224 411.94L461.344 399.52C461.824 397.66 461.284 396.64 460.024 396.64C458.764 396.64 457.684 397.66 457.204 399.52ZM493.518 390.4L485.058 424.36C483.558 430.18 479.058 433.6 472.818 433.6C466.518 433.6 463.638 430.12 465.078 424.42L465.438 422.92H473.418L473.178 423.94C472.698 425.68 473.178 426.76 474.378 426.76C475.638 426.76 476.778 425.68 477.198 423.82L478.758 417.52H478.218C476.358 420.16 473.958 421.6 471.678 421.6C468.018 421.6 466.458 418.18 467.778 412.96L471.498 398.08C472.758 393.04 475.938 389.8 479.538 389.8C481.818 389.8 483.558 391.18 484.098 393.88H484.698L485.538 390.4H493.518ZM483.438 398.92C483.258 397.66 482.598 396.82 481.698 396.82C480.618 396.82 479.538 397.9 479.118 399.34L475.998 411.88C475.638 413.44 476.058 414.64 477.078 414.64C478.038 414.64 479.238 413.74 480.018 412.48L483.438 398.92ZM496.833 383.44C497.553 380.74 499.533 379.42 502.293 379.42C505.113 379.42 506.553 380.8 505.833 383.44C505.173 386.2 503.133 387.52 500.313 387.52C497.553 387.52 496.173 386.2 496.833 383.44ZM495.693 390.4H503.613L495.993 421H488.013L495.693 390.4ZM509.305 407.62L508.225 411.88C507.805 413.68 508.285 414.76 509.545 414.76C510.805 414.76 512.005 413.68 512.425 411.88L513.025 409.42H521.005L520.465 411.46C518.965 417.64 513.985 421.6 507.805 421.6C501.625 421.6 498.805 417.7 500.365 411.46L503.245 399.94C504.805 393.7 509.605 389.8 515.785 389.8C521.905 389.8 524.905 393.76 523.345 399.94L521.425 407.62H509.305ZM511.345 399.52L510.385 403.3H514.585L515.545 399.52C515.965 397.72 515.485 396.64 514.225 396.64C512.965 396.64 511.765 397.72 511.345 399.52ZM544.899 401.2H536.979L537.399 399.52C537.819 397.72 537.459 396.7 536.139 396.7C534.939 396.7 533.859 397.66 533.439 399.22V399.34C533.019 401.02 533.379 401.68 535.359 402.46L538.719 404.2C542.079 405.7 543.339 407.74 542.319 411.82L542.079 412.66C540.879 417.4 536.079 421.6 529.719 421.6C523.359 421.6 520.899 417.4 522.279 411.82L522.699 410.2H530.619L530.259 411.82C529.779 413.56 530.259 414.64 531.519 414.64C532.779 414.64 533.979 413.62 534.339 412.12V411.94C534.819 410.14 534.459 409.54 532.239 408.7L528.699 407.08C525.399 405.64 524.439 403.54 525.459 399.52L525.639 398.8C526.839 393.94 531.399 389.8 537.759 389.8C544.119 389.8 546.699 394 545.319 399.52L544.899 401.2Z" fill="white"/>
<g filter="url(#filter0_d_2007_6030)">
<path d="M362.398 614.546C363.16 604.092 371.863 596 382.345 596H473.489C485.107 596 494.281 605.867 493.436 617.454L487.602 697.454C486.84 707.908 478.137 716 467.655 716H376.511C364.893 716 355.719 706.133 356.564 694.546L362.398 614.546Z" fill="white"/>
</g>
<g clip-path="url(#clip0_2007_6030)">
<path d="M464.644 637.642C464.644 636.144 464.323 634.82 463.675 633.684C463.039 632.566 462.085 631.63 460.806 630.889C450.25 624.803 439.683 618.735 429.13 612.642C426.285 611 423.526 611.06 420.702 612.726C416.5 615.204 395.463 627.255 389.194 630.886C386.612 632.38 385.356 634.667 385.356 637.64C385.352 649.88 385.356 662.12 385.352 674.36C385.352 675.825 385.659 677.124 386.279 678.243C386.916 679.394 387.882 680.357 389.191 681.114C395.46 684.745 416.5 696.795 420.701 699.274C423.526 700.94 426.285 701 429.131 699.357C439.684 693.264 450.252 687.197 460.81 681.11C462.118 680.353 463.085 679.39 463.722 678.24C464.34 677.121 464.649 675.822 464.649 674.357C464.649 674.357 464.649 649.883 464.644 637.642Z" fill="#A179DC"/>
<path d="M425.12 655.881L386.277 678.243C386.914 679.394 387.881 680.357 389.189 681.114C395.459 684.745 416.499 696.795 420.699 699.274C423.525 700.94 426.283 701 429.129 699.357C439.683 693.264 450.25 687.197 460.808 681.11C462.117 680.353 463.084 679.39 463.72 678.24L425.12 655.881Z" fill="#280068"/>
<path d="M464.644 637.642C464.644 636.144 464.323 634.82 463.675 633.684L425.121 655.881L463.722 678.24C464.34 677.121 464.648 675.822 464.648 674.357C464.648 674.357 464.648 649.883 464.644 637.642Z" fill="#390091"/>
<path d="M447.991 647.521V651.701H452.172V647.521H454.262V651.701H458.442V653.791H454.262V657.971H458.442V660.061H454.262V664.241H452.172V660.061H447.991V664.241H445.901V660.061H441.721V657.971H445.901V653.791H441.721V651.701H445.901V647.521H447.991ZM452.172 653.791H447.991V657.971H452.172V653.791Z" fill="white"/>
<path d="M425.207 626.528C436.111 626.528 445.631 632.449 450.73 641.251L450.68 641.166L437.851 648.552C435.324 644.273 430.69 641.385 425.375 641.325L425.207 641.324C417.102 641.324 410.53 647.895 410.53 656C410.528 658.554 411.195 661.065 412.466 663.281C414.996 667.697 419.752 670.675 425.207 670.675C430.697 670.675 435.48 667.659 437.997 663.196L437.936 663.303L450.745 670.723C445.702 679.45 436.313 685.352 425.536 685.47L425.207 685.472C414.269 685.472 404.723 679.514 399.636 670.666C397.153 666.347 395.732 661.34 395.732 656C395.732 639.723 408.928 626.528 425.207 626.528L425.207 626.528Z" fill="white"/>
</g>
<g filter="url(#filter1_d_2007_6030)">
<path d="M132.398 531.546C133.16 521.092 141.863 513 152.345 513H243.489C255.107 513 264.281 522.867 263.436 534.454L257.602 614.454C256.84 624.908 248.137 633 237.655 633H146.511C134.893 633 125.719 623.133 126.564 611.546L132.398 531.546Z" fill="white"/>
</g>
<path d="M188.86 613.164L186.814 621.414C186.638 622.14 186.858 622.536 187.408 622.536C187.98 622.536 188.442 622.118 188.618 621.414L189.498 617.894H192.578L191.764 621.172C191.104 623.746 189.256 625.22 186.726 625.22C184.196 625.22 183.14 623.768 183.8 621.172L185.736 613.384C186.374 610.788 188.156 609.358 190.664 609.358C193.238 609.358 194.338 610.832 193.7 613.384L192.886 616.684H189.784L190.664 613.164C190.862 612.416 190.642 612.042 190.07 612.042C189.498 612.042 189.058 612.438 188.86 613.164ZM201.94 615.056H198.86L199.322 613.186C199.52 612.46 199.3 612.064 198.772 612.064C198.2 612.064 197.76 612.482 197.584 613.186L197.32 614.22C197.1 615.144 197.232 615.474 198.75 616.288L199.41 616.618C200.862 617.366 201.126 618.422 200.532 620.82L200.444 621.172C199.806 623.746 197.958 625.22 195.406 625.22C192.876 625.22 191.82 623.79 192.48 621.172L192.876 619.544H195.956L195.494 621.414C195.318 622.14 195.538 622.536 196.088 622.536C196.66 622.536 197.122 622.118 197.298 621.414L197.584 620.314C197.804 619.39 197.65 619.082 196.242 618.312L195.494 617.938C194.042 617.168 193.778 616.068 194.372 613.67L194.482 613.23C195.098 610.81 196.858 609.38 199.344 609.38C201.896 609.38 202.996 610.854 202.358 613.406L201.94 615.056ZM210.62 615.056H207.54L208.002 613.186C208.2 612.46 207.98 612.064 207.452 612.064C206.88 612.064 206.44 612.482 206.264 613.186L206 614.22C205.78 615.144 205.912 615.474 207.43 616.288L208.09 616.618C209.542 617.366 209.806 618.422 209.212 620.82L209.124 621.172C208.486 623.746 206.638 625.22 204.086 625.22C201.556 625.22 200.5 623.79 201.16 621.172L201.556 619.544H204.636L204.174 621.414C203.998 622.14 204.218 622.536 204.768 622.536C205.34 622.536 205.802 622.118 205.978 621.414L206.264 620.314C206.484 619.39 206.33 619.082 204.922 618.312L204.174 617.938C202.722 617.168 202.458 616.068 203.052 613.67L203.162 613.23C203.778 610.81 205.538 609.38 208.024 609.38C210.576 609.38 211.676 610.854 211.038 613.406L210.62 615.056Z" fill="black"/>
<g clip-path="url(#clip1_2007_6030)">
<path d="M165.861 594.619L160 523.134L230 523.278L223.802 594.619L195.264 602.866L165.861 594.619Z" fill="#1B73BA"/>
<path d="M195.266 595.962V529.942L224.092 530.038L218.952 589.106L195.266 595.962Z" fill="#1C88C7"/>
<path d="M216.932 538.381H172.588L173.789 547.01H194.832L174.126 555.88L175.326 564.223H205.835L204.729 575.873L194.4 577.887L185.032 575.49L184.311 568.873H175.711L176.864 582.634L195.312 587.763L212.993 582.154L215.251 555.257H196.561L216.932 546.819L216.932 538.381Z" fill="white"/>
</g>
<g filter="url(#filter2_d_2007_6030)">
<path d="M573.472 501.339C574.336 490.973 583.001 483 593.403 483H703.264C714.965 483 724.167 493.001 723.195 504.661L716.528 584.661C715.664 595.027 706.999 603 696.597 603H586.736C575.035 603 565.833 592.999 566.805 581.339L573.472 501.339Z" fill="white"/>
</g>
<g clip-path="url(#clip2_2007_6030)">
<path d="M645 578.58C680.899 578.58 710 562.556 710 542.79C710 523.024 680.899 507 645 507C609.101 507 580 523.024 580 542.79C580 562.556 609.101 578.58 645 578.58Z" fill="#8993BE"/>
<path fill-rule="evenodd" clip-rule="evenodd" d="M598.254 563.982L605.378 525.837H621.849C628.973 526.308 632.534 530.075 632.534 536.668C632.534 547.97 624.076 554.563 616.507 554.092H608.494L606.713 563.982H598.254ZM610.274 547.029L612.501 532.901H618.288C621.405 532.901 623.63 534.313 623.63 537.139C623.185 545.145 619.624 546.558 615.617 547.029H610.274ZM630.879 554.092L638.002 515.948H646.462L644.681 525.837H652.694C659.818 526.308 662.489 530.075 661.598 534.784L658.482 554.092H649.578L652.694 536.668C653.139 534.313 653.139 532.901 650.023 532.901H643.345L639.338 554.092H630.879ZM657.912 563.982L665.035 525.837H681.507C688.631 526.308 692.193 530.075 692.193 536.668C692.193 547.97 683.733 554.563 676.165 554.092H668.151L666.37 563.982H657.912ZM669.932 547.029L672.158 532.901H677.946C681.062 532.901 683.288 534.313 683.288 537.139C682.843 545.145 679.281 546.558 675.275 547.029H669.932H669.932Z" fill="#232531"/>
</g>
<g filter="url(#filter3_d_2007_6030)">
<path d="M56.3977 351.546C57.16 341.092 65.8634 333 76.3448 333H167.489C179.107 333 188.281 342.867 187.436 354.454L181.602 434.454C180.84 444.908 172.137 453 161.655 453H70.5114C58.8928 453 49.7194 443.133 50.5644 431.546L56.3977 351.546Z" fill="white"/>
</g>
<g clip-path="url(#clip3_2007_6030)">
<path d="M74 348H164V438H74V348Z" fill="#F0DB4F"/>
<path d="M156.635 416.535C155.977 412.429 153.299 408.981 145.368 405.764C142.613 404.498 139.542 403.591 138.627 401.504C138.302 400.289 138.259 399.605 138.464 398.869C139.055 396.482 141.903 395.738 144.162 396.422C145.616 396.91 146.994 398.03 147.824 399.818C151.708 397.303 151.699 397.32 154.411 395.592C153.419 394.052 152.888 393.342 152.238 392.684C149.902 390.074 146.72 388.731 141.63 388.834C140.748 388.945 139.859 389.065 138.978 389.176C136.437 389.818 134.016 391.152 132.595 392.94C128.335 397.774 129.55 406.235 134.734 409.717C139.842 413.55 147.344 414.422 148.303 418.007C149.235 422.396 145.077 423.816 140.945 423.311C137.9 422.678 136.206 421.129 134.375 418.315C131.004 420.265 131.004 420.265 127.539 422.259C128.361 424.055 129.225 424.868 130.602 426.425C137.121 433.038 153.436 432.713 156.362 422.703C156.481 422.361 157.269 420.068 156.635 416.535ZM122.928 389.364H114.51C114.51 396.636 114.476 403.856 114.476 411.128C114.476 415.757 114.715 420 113.962 421.3C112.73 423.858 109.539 423.542 108.085 423.046C106.605 422.318 105.852 421.283 104.98 419.82C104.74 419.401 104.56 419.076 104.5 419.05C102.216 420.445 99.9405 421.848 97.6562 423.242C98.7942 425.578 100.471 427.605 102.618 428.923C105.826 430.848 110.138 431.438 114.647 430.403C117.581 429.547 120.113 427.777 121.44 425.082C123.356 421.548 122.945 417.271 122.928 412.54C122.971 404.823 122.928 397.106 122.928 389.364Z" fill="#323330"/>
</g>
<g filter="url(#filter4_d_2007_6030)">
<path d="M672.398 321.546C673.16 311.092 681.863 303 692.345 303H783.489C795.107 303 804.281 312.867 803.436 324.454L797.602 404.454C796.84 414.908 788.137 423 777.655 423H686.511C674.893 423 665.719 413.133 666.564 401.546L672.398 321.546Z" fill="white"/>
</g>
<g clip-path="url(#clip4_2007_6030)">
<path d="M774.865 344.472C774.865 342.963 774.542 341.63 773.889 340.485C773.248 339.359 772.287 338.416 770.999 337.67C760.367 331.54 749.723 325.428 739.094 319.292C736.228 317.638 733.45 317.698 730.606 319.376C726.373 321.871 705.184 334.01 698.87 337.667C696.27 339.172 695.005 341.475 695.004 344.47C695 356.798 695.004 369.126 695 381.455C695.001 382.931 695.31 384.239 695.934 385.366C696.575 386.526 697.549 387.495 698.867 388.258C705.181 391.914 726.373 404.052 730.604 406.548C733.45 408.227 736.228 408.287 739.095 406.632C749.725 400.496 760.368 394.384 771.003 388.254C772.321 387.491 773.294 386.522 773.936 385.363C774.559 384.236 774.869 382.928 774.869 381.451C774.869 381.451 774.869 356.801 774.865 344.472Z" fill="#5C8DBC"/>
<path d="M735.057 362.842L695.934 385.366C696.575 386.526 697.549 387.495 698.867 388.258C705.181 391.914 726.373 404.052 730.604 406.548C733.45 408.227 736.228 408.287 739.095 406.632C749.725 400.495 760.368 394.384 771.003 388.254C772.32 387.491 773.294 386.522 773.936 385.363L735.057 362.842Z" fill="#1A4674"/>
<path d="M723.469 369.514C725.745 373.488 730.025 376.168 734.934 376.168C739.874 376.168 744.178 373.454 746.443 369.437L735.057 362.842L723.469 369.514Z" fill="#1A4674"/>
<path d="M774.865 344.472C774.864 342.963 774.542 341.63 773.889 340.485L735.057 362.842L773.936 385.363C774.559 384.236 774.869 382.928 774.869 381.451C774.869 381.451 774.869 356.801 774.865 344.472Z" fill="#1B598E"/>
<path d="M772.727 364.452H769.689V367.49H766.65V364.452H763.613V361.414H766.65V358.377H769.689V361.414H772.727V364.452ZM761.641 364.452H758.604V367.49H755.565V364.452H752.527V361.414H755.565V358.377H758.604V361.414H761.641V364.452Z" fill="white"/>
<path d="M746.444 369.437C744.179 373.454 739.875 376.168 734.936 376.168C730.026 376.168 725.746 373.488 723.47 369.514C722.326 367.52 721.726 365.261 721.728 362.962C721.728 355.669 727.641 349.756 734.936 349.756C739.813 349.756 744.071 352.403 746.358 356.336L757.902 349.69C753.314 341.77 744.747 336.442 734.936 336.442C720.287 336.442 708.412 348.315 708.412 362.962C708.412 367.767 709.691 372.273 711.925 376.16C716.502 384.122 725.093 389.483 734.936 389.483C744.796 389.483 753.401 384.1 757.971 376.115L746.444 369.437Z" fill="white"/>
</g>
<g filter="url(#filter5_d_2007_6030)">
<path d="M549.398 141.546C550.16 131.092 558.863 123 569.345 123H660.489C672.107 123 681.281 132.867 680.436 144.454L674.602 224.454C673.84 234.908 665.137 243 654.655 243H563.511C551.893 243 542.719 233.133 543.564 221.546L549.398 141.546Z" fill="white"/>
</g>
<path d="M604.238 219.6H607.34L603.49 235H600.41L602.038 228.444H600.432L598.804 235H595.724L599.574 219.6H602.654L601.114 225.76H602.698L604.238 219.6ZM615.429 219.578L614.769 222.262H612.503L609.335 234.978H606.255L609.423 222.262H607.179L607.839 219.578H615.429ZM616.009 219.6H620.013L618.385 229.72H618.605L622.015 219.6H626.019L622.169 235H619.331L622.191 224.946H621.993L618.187 235H616.163L617.373 224.946H617.175L614.997 235H612.181L616.009 219.6ZM626.795 219.578H629.875L626.685 232.316H629.215L628.555 235H622.945L626.795 219.578Z" fill="black"/>
<g clip-path="url(#clip5_2007_6030)">
<path d="M582.861 204.62L577 133.134L647 133.277L640.802 204.62L612.264 212.866L582.861 204.62Z" fill="#E34F26"/>
<path d="M612.266 205.962V139.942L641.092 140.038L635.952 199.106L612.266 205.962Z" fill="#EF652A"/>
<path d="M633.163 156.435L633.979 147.709H589.635L592.085 174.462H622.689L621.489 185.873L611.688 188.51L601.743 185.633L601.214 178.825H592.421L593.623 192.729L611.687 197.763L629.895 192.729L632.345 165.592H600.205L599.292 156.435H633.163Z" fill="white"/>
</g>
<g filter="url(#filter6_d_2007_6030)">
<path d="M169.398 171.546C170.16 161.092 178.863 153 189.345 153H280.489C292.107 153 301.281 162.867 300.436 174.454L294.602 254.454C293.84 264.908 285.137 273 274.655 273H183.511C171.893 273 162.719 263.133 163.564 251.546L169.398 171.546Z" fill="white"/>
</g>
<g clip-path="url(#clip6_2007_6030)">
<path d="M262.329 215.018C262.329 214.874 262.287 214.771 262.202 214.703C262.108 214.631 261.945 214.592 261.718 214.592H261.391V215.45H261.785C262.149 215.45 262.329 215.306 262.329 215.018ZM262.838 216.806H262.389L262.103 216.203C261.958 215.901 261.802 215.749 261.633 215.749H261.391V216.806H261.022V214.291H261.762C262.091 214.291 262.339 214.359 262.508 214.501C262.652 214.624 262.724 214.78 262.724 214.976C262.724 215.149 262.665 215.295 262.547 215.415C262.432 215.538 262.267 215.62 262.055 215.663V215.674C262.202 215.707 262.349 215.861 262.491 216.138L262.838 216.808V216.806ZM263.657 215.573C263.657 215.079 263.48 214.661 263.128 214.33C262.774 213.998 262.343 213.832 261.834 213.832C261.309 213.832 260.872 213.998 260.526 214.332C260.179 214.668 260.007 215.083 260.007 215.573C260.007 216.075 260.186 216.494 260.543 216.828C260.895 217.162 261.327 217.327 261.834 217.327C262.339 217.327 262.77 217.161 263.125 216.823C263.48 216.49 263.657 216.072 263.657 215.573ZM263.906 215.563C263.906 216.118 263.706 216.584 263.305 216.959C262.904 217.337 262.412 217.525 261.824 217.525C261.232 217.525 260.74 217.34 260.349 216.975C259.958 216.606 259.764 216.141 259.764 215.578C259.764 215.027 259.962 214.563 260.359 214.183C260.756 213.803 261.25 213.614 261.841 213.614C262.421 213.614 262.907 213.795 263.301 214.157C263.705 214.528 263.906 214.995 263.906 215.563Z" fill="black"/>
<path d="M207.671 222.576H206.396V215.6C206.396 215.049 206.434 214.378 206.502 213.586H206.473C206.354 214.049 206.245 214.385 206.148 214.592L202.442 222.576H201.821L198.107 214.65C198.002 214.429 197.893 214.073 197.782 213.586H197.754C197.793 214.003 197.815 214.677 197.815 215.613V222.576H196.586V212.187H198.268L201.602 219.431C201.854 219.977 202.016 220.392 202.095 220.675H202.148C202.365 220.108 202.538 219.682 202.669 219.401L206.075 212.187H207.671V222.576H207.671Z" fill="black"/>
<path d="M211.594 222.576H210.354V215.157H211.594V222.576ZM211.808 212.497C211.808 212.716 211.727 212.899 211.568 213.048C211.411 213.198 211.217 213.274 210.99 213.274C210.768 213.274 210.576 213.201 210.418 213.057C210.259 212.911 210.182 212.725 210.182 212.497C210.182 212.283 210.26 212.1 210.418 211.952C210.576 211.803 210.768 211.732 210.99 211.732C211.217 211.732 211.411 211.803 211.568 211.952C211.727 212.1 211.808 212.283 211.808 212.497Z" fill="black"/>
<path d="M219.34 222.232C218.745 222.582 218.035 222.755 217.214 222.755C216.101 222.755 215.205 222.402 214.521 221.696C213.856 221.012 213.521 220.128 213.521 219.045C213.521 217.83 213.885 216.846 214.618 216.099C215.347 215.35 216.328 214.976 217.562 214.976C218.236 214.976 218.834 215.102 219.357 215.352V216.571C218.778 216.182 218.165 215.99 217.508 215.99C216.718 215.99 216.075 216.254 215.576 216.78C215.057 217.319 214.794 218.039 214.794 218.938C214.794 219.801 215.034 220.484 215.511 220.989C215.99 221.49 216.627 221.742 217.431 221.742C218.109 221.742 218.745 221.529 219.34 221.104V222.232Z" fill="black"/>
<path d="M225.266 216.36C225.047 216.2 224.733 216.121 224.317 216.121C223.812 216.121 223.388 216.337 223.045 216.773C222.655 217.259 222.461 217.933 222.461 218.793V222.575H221.219V215.156H222.461V216.686H222.491C222.674 216.145 222.955 215.728 223.332 215.433C223.684 215.163 224.083 215.027 224.521 215.027C224.852 215.027 225.098 215.061 225.266 215.128V216.36L225.266 216.36Z" fill="black"/>
<path d="M232.191 218.88C232.191 217.93 231.967 217.204 231.518 216.707C231.083 216.229 230.474 215.989 229.691 215.989C228.919 215.989 228.299 216.231 227.836 216.715C227.346 217.232 227.101 217.962 227.101 218.909C227.101 219.796 227.334 220.493 227.805 220.991C228.272 221.491 228.901 221.741 229.691 221.741C230.508 221.741 231.133 221.487 231.561 220.981C231.981 220.486 232.191 219.787 232.191 218.88ZM233.465 218.838C233.465 220.02 233.116 220.97 232.42 221.682C231.721 222.396 230.781 222.754 229.599 222.754C228.434 222.754 227.507 222.396 226.827 221.682C226.161 220.993 225.826 220.083 225.826 218.952C225.826 217.661 226.204 216.666 226.963 215.96C227.665 215.304 228.604 214.975 229.78 214.975C230.937 214.975 231.842 215.319 232.493 216.003C233.139 216.69 233.465 217.635 233.465 218.838Z" fill="black"/>
<path d="M239.625 220.591C239.625 221.198 239.388 221.701 238.912 222.103C238.393 222.537 237.68 222.754 236.783 222.754C236.048 222.754 235.404 222.607 234.857 222.308V221.031C235.466 221.503 236.137 221.741 236.875 221.741C237.858 221.741 238.351 221.395 238.351 220.705C238.351 220.415 238.243 220.174 238.025 219.989C237.806 219.799 237.382 219.573 236.751 219.307C236.101 219.035 235.638 218.756 235.365 218.466C235.037 218.122 234.872 217.676 234.872 217.126C234.872 216.51 235.129 215.998 235.638 215.59C236.149 215.18 236.804 214.975 237.609 214.975C238.226 214.975 238.778 215.091 239.268 215.323V216.519C238.757 216.165 238.172 215.989 237.507 215.989C237.096 215.989 236.765 216.087 236.519 216.278C236.271 216.473 236.146 216.722 236.146 217.026C236.146 217.354 236.25 217.61 236.458 217.793C236.642 217.962 237.033 218.168 237.622 218.408C238.285 218.674 238.764 218.949 239.056 219.23C239.434 219.586 239.625 220.04 239.625 220.591Z" fill="black"/>
<path d="M247.217 218.88C247.217 217.93 246.992 217.204 246.542 216.707C246.108 216.229 245.498 215.989 244.716 215.989C243.944 215.989 243.325 216.231 242.859 216.715C242.37 217.232 242.127 217.962 242.127 218.909C242.127 219.797 242.36 220.493 242.826 220.991C243.299 221.491 243.928 221.741 244.716 221.741C245.534 221.741 246.158 221.487 246.587 220.981C247.007 220.486 247.217 219.787 247.217 218.88ZM248.493 218.838C248.493 220.02 248.141 220.97 247.444 221.682C246.748 222.396 245.807 222.754 244.626 222.754C243.46 222.754 242.532 222.396 241.852 221.682C241.187 220.993 240.852 220.083 240.852 218.952C240.852 217.661 241.233 216.666 241.987 215.96C242.689 215.304 243.629 214.975 244.807 214.975C245.964 214.975 246.867 215.32 247.517 216.003C248.164 216.69 248.493 217.635 248.493 218.838Z" fill="black"/>
<path d="M253.967 212.636C253.723 212.507 253.451 212.441 253.142 212.441C252.272 212.441 251.841 212.964 251.841 214.013V215.157H253.66V216.163H251.841V222.575H250.597V216.163H249.277V215.157H250.597V213.954C250.597 213.138 250.859 212.497 251.391 212.035C251.847 211.634 252.404 211.435 253.067 211.435C253.451 211.435 253.75 211.479 253.967 211.564V212.636Z" fill="black"/>
<path d="M258.87 222.501C258.577 222.662 258.186 222.742 257.703 222.742C256.348 222.742 255.671 222.012 255.671 220.552V216.164H254.34V215.156H255.671V213.346C256.068 213.227 256.481 213.096 256.916 212.961V215.156H258.87V216.164H256.916V220.35C256.916 220.848 257.001 221.204 257.179 221.41C257.359 221.623 257.652 221.727 258.067 221.727C258.376 221.727 258.643 221.648 258.87 221.488V222.501Z" fill="black"/>
<path d="M191.716 251.531C191.716 252.112 191.499 252.615 191.061 253.04C190.624 253.463 190.093 253.676 189.471 253.676C188.862 253.676 188.345 253.463 187.921 253.04C187.496 252.615 187.285 252.112 187.285 251.531C187.285 250.933 187.496 250.429 187.921 250.011C188.345 249.592 188.862 249.384 189.471 249.384C190.093 249.384 190.624 249.594 191.061 250.019C191.499 250.444 191.716 250.948 191.716 251.531Z" fill="black"/>
<path d="M219.531 253.239H215.479L200.772 231.528C200.428 231.006 200.132 230.438 199.881 229.819H199.76C199.865 230.4 199.918 231.648 199.918 233.56V253.239H196.578V226.001H200.913L215.18 247.37C215.748 248.217 216.136 248.825 216.333 249.191H216.412C216.28 248.407 216.211 247.071 216.211 245.186V226.001H219.531V253.239H219.531Z" fill="black"/>
<path d="M240.942 253.239H225.84V226.001H240.286V228.887H229.177V237.948H239.471V240.836H229.177V250.352H240.942V253.239Z" fill="black"/>
<path d="M263.849 228.887H255.641V253.24H252.302V228.887H244.078V225.999H263.849V228.887Z" fill="black"/>
<path d="M218.398 178.953C221.62 188.371 222.841 205.173 232.263 205.173C232.98 205.173 233.705 205.106 234.432 204.974C225.868 203.065 224.853 186.446 219.626 177.839C219.216 178.195 218.81 178.566 218.398 178.953Z" fill="url(#paint1_linear_2007_6030)"/>
<path d="M219.627 177.839C224.853 186.446 225.868 203.065 234.433 204.974C235.106 204.856 235.78 204.677 236.456 204.452C228.768 200.851 226.643 184.713 220.708 176.943C220.349 177.229 219.988 177.529 219.627 177.839Z" fill="url(#paint2_linear_2007_6030)"/>
<path d="M227.156 172.721C226.44 172.721 225.714 172.788 224.985 172.92C223.079 173.264 221.142 174.049 219.189 175.236C219.723 175.739 220.23 176.315 220.708 176.943C222.693 175.368 224.666 174.204 226.631 173.504C227.369 173.243 228.104 173.047 228.841 172.918C228.309 172.788 227.748 172.721 227.156 172.721Z" fill="#14559A"/>
<path d="M242.457 201.132C243.244 200.535 244.032 199.873 244.821 199.152C241.547 189.777 240.376 172.735 230.888 172.735C230.209 172.735 229.525 172.795 228.842 172.916C237.484 174.971 238.591 192.945 242.457 201.132Z" fill="url(#paint3_linear_2007_6030)"/>
<path d="M228.841 172.917C228.309 172.788 227.749 172.72 227.156 172.72L230.887 172.734C230.209 172.734 229.524 172.794 228.841 172.916" fill="#3092C4"/>
<path d="M242.291 203.124C241.92 202.786 241.568 202.415 241.221 202.019C239.625 203.099 238.035 203.918 236.455 204.452C237.017 204.714 237.607 204.909 238.232 205.03C238.717 205.125 239.218 205.173 239.746 205.173C241.519 205.173 242.921 204.973 244.114 204.426C243.457 204.086 242.855 203.646 242.291 203.124Z" fill="#1969BC"/>
<path d="M226.633 173.506C234.374 177.376 235.047 194.902 241.223 202.019C241.637 201.74 242.047 201.444 242.457 201.132C238.591 192.945 237.485 174.97 228.844 172.916C228.107 173.048 227.37 173.243 226.633 173.506Z" fill="url(#paint4_linear_2007_6030)"/>
<path d="M220.707 176.943C226.642 184.713 228.767 200.851 236.455 204.452C238.035 203.918 239.625 203.099 241.221 202.019C235.044 194.902 234.372 177.376 226.631 173.506C224.665 174.204 222.693 175.368 220.707 176.943Z" fill="url(#paint5_linear_2007_6030)"/>
<path d="M214.602 178.726C213.671 180.737 212.721 183.38 211.572 186.829C213.857 183.752 216.134 181.101 218.399 178.953C218.087 178.036 217.752 177.191 217.391 176.438C216.465 177.115 215.532 177.878 214.602 178.726Z" fill="url(#paint6_linear_2007_6030)"/>
<path d="M218.214 175.858C217.941 176.045 217.667 176.236 217.391 176.438C217.751 177.191 218.085 178.036 218.397 178.953C218.808 178.568 219.216 178.196 219.625 177.84C219.186 177.119 218.72 176.454 218.214 175.858Z" fill="#2B74B1"/>
<path d="M219.19 175.236C218.865 175.433 218.541 175.64 218.215 175.857C218.721 176.454 219.187 177.119 219.627 177.841C219.988 177.529 220.348 177.228 220.708 176.943C220.231 176.315 219.723 175.739 219.19 175.236Z" fill="#125A9E"/>
<path d="M271.989 172.004C267.611 188.143 258.467 201.106 250.801 204.375H250.786C250.647 204.435 250.509 204.49 250.372 204.544C250.353 204.555 250.336 204.556 250.322 204.562C250.282 204.578 250.244 204.59 250.204 204.605C250.185 204.616 250.168 204.62 250.151 204.626C250.086 204.648 250.023 204.667 249.96 204.691C249.932 204.702 249.906 204.709 249.88 204.718C249.852 204.728 249.819 204.739 249.786 204.747C249.757 204.758 249.727 204.766 249.694 204.778C249.666 204.789 249.637 204.794 249.612 204.804C249.556 204.82 249.504 204.833 249.448 204.852C249.425 204.852 249.403 204.864 249.379 204.869C249.344 204.88 249.305 204.888 249.268 204.898C249.242 204.909 249.221 204.912 249.193 204.918C249.154 204.929 249.111 204.939 249.072 204.948C249.021 204.958 248.975 204.969 248.926 204.978C249.272 205.101 249.633 205.163 250.023 205.163C257.292 205.163 264.622 192.709 276.749 172H271.987L271.989 172.004Z" fill="url(#paint7_linear_2007_6030)"/>
<path d="M209.993 173.376C209.998 173.376 210.004 173.365 210.006 173.365C210.012 173.365 210.021 173.365 210.024 173.354H210.033C210.073 173.341 210.111 173.326 210.151 173.311C210.161 173.311 210.166 173.311 210.174 173.3C210.184 173.3 210.194 173.29 210.204 173.288C210.247 173.275 210.29 173.26 210.331 173.245H210.338C210.434 173.218 210.523 173.184 210.616 173.152C210.63 173.152 210.642 173.141 210.658 173.141C210.697 173.129 210.737 173.116 210.777 173.107C210.796 173.096 210.815 173.096 210.832 173.09C210.874 173.078 210.914 173.065 210.953 173.056C210.97 173.056 210.986 173.045 210.999 173.044C211.133 173.009 211.265 172.976 211.399 172.945C211.417 172.945 211.433 172.934 211.453 172.933C211.492 172.922 211.528 172.917 211.57 172.911C211.587 172.9 211.607 172.9 211.627 172.895C211.666 172.884 211.703 172.883 211.745 172.874H211.772C211.853 172.858 211.935 172.845 212.015 172.831H212.064C212.103 172.82 212.138 172.819 212.176 172.812C212.198 172.812 212.22 172.801 212.24 172.801C212.276 172.801 212.312 172.79 212.347 172.786C212.366 172.786 212.385 172.786 212.406 172.775C212.491 172.764 212.579 172.759 212.668 172.753C212.416 172.729 212.158 172.714 211.895 172.714C203.708 172.714 192.429 187.234 187.348 206.039H188.327C189.953 203.267 191.414 200.644 192.749 198.183C196.308 184.864 203.556 175.78 209.994 173.374" fill="url(#paint8_linear_2007_6030)"/>
<path d="M214.602 178.726C215.532 177.878 216.465 177.115 217.391 176.438C217.18 175.995 216.961 175.585 216.727 175.21C215.978 176.079 215.293 177.225 214.602 178.726Z" fill="#0D82CA"/>
<path d="M215.275 173.486C215.81 173.915 216.289 174.505 216.728 175.211C216.866 175.049 217.005 174.899 217.15 174.759C216.542 174.216 215.885 173.771 215.172 173.435C215.201 173.451 215.229 173.463 215.259 173.475C215.259 173.475 215.271 173.486 215.276 173.486" fill="#0D82CA"/>
<path d="M192.748 198.184C200.213 184.434 203.75 175.731 209.993 173.375C203.556 175.783 196.307 184.867 192.748 198.184Z" fill="url(#paint9_linear_2007_6030)"/>
<path d="M217.149 174.758C217.004 174.9 216.866 175.048 216.727 175.211C216.961 175.586 217.179 175.994 217.392 176.438C217.668 176.236 217.943 176.045 218.216 175.858C217.878 175.459 217.522 175.09 217.149 174.758Z" fill="#127BCA"/>
<path d="M196.137 205.979C196.091 205.99 196.045 205.99 196.002 205.994H195.976C195.937 205.994 195.897 206.005 195.861 206.005H195.842C195.749 206.016 195.657 206.016 195.568 206.023H195.539C203.095 205.821 206.548 202.205 208.262 196.96C209.564 192.984 210.634 189.634 211.572 186.824C208.407 191.082 205.228 196.157 202.032 201.843C200.491 204.584 198.147 205.728 196.137 205.973" fill="url(#paint10_linear_2007_6030)"/>
<path d="M196.139 205.976C198.149 205.731 200.492 204.588 202.034 201.846C205.23 196.161 208.41 191.084 211.572 186.827C212.722 183.375 213.671 180.734 214.602 178.723C208.301 184.457 201.975 193.991 196.139 205.973" fill="url(#paint11_linear_2007_6030)"/>
<path d="M192.749 198.185C191.413 200.646 189.952 203.269 188.326 206.041H191.174C191.551 203.288 192.086 200.663 192.749 198.186" fill="#05A1E6"/>
<path d="M212.406 172.782C212.383 172.782 212.366 172.793 212.345 172.793C212.311 172.803 212.275 172.803 212.239 172.807C212.218 172.807 212.197 172.807 212.176 172.818C212.137 172.829 212.101 172.83 212.064 172.837C212.046 172.837 212.029 172.837 212.015 172.848C211.933 172.861 211.852 172.875 211.772 172.888H211.744C211.703 172.899 211.665 172.905 211.627 172.91C211.606 172.921 211.586 172.921 211.568 172.926C211.529 172.936 211.49 172.941 211.453 172.948C211.432 172.959 211.417 172.959 211.398 172.96C211.264 172.99 211.132 173.023 210.998 173.059C210.984 173.059 210.969 173.069 210.952 173.072C210.912 173.083 210.873 173.094 210.831 173.106C210.814 173.117 210.794 173.117 210.777 173.121C210.737 173.132 210.696 173.143 210.657 173.155C210.642 173.155 210.629 173.166 210.614 173.166C210.522 173.199 210.432 173.232 210.337 173.259C210.297 173.271 210.253 173.287 210.21 173.301C210.193 173.312 210.177 173.315 210.157 173.322C210.117 173.334 210.077 173.35 210.039 173.364C210.025 173.375 210.011 173.376 210.001 173.382C203.758 175.737 200.221 184.44 192.756 198.191C192.093 200.667 191.557 203.292 191.182 206.045H191.581C192.707 206.045 193.025 206.034 194.32 206.034H194.386H194.579H194.645H194.664H194.73H194.767H194.793H194.845H195.006H195.167H195.302H195.338H195.575C195.665 206.024 195.757 206.024 195.85 206.017H195.867C195.906 206.017 195.945 206.006 195.982 206.006H196.01C196.051 206.006 196.099 205.995 196.145 205.99C201.981 194.008 208.307 184.474 214.608 178.74C215.301 177.239 215.984 176.093 216.732 175.226C216.295 174.52 215.816 173.929 215.281 173.5C215.281 173.5 215.267 173.5 215.266 173.489C215.235 173.477 215.207 173.462 215.177 173.448C215.146 173.433 215.12 173.421 215.089 173.405C215.062 173.394 215.03 173.38 215.003 173.366C214.965 173.355 214.935 173.339 214.902 173.325C214.875 173.314 214.85 173.303 214.823 173.292C214.767 173.271 214.711 173.249 214.658 173.226C214.633 173.215 214.61 173.209 214.587 173.201C214.548 173.187 214.504 173.17 214.463 173.153C214.443 173.143 214.42 173.14 214.397 173.132C214.338 173.114 214.281 173.094 214.226 173.076H214.212C214.146 173.055 214.081 173.04 214.013 173.023C213.998 173.012 213.985 173.012 213.969 173.009C213.91 172.994 213.858 172.979 213.802 172.964C213.788 172.964 213.775 172.953 213.763 172.953C213.628 172.919 213.489 172.892 213.348 172.867C213.333 172.867 213.319 172.856 213.305 172.856C213.244 172.845 213.185 172.835 213.125 172.828C213.111 172.817 213.102 172.817 213.089 172.817C213.017 172.806 212.947 172.799 212.876 172.791H212.839C212.782 172.78 212.728 172.779 212.675 172.773C212.584 172.784 212.498 172.789 212.413 172.796" fill="url(#paint12_linear_2007_6030)"/>
<path d="M254.889 180.939C253.453 185.337 252.29 188.965 251.277 191.95C255.218 186.766 259.1 180.245 262.797 172.719C258.485 174.013 256.184 176.976 254.889 180.939Z" fill="url(#paint13_linear_2007_6030)"/>
<path d="M251.402 204.099C251.2 204.197 250.999 204.29 250.801 204.374C258.467 201.106 267.611 188.143 271.989 172.003H271.102C261.043 189.179 257.808 200.677 251.402 204.099Z" fill="url(#paint14_linear_2007_6030)"/>
<path d="M246.397 202.657C248.065 200.711 249.423 197.403 251.278 191.95C249.139 194.76 246.985 197.174 244.83 199.144C244.83 199.155 244.83 199.155 244.818 199.162C245.289 200.508 245.805 201.697 246.393 202.657" fill="#079AE1"/>
<path d="M246.396 202.657C245.828 203.319 245.228 203.824 244.559 204.198C244.412 204.279 244.264 204.356 244.113 204.426C244.819 204.79 245.59 205.033 246.452 205.131C246.579 205.143 246.704 205.154 246.835 205.163H246.858C246.917 205.163 246.979 205.163 247.042 205.173H247.067H247.256H247.459H247.522H247.666C247.689 205.173 247.713 205.173 247.736 205.163C247.781 205.163 247.828 205.163 247.874 205.152H247.89H247.942C247.989 205.152 248.041 205.141 248.091 205.136H248.103C248.118 205.136 248.134 205.125 248.149 205.125C248.202 205.114 248.257 205.11 248.308 205.102H248.356C248.414 205.091 248.475 205.084 248.535 205.074H248.547H248.564C248.685 205.051 248.803 205.03 248.922 205.001C247.933 204.655 247.105 203.838 246.391 202.676" fill="#1969BC"/>
<path d="M232.262 205.173C232.979 205.173 233.704 205.106 234.431 204.973C235.104 204.856 235.778 204.677 236.454 204.452C237.016 204.714 237.606 204.91 238.23 205.03C238.714 205.125 239.218 205.173 239.745 205.173H232.262Z" fill="#1E5CB3"/>
<path d="M239.747 205.173C241.519 205.173 242.922 204.973 244.114 204.426C244.82 204.79 245.59 205.033 246.453 205.131C246.58 205.143 246.705 205.154 246.835 205.163H246.859C246.917 205.163 246.979 205.163 247.043 205.174H247.069H247.257H239.742L239.747 205.173Z" fill="#1E5CB3"/>
<path d="M247.262 205.173H247.466H247.529H247.672C247.696 205.173 247.719 205.173 247.742 205.163C247.787 205.163 247.834 205.163 247.881 205.152H247.896H247.949C247.996 205.152 248.048 205.141 248.097 205.136H248.11C248.125 205.136 248.14 205.126 248.155 205.126C248.208 205.115 248.263 205.11 248.314 205.102C248.332 205.102 248.345 205.102 248.364 205.092C248.422 205.081 248.483 205.075 248.544 205.064H248.555H248.572C248.693 205.042 248.811 205.02 248.93 204.991C249.277 205.114 249.638 205.176 250.027 205.176L247.264 205.187L247.262 205.173Z" fill="#1D60B5"/>
<path d="M244.821 199.162V199.151C244.032 199.872 243.244 200.534 242.458 201.131C242.046 201.443 241.637 201.739 241.223 202.018C241.569 202.414 241.921 202.785 242.292 203.123C242.856 203.645 243.458 204.085 244.115 204.424C244.265 204.354 244.414 204.277 244.56 204.196C245.23 203.822 245.831 203.318 246.399 202.656C245.81 201.696 245.294 200.507 244.824 199.16" fill="#175FAB"/>
<path d="M268.293 172.004H264.563H264.192H263.841H263.828C263.586 172.014 263.352 172.022 263.12 172.037C263.011 172.261 262.899 172.485 262.791 172.71C259.095 180.236 255.213 186.758 251.272 191.942C249.419 197.394 248.058 200.702 246.391 202.648C247.104 203.811 247.933 204.629 248.92 204.975C248.948 204.964 248.971 204.964 248.997 204.958H249.013C249.031 204.958 249.049 204.948 249.068 204.948C249.108 204.937 249.151 204.93 249.192 204.918C249.217 204.907 249.239 204.906 249.265 204.898C249.302 204.887 249.341 204.879 249.376 204.871C249.399 204.86 249.422 204.856 249.445 204.852C249.502 204.834 249.554 204.821 249.608 204.804C249.634 204.794 249.662 204.785 249.69 204.778C249.722 204.767 249.754 204.759 249.783 204.746C249.816 204.735 249.849 204.73 249.877 204.718C249.903 204.707 249.931 204.7 249.955 204.69C250.02 204.668 250.083 204.649 250.148 204.625C250.165 204.625 250.182 204.61 250.201 204.606C250.24 204.591 250.28 204.579 250.319 204.562C250.333 204.552 250.35 204.55 250.369 204.545C250.504 204.491 250.644 204.436 250.783 204.376H250.798C250.996 204.292 251.197 204.198 251.397 204.101C257.805 200.679 261.04 189.181 271.099 172.005H268.29L268.293 172.004Z" fill="url(#paint15_linear_2007_6030)"/>
<path d="M212.668 172.758C212.684 172.758 212.698 172.758 212.714 172.769C212.753 172.769 212.792 172.769 212.83 172.781H212.869C212.94 172.792 213.01 172.798 213.082 172.808C213.095 172.808 213.107 172.808 213.118 172.819C213.177 172.83 213.237 172.839 213.298 172.847C213.311 172.847 213.328 172.858 213.342 172.858C213.48 172.885 213.621 172.912 213.756 172.946C213.769 172.946 213.782 172.957 213.794 172.957C213.851 172.97 213.903 172.987 213.961 173.002C213.978 173.002 213.991 173.013 214.007 173.015C214.074 173.032 214.137 173.048 214.204 173.069C214.206 173.069 214.21 173.069 214.218 173.08C214.274 173.097 214.332 173.118 214.391 173.136C214.414 173.147 214.435 173.152 214.457 173.157C214.497 173.174 214.542 173.19 214.58 173.206C214.603 173.206 214.626 173.221 214.651 173.229C214.704 173.252 214.76 173.273 214.815 173.295C214.843 173.306 214.868 173.318 214.895 173.328C214.927 173.343 214.96 173.357 214.994 173.368C215.023 173.381 215.055 173.396 215.082 173.408C215.112 173.423 215.141 173.435 215.17 173.451C215.883 173.786 216.54 174.233 217.148 174.774C217.372 174.549 217.607 174.347 217.85 174.165C216.52 173.264 215.013 172.75 213.275 172.75C213.073 172.75 212.872 172.761 212.668 172.775" fill="#7DCBEC"/>
<path d="M217.148 174.758C217.521 175.09 217.877 175.459 218.215 175.858C218.542 175.641 218.865 175.432 219.19 175.237C218.764 174.83 218.316 174.464 217.849 174.149C217.606 174.33 217.373 174.533 217.148 174.758Z" fill="#5EC5ED"/>
<path d="M212.668 172.758C212.872 172.742 213.073 172.735 213.275 172.735C215.013 172.735 216.52 173.249 217.85 174.149C219.253 173.091 220.95 172.721 223.306 172.721H211.895C212.158 172.721 212.415 172.736 212.668 172.758Z" fill="url(#paint16_linear_2007_6030)"/>
<path d="M223.306 172.721C220.949 172.721 219.253 173.091 217.85 174.149C218.315 174.464 218.764 174.829 219.19 175.236C221.144 174.049 223.079 173.263 224.987 172.919C225.714 172.789 226.44 172.721 227.156 172.721H223.306Z" fill="url(#paint17_linear_2007_6030)"/>
<path d="M251.277 191.953C252.291 188.965 253.451 185.338 254.89 180.939C256.187 176.975 258.483 174.012 262.795 172.718C262.909 172.497 263.016 172.269 263.127 172.045C256.098 172.448 252.813 175.866 251.159 180.928C248.268 189.765 246.517 195.493 244.83 199.144C246.984 197.176 249.138 194.759 251.277 191.953Z" fill="url(#paint18_linear_2007_6030)"/>
<path d="M261.591 202.819H260.794V205.186H260.469V202.819H259.67V202.538H261.591V202.819Z" fill="black"/>
<path d="M264.852 205.186H264.528V203.407C264.528 203.267 264.54 203.095 264.555 202.893C264.522 203.014 264.494 203.098 264.469 203.152L263.525 205.186H263.367L262.421 203.167C262.394 203.111 262.366 203.02 262.336 202.893H262.325C262.336 203 262.34 203.172 262.34 203.411V205.186H262.029V202.537H262.458L263.307 204.386C263.372 204.525 263.412 204.632 263.433 204.703H263.445C263.501 204.558 263.547 204.449 263.579 204.377L264.446 202.537H264.854V205.186H264.852Z" fill="black"/>
</g>
<g filter="url(#filter7_d_2007_6030)">
<path d="M359.398 68.5455C360.16 58.0919 368.863 50 379.345 50H470.489C482.107 50 491.281 59.8667 490.436 71.4545L484.602 151.454C483.84 161.908 475.137 170 464.655 170H373.511C361.893 170 352.719 160.133 353.564 148.546L359.398 68.5455Z" fill="white"/>
</g>
<g clip-path="url(#clip7_2007_6030)">
<path d="M389.171 141.946C389.171 138.378 388.109 136.598 385.981 136.532C385.117 136.47 384.321 136.659 383.522 136.915C382.855 137.104 382.459 137.36 382.258 137.553V145.959C383.586 146.788 384.782 147.171 385.848 147.105C388.041 146.911 389.171 145.193 389.171 141.946ZM391.764 142.074C391.764 143.858 391.364 145.321 390.435 146.532C389.438 147.871 388.109 148.572 386.316 148.572C384.987 148.634 383.659 148.189 382.262 147.36V155.004L380 154.238V137.232C380.4 136.787 380.864 136.404 381.397 136.087C382.726 135.324 384.39 134.941 386.248 134.941C387.976 134.941 389.369 135.642 390.302 136.981C391.296 138.444 391.764 140.034 391.764 142.074ZM405.519 147.105C405.519 149.524 405.253 151.18 404.788 152.074C404.255 152.964 403.326 153.731 401.929 154.303C400.733 154.748 399.538 155.004 398.205 155.004L397.806 153.665C399.203 153.475 400.132 153.282 400.665 153.154C401.727 152.771 402.527 152.264 402.922 151.498C403.253 150.925 403.387 149.779 403.387 148.123V147.55C401.86 148.25 400.196 148.568 398.537 148.568C397.406 148.568 396.408 148.25 395.613 147.55C394.684 146.849 394.215 145.894 394.215 144.748V135.769L396.473 135.007V144.051C396.473 145.007 396.804 145.77 397.47 146.281C398.137 146.791 398.932 147.043 399.994 147.043C401.057 147.043 402.123 146.66 403.318 145.897V135.32H405.576L405.519 147.105ZM414.291 148.506H413.56C412.296 148.506 411.302 148.189 410.567 147.616C409.836 147.043 409.505 146.215 409.505 145.197V136.663H407.978V135.32H409.505V131.69L411.763 130.928V135.32H414.287V136.659H411.763V145.065C411.763 145.894 411.96 146.466 412.429 146.784C412.829 147.039 413.426 147.229 414.291 147.295V148.506ZM427.981 148.312H425.723V139.968C425.723 139.14 425.526 138.378 425.126 137.805C424.661 137.104 423.995 136.787 423.131 136.787C422.069 136.787 420.805 137.298 419.278 138.378V148.378H417.021V128.443L419.278 127.743V136.787C420.74 135.769 422.271 135.258 423.995 135.258C425.19 135.258 426.123 135.642 426.919 136.404C427.65 137.166 428.05 138.122 428.05 139.272L427.981 148.312ZM439.943 141.563C439.943 140.224 439.676 139.078 439.147 138.188C438.481 137.104 437.552 136.532 436.155 136.47C433.695 136.598 432.431 138.316 432.431 141.563C432.431 143.092 432.698 144.303 433.227 145.321C433.893 146.594 434.887 147.233 436.219 147.233C438.679 147.167 439.943 145.321 439.943 141.563ZM442.402 141.563C442.402 143.475 441.869 145.131 440.876 146.404C439.745 147.805 438.15 148.568 436.223 148.568C434.228 148.568 432.702 147.867 431.571 146.404C430.574 145.131 430.045 143.537 430.045 141.563C430.045 139.717 430.578 138.188 431.704 136.977C432.9 135.638 434.362 135.003 436.223 135.003C438.085 135.003 439.612 135.642 440.807 136.977C441.869 138.25 442.402 139.779 442.402 141.563ZM455.362 148.312H453.104V139.523C453.104 138.567 452.773 137.805 452.175 137.294C451.578 136.783 450.778 136.466 449.716 136.532C448.654 136.532 447.588 136.915 446.659 137.55V148.44H444.401V137.294C445.665 136.404 446.861 135.765 447.992 135.51C449.054 135.255 449.918 135.127 450.718 135.127C451.251 135.127 451.78 135.189 452.244 135.255C453.108 135.444 453.839 135.827 454.372 136.338C454.97 136.911 455.301 137.677 455.301 138.502L455.362 148.312Z" fill="#656565"/>
<path d="M416.685 65.0116C414.557 65.0116 412.498 65.2012 410.705 65.5225C405.39 66.4126 404.457 68.2625 404.457 71.765V76.3511H416.952V77.8798H399.805C396.215 77.8798 393.028 79.9813 392.031 83.9288C390.9 88.5149 390.835 91.3169 392.031 96.0927C392.895 99.6609 395.023 102.142 398.678 102.142H402.999V96.6655C402.999 92.7179 406.589 89.2154 410.773 89.2154H423.2C426.656 89.2154 429.447 86.4754 429.447 83.1006V71.6992C429.447 68.4522 426.588 66.0295 423.2 65.4567C421.003 65.1393 418.81 64.9497 416.685 65.0116ZM409.905 68.6418C411.169 68.6418 412.231 69.6596 412.231 70.9329C412.231 72.2062 411.169 73.224 409.905 73.224C408.641 73.224 407.579 72.2062 407.579 70.9329C407.579 69.6596 408.576 68.6418 409.905 68.6418Z" fill="url(#paint19_linear_2007_6030)"/>
<path d="M430.974 77.7482V83.0348C430.974 87.1759 427.319 90.6126 423.131 90.6126H410.705C407.316 90.6126 404.457 93.4145 404.457 96.7274V108.129C404.457 111.376 407.381 113.288 410.705 114.244C414.626 115.389 418.414 115.583 423.2 114.244C426.321 113.353 429.447 111.631 429.447 108.129V103.543H416.948V102.014H435.69C439.281 102.014 440.674 99.5951 441.938 95.965C443.267 92.2071 443.202 88.6427 441.938 83.8011C441.074 80.3606 439.345 77.7521 435.69 77.7521L430.974 77.7482ZM423.926 106.6C425.19 106.6 426.253 107.618 426.253 108.891C426.253 110.164 425.19 111.182 423.926 111.182C422.662 111.182 421.6 110.164 421.6 108.891C421.6 107.618 422.666 106.6 423.926 106.6Z" fill="url(#paint20_linear_2007_6030)"/>
<path d="M459.679 133.412H460.079V131.055H461.008V130.738H458.75V131.055H459.679V133.412ZM461.407 133.412H461.738V131.249L462.469 133.412H462.869L463.6 131.249V133.412H464V130.738H463.536L462.671 133.029L461.94 130.738H461.407V133.412Z" fill="#656565"/>
<path opacity="0.444" d="M433.829 121.949C433.829 123.667 426.321 125.068 417.081 125.068C407.841 125.068 400.334 123.667 400.334 121.949C400.334 120.231 407.841 118.83 417.081 118.83C426.321 118.83 433.829 120.227 433.829 121.949Z" fill="url(#paint21_radial_2007_6030)"/>
</g>
<defs>
<filter id="filter0_d_2007_6030" x="306.51" y="546" width="236.98" height="220" filterUnits="userSpaceOnUse" color-interpolation-filters="sRGB">
<feFlood flood-opacity="0" result="BackgroundImageFix"/>
<feColorMatrix in="SourceAlpha" type="matrix" values="0 0 0 0 0 0 0 0 0 0 0 0 0 0 0 0 0 0 127 0" result="hardAlpha"/>
<feOffset/>
<feGaussianBlur stdDeviation="25"/>
<feComposite in2="hardAlpha" operator="out"/>
<feColorMatrix type="matrix" values="0 0 0 0 0 0 0 0 0 0.591667 0 0 0 0 0.0234789 0 0 0 0.16 0"/>
<feBlend mode="normal" in2="BackgroundImageFix" result="effect1_dropShadow_2007_6030"/>
<feBlend mode="normal" in="SourceGraphic" in2="effect1_dropShadow_2007_6030" result="shape"/>
</filter>
<filter id="filter1_d_2007_6030" x="76.5098" y="463" width="236.98" height="220" filterUnits="userSpaceOnUse" color-interpolation-filters="sRGB">
<feFlood flood-opacity="0" result="BackgroundImageFix"/>
<feColorMatrix in="SourceAlpha" type="matrix" values="0 0 0 0 0 0 0 0 0 0 0 0 0 0 0 0 0 0 127 0" result="hardAlpha"/>
<feOffset/>
<feGaussianBlur stdDeviation="25"/>
<feComposite in2="hardAlpha" operator="out"/>
<feColorMatrix type="matrix" values="0 0 0 0 0 0 0 0 0 0.591667 0 0 0 0 0.0234789 0 0 0 0.16 0"/>
<feBlend mode="normal" in2="BackgroundImageFix" result="effect1_dropShadow_2007_6030"/>
<feBlend mode="normal" in="SourceGraphic" in2="effect1_dropShadow_2007_6030" result="shape"/>
</filter>
<filter id="filter2_d_2007_6030" x="516.734" y="433" width="256.531" height="220" filterUnits="userSpaceOnUse" color-interpolation-filters="sRGB">
<feFlood flood-opacity="0" result="BackgroundImageFix"/>
<feColorMatrix in="SourceAlpha" type="matrix" values="0 0 0 0 0 0 0 0 0 0 0 0 0 0 0 0 0 0 127 0" result="hardAlpha"/>
<feOffset/>
<feGaussianBlur stdDeviation="25"/>
<feComposite in2="hardAlpha" operator="out"/>
<feColorMatrix type="matrix" values="0 0 0 0 0 0 0 0 0 0.591667 0 0 0 0 0.0234789 0 0 0 0.16 0"/>
<feBlend mode="normal" in2="BackgroundImageFix" result="effect1_dropShadow_2007_6030"/>
<feBlend mode="normal" in="SourceGraphic" in2="effect1_dropShadow_2007_6030" result="shape"/>
</filter>
<filter id="filter3_d_2007_6030" x="0.509766" y="283" width="236.98" height="220" filterUnits="userSpaceOnUse" color-interpolation-filters="sRGB">
<feFlood flood-opacity="0" result="BackgroundImageFix"/>
<feColorMatrix in="SourceAlpha" type="matrix" values="0 0 0 0 0 0 0 0 0 0 0 0 0 0 0 0 0 0 127 0" result="hardAlpha"/>
<feOffset/>
<feGaussianBlur stdDeviation="25"/>
<feComposite in2="hardAlpha" operator="out"/>
<feColorMatrix type="matrix" values="0 0 0 0 0 0 0 0 0 0.591667 0 0 0 0 0.0234789 0 0 0 0.16 0"/>
<feBlend mode="normal" in2="BackgroundImageFix" result="effect1_dropShadow_2007_6030"/>
<feBlend mode="normal" in="SourceGraphic" in2="effect1_dropShadow_2007_6030" result="shape"/>
</filter>
<filter id="filter4_d_2007_6030" x="616.51" y="253" width="236.98" height="220" filterUnits="userSpaceOnUse" color-interpolation-filters="sRGB">
<feFlood flood-opacity="0" result="BackgroundImageFix"/>
<feColorMatrix in="SourceAlpha" type="matrix" values="0 0 0 0 0 0 0 0 0 0 0 0 0 0 0 0 0 0 127 0" result="hardAlpha"/>
<feOffset/>
<feGaussianBlur stdDeviation="25"/>
<feComposite in2="hardAlpha" operator="out"/>
<feColorMatrix type="matrix" values="0 0 0 0 0 0 0 0 0 0.591667 0 0 0 0 0.0234789 0 0 0 0.16 0"/>
<feBlend mode="normal" in2="BackgroundImageFix" result="effect1_dropShadow_2007_6030"/>
<feBlend mode="normal" in="SourceGraphic" in2="effect1_dropShadow_2007_6030" result="shape"/>
</filter>
<filter id="filter5_d_2007_6030" x="493.51" y="73" width="236.98" height="220" filterUnits="userSpaceOnUse" color-interpolation-filters="sRGB">
<feFlood flood-opacity="0" result="BackgroundImageFix"/>
<feColorMatrix in="SourceAlpha" type="matrix" values="0 0 0 0 0 0 0 0 0 0 0 0 0 0 0 0 0 0 127 0" result="hardAlpha"/>
<feOffset/>
<feGaussianBlur stdDeviation="25"/>
<feComposite in2="hardAlpha" operator="out"/>
<feColorMatrix type="matrix" values="0 0 0 0 0 0 0 0 0 0.591667 0 0 0 0 0.0234789 0 0 0 0.16 0"/>
<feBlend mode="normal" in2="BackgroundImageFix" result="effect1_dropShadow_2007_6030"/>
<feBlend mode="normal" in="SourceGraphic" in2="effect1_dropShadow_2007_6030" result="shape"/>
</filter>
<filter id="filter6_d_2007_6030" x="113.51" y="103" width="236.98" height="220" filterUnits="userSpaceOnUse" color-interpolation-filters="sRGB">
<feFlood flood-opacity="0" result="BackgroundImageFix"/>
<feColorMatrix in="SourceAlpha" type="matrix" values="0 0 0 0 0 0 0 0 0 0 0 0 0 0 0 0 0 0 127 0" result="hardAlpha"/>
<feOffset/>
<feGaussianBlur stdDeviation="25"/>
<feComposite in2="hardAlpha" operator="out"/>
<feColorMatrix type="matrix" values="0 0 0 0 0 0 0 0 0 0.591667 0 0 0 0 0.0234789 0 0 0 0.16 0"/>
<feBlend mode="normal" in2="BackgroundImageFix" result="effect1_dropShadow_2007_6030"/>
<feBlend mode="normal" in="SourceGraphic" in2="effect1_dropShadow_2007_6030" result="shape"/>
</filter>
<filter id="filter7_d_2007_6030" x="303.51" y="0" width="236.98" height="220" filterUnits="userSpaceOnUse" color-interpolation-filters="sRGB">
<feFlood flood-opacity="0" result="BackgroundImageFix"/>
<feColorMatrix in="SourceAlpha" type="matrix" values="0 0 0 0 0 0 0 0 0 0 0 0 0 0 0 0 0 0 127 0" result="hardAlpha"/>
<feOffset/>
<feGaussianBlur stdDeviation="25"/>
<feComposite in2="hardAlpha" operator="out"/>
<feColorMatrix type="matrix" values="0 0 0 0 0 0 0 0 0 0.591667 0 0 0 0 0.0234789 0 0 0 0.16 0"/>
<feBlend mode="normal" in2="BackgroundImageFix" result="effect1_dropShadow_2007_6030"/>
<feBlend mode="normal" in="SourceGraphic" in2="effect1_dropShadow_2007_6030" result="shape"/>
</filter>
<radialGradient id="paint0_radial_2007_6030" cx="0" cy="0" r="1" gradientUnits="userSpaceOnUse" gradientTransform="translate(424 378) rotate(90) scale(270 400)">
<stop stop-color="#19DF21" stop-opacity="0.8"/>
<stop offset="0.380208" stop-color="#19DF21" stop-opacity="0.6"/>
<stop offset="0.770833" stop-color="#19DF21" stop-opacity="0.2"/>
<stop offset="1" stop-color="#15E61D" stop-opacity="0.06"/>
</radialGradient>
<linearGradient id="paint1_linear_2007_6030" x1="1020.05" y1="-355.61" x2="1020.05" y2="3721" gradientUnits="userSpaceOnUse">
<stop stop-color="#0994DC"/>
<stop offset="0.350006" stop-color="#66CEF5"/>
<stop offset="0.846161" stop-color="#127BCA"/>
<stop offset="1" stop-color="#127BCA"/>
</linearGradient>
<linearGradient id="paint2_linear_2007_6030" x1="1061.09" y1="-370.108" x2="1061.09" y2="3810.39" gradientUnits="userSpaceOnUse">
<stop stop-color="#0E76BC"/>
<stop offset="0.360001" stop-color="#36AEE8"/>
<stop offset="0.846161" stop-color="#00ADEF"/>
<stop offset="1" stop-color="#00ADEF"/>
</linearGradient>
<linearGradient id="paint3_linear_2007_6030" x1="1027.79" y1="3322.64" x2="1027.79" y2="-3.72625" gradientUnits="userSpaceOnUse">
<stop stop-color="#1C63B7"/>
<stop offset="0.5" stop-color="#33BDF2"/>
<stop offset="1" stop-color="#33BDF2" stop-opacity="0.419608"/>
</linearGradient>
<linearGradient id="paint4_linear_2007_6030" x1="1017.85" y1="-395.023" x2="1017.85" y2="3945.42" gradientUnits="userSpaceOnUse">
<stop stop-color="#166AB8"/>
<stop offset="0.399994" stop-color="#36AEE8"/>
<stop offset="0.846161" stop-color="#0798DD"/>
<stop offset="1" stop-color="#0798DD"/>
</linearGradient>
<linearGradient id="paint5_linear_2007_6030" x1="1246.38" y1="-430.588" x2="1246.38" y2="4184.9" gradientUnits="userSpaceOnUse">
<stop stop-color="#124379"/>
<stop offset="0.389999" stop-color="#1487CB"/>
<stop offset="0.780228" stop-color="#165197"/>
<stop offset="1" stop-color="#165197"/>
</linearGradient>
<linearGradient id="paint6_linear_2007_6030" x1="211.574" y1="696.032" x2="894.224" y2="696.032" gradientUnits="userSpaceOnUse">
<stop stop-color="#33BDF2" stop-opacity="0.698039"/>
<stop offset="1" stop-color="#1DACD8"/>
</linearGradient>
<linearGradient id="paint7_linear_2007_6030" x1="1640.37" y1="3312.04" x2="1640.37" y2="71.6973" gradientUnits="userSpaceOnUse">
<stop stop-color="#136AB4"/>
<stop offset="0.6" stop-color="#59CAF5" stop-opacity="0.54902"/>
<stop offset="1" stop-color="#59CAF5" stop-opacity="0.235294"/>
</linearGradient>
<linearGradient id="paint8_linear_2007_6030" x1="187.328" y1="1838.94" x2="2719.37" y2="1838.94" gradientUnits="userSpaceOnUse">
<stop stop-color="#05A1E6" stop-opacity="0.247059"/>
<stop offset="1" stop-color="#05A1E6"/>
</linearGradient>
<linearGradient id="paint9_linear_2007_6030" x1="1054.95" y1="3257.49" x2="1054.95" y2="-60.3605" gradientUnits="userSpaceOnUse">
<stop stop-color="#318ED5"/>
<stop offset="1" stop-color="#38A7E4"/>
</linearGradient>
<linearGradient id="paint10_linear_2007_6030" x1="997.142" y1="1937.76" x2="997.142" y2="-1287.37" gradientUnits="userSpaceOnUse">
<stop stop-color="#05A1E6"/>
<stop offset="1" stop-color="#05A1E6" stop-opacity="0.54902"/>
</linearGradient>
<linearGradient id="paint11_linear_2007_6030" x1="1119.33" y1="2904.29" x2="1119.33" y2="179.001" gradientUnits="userSpaceOnUse">
<stop stop-color="#1959A6"/>
<stop offset="0.5" stop-color="#05A1E6"/>
<stop offset="0.917587" stop-color="#7EC5EA"/>
<stop offset="1" stop-color="#7EC5EA"/>
</linearGradient>
<linearGradient id="paint12_linear_2007_6030" x1="1719.2" y1="3319.24" x2="828.699" y2="472.309" gradientUnits="userSpaceOnUse">
<stop stop-color="#165096"/>
<stop offset="1" stop-color="#0D82CA"/>
</linearGradient>
<linearGradient id="paint13_linear_2007_6030" x1="827.186" y1="1653.53" x2="827.186" y2="109.274" gradientUnits="userSpaceOnUse">
<stop stop-color="#05A1E6"/>
<stop offset="0.873627" stop-color="#0495D6"/>
<stop offset="1" stop-color="#0495D6"/>
</linearGradient>
<linearGradient id="paint14_linear_2007_6030" x1="1633.62" y1="37.294" x2="237.52" y2="3279.98" gradientUnits="userSpaceOnUse">
<stop stop-color="#38A7E4" stop-opacity="0.329412"/>
<stop offset="0.961533" stop-color="#0E88D3"/>
<stop offset="1" stop-color="#0E88D3"/>
</linearGradient>
<linearGradient id="paint15_linear_2007_6030" x1="1482.22" y1="162.251" x2="1482.22" y2="3531.21" gradientUnits="userSpaceOnUse">
<stop stop-color="#168CD4"/>
<stop offset="0.5" stop-color="#1C87CC"/>
<stop offset="1" stop-color="#154B8D"/>
</linearGradient>
<linearGradient id="paint16_linear_2007_6030" x1="402.168" y1="-119.395" x2="416.125" y2="233.985" gradientUnits="userSpaceOnUse">
<stop stop-color="#97D6EE"/>
<stop offset="0.703293" stop-color="#55C1EA"/>
<stop offset="1" stop-color="#55C1EA"/>
</linearGradient>
<linearGradient id="paint17_linear_2007_6030" x1="281.974" y1="159.39" x2="345.217" y2="-215.857" gradientUnits="userSpaceOnUse">
<stop stop-color="#7ACCEC"/>
<stop offset="1" stop-color="#3FB7ED"/>
</linearGradient>
<linearGradient id="paint18_linear_2007_6030" x1="1159.62" y1="344.47" x2="1159.62" y2="3639.65" gradientUnits="userSpaceOnUse">
<stop stop-color="#1DA7E7"/>
<stop offset="1" stop-color="#37ABE7" stop-opacity="0"/>
</linearGradient>
<linearGradient id="paint19_linear_2007_6030" x1="389.781" y1="66.3681" x2="417.534" y2="91.0437" gradientUnits="userSpaceOnUse">
<stop stop-color="#5CA0D5"/>
<stop offset="1" stop-color="#316A99"/>
</linearGradient>
<linearGradient id="paint20_linear_2007_6030" x1="429.427" y1="104.514" x2="419.672" y2="90.2513" gradientUnits="userSpaceOnUse">
<stop stop-color="#FFD43E"/>
<stop offset="1" stop-color="#FFE975"/>
</linearGradient>
<radialGradient id="paint21_radial_2007_6030" cx="0" cy="0" r="1" gradientUnits="userSpaceOnUse" gradientTransform="translate(417.07 121.425) rotate(-90) scale(3.10751 14.2562)">
<stop stop-color="#B8B8B8" stop-opacity="0.498"/>
<stop offset="1" stop-color="#7F8080" stop-opacity="0"/>
</radialGradient>
<clipPath id="clip0_2007_6030">
<rect width="80" height="90" fill="white" transform="translate(385 611)"/>
</clipPath>
<clipPath id="clip1_2007_6030">
<rect width="70" height="80" fill="white" transform="translate(160 523)"/>
</clipPath>
<clipPath id="clip2_2007_6030">
<rect width="130" height="72" fill="white" transform="translate(580 507)"/>
</clipPath>
<clipPath id="clip3_2007_6030">
<rect width="90" height="90" fill="white" transform="translate(74 348)"/>
</clipPath>
<clipPath id="clip4_2007_6030">
<rect width="80" height="90" fill="white" transform="translate(695 318)"/>
</clipPath>
<clipPath id="clip5_2007_6030">
<rect width="70" height="80" fill="white" transform="translate(577 133)"/>
</clipPath>
<clipPath id="clip6_2007_6030">
<rect width="90" height="82" fill="white" transform="translate(187 172)"/>
</clipPath>
<clipPath id="clip7_2007_6030">
<rect width="84" height="90" fill="white" transform="translate(380 65)"/>
</clipPath>
</defs>
</svg>
