<svg width="820" height="740" viewBox="0 0 820 740" fill="none" xmlns="http://www.w3.org/2000/svg">
<path d="M695.224 320.186H695.161C695.161 319.734 695.224 319.283 695.224 318.831C695.224 257.24 646.28 207.258 585.827 207.258C578.049 207.258 570.461 208.097 563.189 209.709C541.499 155.922 489.71 118 429.13 118C383.664 118 343.131 139.412 316.572 172.819C298.94 163.674 279.441 158.901 259.66 158.889C194.212 158.889 140.462 209.709 134.202 274.783C63.0624 278.652 5.96106 338.115 5.01253 411.959C4.00077 488.835 64.3903 552.038 139.767 553.005C145.647 553.07 151.339 552.683 157.03 551.973C186.181 614.661 248.721 658 321.251 658C365.01 658 405.101 642.199 436.466 615.951C460.432 634.073 490.026 644.908 522.149 644.908C588.04 644.908 643.498 599.827 660.761 538.236C671.637 541.913 683.209 543.976 695.287 543.976C755.866 543.976 805 493.865 805 432.081C804.937 370.297 755.866 320.186 695.224 320.186Z" fill="url(#paint0_radial_2077_5632)"/>
<circle cx="405" cy="388" r="288" stroke="#A6F4A9" stroke-width="4"/>
<circle cx="405" cy="388" r="228" stroke="#E1FFE3" stroke-width="4"/>
<circle cx="405" cy="388" r="168" stroke="white" stroke-width="4"/>
<path d="M318.577 354.38C320.317 347.3 325.177 343.4 332.017 343.4C338.977 343.4 342.037 347.42 340.297 354.38L334.957 375.62C333.517 381.56 329.617 385.34 324.217 386.36L323.977 387.44C323.737 388.28 323.857 388.58 324.697 388.58H329.437L327.877 394.7H323.677C318.757 394.7 316.837 393.26 318.037 388.34L318.517 386.42C313.657 385.46 311.737 381.74 313.297 375.62L318.577 354.38ZM327.097 353.78L321.517 376.28C321.037 378.26 321.577 379.34 323.137 379.34C324.697 379.34 325.957 378.2 326.437 376.28L332.017 353.78C332.557 351.74 331.957 350.72 330.397 350.72C328.837 350.72 327.577 351.8 327.097 353.78ZM348.263 343.94H361.403L355.463 385.94H347.063L348.683 375.56H345.023L341.543 385.94H333.143L348.263 343.94ZM347.543 368.24H349.883L351.503 358.22H350.903L347.543 368.24ZM397.507 343.94L395.707 351.26H389.527L380.887 385.94H372.487L381.127 351.26H375.007L376.807 343.94H397.507ZM398.284 372.62L397.204 376.88C396.784 378.68 397.264 379.76 398.524 379.76C399.784 379.76 400.984 378.68 401.404 376.88L402.004 374.42H409.984L409.444 376.46C407.944 382.64 402.964 386.6 396.784 386.6C390.604 386.6 387.784 382.7 389.344 376.46L392.224 364.94C393.784 358.7 398.584 354.8 404.764 354.8C410.884 354.8 413.884 358.76 412.324 364.94L410.404 372.62H398.284ZM400.324 364.52L399.364 368.3H403.564L404.524 364.52C404.944 362.72 404.464 361.64 403.204 361.64C401.944 361.64 400.744 362.72 400.324 364.52ZM433.878 366.2H425.958L426.378 364.52C426.798 362.72 426.438 361.7 425.118 361.7C423.918 361.7 422.838 362.66 422.418 364.22V364.34C421.998 366.02 422.358 366.68 424.338 367.46L427.698 369.2C431.058 370.7 432.318 372.74 431.298 376.82L431.058 377.66C429.858 382.4 425.058 386.6 418.698 386.6C412.338 386.6 409.878 382.4 411.258 376.82L411.678 375.2H419.598L419.238 376.82C418.758 378.56 419.238 379.64 420.498 379.64C421.758 379.64 422.958 378.62 423.318 377.12V376.94C423.798 375.14 423.438 374.54 421.218 373.7L417.678 372.08C414.378 370.64 413.418 368.54 414.438 364.52L414.618 363.8C415.818 358.94 420.378 354.8 426.738 354.8C433.098 354.8 435.678 359 434.298 364.52L433.878 366.2ZM435.876 362.24L437.556 355.4H440.316L441.936 348.8L449.976 348.32L448.236 355.4H453.396L451.656 362.24H446.556L443.016 376.34C442.416 378.74 443.616 379.52 445.296 379.52C445.896 379.52 446.676 379.4 447.456 379.22L445.836 386.06C444.036 386.42 442.356 386.6 440.916 386.6C435.876 386.6 433.116 384.2 434.976 376.76L438.576 362.24H435.876ZM456.124 348.44C456.844 345.74 458.824 344.42 461.584 344.42C464.404 344.42 465.844 345.8 465.124 348.44C464.464 351.2 462.424 352.52 459.604 352.52C456.844 352.52 455.464 351.2 456.124 348.44ZM454.984 355.4H462.904L455.284 386H447.304L454.984 355.4ZM457.376 386L464.996 355.4H472.976L472.076 358.88L472.676 358.82C474.596 356.18 476.876 354.8 479.216 354.8C482.516 354.8 484.556 357.5 483.176 363.08L477.476 386H469.496L474.956 364.22C475.316 362.72 474.836 361.7 473.756 361.7C472.796 361.7 471.716 362.48 470.876 363.68L465.356 386H457.376ZM507.009 355.4L498.549 389.36C497.049 395.18 492.549 398.6 486.309 398.6C480.009 398.6 477.129 395.12 478.569 389.42L478.929 387.92H486.909L486.669 388.94C486.189 390.68 486.669 391.76 487.869 391.76C489.129 391.76 490.269 390.68 490.689 388.82L492.249 382.52H491.709C489.849 385.16 487.449 386.6 485.169 386.6C481.509 386.6 479.949 383.18 481.269 377.96L484.989 363.08C486.249 358.04 489.429 354.8 493.029 354.8C495.309 354.8 497.049 356.18 497.589 358.88H498.189L499.029 355.4H507.009ZM496.929 363.92C496.749 362.66 496.089 361.82 495.189 361.82C494.109 361.82 493.029 362.9 492.609 364.34L489.489 376.88C489.129 378.44 489.549 379.64 490.569 379.64C491.529 379.64 492.729 378.74 493.509 377.48L496.929 363.92ZM395.23 413.88H386.83L388.09 408.78C388.63 406.8 388.03 405.72 386.59 405.72C385.03 405.72 383.83 406.86 383.35 408.78L382.63 411.6C382.03 414.12 382.39 415.02 386.53 417.24L388.33 418.14C392.29 420.18 393.01 423.06 391.39 429.6L391.15 430.56C389.41 437.58 384.37 441.6 377.41 441.6C370.51 441.6 367.63 437.7 369.43 430.56L370.51 426.12H378.91L377.65 431.22C377.17 433.2 377.77 434.28 379.27 434.28C380.83 434.28 382.09 433.14 382.57 431.22L383.35 428.22C383.95 425.7 383.53 424.86 379.69 422.76L377.65 421.74C373.69 419.64 372.97 416.64 374.59 410.1L374.89 408.9C376.57 402.3 381.37 398.4 388.15 398.4C395.11 398.4 398.11 402.42 396.37 409.38L395.23 413.88ZM395.682 419.94C397.122 414 401.622 409.8 408.102 409.8C414.642 409.8 417.222 414.06 415.722 419.94L412.842 431.46C411.402 437.34 406.662 441.6 400.182 441.6C393.702 441.6 391.302 437.4 392.802 431.46L395.682 419.94ZM403.722 419.52L400.602 431.94C400.182 433.68 400.662 434.76 401.922 434.76C403.182 434.76 404.322 433.68 404.742 431.94L407.862 419.52C408.342 417.66 407.802 416.64 406.542 416.64C405.282 416.64 404.202 417.66 403.722 419.52ZM422.632 407.76C424.492 400.38 428.452 397.98 433.552 397.98C435.052 397.98 436.612 398.16 438.232 398.52L436.492 405.3C435.832 405.12 435.232 405 434.572 405C432.832 405 431.092 405.78 430.492 408.18L429.952 410.4H435.172L433.492 417.24H428.212L422.332 441H414.352L420.292 417.24H417.592L419.272 410.4H421.972L422.632 407.76ZM433.942 417.24L435.622 410.4H438.382L440.002 403.8L448.042 403.32L446.302 410.4H451.462L449.722 417.24H444.622L441.082 431.34C440.482 433.74 441.682 434.52 443.362 434.52C443.962 434.52 444.742 434.4 445.522 434.22L443.902 441.06C442.102 441.42 440.422 441.6 438.982 441.6C433.942 441.6 431.182 439.2 433.042 431.76L436.642 417.24H433.942Z" fill="white"/>
<g filter="url(#filter0_d_2077_5632)">
<path d="M74.328 478.752C74.9868 468.212 83.7278 460 94.289 460H181.711C193.247 460 202.392 469.734 201.672 481.248L195.672 577.248C195.013 587.788 186.272 596 175.711 596H88.289C76.7526 596 67.6084 586.266 68.328 574.752L74.328 478.752Z" fill="white"/>
</g>
<g clip-path="url(#clip0_2077_5632)">
<path fill-rule="evenodd" clip-rule="evenodd" d="M103.295 550.94V552.189C103.295 552.383 103.203 552.48 103.02 552.48H97.6244C97.5518 552.48 97.5147 552.52 97.5147 552.596V570.709C97.5147 570.903 97.4232 571 97.2391 571H95.8356C95.652 571 95.5601 570.903 95.5601 570.709V552.596C95.5601 552.52 95.5233 552.48 95.4504 552.48H90.2751C90.0915 552.48 90 552.383 90 552.189V550.94C90 550.746 90.0915 550.649 90.2751 550.649H103.02C103.203 550.649 103.295 550.746 103.295 550.94Z" fill="#0B3754"/>
<path fill-rule="evenodd" clip-rule="evenodd" d="M115.568 563.455V564.326C115.568 564.508 115.476 564.599 115.292 564.599H106.364C106.29 564.599 106.254 564.636 106.254 564.708C106.29 565.707 106.346 566.352 106.419 566.642C106.622 567.459 107.055 568.104 107.718 568.576C108.381 569.048 109.23 569.284 110.261 569.284C111.035 569.284 111.716 569.111 112.307 568.767C112.896 568.422 113.357 567.932 113.689 567.296C113.799 567.132 113.928 567.097 114.076 567.187L115.153 567.814C115.301 567.904 115.338 568.031 115.265 568.195C114.804 569.066 114.112 569.752 113.191 570.251C112.269 570.751 111.211 571 110.012 571C108.705 570.982 107.608 570.673 106.724 570.075C105.839 569.475 105.203 568.64 104.816 567.569C104.485 566.697 104.318 565.444 104.318 563.809C104.318 563.047 104.333 562.425 104.36 561.944C104.388 561.463 104.457 561.03 104.568 560.649C104.881 559.468 105.512 558.524 106.46 557.816C107.41 557.108 108.557 556.754 109.902 556.754C111.578 556.754 112.868 557.172 113.771 558.007C114.674 558.842 115.237 560.023 115.458 561.548C115.531 562.057 115.568 562.693 115.568 563.455ZM107.649 559.137C107.05 559.601 106.659 560.224 106.474 561.004C106.364 561.385 106.29 562.002 106.254 562.856C106.254 562.929 106.29 562.964 106.364 562.964H113.523C113.597 562.964 113.634 562.929 113.634 562.856C113.597 562.039 113.541 561.458 113.468 561.112C113.265 560.295 112.855 559.646 112.237 559.165C111.62 558.684 110.841 558.443 109.902 558.443C108.999 558.443 108.248 558.675 107.649 559.137Z" fill="#0B3754"/>
<path fill-rule="evenodd" clip-rule="evenodd" d="M119.299 570.504C118.432 570.172 117.764 569.729 117.295 569.178C116.826 568.625 116.592 568.009 116.592 567.328V566.996C116.592 566.813 116.691 566.721 116.891 566.721H118.328C118.526 566.721 118.626 566.813 118.626 566.996V567.218C118.626 567.825 118.971 568.355 119.658 568.805C120.347 569.257 121.209 569.481 122.246 569.481C123.284 569.481 124.121 569.265 124.76 568.833C125.399 568.4 125.717 567.852 125.717 567.19C125.717 566.73 125.553 566.353 125.223 566.058C124.894 565.764 124.506 565.534 124.057 565.367C123.607 565.202 122.915 564.991 121.977 564.733C120.86 564.438 119.943 564.144 119.225 563.85C118.507 563.556 117.903 563.146 117.415 562.621C116.925 562.096 116.682 561.429 116.682 560.619C116.682 559.441 117.18 558.503 118.178 557.804C119.175 557.104 120.491 556.754 122.127 556.754C123.224 556.754 124.196 556.919 125.044 557.251C125.891 557.583 126.545 558.037 127.004 558.618C127.462 559.198 127.692 559.846 127.692 560.564V560.647C127.692 560.831 127.592 560.924 127.392 560.924H125.986C125.787 560.924 125.687 560.831 125.687 560.647V560.564C125.687 559.938 125.363 559.413 124.716 558.99C124.067 558.567 123.194 558.355 122.096 558.355C121.08 558.355 120.262 558.544 119.644 558.921C119.025 559.299 118.716 559.819 118.716 560.481C118.716 561.108 119.015 561.585 119.613 561.916C120.212 562.248 121.14 562.579 122.396 562.911C123.553 563.224 124.49 563.518 125.208 563.795C125.926 564.07 126.545 564.471 127.063 564.995C127.582 565.52 127.842 566.206 127.842 567.053C127.842 568.249 127.333 569.205 126.315 569.923C125.299 570.641 123.952 571 122.277 571C121.159 571 120.167 570.834 119.299 570.504Z" fill="#0B3754"/>
<path fill-rule="evenodd" clip-rule="evenodd" d="M135.721 558.119H132.31C132.229 558.119 132.19 558.157 132.19 558.233V566.716C132.19 567.635 132.406 568.282 132.838 568.657C133.27 569.03 133.95 569.217 134.876 569.217H135.631C135.832 569.217 135.933 569.313 135.933 569.505V570.683C135.933 570.875 135.832 570.971 135.631 570.971C135.39 570.989 135.016 571 134.514 571C133.064 571 131.967 570.74 131.223 570.223C130.478 569.706 130.106 568.748 130.106 567.348V558.233C130.106 558.157 130.065 558.119 129.986 558.119H128.142C127.943 558.119 127.842 558.023 127.842 557.831V556.709C127.842 556.518 127.943 556.422 128.142 556.422H129.986C130.065 556.422 130.106 556.384 130.106 556.306V552.971C130.106 552.78 130.207 552.684 130.408 552.684H131.887C132.089 552.684 132.19 552.78 132.19 552.971V556.306C132.19 556.384 132.229 556.422 132.31 556.422H135.721C135.923 556.422 136.024 556.518 136.024 556.709V557.831C136.024 558.023 135.923 558.119 135.721 558.119Z" fill="#0B3754"/>
<path fill-rule="evenodd" clip-rule="evenodd" d="M148.921 570.739L145.141 562.365C145.103 562.289 145.046 562.249 144.97 562.249H141.534C141.439 562.249 141.391 562.298 141.391 562.395V570.651C141.391 570.748 141.357 570.831 141.29 570.899C141.223 570.967 141.143 571 141.047 571H138.412C138.317 571 138.236 570.967 138.169 570.899C138.102 570.831 138.068 570.748 138.068 570.651V550.997C138.068 550.901 138.102 550.818 138.169 550.751C138.236 550.683 138.317 550.649 138.412 550.649H146.287C147.452 550.649 148.482 550.896 149.38 551.389C150.277 551.884 150.973 552.582 151.471 553.483C151.966 554.384 152.215 555.417 152.215 556.579C152.215 557.917 151.876 559.055 151.198 559.996C150.52 560.936 149.581 561.591 148.377 561.958C148.339 561.958 148.311 561.978 148.292 562.016C148.272 562.056 148.272 562.094 148.292 562.132L152.329 570.593C152.368 570.671 152.387 570.729 152.387 570.767C152.387 570.923 152.281 571 152.072 571H149.322C149.131 571 148.998 570.913 148.921 570.739ZM141.391 553.701V559.487C141.391 559.584 141.439 559.633 141.534 559.633H145.829C146.746 559.633 147.485 559.356 148.049 558.803C148.611 558.251 148.894 557.52 148.894 556.609C148.894 555.698 148.611 554.961 148.049 554.399C147.485 553.837 146.746 553.555 145.829 553.555H141.534C141.439 553.555 141.391 553.604 141.391 553.701Z" fill="#0B3754"/>
<path fill-rule="evenodd" clip-rule="evenodd" d="M162.866 557.35C163.766 557.745 164.46 558.291 164.949 558.985C165.436 559.678 165.681 560.466 165.681 561.349V570.459C165.681 570.549 165.648 570.625 165.583 570.689C165.516 570.752 165.436 570.783 165.343 570.783H162.754C162.659 570.783 162.58 570.752 162.514 570.689C162.448 570.625 162.416 570.549 162.416 570.459V569.594C162.416 569.54 162.396 569.508 162.36 569.5C162.322 569.491 162.284 569.504 162.247 569.54C161.327 570.513 159.995 571 158.251 571C156.843 571 155.684 570.658 154.773 569.973C153.863 569.287 153.408 568.269 153.408 566.918C153.408 565.513 153.92 564.417 154.943 563.634C155.965 562.85 157.405 562.458 159.263 562.458H162.275C162.369 562.458 162.416 562.413 162.416 562.323V561.674C162.416 560.971 162.199 560.427 161.769 560.039C161.336 559.652 160.689 559.458 159.826 559.458C159.113 559.458 158.536 559.579 158.095 559.822C157.654 560.066 157.378 560.404 157.264 560.836C157.208 561.053 157.077 561.143 156.87 561.107L154.14 560.782C154.046 560.764 153.967 560.733 153.902 560.688C153.835 560.642 153.812 560.584 153.831 560.512C153.981 559.413 154.594 558.511 155.674 557.809C156.753 557.107 158.11 556.754 159.742 556.754C160.924 556.754 161.966 556.954 162.866 557.35ZM161.431 567.81C162.087 567.341 162.416 566.746 162.416 566.026V564.756C162.416 564.666 162.369 564.62 162.275 564.62H159.91C158.916 564.62 158.132 564.801 157.56 565.161C156.987 565.521 156.702 566.035 156.702 566.701C156.702 567.279 156.922 567.725 157.363 568.04C157.804 568.354 158.372 568.513 159.066 568.513C159.986 568.513 160.774 568.279 161.431 567.81Z" fill="#0B3754"/>
<path fill-rule="evenodd" clip-rule="evenodd" d="M169.325 553.237C168.941 552.842 168.75 552.34 168.75 551.729C168.75 551.119 168.941 550.616 169.325 550.222C169.71 549.829 170.2 549.631 170.796 549.631C171.39 549.631 171.88 549.829 172.264 550.222C172.648 550.616 172.841 551.119 172.841 551.729C172.841 552.34 172.648 552.842 172.264 553.237C171.88 553.631 171.39 553.828 170.796 553.828C170.2 553.828 169.71 553.631 169.325 553.237ZM169.167 570.897C169.1 570.828 169.066 570.744 169.066 570.645V556.222C169.066 556.123 169.1 556.041 169.167 555.971C169.234 555.902 169.316 555.867 169.412 555.867H172.062C172.159 555.867 172.24 555.902 172.307 555.971C172.374 556.041 172.408 556.123 172.408 556.222V570.645C172.408 570.744 172.374 570.828 172.307 570.897C172.24 570.966 172.159 571 172.062 571H169.412C169.316 571 169.234 570.966 169.167 570.897Z" fill="#0B3754"/>
<path fill-rule="evenodd" clip-rule="evenodd" d="M176.032 570.898C175.949 570.83 175.908 570.748 175.908 570.651V550.998C175.908 550.901 175.949 550.818 176.032 550.751C176.114 550.684 176.213 550.649 176.331 550.649H179.576C179.692 550.649 179.792 550.684 179.876 550.751C179.958 550.818 179.999 550.901 179.999 550.998V570.651C179.999 570.748 179.958 570.83 179.876 570.898C179.792 570.967 179.692 571 179.576 571H176.331C176.213 571 176.114 570.967 176.032 570.898Z" fill="#0B3754"/>
<path fill-rule="evenodd" clip-rule="evenodd" d="M109.241 544.727H119.113C120.772 544.727 122.117 543.392 122.117 541.745V531.946C122.117 530.299 120.772 528.963 119.113 528.963H109.241C107.58 528.963 106.234 530.299 106.234 531.946V541.745C106.234 543.392 107.58 544.727 109.241 544.727Z" fill="#049474"/>
<path fill-rule="evenodd" clip-rule="evenodd" d="M131.297 523.008H141.169C142.83 523.008 144.175 521.673 144.175 520.026V510.228C144.175 508.58 142.83 507.244 141.169 507.244H131.297C129.638 507.244 128.293 508.58 128.293 510.228V520.026C128.293 521.673 129.638 523.008 131.297 523.008Z" fill="#FCC200"/>
<path fill-rule="evenodd" clip-rule="evenodd" d="M109.241 523.008H119.113C120.772 523.008 122.117 521.673 122.117 520.026V510.228C122.117 508.58 120.772 507.244 119.113 507.244H109.241C107.58 507.244 106.234 508.58 106.234 510.228V520.026C106.234 521.673 107.58 523.008 109.241 523.008Z" fill="#049474"/>
<mask id="mask0_2077_5632" style="mask-type:luminance" maskUnits="userSpaceOnUse" x="106" y="485" width="17" height="16">
<path d="M106.42 485.07H122.268V500.8H106.42V485.07Z" fill="#049474"/>
</mask>
<g mask="url(#mask0_2077_5632)">
<path fill-rule="evenodd" clip-rule="evenodd" d="M109.418 500.8H119.269C120.926 500.8 122.268 499.467 122.268 497.824V488.046C122.268 486.403 120.926 485.07 119.269 485.07H109.418C107.762 485.07 106.42 486.403 106.42 488.046V497.824C106.42 499.467 107.762 500.8 109.418 500.8Z" fill="#049474"/>
</g>
<path fill-rule="evenodd" clip-rule="evenodd" d="M131.297 544.727H141.169C142.83 544.727 144.175 543.392 144.175 541.746V531.945C144.175 530.298 142.83 528.963 141.169 528.963H131.297C129.638 528.963 128.293 530.298 128.293 531.945V541.746C128.293 543.392 129.638 544.727 131.297 544.727Z" fill="#049474"/>
<mask id="mask1_2077_5632" style="mask-type:luminance" maskUnits="userSpaceOnUse" x="150" y="529" width="17" height="16">
<path d="M150.666 529.031H166.514V544.902H150.666V529.031Z" fill="#E4006D"/>
</mask>
<g mask="url(#mask1_2077_5632)">
<path fill-rule="evenodd" clip-rule="evenodd" d="M153.666 544.902H163.517C165.173 544.902 166.514 543.558 166.514 541.9V532.033C166.514 530.375 165.173 529.031 163.517 529.031H153.666C152.009 529.031 150.666 530.375 150.666 532.033V541.9C150.666 543.558 152.009 544.902 153.666 544.902Z" fill="#E4006D"/>
</g>
</g>
<g filter="url(#filter1_d_2077_5632)">
<path d="M282.062 606.672C283.686 597.047 292.021 590 301.783 590H514.342C526.717 590 536.123 601.125 534.063 613.328L523.938 673.328C522.314 682.953 513.979 690 504.217 690H291.658C279.283 690 269.877 678.875 271.937 666.672L282.062 606.672Z" fill="white"/>
</g>
<g clip-path="url(#clip1_2077_5632)">
<path d="M390.566 626.946L385.861 653.054H380.708L383.509 637.514L374.547 650.319H372.195L367.378 637.389L364.465 653.054H359.312L364.017 626.946H368.498L374.435 643.232L385.861 626.946H390.566ZM411.626 633.038L408.042 653.054H403.113L403.449 651.065C401.88 652.557 399.976 653.427 397.96 653.303C396.615 653.303 395.271 652.93 394.039 652.184C392.807 651.438 391.91 650.443 391.238 649.076C390.454 647.584 390.118 645.968 390.23 644.227C390.23 641.989 390.678 640 391.574 638.259C393.255 634.778 396.615 632.541 400.2 632.541C403.001 632.541 404.905 633.535 406.137 635.524L406.585 632.789C406.361 633.038 411.626 633.038 411.626 633.038ZM402.216 647.708C403.001 647.086 403.673 646.341 404.121 645.346C404.569 644.351 404.793 643.232 404.793 641.865C404.793 640.622 404.457 639.503 403.673 638.632C402.889 637.762 401.768 637.389 400.648 637.389C398.632 637.389 396.839 638.632 396.055 640.497C395.607 641.492 395.383 642.611 395.383 643.978C395.383 645.346 395.719 646.465 396.503 647.211C397.288 648.081 398.408 648.454 399.528 648.454C400.536 648.578 401.432 648.33 402.216 647.708ZM422.492 633.286C423.613 632.914 424.957 632.665 426.413 632.665L425.517 638.011L424.285 637.886C422.716 637.886 421.372 638.384 420.476 639.13C419.468 640.249 418.796 641.616 418.572 643.232L416.779 652.93H411.514L415.099 632.914H420.028L419.58 635.276C420.364 634.405 421.372 633.784 422.492 633.286ZM437.951 641.741L444.225 653.054H438.175L433.919 645.222L430.782 648.205L429.886 653.054H424.621L429.55 625.33H434.815L432.014 640.87L440.752 633.038H447.585L437.951 641.741ZM463.268 644.6H449.378C449.602 647.335 451.17 648.703 454.082 648.703C454.979 648.703 455.875 648.578 456.771 648.205C457.555 647.957 458.339 647.459 459.011 646.838L461.14 650.692C460.132 651.562 458.899 652.308 457.667 652.681C456.435 653.178 454.979 653.303 453.634 653.303C451.73 653.303 450.162 652.93 448.705 652.184C447.361 651.562 446.241 650.443 445.457 649.076C444.673 647.708 444.337 646.092 444.337 644.351C444.337 642.114 444.785 640.124 445.681 638.384C446.577 636.643 447.921 635.151 449.49 634.157C451.17 633.162 453.074 632.665 454.979 632.665C456.771 632.665 458.227 633.038 459.572 633.784C460.804 634.405 461.812 635.524 462.596 636.892C463.268 638.259 463.716 639.876 463.604 641.492C463.604 642.486 463.492 643.481 463.268 644.6ZM451.618 638.135C450.722 638.881 450.162 639.876 449.826 641.243H458.787C458.787 640 458.451 638.881 457.667 638.135C456.883 637.389 455.763 637.016 454.755 637.016C453.522 637.016 452.514 637.389 451.618 638.135ZM474.582 633.286C475.703 632.914 476.935 632.665 478.503 632.665L477.495 638.011L476.263 637.886C474.694 637.886 473.35 638.384 472.454 639.13C471.446 640.249 470.774 641.616 470.55 643.232L468.757 652.93H463.492L467.077 632.914H472.006L471.558 635.276C472.566 634.405 473.574 633.784 474.582 633.286ZM476.599 652.432C476.039 651.811 475.703 650.941 475.703 650.07C475.703 648.951 476.039 647.957 476.711 647.211C477.383 646.465 478.167 646.092 479.175 646.092C480.072 646.092 480.856 646.465 481.416 647.086C481.976 647.708 482.312 648.454 482.312 649.573C482.312 650.692 481.976 651.562 481.304 652.308C480.632 653.054 479.847 653.427 478.839 653.427C477.943 653.303 477.159 653.054 476.599 652.432ZM487.465 633.038H492.618L489.033 653.054H483.88L487.465 633.038ZM488.697 629.308C488.137 628.811 487.801 627.941 487.801 627.195C487.801 626.2 488.137 625.33 488.809 624.708C489.481 624.086 490.265 623.714 491.274 623.714C492.17 623.714 492.954 623.962 493.514 624.584C494.074 625.081 494.41 625.827 494.41 626.697C494.41 627.692 494.074 628.562 493.402 629.308C492.73 629.93 491.834 630.303 490.826 630.303C490.041 630.178 489.257 629.93 488.697 629.308ZM497.211 652.184C494.522 650.816 492.73 647.708 492.842 644.351C492.73 640.124 494.858 636.27 498.107 634.157C499.787 633.162 501.804 632.541 503.708 632.665C505.5 632.665 507.181 633.038 508.525 633.784C511.214 635.276 512.894 638.259 512.782 641.616C512.782 643.854 512.334 645.843 511.438 647.584C510.541 649.324 509.197 650.816 507.517 651.811C505.836 652.805 503.82 653.427 501.916 653.303C500.123 653.303 498.555 652.93 497.211 652.184ZM505.052 647.708C505.836 647.086 506.509 646.341 506.957 645.346C507.405 644.351 507.629 643.232 507.629 641.865C507.629 640.497 507.293 639.378 506.509 638.632C505.724 637.762 504.604 637.389 503.484 637.389C501.468 637.389 499.675 638.632 498.891 640.497C498.443 641.492 498.219 642.611 498.219 643.978C498.219 645.346 498.555 646.465 499.339 647.211C500.123 648.081 501.244 648.454 502.364 648.454C503.26 648.578 504.156 648.33 505.052 647.708ZM312.375 652.557C313.383 652.059 314.28 651.314 315.064 650.443C316.744 648.578 322.345 642.362 332.091 631.67C332.987 630.676 332.987 629.184 332.091 628.189L329.626 625.454C328.73 624.459 327.386 624.459 326.49 625.454L309.239 644.227C308.342 645.346 307.446 647.832 306.326 651.562C306.214 652.059 306.214 652.805 306.438 653.178C306.55 653.427 306.774 653.676 306.998 653.8C307.558 654.049 308.566 654.422 310.247 654.67C312.935 655.168 316.408 655.541 320.665 655.541C325.034 655.541 328.506 655.292 331.083 654.67C332.763 654.297 333.771 654.049 334.331 653.8C334.891 653.551 335.228 652.805 334.891 652.184C334.667 651.562 333.995 651.189 333.435 651.438L332.987 651.811C332.427 651.935 331.643 652.184 330.859 652.308C328.282 652.805 325.034 653.054 320.777 653.054C317.416 653.054 314.616 652.93 312.375 652.557ZM294.564 638.135C295.012 633.659 295.684 629.308 296.468 625.081C297.364 620.481 300.949 617.124 305.206 617H343.293C347.214 617 350.126 620.232 350.126 624.459C350.126 628.811 349.902 633.784 349.23 639.378C348.67 644.476 347.774 649.449 346.654 654.297C345.422 659.27 341.389 662.876 336.796 663H300.949C296.692 663.124 293.219 659.395 293.107 654.795V653.676C293.556 648.081 294.004 642.859 294.564 638.135ZM310.471 647.335C310.919 646.589 311.479 645.968 312.151 645.222L323.801 632.292C324.249 631.795 324.922 631.795 325.37 632.292L325.706 632.665C326.154 633.162 326.154 633.908 325.706 634.405C318.984 641.865 315.064 646.092 314.055 647.211C313.495 647.832 312.823 648.454 311.927 649.076C311.367 649.449 310.695 649.324 310.359 648.703C310.135 648.33 310.135 647.832 310.471 647.335ZM326.378 629.557L327.61 628.189C328.058 627.692 328.73 627.692 329.178 628.189L329.514 628.562C329.963 629.059 329.963 629.805 329.514 630.303L328.282 631.67C327.834 632.168 327.162 632.168 326.714 631.67L326.378 631.297C325.93 630.8 325.93 630.054 326.378 629.557Z" fill="#2C2E31"/>
</g>
<g filter="url(#filter2_d_2077_5632)">
<path d="M642.328 401.752C642.987 391.212 651.728 383 662.289 383H749.711C761.247 383 770.392 392.734 769.672 404.248L763.672 500.248C763.013 510.788 754.272 519 743.711 519H656.289C644.753 519 635.608 509.266 636.328 497.752L642.328 401.752Z" fill="white"/>
</g>
<path d="M694.86 493.164L692.814 501.414C692.638 502.14 692.858 502.536 693.408 502.536C693.98 502.536 694.442 502.118 694.618 501.414L695.498 497.894H698.578L697.764 501.172C697.104 503.746 695.256 505.22 692.726 505.22C690.196 505.22 689.14 503.768 689.8 501.172L691.736 493.384C692.374 490.788 694.156 489.358 696.664 489.358C699.238 489.358 700.338 490.832 699.7 493.384L698.886 496.684H695.784L696.664 493.164C696.862 492.416 696.642 492.042 696.07 492.042C695.498 492.042 695.058 492.438 694.86 493.164ZM707.94 495.056H704.86L705.322 493.186C705.52 492.46 705.3 492.064 704.772 492.064C704.2 492.064 703.76 492.482 703.584 493.186L703.32 494.22C703.1 495.144 703.232 495.474 704.75 496.288L705.41 496.618C706.862 497.366 707.126 498.422 706.532 500.82L706.444 501.172C705.806 503.746 703.958 505.22 701.406 505.22C698.876 505.22 697.82 503.79 698.48 501.172L698.876 499.544H701.956L701.494 501.414C701.318 502.14 701.538 502.536 702.088 502.536C702.66 502.536 703.122 502.118 703.298 501.414L703.584 500.314C703.804 499.39 703.65 499.082 702.242 498.312L701.494 497.938C700.042 497.168 699.778 496.068 700.372 493.67L700.482 493.23C701.098 490.81 702.858 489.38 705.344 489.38C707.896 489.38 708.996 490.854 708.358 493.406L707.94 495.056ZM716.62 495.056H713.54L714.002 493.186C714.2 492.46 713.98 492.064 713.452 492.064C712.88 492.064 712.44 492.482 712.264 493.186L712 494.22C711.78 495.144 711.912 495.474 713.43 496.288L714.09 496.618C715.542 497.366 715.806 498.422 715.212 500.82L715.124 501.172C714.486 503.746 712.638 505.22 710.086 505.22C707.556 505.22 706.5 503.79 707.16 501.172L707.556 499.544H710.636L710.174 501.414C709.998 502.14 710.218 502.536 710.768 502.536C711.34 502.536 711.802 502.118 711.978 501.414L712.264 500.314C712.484 499.39 712.33 499.082 710.922 498.312L710.174 497.938C708.722 497.168 708.458 496.068 709.052 493.67L709.162 493.23C709.778 490.81 711.538 489.38 714.024 489.38C716.576 489.38 717.676 490.854 717.038 493.406L716.62 495.056Z" fill="black"/>
<g clip-path="url(#clip2_2077_5632)">
<path d="M673.861 471.619L668 400.134L738 400.278L731.802 471.619L703.264 479.866L673.861 471.619Z" fill="#1B73BA"/>
<path d="M703.266 472.962V406.942L732.092 407.038L726.952 466.106L703.266 472.962Z" fill="#1C88C7"/>
<path d="M724.932 415.381H680.588L681.789 424.01H702.832L682.126 432.88L683.326 441.223H713.835L712.729 452.873L702.4 454.887L693.032 452.49L692.311 445.873H683.711L684.864 459.634L703.312 464.763L720.993 459.154L723.251 432.257H704.561L724.932 423.819L724.932 415.381Z" fill="white"/>
</g>
<g filter="url(#filter3_d_2077_5632)">
<path d="M539.199 225.01C540.221 214.786 548.825 207 559.1 207H668.9C680.733 207 689.978 217.216 688.801 228.99L682.801 288.99C681.779 299.214 673.175 307 662.9 307H553.1C541.267 307 532.022 296.784 533.199 285.01L539.199 225.01Z" fill="white"/>
</g>
<path d="M587.904 264C585.409 264 583.519 264.909 582.272 266.727C581.176 264.909 579.437 264 577.131 264C574.749 264 573.01 264.833 571.876 266.538V264.53H567V283.47H571.876V272.826C571.876 270.061 573.275 268.545 575.43 268.545C577.433 268.545 578.605 269.871 578.605 272.144V283.47H583.481V272.826C583.481 270.061 584.767 268.545 586.997 268.545C589 268.545 590.172 269.871 590.172 272.144V283.47H595.049V271.803C595.049 267.068 592.251 264 587.904 264Z" fill="#166FEA"/>
<path d="M613.175 266.765C611.701 264.909 609.66 264 607.014 264C604.481 264 602.327 264.985 600.512 266.917C598.735 268.848 597.828 271.197 597.828 274C597.828 276.803 598.735 279.189 600.512 281.121C602.327 283.053 604.481 284 607.014 284C609.66 284 611.701 283.091 613.175 281.235V283.47H618.052V264.53H613.175V266.765ZM604.179 277.864C603.196 276.841 602.704 275.553 602.704 274C602.704 272.447 603.196 271.159 604.179 270.174C605.162 269.152 606.409 268.659 607.921 268.659C609.433 268.659 610.681 269.152 611.663 270.174C612.684 271.159 613.175 272.447 613.175 274C613.175 275.553 612.684 276.841 611.663 277.864C610.681 278.849 609.433 279.341 607.921 279.341C606.409 279.341 605.162 278.849 604.179 277.864Z" fill="#166FEA"/>
<path d="M636.045 267.788V264.53H621.869V269.114H629.467L621.49 280.212V283.47H636.422V278.886H628.03L636.045 267.788Z" fill="#166FEA"/>
<path d="M656.811 276.008C656.925 275.288 657 274.644 657 274C657 271.159 656.094 268.811 654.279 266.879C652.503 264.947 650.197 264 647.437 264C644.526 264 642.108 264.947 640.255 266.879C638.403 268.773 637.457 271.159 637.457 274C637.457 276.879 638.403 279.265 640.293 281.159C642.183 283.053 644.678 284 647.815 284C651.444 284 654.204 282.636 656.056 279.947L652.125 277.674C651.179 278.924 649.744 279.568 647.89 279.568C644.981 279.568 643.204 278.394 642.561 276.008H656.811ZM642.486 272.22C643.052 269.795 644.829 268.394 647.437 268.394C649.667 268.394 651.557 269.644 652.125 272.22H642.486Z" fill="#166FEA"/>
<path fill-rule="evenodd" clip-rule="evenodd" d="M590.251 251.094C587.25 248.118 587.25 243.292 590.251 240.316L598.404 232.232C600.942 229.716 604.812 229.327 607.762 231.065C608.675 231.602 608.667 232.835 607.916 233.58C607.166 234.324 605.941 234.26 604.922 233.964C603.618 233.586 602.151 233.907 601.122 234.927L592.969 243.01C591.468 244.499 591.468 246.911 592.969 248.4C594.47 249.888 596.903 249.888 598.404 248.4L614.71 232.232C617.712 229.256 622.579 229.256 625.581 232.232L633.734 240.316C636.736 243.292 636.736 248.118 633.734 251.094C630.732 254.07 625.865 254.07 622.863 251.094L620.146 248.4L616.749 251.768C614.211 254.284 610.341 254.673 607.391 252.935C606.478 252.398 606.486 251.165 607.237 250.42C607.987 249.676 609.212 249.74 610.231 250.036C611.535 250.414 613.002 250.093 614.031 249.073L617.525 245.609C618.972 244.174 621.319 244.174 622.766 245.609L625.581 248.4C627.082 249.888 629.515 249.888 631.016 248.4C632.517 246.911 632.517 244.499 631.016 243.01L622.863 234.927C621.362 233.439 618.929 233.439 617.428 234.927L601.122 251.094C598.12 254.07 593.253 254.071 590.251 251.094Z" fill="#166FEA"/>
<g filter="url(#filter4_d_2077_5632)">
<path d="M344.328 68.7524C344.987 58.2117 353.728 50 364.289 50H451.711C463.247 50 472.392 59.7336 471.672 71.2476L465.672 167.248C465.013 177.788 456.272 186 445.711 186H358.289C346.753 186 337.608 176.266 338.328 164.752L344.328 68.7524Z" fill="white"/>
</g>
<g clip-path="url(#clip3_2077_5632)">
<path d="M448.898 115.511L408.377 77.2431L404.451 73.535L373.948 102.342L360 115.511C359.303 116.172 358.912 117.067 358.912 118C358.912 118.933 359.303 119.828 360 120.489L387.867 146.807L404.451 162.465L434.95 133.658L435.425 133.213L448.898 120.509C449.247 120.182 449.524 119.792 449.713 119.363C449.903 118.935 450 118.475 450 118.01C450 117.545 449.903 117.085 449.713 116.656C449.524 116.227 449.247 115.838 448.898 115.511ZM404.451 131.149L390.528 118L404.451 104.851L418.37 118L404.451 131.149Z" fill="#2684FF"/>
<path d="M404.451 104.851C400.072 100.717 397.604 95.1138 397.585 89.2663C397.566 83.4188 399.998 77.8018 404.35 73.6422L373.885 102.402L390.465 118.06L404.451 104.851Z" fill="url(#paint1_linear_2077_5632)"/>
<path d="M418.408 117.964L404.451 131.149C408.847 135.301 411.316 140.932 411.316 146.803C411.316 152.674 408.847 158.305 404.451 162.457L435 133.622L418.408 117.964Z" fill="url(#paint2_linear_2077_5632)"/>
</g>
<g filter="url(#filter5_d_2077_5632)">
<path d="M90.328 260.752C90.9868 250.212 99.7278 242 110.289 242H197.711C209.247 242 218.392 251.734 217.672 263.248L211.672 359.248C211.013 369.788 202.272 378 191.711 378H104.289C92.7526 378 83.6084 368.266 84.328 356.752L90.328 260.752Z" fill="white"/>
</g>
<path d="M143.238 348.6H146.34L142.49 364H139.41L141.038 357.444H139.432L137.804 364H134.724L138.574 348.6H141.654L140.114 354.76H141.698L143.238 348.6ZM154.429 348.578L153.769 351.262H151.503L148.335 363.978H145.255L148.423 351.262H146.179L146.839 348.578H154.429ZM155.009 348.6H159.013L157.385 358.72H157.605L161.015 348.6H165.019L161.169 364H158.331L161.191 353.946H160.993L157.187 364H155.163L156.373 353.946H156.175L153.997 364H151.181L155.009 348.6ZM165.795 348.578H168.875L165.685 361.316H168.215L167.555 364H161.945L165.795 348.578Z" fill="black"/>
<g clip-path="url(#clip4_2077_5632)">
<path d="M121.861 330.62L116 259.134L186 259.277L179.802 330.62L151.264 338.866L121.861 330.62Z" fill="#E34F26"/>
<path d="M151.266 331.962V265.942L180.092 266.038L174.952 325.106L151.266 331.962Z" fill="#EF652A"/>
<path d="M172.163 282.435L172.979 273.709H128.635L131.085 300.462H161.689L160.489 311.873L150.688 314.51L140.743 311.633L140.214 304.825H131.421L132.623 318.729L150.687 323.763L168.895 318.729L171.345 291.592H139.205L138.292 282.435H172.163Z" fill="white"/>
</g>
<defs>
<filter id="filter0_d_2077_5632" x="18.2891" y="410" width="233.422" height="236" filterUnits="userSpaceOnUse" color-interpolation-filters="sRGB">
<feFlood flood-opacity="0" result="BackgroundImageFix"/>
<feColorMatrix in="SourceAlpha" type="matrix" values="0 0 0 0 0 0 0 0 0 0 0 0 0 0 0 0 0 0 127 0" result="hardAlpha"/>
<feOffset/>
<feGaussianBlur stdDeviation="25"/>
<feComposite in2="hardAlpha" operator="out"/>
<feColorMatrix type="matrix" values="0 0 0 0 0 0 0 0 0 0.591667 0 0 0 0 0.0234789 0 0 0 0.16 0"/>
<feBlend mode="normal" in2="BackgroundImageFix" result="effect1_dropShadow_2077_5632"/>
<feBlend mode="normal" in="SourceGraphic" in2="effect1_dropShadow_2077_5632" result="shape"/>
</filter>
<filter id="filter1_d_2077_5632" x="221.652" y="540" width="362.695" height="200" filterUnits="userSpaceOnUse" color-interpolation-filters="sRGB">
<feFlood flood-opacity="0" result="BackgroundImageFix"/>
<feColorMatrix in="SourceAlpha" type="matrix" values="0 0 0 0 0 0 0 0 0 0 0 0 0 0 0 0 0 0 127 0" result="hardAlpha"/>
<feOffset/>
<feGaussianBlur stdDeviation="25"/>
<feComposite in2="hardAlpha" operator="out"/>
<feColorMatrix type="matrix" values="0 0 0 0 0 0 0 0 0 0.591667 0 0 0 0 0.0234789 0 0 0 0.16 0"/>
<feBlend mode="normal" in2="BackgroundImageFix" result="effect1_dropShadow_2077_5632"/>
<feBlend mode="normal" in="SourceGraphic" in2="effect1_dropShadow_2077_5632" result="shape"/>
</filter>
<filter id="filter2_d_2077_5632" x="586.289" y="333" width="233.422" height="236" filterUnits="userSpaceOnUse" color-interpolation-filters="sRGB">
<feFlood flood-opacity="0" result="BackgroundImageFix"/>
<feColorMatrix in="SourceAlpha" type="matrix" values="0 0 0 0 0 0 0 0 0 0 0 0 0 0 0 0 0 0 127 0" result="hardAlpha"/>
<feOffset/>
<feGaussianBlur stdDeviation="25"/>
<feComposite in2="hardAlpha" operator="out"/>
<feColorMatrix type="matrix" values="0 0 0 0 0 0 0 0 0 0.591667 0 0 0 0 0.0234789 0 0 0 0.16 0"/>
<feBlend mode="normal" in2="BackgroundImageFix" result="effect1_dropShadow_2077_5632"/>
<feBlend mode="normal" in="SourceGraphic" in2="effect1_dropShadow_2077_5632" result="shape"/>
</filter>
<filter id="filter3_d_2077_5632" x="483.098" y="157" width="255.805" height="200" filterUnits="userSpaceOnUse" color-interpolation-filters="sRGB">
<feFlood flood-opacity="0" result="BackgroundImageFix"/>
<feColorMatrix in="SourceAlpha" type="matrix" values="0 0 0 0 0 0 0 0 0 0 0 0 0 0 0 0 0 0 127 0" result="hardAlpha"/>
<feOffset/>
<feGaussianBlur stdDeviation="25"/>
<feComposite in2="hardAlpha" operator="out"/>
<feColorMatrix type="matrix" values="0 0 0 0 0 0 0 0 0 0.591667 0 0 0 0 0.0234789 0 0 0 0.16 0"/>
<feBlend mode="normal" in2="BackgroundImageFix" result="effect1_dropShadow_2077_5632"/>
<feBlend mode="normal" in="SourceGraphic" in2="effect1_dropShadow_2077_5632" result="shape"/>
</filter>
<filter id="filter4_d_2077_5632" x="288.289" y="0" width="233.422" height="236" filterUnits="userSpaceOnUse" color-interpolation-filters="sRGB">
<feFlood flood-opacity="0" result="BackgroundImageFix"/>
<feColorMatrix in="SourceAlpha" type="matrix" values="0 0 0 0 0 0 0 0 0 0 0 0 0 0 0 0 0 0 127 0" result="hardAlpha"/>
<feOffset/>
<feGaussianBlur stdDeviation="25"/>
<feComposite in2="hardAlpha" operator="out"/>
<feColorMatrix type="matrix" values="0 0 0 0 0 0 0 0 0 0.591667 0 0 0 0 0.0234789 0 0 0 0.16 0"/>
<feBlend mode="normal" in2="BackgroundImageFix" result="effect1_dropShadow_2077_5632"/>
<feBlend mode="normal" in="SourceGraphic" in2="effect1_dropShadow_2077_5632" result="shape"/>
</filter>
<filter id="filter5_d_2077_5632" x="34.2891" y="192" width="233.422" height="236" filterUnits="userSpaceOnUse" color-interpolation-filters="sRGB">
<feFlood flood-opacity="0" result="BackgroundImageFix"/>
<feColorMatrix in="SourceAlpha" type="matrix" values="0 0 0 0 0 0 0 0 0 0 0 0 0 0 0 0 0 0 127 0" result="hardAlpha"/>
<feOffset/>
<feGaussianBlur stdDeviation="25"/>
<feComposite in2="hardAlpha" operator="out"/>
<feColorMatrix type="matrix" values="0 0 0 0 0 0 0 0 0 0.591667 0 0 0 0 0.0234789 0 0 0 0.16 0"/>
<feBlend mode="normal" in2="BackgroundImageFix" result="effect1_dropShadow_2077_5632"/>
<feBlend mode="normal" in="SourceGraphic" in2="effect1_dropShadow_2077_5632" result="shape"/>
</filter>
<radialGradient id="paint0_radial_2077_5632" cx="0" cy="0" r="1" gradientUnits="userSpaceOnUse" gradientTransform="translate(405 388) rotate(90) scale(270 400)">
<stop stop-color="#19DF21" stop-opacity="0.8"/>
<stop offset="0.380208" stop-color="#19DF21" stop-opacity="0.6"/>
<stop offset="0.770833" stop-color="#19DF21" stop-opacity="0.2"/>
<stop offset="1" stop-color="#15E61D" stop-opacity="0.06"/>
</radialGradient>
<linearGradient id="paint1_linear_2077_5632" x1="401.958" y1="91.5473" x2="383.626" y2="110.954" gradientUnits="userSpaceOnUse">
<stop offset="0.18" stop-color="#0052CC"/>
<stop offset="1" stop-color="#2684FF"/>
</linearGradient>
<linearGradient id="paint2_linear_2077_5632" x1="407.108" y1="144.294" x2="425.404" y2="124.925" gradientUnits="userSpaceOnUse">
<stop offset="0.18" stop-color="#0052CC"/>
<stop offset="1" stop-color="#2684FF"/>
</linearGradient>
<clipPath id="clip0_2077_5632">
<rect width="90" height="86" fill="white" transform="translate(90 485)"/>
</clipPath>
<clipPath id="clip1_2077_5632">
<rect width="220" height="46" fill="white" transform="translate(293 617)"/>
</clipPath>
<clipPath id="clip2_2077_5632">
<rect width="70" height="80" fill="white" transform="translate(668 400)"/>
</clipPath>
<clipPath id="clip3_2077_5632">
<rect width="90" height="90" fill="white" transform="translate(360 73)"/>
</clipPath>
<clipPath id="clip4_2077_5632">
<rect width="70" height="80" fill="white" transform="translate(116 259)"/>
</clipPath>
</defs>
</svg>
