<svg width="820" height="740" viewBox="0 0 820 740" fill="none" xmlns="http://www.w3.org/2000/svg">
<path d="M695.224 320.186H695.161C695.161 319.734 695.224 319.283 695.224 318.831C695.224 257.24 646.28 207.258 585.827 207.258C578.049 207.258 570.461 208.097 563.189 209.709C541.499 155.922 489.71 118 429.13 118C383.664 118 343.131 139.412 316.572 172.819C298.94 163.674 279.441 158.901 259.66 158.889C194.212 158.889 140.462 209.709 134.202 274.783C63.0624 278.652 5.96106 338.115 5.01253 411.959C4.00077 488.835 64.3903 552.038 139.767 553.005C145.647 553.07 151.339 552.683 157.03 551.973C186.181 614.661 248.721 658 321.251 658C365.01 658 405.101 642.199 436.466 615.951C460.432 634.073 490.026 644.908 522.149 644.908C588.04 644.908 643.498 599.827 660.761 538.236C671.637 541.913 683.209 543.976 695.287 543.976C755.866 543.976 805 493.865 805 432.081C804.937 370.297 755.866 320.186 695.224 320.186Z" fill="url(#paint0_radial_2050_5371)"/>
<circle cx="405" cy="388" r="288" stroke="#A6F4A9" stroke-width="4"/>
<circle cx="405" cy="388" r="228" stroke="#E1FFE3" stroke-width="4"/>
<circle cx="405" cy="388" r="168" stroke="white" stroke-width="4"/>
<path d="M343.441 380.88H335.041L336.301 375.78C336.841 373.8 336.241 372.72 334.801 372.72C333.241 372.72 332.041 373.86 331.561 375.78L330.841 378.6C330.241 381.12 330.601 382.02 334.741 384.24L336.541 385.14C340.501 387.18 341.221 390.06 339.601 396.6L339.361 397.56C337.621 404.58 332.581 408.6 325.621 408.6C318.721 408.6 315.841 404.7 317.641 397.56L318.721 393.12H327.121L325.861 398.22C325.381 400.2 325.981 401.28 327.481 401.28C329.041 401.28 330.301 400.14 330.781 398.22L331.561 395.22C332.161 392.7 331.741 391.86 327.901 389.76L325.861 388.74C321.901 386.64 321.181 383.64 322.801 377.1L323.101 375.9C324.781 369.3 329.581 365.4 336.361 365.4C343.321 365.4 346.321 369.42 344.581 376.38L343.441 380.88ZM349.233 366H360.153L355.713 393.6H356.313L365.613 366H376.533L366.033 408H358.293L366.093 380.58H365.553L355.173 408H349.653L352.953 380.58H352.413L346.473 408H338.793L349.233 366ZM378.588 366H389.508L385.068 393.6H385.668L394.968 366H405.888L395.388 408H387.648L395.448 380.58H394.908L384.528 408H379.008L382.308 380.58H381.768L375.828 408H368.148L378.588 366ZM436.019 380.88H427.619L428.879 375.78C429.419 373.8 428.819 372.72 427.379 372.72C425.819 372.72 424.619 373.86 424.139 375.78L423.419 378.6C422.819 381.12 423.179 382.02 427.319 384.24L429.119 385.14C433.079 387.18 433.799 390.06 432.179 396.6L431.939 397.56C430.199 404.58 425.159 408.6 418.199 408.6C411.299 408.6 408.419 404.7 410.219 397.56L411.299 393.12H419.699L418.439 398.22C417.959 400.2 418.559 401.28 420.059 401.28C421.619 401.28 422.879 400.14 423.359 398.22L424.139 395.22C424.739 392.7 424.319 391.86 420.479 389.76L418.439 388.74C414.479 386.64 413.759 383.64 415.379 377.1L415.679 375.9C417.359 369.3 422.159 365.4 428.939 365.4C435.899 365.4 438.899 369.42 437.159 376.38L436.019 380.88ZM436.471 386.94C437.911 381 442.411 376.8 448.891 376.8C455.431 376.8 458.011 381.06 456.511 386.94L453.631 398.46C452.191 404.34 447.451 408.6 440.971 408.6C434.491 408.6 432.091 404.4 433.591 398.46L436.471 386.94ZM444.511 386.52L441.391 398.94C440.971 400.68 441.451 401.76 442.711 401.76C443.971 401.76 445.111 400.68 445.531 398.94L448.651 386.52C449.131 384.66 448.591 383.64 447.331 383.64C446.071 383.64 444.991 384.66 444.511 386.52ZM463.421 374.76C465.281 367.38 469.241 364.98 474.341 364.98C475.841 364.98 477.401 365.16 479.021 365.52L477.281 372.3C476.621 372.12 476.021 372 475.361 372C473.621 372 471.881 372.78 471.281 375.18L470.741 377.4H475.961L474.281 384.24H469.001L463.121 408H455.141L461.081 384.24H458.381L460.061 377.4H462.761L463.421 374.76ZM474.731 384.24L476.411 377.4H479.171L480.791 370.8L488.831 370.32L487.091 377.4H492.251L490.511 384.24H485.411L481.871 398.34C481.271 400.74 482.471 401.52 484.151 401.52C484.751 401.52 485.531 401.4 486.311 401.22L484.691 408.06C482.891 408.42 481.211 408.6 479.771 408.6C474.731 408.6 471.971 406.2 473.831 398.76L477.431 384.24H474.731Z" fill="white"/>
<g filter="url(#filter0_d_2050_5371)">
<path d="M74.328 488.752C74.9868 478.212 83.7278 470 94.289 470H181.711C193.247 470 202.392 479.734 201.672 491.248L195.672 587.248C195.013 597.788 186.272 606 175.711 606H88.289C76.7526 606 67.6084 596.266 68.328 584.752L74.328 488.752Z" fill="white"/>
</g>
<g clip-path="url(#clip0_2050_5371)">
<path d="M120.004 538C120.004 529.716 126.718 522.999 135.002 522.999C143.286 522.999 150.003 529.716 150.003 538C150.003 546.284 143.286 553.001 135.002 553.001C126.718 553.001 120.004 546.284 120.004 538ZM111.895 538C111.895 550.762 122.24 561.107 135.002 561.107C147.764 561.107 158.109 550.762 158.109 538C158.109 525.238 147.764 514.893 135.002 514.893C122.24 514.893 111.895 525.238 111.895 538ZM153.624 513.977C153.623 515.045 153.94 516.089 154.533 516.977C155.126 517.866 155.969 518.558 156.955 518.967C157.942 519.376 159.027 519.484 160.075 519.276C161.123 519.068 162.085 518.554 162.841 517.799C163.596 517.044 164.111 516.082 164.319 515.035C164.528 513.987 164.422 512.901 164.013 511.915C163.605 510.928 162.913 510.084 162.026 509.49C161.138 508.897 160.094 508.579 159.026 508.579H159.024C157.592 508.58 156.219 509.149 155.207 510.161C154.194 511.173 153.625 512.545 153.624 513.977ZM116.822 574.629C112.435 574.429 110.05 573.698 108.465 573.081C106.364 572.263 104.865 571.289 103.289 569.715C101.713 568.141 100.738 566.643 99.9232 564.542C99.3054 562.958 98.5746 560.573 98.3752 556.186C98.157 551.442 98.1135 550.018 98.1135 538C98.1135 525.983 98.1606 524.562 98.3752 519.815C98.575 515.428 99.3112 513.047 99.9232 511.458C100.741 509.357 101.715 507.858 103.289 506.282C104.863 504.706 106.361 503.731 108.465 502.916C110.049 502.298 112.435 501.568 116.822 501.368C121.565 501.15 122.99 501.106 135.002 501.106C147.014 501.106 148.44 501.154 153.187 501.368C157.575 501.568 159.955 502.304 161.544 502.916C163.645 503.731 165.144 504.708 166.72 506.282C168.296 507.856 169.268 509.357 170.086 511.458C170.704 513.042 171.435 515.428 171.634 519.815C171.852 524.562 171.896 525.983 171.896 538C171.896 550.018 171.852 551.438 171.634 556.186C171.434 560.573 170.7 562.958 170.086 564.542C169.268 566.643 168.294 568.142 166.72 569.715C165.146 571.287 163.645 572.263 161.544 573.081C159.96 573.699 157.575 574.429 153.187 574.629C148.444 574.847 147.019 574.891 135.002 574.891C122.985 574.891 121.564 574.847 116.822 574.629ZM116.449 493.273C111.659 493.491 108.385 494.25 105.527 495.363C102.566 496.511 100.06 498.053 97.5551 500.553C95.0506 503.054 93.5134 505.564 92.3646 508.525C91.2522 511.385 90.4926 514.657 90.2745 519.447C90.0527 524.245 90.002 525.779 90.002 538C90.002 550.221 90.0527 551.755 90.2745 556.553C90.4926 561.343 91.2522 564.615 92.3646 567.475C93.5134 570.434 95.051 572.947 97.5551 575.447C100.059 577.946 102.566 579.485 105.527 580.637C108.391 581.75 111.659 582.509 116.449 582.727C121.25 582.946 122.781 583 135.002 583C147.223 583 148.756 582.949 153.555 582.727C158.345 582.509 161.617 581.75 164.477 580.637C167.436 579.485 169.944 577.947 172.449 575.447C174.953 572.946 176.487 570.434 177.639 567.475C178.752 564.615 179.515 561.343 179.729 556.553C179.948 551.751 179.998 550.221 179.998 538C179.998 525.779 179.948 524.245 179.729 519.447C179.511 514.657 178.752 511.383 177.639 508.525C176.487 505.566 174.949 503.058 172.449 500.553C169.948 498.049 167.436 496.511 164.481 495.363C161.617 494.25 158.345 493.487 153.558 493.273C148.76 493.054 147.226 493 135.006 493C122.785 493 121.25 493.051 116.449 493.273Z" fill="url(#paint1_radial_2050_5371)"/>
<path d="M120.004 538C120.004 529.716 126.718 522.999 135.002 522.999C143.286 522.999 150.003 529.716 150.003 538C150.003 546.284 143.286 553.001 135.002 553.001C126.718 553.001 120.004 546.284 120.004 538ZM111.895 538C111.895 550.762 122.24 561.107 135.002 561.107C147.764 561.107 158.109 550.762 158.109 538C158.109 525.238 147.764 514.893 135.002 514.893C122.24 514.893 111.895 525.238 111.895 538ZM153.624 513.977C153.623 515.045 153.94 516.089 154.533 516.977C155.126 517.866 155.969 518.558 156.955 518.967C157.942 519.376 159.027 519.484 160.075 519.276C161.123 519.068 162.085 518.554 162.841 517.799C163.596 517.044 164.111 516.082 164.319 515.035C164.528 513.987 164.422 512.901 164.013 511.915C163.605 510.928 162.913 510.084 162.026 509.49C161.138 508.897 160.094 508.579 159.026 508.579H159.024C157.592 508.58 156.219 509.149 155.207 510.161C154.194 511.173 153.625 512.545 153.624 513.977ZM116.822 574.629C112.435 574.429 110.05 573.698 108.465 573.081C106.364 572.263 104.865 571.289 103.289 569.715C101.713 568.141 100.738 566.643 99.9232 564.542C99.3054 562.958 98.5746 560.573 98.3752 556.186C98.157 551.442 98.1135 550.018 98.1135 538C98.1135 525.983 98.1606 524.562 98.3752 519.815C98.575 515.428 99.3112 513.047 99.9232 511.458C100.741 509.357 101.715 507.858 103.289 506.282C104.863 504.706 106.361 503.731 108.465 502.916C110.049 502.298 112.435 501.568 116.822 501.368C121.565 501.15 122.99 501.106 135.002 501.106C147.014 501.106 148.44 501.154 153.187 501.368C157.575 501.568 159.955 502.304 161.544 502.916C163.645 503.731 165.144 504.708 166.72 506.282C168.296 507.856 169.268 509.357 170.086 511.458C170.704 513.042 171.435 515.428 171.634 519.815C171.852 524.562 171.896 525.983 171.896 538C171.896 550.018 171.852 551.438 171.634 556.186C171.434 560.573 170.7 562.958 170.086 564.542C169.268 566.643 168.294 568.142 166.72 569.715C165.146 571.287 163.645 572.263 161.544 573.081C159.96 573.699 157.575 574.429 153.187 574.629C148.444 574.847 147.019 574.891 135.002 574.891C122.985 574.891 121.564 574.847 116.822 574.629ZM116.449 493.273C111.659 493.491 108.385 494.25 105.527 495.363C102.566 496.511 100.06 498.053 97.5551 500.553C95.0506 503.054 93.5134 505.564 92.3646 508.525C91.2522 511.385 90.4926 514.657 90.2745 519.447C90.0527 524.245 90.002 525.779 90.002 538C90.002 550.221 90.0527 551.755 90.2745 556.553C90.4926 561.343 91.2522 564.615 92.3646 567.475C93.5134 570.434 95.051 572.947 97.5551 575.447C100.059 577.946 102.566 579.485 105.527 580.637C108.391 581.75 111.659 582.509 116.449 582.727C121.25 582.946 122.781 583 135.002 583C147.223 583 148.756 582.949 153.555 582.727C158.345 582.509 161.617 581.75 164.477 580.637C167.436 579.485 169.944 577.947 172.449 575.447C174.953 572.946 176.487 570.434 177.639 567.475C178.752 564.615 179.515 561.343 179.729 556.553C179.948 551.751 179.998 550.221 179.998 538C179.998 525.779 179.948 524.245 179.729 519.447C179.511 514.657 178.752 511.383 177.639 508.525C176.487 505.566 174.949 503.058 172.449 500.553C169.948 498.049 167.436 496.511 164.481 495.363C161.617 494.25 158.345 493.487 153.558 493.273C148.76 493.054 147.226 493 135.006 493C122.785 493 121.25 493.051 116.449 493.273Z" fill="url(#paint2_radial_2050_5371)"/>
</g>
<g filter="url(#filter1_d_2050_5371)">
<path d="M282.062 606.672C283.686 597.047 292.021 590 301.783 590H514.342C526.717 590 536.123 601.125 534.063 613.328L523.938 673.328C522.314 682.953 513.979 690 504.217 690H291.658C279.283 690 269.877 678.875 271.937 666.672L282.062 606.672Z" fill="white"/>
</g>
<g clip-path="url(#clip1_2050_5371)">
<path d="M307.436 626.588C305.817 626.267 304.583 626.023 302.885 626.023C298.005 626.023 296.057 628.293 296.057 632.334V635.279H293V640.052H296.057V654.578H302.013V640.052H306.361L306.768 635.279H302.013V632.976C302.013 631.681 302.137 630.873 304.04 630.873C304.742 630.873 305.863 630.994 306.689 631.161L307.436 626.588ZM325.383 654.578V642C325.383 636.542 323.854 634.471 316.868 634.471C314.547 634.471 311.524 634.881 309.622 635.446L310.414 639.819C312.317 639.454 314.094 639.243 315.872 639.243C319.054 639.243 319.427 639.941 319.427 641.956V643.451H315.079C310.946 643.451 309.09 645.034 309.09 648.998C309.09 652.353 310.618 654.977 314.343 654.977C315.702 654.977 317.774 654.578 320.084 653.316L320.503 654.578H325.383ZM319.427 649.762C318.521 650.172 317.65 650.448 316.404 650.448C315.249 650.448 314.796 650.006 314.796 648.909C314.796 647.824 315.294 647.503 316.574 647.503H319.427V649.762ZM335.064 642.399C335.064 640.384 335.924 639.454 338.325 639.454C339.491 639.454 341.223 639.653 342.469 639.941L343.205 635.08C341.178 634.637 339.729 634.471 338.325 634.471C331.792 634.471 329.108 636.863 329.108 642.487V646.972C329.108 652.596 331.792 654.977 338.325 654.977C339.729 654.977 341.178 654.822 343.205 654.368L342.469 649.518C341.02 649.839 339.853 650.006 338.325 650.006C335.924 650.006 335.064 649.075 335.064 647.049V642.399ZM362.691 646.772V642.642C362.691 638.358 361.242 634.471 354.539 634.471C347.836 634.471 345.9 638.114 345.9 642.366V646.972C345.9 651.821 348.379 654.977 354.913 654.977C357.721 654.977 360.664 654.368 362.476 653.726L361.616 649.363C359.838 649.884 357.347 650.205 355.49 650.205C352.761 650.205 351.855 649.596 351.855 647.337V646.772H362.691ZM357.064 642.399H351.855V641.557C351.855 640.173 352.512 639.044 354.584 639.044C356.645 639.044 357.064 640.173 357.064 641.557V642.399ZM384.895 646.684V641.591C384.895 637.184 383.163 634.471 378.69 634.471C376.505 634.471 374.603 634.958 372.984 635.567V626.023L367.028 626.831V654.335C369.802 654.778 373.063 654.977 375.214 654.977C383.536 654.977 384.895 651.378 384.895 646.684ZM372.984 640.627C374.104 640.052 375.508 639.531 376.788 639.531C378.362 639.531 378.939 640.339 378.939 641.635V646.728C378.939 648.588 378.407 649.928 375.429 649.928C374.603 649.928 373.855 649.928 372.984 649.839V640.627ZM397.305 654.977C404.461 654.977 406.397 651.057 406.397 647.016V642.443C406.397 638.402 404.461 634.471 397.305 634.471C390.149 634.471 388.201 638.402 388.201 642.443V647.016C388.201 651.057 390.149 654.977 397.305 654.977ZM397.305 650.083C395.153 650.083 394.157 649.031 394.157 647.171V642.277C394.157 640.417 395.153 639.365 397.305 639.365C399.456 639.365 400.441 640.417 400.441 642.277V647.171C400.441 649.031 399.456 650.083 397.305 650.083ZM418.806 654.977C425.962 654.977 427.91 651.057 427.91 647.016V642.443C427.91 638.402 425.962 634.471 418.806 634.471C411.651 634.471 409.714 638.402 409.714 642.443V647.016C409.714 651.057 411.651 654.977 418.806 654.977ZM418.806 650.083C416.655 650.083 415.67 649.031 415.67 647.171V642.277C415.67 640.417 416.655 639.365 418.806 639.365C420.958 639.365 421.954 640.417 421.954 642.277V647.171C421.954 649.031 420.958 650.083 418.806 650.083ZM438.202 654.578V626.023L432.247 626.831V654.578H438.202ZM438.995 644.669L444.362 654.578H450.736L445.2 644.669L450.487 634.881H444.124L438.995 644.669Z" fill="#3A589E"/>
<path d="M476.598 654.612H478.75L470.122 630.374H466.883L458.244 654.612H460.407L462.717 648.245H474.254L476.598 654.612ZM468.48 631.615L473.586 646.385H463.385L468.48 631.615ZM482.554 650.061C482.554 653.272 484.15 654.977 487.683 654.977C489.699 654.977 491.963 654.29 493.797 652.94L493.899 654.612H495.881V629.356L493.718 629.644V637.106C491.635 636.708 490.038 636.531 488.136 636.531C484.037 636.531 482.554 638.745 482.554 641.989V650.061ZM493.718 650.825C492.008 652.176 490.072 653.084 487.842 653.084C485.385 653.084 484.705 652.109 484.705 650.061V641.989C484.705 639.587 485.679 638.424 488.057 638.424C489.812 638.424 491.748 638.634 493.718 639.033V650.825ZM513.001 650.138C513.001 646.828 512.706 645.986 507.373 644.68C504.033 643.838 503.875 643.584 503.875 641.148C503.875 639.221 504.328 638.424 507.487 638.424C508.981 638.424 511.098 638.634 512.548 638.933L512.774 637.14C511.359 636.741 509.31 636.531 507.634 636.531C503.173 636.531 501.723 638.125 501.723 641.07C501.723 644.314 502.097 645.411 506.637 646.462C510.77 647.404 510.838 647.669 510.838 650.216C510.838 652.464 510.17 653.084 506.819 653.084C505.482 653.084 503.58 652.829 502.018 652.364L501.644 654.069C502.991 654.612 505.143 654.977 506.966 654.977C511.812 654.977 513.001 653.338 513.001 650.138Z" fill="#828282"/>
</g>
<g filter="url(#filter2_d_2050_5371)">
<path d="M642.328 421.752C642.987 411.212 651.728 403 662.289 403H749.711C761.247 403 770.392 412.734 769.672 424.248L763.672 520.248C763.013 530.788 754.272 539 743.711 539H656.289C644.753 539 635.608 529.266 636.328 517.752L642.328 421.752Z" fill="white"/>
</g>
<g clip-path="url(#clip2_2050_5371)">
<path d="M703 516C727.853 516 748 495.853 748 471C748 446.147 727.853 426 703 426C678.147 426 658 446.147 658 471C658 495.853 678.147 516 703 516Z" fill="#23BEC7"/>
<path d="M704.049 471.759C705.365 470.603 706.433 469.514 707.842 468.92C708.668 468.574 709.581 468.084 710.366 468.843C711.15 469.601 710.655 470.432 710.418 471.248C709.943 472.884 709.463 474.525 709.029 476.171C708.9 476.651 708.683 477.204 709.174 477.632C709.664 478.06 710.278 477.777 710.763 477.529C712.559 476.61 714.02 475.521 713.793 473.106C713.659 471.661 713.793 470.123 715.13 469.09C715.646 468.683 716.27 468.208 716.926 468.662C717.581 469.116 717.112 469.694 716.926 470.21C716.292 472.157 716.115 474.223 716.41 476.249C716.477 476.703 716.41 477.359 716.828 477.524C717.401 477.74 717.659 477.008 718.025 476.708C718.391 476.409 718.639 475.986 718.959 475.635C719.806 474.711 720.27 473.973 719.145 472.708C717.839 471.248 718.231 468.388 719.517 467.031C719.87 466.607 720.347 466.304 720.881 466.165C721.415 466.026 721.98 466.058 722.495 466.257C723.615 466.665 723.981 467.63 724.012 468.76C724.043 470.03 723.496 471.145 723.067 472.373C724.316 472.688 725.091 471.986 725.793 471.227C727.485 469.39 729.447 468.223 732.048 468.497C733.932 468.693 735.01 469.71 734.912 471.191C734.875 471.519 734.76 471.833 734.576 472.108C734.393 472.382 734.146 472.608 733.857 472.768C733.568 472.927 733.244 473.014 732.914 473.023C732.584 473.031 732.257 472.961 731.96 472.817C731.372 472.502 731.444 472.213 731.96 471.914C732.158 471.828 732.317 471.671 732.406 471.475C732.494 471.278 732.507 471.055 732.44 470.85C732.359 470.605 732.206 470.389 732 470.232C731.795 470.075 731.547 469.983 731.289 469.968C730.578 469.862 729.854 470.024 729.256 470.422C727.367 471.63 726.309 474.984 727.191 477.028C727.707 478.257 728.667 478.489 729.663 477.617C730.213 477.09 730.627 476.438 730.871 475.717C731.017 475.268 731.223 474.841 731.485 474.448C731.955 473.823 732.605 473.271 733.421 473.606C734.236 473.942 733.818 474.788 733.684 475.361C733.204 477.348 732.796 479.284 734.479 480.956C734.523 480.996 734.559 481.046 734.583 481.101C734.607 481.156 734.62 481.216 734.62 481.276C734.62 481.336 734.607 481.396 734.583 481.451C734.559 481.506 734.523 481.555 734.479 481.596C734.377 481.696 734.246 481.76 734.105 481.781C733.964 481.801 733.82 481.776 733.694 481.709C733.111 481.505 732.573 481.187 732.113 480.774C731.652 480.361 731.278 479.862 731.01 479.304C730.84 478.933 730.768 478.391 730.164 478.922C729.643 479.456 728.947 479.784 728.204 479.846C727.46 479.907 726.719 479.699 726.118 479.258C724.652 478.319 724.126 476.91 724.26 475.222C724.286 474.892 724.327 474.572 724.368 474.19C722.68 474.329 721.308 474.706 720.342 476.254C719.505 477.533 718.365 478.587 717.024 479.32C715.264 480.352 714.577 480.032 714.103 478.097C714.035 477.828 713.979 477.58 713.875 477.064C712.732 478.088 711.423 478.91 710.005 479.495C707.336 480.445 705.788 479.222 706.18 476.399C706.422 474.949 706.822 473.529 707.372 472.166C707.496 471.831 707.796 471.418 707.372 471.134C707.063 470.938 706.738 471.268 706.495 471.475C704.849 472.873 703.398 474.422 702.924 476.636C702.813 477.289 702.626 477.926 702.366 478.535C702.209 478.942 701.921 479.285 701.547 479.51C701.173 479.734 700.735 479.827 700.302 479.774C699.373 479.609 699.971 478.659 699.713 478.076C698.722 478.592 697.773 479.108 696.792 479.557C696.085 479.882 695.161 480.14 694.645 479.531C693.783 478.499 693.2 478.855 692.292 479.433C690.965 480.28 689.443 479.918 688.24 478.52C687.631 477.813 687.316 477.859 686.728 478.489C685.537 479.718 684.121 480.708 682.558 481.405C676.421 484.321 670.388 481.049 670.047 474.288C669.645 466.654 672.891 460.58 679.27 456.342C680.094 455.77 681.035 455.387 682.025 455.222C683.014 455.057 684.028 455.114 684.994 455.388C686.126 455.684 687.121 456.363 687.81 457.309C688.499 458.255 688.838 459.411 688.772 460.58C688.696 461.701 688.266 462.769 687.543 463.629C686.821 464.489 685.843 465.097 684.751 465.364C684.385 465.447 683.91 465.591 683.719 465.245C683.43 464.781 683.889 464.466 684.204 464.213C685.928 462.758 686.222 460.864 685.897 458.784C685.587 456.843 684.204 456.058 682.362 456.766C681.039 457.314 679.872 458.181 678.966 459.289C675.917 462.657 674.012 466.902 673.521 471.418C673.272 473.368 673.619 475.347 674.517 477.095C675.828 479.598 678.052 480.708 680.798 480.058C682.97 479.515 684.964 478.415 686.583 476.868C686.81 476.631 686.987 476.351 687.104 476.044C687.221 475.737 687.276 475.411 687.265 475.082C687.641 471.16 691.032 468.218 694.821 468.507C695.734 468.536 696.605 468.904 697.262 469.539C697.574 469.831 697.788 470.213 697.874 470.632C697.96 471.051 697.914 471.486 697.742 471.877C697.375 472.765 696.56 473.054 695.636 473.008C695.443 473.029 695.247 473.001 695.067 472.928C694.887 472.856 694.728 472.739 694.604 472.59C694.263 472.074 694.913 472.037 695.12 471.779C695.698 471.057 695.373 470.195 694.382 469.994C693.892 469.883 693.381 469.906 692.902 470.058C692.423 470.21 691.993 470.487 691.657 470.861C690.955 471.573 690.432 472.442 690.131 473.395C689.829 474.349 689.758 475.36 689.923 476.347C690.026 477.111 690.351 477.859 691.192 478.086C692.034 478.313 692.581 477.684 693.097 477.095C693.479 476.607 693.755 476.045 693.907 475.444C694.031 474.879 694.337 474.371 694.779 473.999C695.295 473.601 695.863 473.276 696.472 473.632C697.081 473.988 696.71 474.587 696.71 475.082C696.71 475.991 695.729 477.049 696.942 477.746C697.592 478.117 700.214 476.14 700.42 475.211C700.746 473.73 701.009 472.234 701.303 470.747C701.339 470.223 701.538 469.724 701.871 469.317C702.121 469.032 702.453 468.829 702.822 468.737C703.191 468.645 703.579 468.667 703.935 468.801C704.714 469.127 704.327 469.834 704.25 470.432C704.209 470.788 704.147 471.15 704.049 471.759ZM721.483 468.321C721.349 467.96 721.132 467.609 720.688 467.656C720.244 467.702 720.115 468.11 720.079 468.492C720.022 469.057 720.1 469.628 720.305 470.158C720.51 470.688 720.838 471.162 721.261 471.542C721.748 470.537 721.828 469.383 721.483 468.321Z" fill="white"/>
</g>
<g filter="url(#filter3_d_2050_5371)">
<path d="M538.328 215.752C538.987 205.212 547.728 197 558.289 197H645.711C657.247 197 666.392 206.734 665.672 218.248L659.672 314.248C659.013 324.788 650.272 333 639.711 333H552.289C540.753 333 531.608 323.266 532.328 311.752L538.328 215.752Z" fill="white"/>
</g>
<g clip-path="url(#clip3_2050_5371)">
<path d="M573.167 225H624.833C626.694 224.998 628.537 225.373 630.257 226.102C631.976 226.832 633.539 227.902 634.855 229.252C636.17 230.601 637.214 232.204 637.925 233.967C638.637 235.731 639.002 237.621 639 239.53V290.47C639.002 292.379 638.637 294.269 637.925 296.033C637.214 297.796 636.17 299.399 634.855 300.748C633.539 302.098 631.976 303.168 630.257 303.898C628.537 304.627 626.694 305.002 624.833 305H573.167C571.306 305.002 569.463 304.627 567.743 303.898C566.024 303.168 564.461 302.098 563.145 300.748C561.83 299.399 560.786 297.796 560.075 296.033C559.363 294.269 558.998 292.379 559 290.47V239.53C558.998 237.621 559.363 235.731 560.075 233.967C560.786 232.204 561.83 230.601 563.145 229.252C564.461 227.902 566.024 226.832 567.743 226.102C569.463 225.373 571.306 224.998 573.167 225Z" fill="#330000"/>
<path d="M597.766 273H585.366L582.832 281.034C582.804 281.181 582.724 281.311 582.606 281.399C582.489 281.488 582.344 281.528 582.199 281.513H575.932C575.566 281.513 575.466 281.308 575.566 280.897L586.299 249.205C586.399 248.863 586.499 248.487 586.632 248.077C586.767 247.344 586.834 246.6 586.832 245.855C586.822 245.769 586.844 245.683 586.894 245.613C586.943 245.543 587.017 245.495 587.099 245.479H595.732C595.999 245.479 596.132 245.581 596.166 245.752L608.332 280.966C608.432 281.342 608.332 281.513 607.999 281.513H601.032C600.915 281.524 600.797 281.493 600.699 281.424C600.602 281.356 600.531 281.254 600.499 281.137L597.766 273ZM587.299 266.06H595.766C595.566 265.342 595.299 264.487 594.999 263.598C594.699 262.709 594.399 261.684 594.099 260.658C593.799 259.632 593.466 258.573 593.132 257.513C592.799 256.453 592.499 255.462 592.232 254.47C591.966 253.479 591.732 252.624 591.499 251.803H591.432C591.133 253.293 590.755 254.766 590.299 256.214C589.799 257.855 589.299 259.564 588.766 261.274C588.299 263.017 587.799 264.624 587.299 266.06Z" fill="#FF9A00"/>
<path d="M615.599 251.325C615.051 251.337 614.507 251.238 613.998 251.032C613.489 250.827 613.024 250.519 612.632 250.128C611.868 249.272 611.461 248.143 611.499 246.983C611.479 246.418 611.576 245.855 611.782 245.33C611.989 244.806 612.301 244.332 612.699 243.94C613.5 243.163 614.563 242.735 615.665 242.744C616.965 242.744 617.965 243.154 618.699 243.94C619.437 244.769 619.832 245.861 619.799 246.983C619.819 247.561 619.726 248.136 619.526 248.677C619.325 249.217 619.021 249.71 618.632 250.128C618.239 250.539 617.765 250.858 617.242 251.064C616.719 251.271 616.158 251.359 615.599 251.325ZM611.865 281V254.675C611.865 254.333 611.999 254.197 612.299 254.197H618.899C619.199 254.197 619.332 254.368 619.332 254.675V281C619.332 281.376 619.199 281.547 618.899 281.547H612.365C612.295 281.553 612.225 281.543 612.159 281.517C612.094 281.491 612.035 281.45 611.986 281.397C611.938 281.345 611.903 281.282 611.882 281.213C611.861 281.144 611.855 281.071 611.865 281Z" fill="#FF9A00"/>
</g>
<g filter="url(#filter4_d_2050_5371)">
<path d="M344.328 68.7524C344.987 58.2117 353.728 50 364.289 50H451.711C463.247 50 472.392 59.7336 471.672 71.2476L465.672 167.248C465.013 177.788 456.272 186 445.711 186H358.289C346.753 186 337.608 176.266 338.328 164.752L344.328 68.7524Z" fill="white"/>
</g>
<g clip-path="url(#clip4_2050_5371)">
<path d="M379.167 78H430.833C432.694 77.9982 434.537 78.3728 436.257 79.1024C437.976 79.8319 439.539 80.9021 440.855 82.2517C442.17 83.6013 443.214 85.2038 443.925 86.9674C444.637 88.7311 445.002 90.6213 445 92.5299V143.47C445.002 145.379 444.637 147.269 443.925 149.033C443.214 150.796 442.17 152.399 440.855 153.748C439.539 155.098 437.976 156.168 436.257 156.898C434.537 157.627 432.694 158.002 430.833 158H379.167C377.306 158.002 375.463 157.627 373.743 156.898C372.024 156.168 370.461 155.098 369.145 153.748C367.83 152.399 366.786 150.796 366.075 149.033C365.363 147.269 364.998 145.379 365 143.47V92.5299C364.998 90.6213 365.363 88.7311 366.075 86.9674C366.786 85.2038 367.83 83.6013 369.145 82.2517C370.461 80.9021 372.024 79.8319 373.743 79.1024C375.463 78.3728 377.306 77.9982 379.167 78Z" fill="#000B1D"/>
<path d="M396.665 143.641C401.268 143.641 404.999 139.814 404.999 135.094V126.547H396.665C392.063 126.547 388.332 130.374 388.332 135.094C388.332 139.814 392.063 143.641 396.665 143.641Z" fill="#0ACF83"/>
<path d="M388.332 118C388.332 113.28 392.063 109.453 396.665 109.453H404.999V126.547H396.665C392.063 126.547 388.332 122.72 388.332 118Z" fill="#A259FF"/>
<path d="M388.332 100.906C388.332 96.1856 392.063 92.359 396.665 92.359H404.999V109.453H396.665C392.063 109.453 388.332 105.626 388.332 100.906Z" fill="#F24E1E"/>
<path d="M405 92.359H413.333C417.936 92.359 421.667 96.1856 421.667 100.906C421.667 105.626 417.936 109.453 413.333 109.453H405V92.359Z" fill="#FF7262"/>
<path d="M421.667 118C421.667 122.72 417.936 126.547 413.333 126.547C408.731 126.547 405 122.72 405 118C405 113.28 408.731 109.453 413.333 109.453C417.936 109.453 421.667 113.28 421.667 118Z" fill="#1ABCFE"/>
</g>
<g filter="url(#filter5_d_2050_5371)">
<path d="M90.328 270.752C90.9868 260.212 99.7278 252 110.289 252H197.711C209.247 252 218.392 261.734 217.672 273.248L211.672 369.248C211.013 379.788 202.272 388 191.711 388H104.289C92.7526 388 83.6084 378.266 84.328 366.752L90.328 270.752Z" fill="white"/>
</g>
<g clip-path="url(#clip5_2050_5371)">
<path d="M125.167 280H176.833C178.694 279.998 180.537 280.373 182.257 281.102C183.976 281.832 185.539 282.902 186.855 284.252C188.17 285.601 189.214 287.204 189.925 288.967C190.637 290.731 191.002 292.621 191 294.53V345.47C191.002 347.379 190.637 349.269 189.925 351.033C189.214 352.796 188.17 354.399 186.855 355.748C185.539 357.098 183.976 358.168 182.257 358.898C180.537 359.627 178.694 360.002 176.833 360H125.167C123.306 360.002 121.463 359.627 119.743 358.898C118.024 358.168 116.461 357.098 115.145 355.748C113.83 354.399 112.786 352.796 112.075 351.033C111.363 349.269 110.998 347.379 111 345.47V294.53C110.998 292.621 111.363 290.731 112.075 288.967C112.786 287.204 113.83 285.601 115.145 284.252C116.461 282.902 118.024 281.832 119.743 281.102C121.463 280.373 123.306 279.998 125.167 280Z" fill="#001E36"/>
<path d="M129 336.103V300.923C129 300.684 129.1 300.547 129.333 300.547C129.9 300.547 130.433 300.547 131.2 300.513C131.967 300.479 132.833 300.479 133.733 300.444C134.633 300.41 135.6 300.41 136.633 300.376C137.667 300.342 138.667 300.342 139.667 300.342C142.4 300.342 144.667 300.684 146.533 301.402C148.207 301.985 149.732 302.942 151 304.205C152.074 305.31 152.904 306.64 153.433 308.103C153.938 309.527 154.197 311.031 154.2 312.547C154.2 315.487 153.533 317.915 152.2 319.829C150.86 321.741 148.99 323.194 146.833 324C144.567 324.855 142.067 325.162 139.333 325.162C138.533 325.162 138 325.162 137.667 325.128C137.333 325.094 136.867 325.094 136.233 325.094V336.068C136.241 336.125 136.237 336.182 136.223 336.237C136.208 336.291 136.183 336.343 136.149 336.387C136.115 336.432 136.072 336.469 136.024 336.497C135.975 336.524 135.922 336.541 135.867 336.547H129.4C129.133 336.547 129 336.41 129 336.103ZM136.267 307.145V318.632C136.733 318.667 137.167 318.701 137.567 318.701H139.333C140.635 318.702 141.928 318.495 143.167 318.085C144.229 317.765 145.179 317.136 145.9 316.274C146.6 315.419 146.933 314.256 146.933 312.752C146.965 311.684 146.699 310.628 146.167 309.709C145.611 308.822 144.793 308.139 143.833 307.761C142.582 307.258 141.243 307.025 139.9 307.077C139.033 307.077 138.267 307.077 137.633 307.111C137.178 307.081 136.72 307.092 136.267 307.145Z" fill="#31A8FF"/>
<path d="M175 316.547C173.994 316.003 172.916 315.612 171.8 315.385C170.575 315.1 169.323 314.951 168.067 314.94C167.392 314.916 166.718 314.997 166.067 315.179C165.651 315.268 165.283 315.512 165.033 315.863C164.865 316.141 164.773 316.46 164.767 316.786C164.782 317.112 164.899 317.423 165.1 317.675C165.416 318.055 165.801 318.369 166.233 318.598C167 319.009 167.8 319.385 168.6 319.726C170.401 320.348 172.124 321.186 173.733 322.222C174.828 322.928 175.733 323.904 176.367 325.06C176.902 326.15 177.166 327.36 177.133 328.581C177.16 330.197 176.707 331.783 175.833 333.128C174.904 334.493 173.606 335.55 172.1 336.171C170.467 336.889 168.467 337.265 166.067 337.265C164.545 337.271 163.026 337.122 161.533 336.821C160.358 336.612 159.214 336.244 158.133 335.726C158.017 335.667 157.92 335.573 157.855 335.458C157.79 335.343 157.759 335.21 157.767 335.077V329.128C157.764 329.07 157.774 329.011 157.798 328.958C157.821 328.905 157.856 328.857 157.9 328.821C157.947 328.792 158.001 328.781 158.056 328.787C158.11 328.793 158.16 328.817 158.2 328.855C159.484 329.631 160.879 330.196 162.333 330.53C163.618 330.873 164.94 331.045 166.267 331.043C167.533 331.043 168.433 330.872 169.033 330.564C169.301 330.437 169.528 330.235 169.687 329.981C169.847 329.726 169.932 329.431 169.933 329.128C169.933 328.65 169.667 328.205 169.133 327.761C168.6 327.316 167.5 326.803 165.867 326.154C164.191 325.548 162.6 324.721 161.133 323.692C160.089 322.929 159.223 321.936 158.6 320.786C158.068 319.707 157.805 318.509 157.833 317.299C157.838 315.84 158.23 314.41 158.967 313.162C159.813 311.79 161.029 310.698 162.467 310.017C164.033 309.197 166 308.821 168.367 308.821C169.75 308.821 171.131 308.924 172.5 309.128C173.484 309.265 174.447 309.529 175.367 309.915C175.513 309.968 175.633 310.078 175.7 310.222C175.738 310.356 175.761 310.493 175.767 310.632V316.205C175.767 316.272 175.752 316.337 175.723 316.397C175.694 316.456 175.652 316.508 175.6 316.547C175.406 316.619 175.194 316.619 175 316.547Z" fill="#31A8FF"/>
</g>
<defs>
<filter id="filter0_d_2050_5371" x="18.2891" y="420" width="233.422" height="236" filterUnits="userSpaceOnUse" color-interpolation-filters="sRGB">
<feFlood flood-opacity="0" result="BackgroundImageFix"/>
<feColorMatrix in="SourceAlpha" type="matrix" values="0 0 0 0 0 0 0 0 0 0 0 0 0 0 0 0 0 0 127 0" result="hardAlpha"/>
<feOffset/>
<feGaussianBlur stdDeviation="25"/>
<feComposite in2="hardAlpha" operator="out"/>
<feColorMatrix type="matrix" values="0 0 0 0 0 0 0 0 0 0.591667 0 0 0 0 0.0234789 0 0 0 0.16 0"/>
<feBlend mode="normal" in2="BackgroundImageFix" result="effect1_dropShadow_2050_5371"/>
<feBlend mode="normal" in="SourceGraphic" in2="effect1_dropShadow_2050_5371" result="shape"/>
</filter>
<filter id="filter1_d_2050_5371" x="221.652" y="540" width="362.695" height="200" filterUnits="userSpaceOnUse" color-interpolation-filters="sRGB">
<feFlood flood-opacity="0" result="BackgroundImageFix"/>
<feColorMatrix in="SourceAlpha" type="matrix" values="0 0 0 0 0 0 0 0 0 0 0 0 0 0 0 0 0 0 127 0" result="hardAlpha"/>
<feOffset/>
<feGaussianBlur stdDeviation="25"/>
<feComposite in2="hardAlpha" operator="out"/>
<feColorMatrix type="matrix" values="0 0 0 0 0 0 0 0 0 0.591667 0 0 0 0 0.0234789 0 0 0 0.16 0"/>
<feBlend mode="normal" in2="BackgroundImageFix" result="effect1_dropShadow_2050_5371"/>
<feBlend mode="normal" in="SourceGraphic" in2="effect1_dropShadow_2050_5371" result="shape"/>
</filter>
<filter id="filter2_d_2050_5371" x="586.289" y="353" width="233.422" height="236" filterUnits="userSpaceOnUse" color-interpolation-filters="sRGB">
<feFlood flood-opacity="0" result="BackgroundImageFix"/>
<feColorMatrix in="SourceAlpha" type="matrix" values="0 0 0 0 0 0 0 0 0 0 0 0 0 0 0 0 0 0 127 0" result="hardAlpha"/>
<feOffset/>
<feGaussianBlur stdDeviation="25"/>
<feComposite in2="hardAlpha" operator="out"/>
<feColorMatrix type="matrix" values="0 0 0 0 0 0 0 0 0 0.591667 0 0 0 0 0.0234789 0 0 0 0.16 0"/>
<feBlend mode="normal" in2="BackgroundImageFix" result="effect1_dropShadow_2050_5371"/>
<feBlend mode="normal" in="SourceGraphic" in2="effect1_dropShadow_2050_5371" result="shape"/>
</filter>
<filter id="filter3_d_2050_5371" x="482.289" y="147" width="233.422" height="236" filterUnits="userSpaceOnUse" color-interpolation-filters="sRGB">
<feFlood flood-opacity="0" result="BackgroundImageFix"/>
<feColorMatrix in="SourceAlpha" type="matrix" values="0 0 0 0 0 0 0 0 0 0 0 0 0 0 0 0 0 0 127 0" result="hardAlpha"/>
<feOffset/>
<feGaussianBlur stdDeviation="25"/>
<feComposite in2="hardAlpha" operator="out"/>
<feColorMatrix type="matrix" values="0 0 0 0 0 0 0 0 0 0.591667 0 0 0 0 0.0234789 0 0 0 0.16 0"/>
<feBlend mode="normal" in2="BackgroundImageFix" result="effect1_dropShadow_2050_5371"/>
<feBlend mode="normal" in="SourceGraphic" in2="effect1_dropShadow_2050_5371" result="shape"/>
</filter>
<filter id="filter4_d_2050_5371" x="288.289" y="0" width="233.422" height="236" filterUnits="userSpaceOnUse" color-interpolation-filters="sRGB">
<feFlood flood-opacity="0" result="BackgroundImageFix"/>
<feColorMatrix in="SourceAlpha" type="matrix" values="0 0 0 0 0 0 0 0 0 0 0 0 0 0 0 0 0 0 127 0" result="hardAlpha"/>
<feOffset/>
<feGaussianBlur stdDeviation="25"/>
<feComposite in2="hardAlpha" operator="out"/>
<feColorMatrix type="matrix" values="0 0 0 0 0 0 0 0 0 0.591667 0 0 0 0 0.0234789 0 0 0 0.16 0"/>
<feBlend mode="normal" in2="BackgroundImageFix" result="effect1_dropShadow_2050_5371"/>
<feBlend mode="normal" in="SourceGraphic" in2="effect1_dropShadow_2050_5371" result="shape"/>
</filter>
<filter id="filter5_d_2050_5371" x="34.2891" y="202" width="233.422" height="236" filterUnits="userSpaceOnUse" color-interpolation-filters="sRGB">
<feFlood flood-opacity="0" result="BackgroundImageFix"/>
<feColorMatrix in="SourceAlpha" type="matrix" values="0 0 0 0 0 0 0 0 0 0 0 0 0 0 0 0 0 0 127 0" result="hardAlpha"/>
<feOffset/>
<feGaussianBlur stdDeviation="25"/>
<feComposite in2="hardAlpha" operator="out"/>
<feColorMatrix type="matrix" values="0 0 0 0 0 0 0 0 0 0.591667 0 0 0 0 0.0234789 0 0 0 0.16 0"/>
<feBlend mode="normal" in2="BackgroundImageFix" result="effect1_dropShadow_2050_5371"/>
<feBlend mode="normal" in="SourceGraphic" in2="effect1_dropShadow_2050_5371" result="shape"/>
</filter>
<radialGradient id="paint0_radial_2050_5371" cx="0" cy="0" r="1" gradientUnits="userSpaceOnUse" gradientTransform="translate(405 388) rotate(90) scale(270 400)">
<stop stop-color="#19DF21" stop-opacity="0.8"/>
<stop offset="0.380208" stop-color="#19DF21" stop-opacity="0.6"/>
<stop offset="0.770833" stop-color="#19DF21" stop-opacity="0.2"/>
<stop offset="1" stop-color="#15E61D" stop-opacity="0.06"/>
</radialGradient>
<radialGradient id="paint1_radial_2050_5371" cx="0" cy="0" r="1" gradientUnits="userSpaceOnUse" gradientTransform="translate(101.959 583.425) scale(117.487 117.487)">
<stop offset="0.09" stop-color="#FA8F21"/>
<stop offset="0.78" stop-color="#D82D7E"/>
</radialGradient>
<radialGradient id="paint2_radial_2050_5371" cx="0" cy="0" r="1" gradientUnits="userSpaceOnUse" gradientTransform="translate(144.583 587.457) scale(92.5963 92.5963)">
<stop offset="0.64" stop-color="#8C3AAA" stop-opacity="0"/>
<stop offset="1" stop-color="#8C3AAA"/>
</radialGradient>
<clipPath id="clip0_2050_5371">
<rect width="90" height="90" fill="white" transform="translate(90 493)"/>
</clipPath>
<clipPath id="clip1_2050_5371">
<rect width="220" height="29" fill="white" transform="translate(293 626)"/>
</clipPath>
<clipPath id="clip2_2050_5371">
<rect width="90" height="90" fill="white" transform="translate(658 426)"/>
</clipPath>
<clipPath id="clip3_2050_5371">
<rect width="80" height="80" fill="white" transform="translate(559 225)"/>
</clipPath>
<clipPath id="clip4_2050_5371">
<rect width="80" height="80" fill="white" transform="translate(365 78)"/>
</clipPath>
<clipPath id="clip5_2050_5371">
<rect width="80" height="80" fill="white" transform="translate(111 280)"/>
</clipPath>
</defs>
</svg>
