<svg width="854" height="766" viewBox="0 0 854 766" fill="none" xmlns="http://www.w3.org/2000/svg">
<path d="M714.224 310.186H714.161C714.161 309.734 714.224 309.283 714.224 308.831C714.224 247.24 665.28 197.258 604.827 197.258C597.049 197.258 589.461 198.097 582.189 199.709C560.499 145.922 508.71 108 448.13 108C402.664 108 362.131 129.412 335.572 162.819C317.94 153.674 298.441 148.901 278.66 148.889C213.212 148.889 159.462 199.709 153.202 264.783C82.0624 268.652 24.9611 328.115 24.0125 401.959C23.0008 478.835 83.3903 542.038 158.767 543.005C164.647 543.07 170.339 542.683 176.03 541.973C205.181 604.661 267.721 648 340.251 648C384.01 648 424.101 632.199 455.466 605.951C479.432 624.073 509.026 634.908 541.149 634.908C607.04 634.908 662.498 589.827 679.761 528.236C690.637 531.913 702.209 533.976 714.287 533.976C774.866 533.976 824 483.865 824 422.081C823.937 360.297 774.866 310.186 714.224 310.186Z" fill="url(#paint0_radial_2035_7948)"/>
<circle cx="424" cy="378" r="288" stroke="#A6F4A9" stroke-width="4"/>
<circle cx="424" cy="378" r="228" stroke="#E1FFE3" stroke-width="4"/>
<circle cx="424" cy="378" r="168" stroke="white" stroke-width="4"/>
<path d="M318.508 324H329.008C335.968 324 339.088 327.6 337.408 334.44L332.128 355.56C330.388 362.46 325.468 366 318.568 366H308.008L318.508 324ZM325.108 331.32L318.268 358.68H320.308C322.108 358.68 323.188 357.72 323.668 355.68L329.008 334.26C329.548 332.22 329.008 331.32 327.268 331.32H325.108ZM342.664 352.62L341.584 356.88C341.164 358.68 341.644 359.76 342.904 359.76C344.164 359.76 345.364 358.68 345.784 356.88L346.384 354.42H354.364L353.824 356.46C352.324 362.64 347.344 366.6 341.164 366.6C334.984 366.6 332.164 362.7 333.724 356.46L336.604 344.94C338.164 338.7 342.964 334.8 349.144 334.8C355.264 334.8 358.264 338.76 356.704 344.94L354.784 352.62H342.664ZM344.704 344.52L343.744 348.3H347.944L348.904 344.52C349.324 342.72 348.844 341.64 347.584 341.64C346.324 341.64 345.124 342.72 344.704 344.52ZM359.5 335.4H367.42L364 356.7H364.54L371.74 335.4H379.66L367.6 366H356.32L359.5 335.4ZM383.68 352.62L382.6 356.88C382.18 358.68 382.66 359.76 383.92 359.76C385.18 359.76 386.38 358.68 386.8 356.88L387.4 354.42H395.38L394.84 356.46C393.34 362.64 388.36 366.6 382.18 366.6C376 366.6 373.18 362.7 374.74 356.46L377.62 344.94C379.18 338.7 383.98 334.8 390.16 334.8C396.28 334.8 399.28 338.76 397.72 344.94L395.8 352.62H383.68ZM385.72 344.52L384.76 348.3H388.96L389.92 344.52C390.34 342.72 389.86 341.64 388.6 341.64C387.34 341.64 386.14 342.72 385.72 344.52ZM394.434 366L405.234 322.8H413.214L402.414 366H394.434ZM409.672 344.94C411.112 339 415.612 334.8 422.092 334.8C428.632 334.8 431.212 339.06 429.712 344.94L426.832 356.46C425.392 362.34 420.652 366.6 414.172 366.6C407.692 366.6 405.292 362.4 406.792 356.46L409.672 344.94ZM417.712 344.52L414.592 356.94C414.172 358.68 414.652 359.76 415.912 359.76C417.172 359.76 418.312 358.68 418.732 356.94L421.852 344.52C422.332 342.66 421.792 341.64 420.532 341.64C419.272 341.64 418.192 342.66 417.712 344.52ZM433.986 335.4H441.966L441.006 339.3H441.546C444.306 335.88 446.346 334.8 448.206 334.8C451.806 334.8 453.366 338.34 452.046 343.56L448.446 358.02C447.126 363.18 443.946 366.6 440.586 366.6C438.366 366.6 436.446 365.1 435.846 362.1H435.306L431.286 378.18H423.306L433.986 335.4ZM439.746 344.28L436.506 357.18C436.626 358.38 437.346 359.22 438.306 359.22C439.386 359.22 440.466 358.14 440.826 356.64L443.766 344.76C444.126 343.32 443.646 342.24 442.626 342.24C441.666 342.24 440.466 343.08 439.746 344.28ZM448.339 366L456.019 335.4H463.939L463.099 338.88L463.639 338.82C465.499 336.24 467.719 334.8 469.939 334.8C472.339 334.8 473.779 336.3 474.139 338.88H474.679C476.599 336.24 479.179 334.8 481.459 334.8C484.819 334.8 487.099 337.74 485.779 343.08L480.079 366H472.099L477.559 344.28C477.919 342.78 477.499 341.76 476.479 341.76C475.699 341.76 474.799 342.3 473.839 343.32C473.779 343.44 473.779 343.5 473.779 343.56L468.199 366H460.219L465.679 344.28C466.039 342.78 465.619 341.76 464.599 341.76C463.699 341.76 462.619 342.54 461.839 343.8L456.319 366H448.339ZM493.133 352.62L492.053 356.88C491.633 358.68 492.113 359.76 493.373 359.76C494.633 359.76 495.833 358.68 496.253 356.88L496.853 354.42H504.833L504.293 356.46C502.793 362.64 497.813 366.6 491.633 366.6C485.453 366.6 482.633 362.7 484.193 356.46L487.073 344.94C488.633 338.7 493.433 334.8 499.613 334.8C505.733 334.8 508.733 338.76 507.173 344.94L505.253 352.62H493.133ZM495.173 344.52L494.213 348.3H498.413L499.373 344.52C499.793 342.72 499.313 341.64 498.053 341.64C496.793 341.64 495.593 342.72 495.173 344.52ZM503.827 366L511.447 335.4H519.427L518.527 338.88L519.127 338.82C521.047 336.18 523.327 334.8 525.667 334.8C528.967 334.8 531.007 337.5 529.627 343.08L523.927 366H515.947L521.407 344.22C521.767 342.72 521.287 341.7 520.207 341.7C519.247 341.7 518.167 342.48 517.327 343.68L511.807 366H503.827ZM530.784 342.24L532.464 335.4H535.224L536.844 328.8L544.884 328.32L543.144 335.4H548.304L546.564 342.24H541.464L537.924 356.34C537.324 358.74 538.524 359.52 540.204 359.52C540.804 359.52 541.584 359.4 542.364 359.22L540.744 366.06C538.944 366.42 537.264 366.6 535.824 366.6C530.784 366.6 528.024 364.2 529.884 356.76L533.484 342.24H530.784ZM313.167 397.24L314.847 390.4H317.607L319.227 383.8L327.267 383.32L325.527 390.4H330.687L328.947 397.24H323.847L320.307 411.34C319.707 413.74 320.907 414.52 322.587 414.52C323.187 414.52 323.967 414.4 324.747 414.22L323.127 421.06C321.327 421.42 319.647 421.6 318.207 421.6C313.167 421.6 310.407 419.2 312.267 411.76L315.867 397.24H313.167ZM335.399 407.62L334.319 411.88C333.899 413.68 334.379 414.76 335.639 414.76C336.899 414.76 338.099 413.68 338.519 411.88L339.119 409.42H347.099L346.559 411.46C345.059 417.64 340.079 421.6 333.899 421.6C327.719 421.6 324.899 417.7 326.459 411.46L329.339 399.94C330.899 393.7 335.699 389.8 341.879 389.8C347.999 389.8 350.999 393.76 349.439 399.94L347.519 407.62H335.399ZM337.439 399.52L336.479 403.3H340.679L341.639 399.52C342.059 397.72 341.579 396.64 340.319 396.64C339.059 396.64 337.859 397.72 337.439 399.52ZM359.413 399.52L356.293 411.94C355.813 413.68 356.353 414.76 357.613 414.76C358.873 414.76 360.013 413.68 360.433 411.94L361.693 407.02H369.613L368.533 411.46C366.973 417.64 362.053 421.6 355.873 421.6C349.693 421.6 346.873 417.7 348.433 411.46L351.313 399.94C352.873 393.7 357.613 389.8 363.793 389.8C369.973 389.8 372.913 393.76 371.413 399.94L370.273 404.38H362.353L363.553 399.52C363.973 397.72 363.493 396.64 362.233 396.64C360.973 396.64 359.833 397.72 359.413 399.52ZM368.007 421L378.807 377.8H386.727L382.707 393.88H383.307C385.167 391.18 387.447 389.8 389.847 389.8C393.147 389.8 395.187 392.5 393.807 398.08L388.107 421H380.127L385.527 399.34C385.887 397.84 385.407 396.82 384.327 396.82C383.367 396.82 382.287 397.6 381.507 398.8L375.987 421H368.007ZM389.98 421L397.6 390.4H405.58L404.68 393.88L405.28 393.82C407.2 391.18 409.48 389.8 411.82 389.8C415.12 389.8 417.16 392.5 415.78 398.08L410.08 421H402.1L407.56 399.22C407.92 397.72 407.44 396.7 406.36 396.7C405.4 396.7 404.32 397.48 403.48 398.68L397.96 421H389.98ZM417.172 399.94C418.612 394 423.112 389.8 429.592 389.8C436.132 389.8 438.712 394.06 437.212 399.94L434.332 411.46C432.892 417.34 428.152 421.6 421.672 421.6C415.192 421.6 412.792 417.4 414.292 411.46L417.172 399.94ZM425.212 399.52L422.092 411.94C421.672 413.68 422.152 414.76 423.412 414.76C424.672 414.76 425.812 413.68 426.232 411.94L429.352 399.52C429.832 397.66 429.292 396.64 428.032 396.64C426.772 396.64 425.692 397.66 425.212 399.52ZM433.926 421L444.726 377.8H452.706L441.906 421H433.926ZM449.164 399.94C450.604 394 455.104 389.8 461.584 389.8C468.124 389.8 470.704 394.06 469.204 399.94L466.324 411.46C464.884 417.34 460.144 421.6 453.664 421.6C447.184 421.6 444.784 417.4 446.284 411.46L449.164 399.94ZM457.204 399.52L454.084 411.94C453.664 413.68 454.144 414.76 455.404 414.76C456.664 414.76 457.804 413.68 458.224 411.94L461.344 399.52C461.824 397.66 461.284 396.64 460.024 396.64C458.764 396.64 457.684 397.66 457.204 399.52ZM493.518 390.4L485.058 424.36C483.558 430.18 479.058 433.6 472.818 433.6C466.518 433.6 463.638 430.12 465.078 424.42L465.438 422.92H473.418L473.178 423.94C472.698 425.68 473.178 426.76 474.378 426.76C475.638 426.76 476.778 425.68 477.198 423.82L478.758 417.52H478.218C476.358 420.16 473.958 421.6 471.678 421.6C468.018 421.6 466.458 418.18 467.778 412.96L471.498 398.08C472.758 393.04 475.938 389.8 479.538 389.8C481.818 389.8 483.558 391.18 484.098 393.88H484.698L485.538 390.4H493.518ZM483.438 398.92C483.258 397.66 482.598 396.82 481.698 396.82C480.618 396.82 479.538 397.9 479.118 399.34L475.998 411.88C475.638 413.44 476.058 414.64 477.078 414.64C478.038 414.64 479.238 413.74 480.018 412.48L483.438 398.92ZM496.833 383.44C497.553 380.74 499.533 379.42 502.293 379.42C505.113 379.42 506.553 380.8 505.833 383.44C505.173 386.2 503.133 387.52 500.313 387.52C497.553 387.52 496.173 386.2 496.833 383.44ZM495.693 390.4H503.613L495.993 421H488.013L495.693 390.4ZM509.305 407.62L508.225 411.88C507.805 413.68 508.285 414.76 509.545 414.76C510.805 414.76 512.005 413.68 512.425 411.88L513.025 409.42H521.005L520.465 411.46C518.965 417.64 513.985 421.6 507.805 421.6C501.625 421.6 498.805 417.7 500.365 411.46L503.245 399.94C504.805 393.7 509.605 389.8 515.785 389.8C521.905 389.8 524.905 393.76 523.345 399.94L521.425 407.62H509.305ZM511.345 399.52L510.385 403.3H514.585L515.545 399.52C515.965 397.72 515.485 396.64 514.225 396.64C512.965 396.64 511.765 397.72 511.345 399.52ZM544.899 401.2H536.979L537.399 399.52C537.819 397.72 537.459 396.7 536.139 396.7C534.939 396.7 533.859 397.66 533.439 399.22V399.34C533.019 401.02 533.379 401.68 535.359 402.46L538.719 404.2C542.079 405.7 543.339 407.74 542.319 411.82L542.079 412.66C540.879 417.4 536.079 421.6 529.719 421.6C523.359 421.6 520.899 417.4 522.279 411.82L522.699 410.2H530.619L530.259 411.82C529.779 413.56 530.259 414.64 531.519 414.64C532.779 414.64 533.979 413.62 534.339 412.12V411.94C534.819 410.14 534.459 409.54 532.239 408.7L528.699 407.08C525.399 405.64 524.439 403.54 525.459 399.52L525.639 398.8C526.839 393.94 531.399 389.8 537.759 389.8C544.119 389.8 546.699 394 545.319 399.52L544.899 401.2Z" fill="white"/>
<g filter="url(#filter0_d_2035_7948)">
<path d="M362.398 614.546C363.16 604.092 371.863 596 382.345 596H473.489C485.107 596 494.281 605.867 493.436 617.454L487.602 697.454C486.84 707.908 478.137 716 467.655 716H376.511C364.893 716 355.719 706.133 356.564 694.546L362.398 614.546Z" fill="white"/>
</g>
<g clip-path="url(#clip0_2035_7948)">
<path d="M464.644 637.642C464.644 636.144 464.323 634.82 463.675 633.684C463.039 632.566 462.085 631.63 460.806 630.889C450.25 624.803 439.683 618.735 429.13 612.642C426.285 611 423.526 611.06 420.702 612.726C416.5 615.204 395.463 627.255 389.194 630.886C386.612 632.38 385.356 634.667 385.356 637.64C385.352 649.88 385.356 662.12 385.352 674.36C385.352 675.825 385.659 677.124 386.279 678.243C386.916 679.394 387.882 680.357 389.191 681.114C395.46 684.745 416.5 696.795 420.701 699.274C423.526 700.94 426.285 701 429.131 699.357C439.684 693.264 450.252 687.197 460.81 681.11C462.118 680.353 463.085 679.39 463.722 678.24C464.34 677.121 464.649 675.822 464.649 674.357C464.649 674.357 464.649 649.883 464.644 637.642Z" fill="#A179DC"/>
<path d="M425.12 655.881L386.277 678.243C386.914 679.394 387.881 680.357 389.189 681.114C395.459 684.745 416.499 696.795 420.699 699.274C423.525 700.94 426.283 701 429.129 699.357C439.683 693.264 450.25 687.197 460.808 681.11C462.117 680.353 463.084 679.39 463.72 678.24L425.12 655.881Z" fill="#280068"/>
<path d="M464.644 637.642C464.644 636.144 464.323 634.82 463.675 633.684L425.121 655.881L463.722 678.24C464.34 677.121 464.648 675.822 464.648 674.357C464.648 674.357 464.648 649.883 464.644 637.642Z" fill="#390091"/>
<path d="M447.991 647.521V651.701H452.172V647.521H454.262V651.701H458.442V653.791H454.262V657.971H458.442V660.061H454.262V664.241H452.172V660.061H447.991V664.241H445.901V660.061H441.721V657.971H445.901V653.791H441.721V651.701H445.901V647.521H447.991ZM452.172 653.791H447.991V657.971H452.172V653.791Z" fill="white"/>
<path d="M425.207 626.528C436.111 626.528 445.631 632.449 450.73 641.251L450.68 641.166L437.851 648.552C435.324 644.273 430.69 641.385 425.375 641.325L425.207 641.324C417.102 641.324 410.53 647.895 410.53 656C410.528 658.554 411.195 661.065 412.466 663.281C414.996 667.697 419.752 670.675 425.207 670.675C430.697 670.675 435.48 667.659 437.997 663.196L437.936 663.303L450.745 670.723C445.702 679.45 436.313 685.352 425.536 685.47L425.207 685.472C414.269 685.472 404.723 679.514 399.636 670.666C397.153 666.347 395.732 661.34 395.732 656C395.732 639.723 408.928 626.528 425.207 626.528L425.207 626.528Z" fill="white"/>
</g>
<g filter="url(#filter1_d_2035_7948)">
<path d="M133.472 531.339C134.336 520.973 143.001 513 153.403 513H263.264C274.965 513 284.167 523.001 283.195 534.661L276.528 614.661C275.664 625.027 266.999 633 256.597 633H146.736C135.035 633 125.833 622.999 126.805 611.339L133.472 531.339Z" fill="white"/>
</g>
<g clip-path="url(#clip1_2035_7948)">
<path fill-rule="evenodd" clip-rule="evenodd" d="M140.244 601.502H144.555V584.011L151.203 599.265C151.992 601.094 153.046 601.739 155.152 601.739C157.258 601.739 158.311 601.094 159.101 599.265L165.748 584.011V601.502H170.026V584.044C170.026 582.35 169.368 581.535 168.019 581.094C164.761 580.044 162.555 580.959 161.569 583.231L155.053 598.248L148.735 583.231C147.781 580.959 145.543 580.044 142.285 581.094C140.903 581.535 140.245 582.349 140.245 584.044V601.502H140.244ZM173.613 587.264H177.891V596.891C177.858 597.433 178.055 598.654 180.425 598.688C181.61 598.721 189.672 598.688 189.738 598.688V587.23H194.049C194.081 587.23 194.049 602.856 194.049 602.924C194.081 606.788 189.409 607.601 187.27 607.67H173.712V604.687C173.712 604.687 187.237 604.721 187.27 604.687C190.034 604.416 189.705 602.993 189.705 602.518V601.365H180.59C176.344 601.298 173.645 599.399 173.613 597.195C173.613 596.992 173.712 587.367 173.613 587.264ZM266.052 576.18C263.42 576.112 261.412 576.349 259.667 577.128C259.175 577.332 258.417 577.332 258.319 577.976C258.582 578.246 258.647 578.687 258.845 579.061C259.273 579.74 259.965 580.654 260.589 581.128C261.248 581.672 261.939 582.213 262.663 582.688C263.979 583.501 265.427 583.942 266.644 584.757C267.401 585.23 268.125 585.842 268.849 586.384C269.178 586.655 269.442 587.062 269.869 587.231V587.164C269.639 586.858 269.573 586.418 269.375 586.077L268.388 585.061C267.435 583.773 266.216 582.62 264.932 581.672C263.912 580.926 261.609 579.875 261.181 578.655C261.148 578.621 261.115 578.621 261.115 578.586C261.839 578.484 262.695 578.214 263.353 578.043C264.473 577.739 265.492 577.806 266.643 577.501C267.171 577.331 267.697 577.196 268.224 577.027V576.721C267.632 576.111 267.237 575.264 266.579 574.722C264.901 573.23 263.057 571.772 261.182 570.552C260.128 569.84 258.845 569.4 257.727 568.824C257.364 568.654 256.705 568.553 256.444 568.214C255.85 567.468 255.555 566.485 255.094 565.603C254.128 563.67 253.228 561.702 252.396 559.705C251.837 558.383 251.441 557.061 250.751 555.84C247.328 550.077 243.675 546.586 237.982 543.162C236.765 542.45 235.318 542.146 233.77 541.773C232.948 541.704 232.125 541.671 231.302 541.602C230.808 541.399 230.282 540.755 229.788 540.45C227.912 539.23 223.075 536.552 221.692 540.077C220.803 542.28 223.008 544.45 223.798 545.569C224.358 546.349 225.048 547.231 225.444 548.111C225.706 548.687 225.739 549.264 225.97 549.874C226.529 551.399 226.99 553.06 227.681 554.45C228.042 555.161 228.437 555.908 228.898 556.552C229.161 556.925 229.655 557.094 229.72 557.704C229.259 558.382 229.227 559.399 228.964 560.246C227.812 564.077 228.24 568.789 229.951 571.636C230.478 572.483 231.695 574.347 233.407 573.636C234.888 572.992 234.559 571.093 234.986 569.365C235.086 568.992 235.02 568.72 235.216 568.449V568.517C235.644 569.466 236.105 570.381 236.566 571.296C237.553 572.957 239.331 574.72 240.845 575.872C241.601 576.482 242.226 577.533 243.246 577.871V577.803H243.148C242.951 577.499 242.654 577.363 242.424 577.125C241.832 576.515 241.174 575.769 240.68 575.092C239.331 573.193 238.114 571.092 236.995 568.922C236.467 567.871 236.006 566.719 235.58 565.668C235.414 565.261 235.414 564.651 235.053 564.414C234.559 565.193 233.869 565.837 233.472 566.753C232.88 568.211 232.782 570.007 232.585 571.838C232.452 571.905 232.485 571.871 232.419 571.939C231.367 571.668 231.004 570.549 230.61 569.6C229.656 567.193 229.458 563.329 230.313 560.549C230.543 559.838 231.565 557.6 231.137 556.923C230.938 556.278 230.313 555.872 229.952 555.364C229.491 554.753 229.063 553.94 228.735 553.228C227.946 551.329 227.583 549.228 226.726 547.33C226.299 546.415 225.641 545.499 225.082 544.72C224.456 543.804 223.765 543.161 223.272 542.076C223.108 541.703 222.878 541.093 223.108 540.685C223.206 540.414 223.306 540.312 223.567 540.211C223.995 539.872 225.214 540.347 225.673 540.515C226.858 541.058 227.878 541.533 228.898 542.244C229.393 542.583 229.887 543.227 230.479 543.397H231.138C232.191 543.634 233.375 543.465 234.362 543.77C236.106 544.312 237.685 545.16 239.101 546.109C243.445 548.923 246.967 552.923 249.401 557.702C249.796 558.481 249.96 559.193 250.29 560.007C250.982 561.669 251.869 563.363 252.56 564.956C253.219 566.583 253.91 568.211 254.864 569.532C255.391 570.244 257.365 570.617 258.254 570.989C258.879 571.26 259.898 571.565 260.492 571.939C261.643 572.616 262.729 573.464 263.815 574.244C264.341 574.621 265.985 575.468 266.052 576.18Z" fill="#00678C"/>
<path fill-rule="evenodd" clip-rule="evenodd" d="M232.485 546.723C232.031 546.723 231.578 546.78 231.137 546.893V546.961H231.235C231.498 547.503 231.959 547.876 232.288 548.35C232.518 548.893 232.782 549.435 233.012 549.978L233.11 549.876C233.571 549.571 233.769 549.029 233.769 548.182C233.605 547.978 233.571 547.741 233.408 547.503C233.177 547.164 232.782 546.994 232.485 546.723Z" fill="#00678C"/>
<path fill-rule="evenodd" clip-rule="evenodd" d="M197.373 601.502H209.713C211.161 601.502 212.576 601.197 213.695 600.654C215.537 599.774 216.459 598.586 216.459 597.027V593.773C216.459 592.52 215.406 591.3 213.4 590.52C212.313 590.079 210.997 589.875 209.713 589.875H204.514C202.77 589.875 201.947 589.332 201.75 588.147C201.717 588.012 201.717 587.876 201.717 587.74V585.74C201.717 585.605 201.717 585.503 201.75 585.368C201.947 584.452 202.408 584.181 203.922 584.046C204.053 584.046 204.218 584.012 204.35 584.012H216.624V581.063H204.547C202.803 581.063 201.914 581.198 201.092 581.435C198.525 582.282 197.406 583.571 197.406 585.843V588.419C197.406 590.419 199.611 592.113 203.264 592.52C203.692 592.52 204.086 592.554 204.514 592.554H208.957C209.122 592.554 209.285 592.554 209.417 592.588C210.8 592.724 211.359 592.961 211.787 593.468C212.017 593.739 212.116 593.977 212.116 594.282V596.859C212.116 597.164 211.919 597.571 211.491 597.909C211.128 598.249 210.502 598.453 209.68 598.52C209.516 598.52 209.385 598.554 209.219 598.554H197.373V601.502ZM243.247 596.348C243.247 599.399 245.419 601.094 249.862 601.433C250.256 601.467 250.684 601.502 251.079 601.502H262.268V598.551H251.012C248.478 598.551 247.524 597.907 247.524 596.348V581.062H243.246V596.348H243.247ZM219.191 596.518V586.01C219.191 583.332 221 581.706 224.62 581.197C224.983 581.128 225.411 581.128 225.772 581.128H233.933C234.327 581.128 234.69 581.128 235.118 581.197C238.705 581.706 240.547 583.332 240.547 586.01V596.518C240.547 598.688 239.758 599.84 237.98 600.586L242.226 604.518H237.224L233.801 601.366L230.345 601.569H225.771C224.982 601.569 224.159 601.468 223.237 601.197C220.507 600.45 219.191 598.959 219.191 596.518ZM223.831 596.248C223.831 596.417 223.864 596.552 223.897 596.723C224.161 597.942 225.279 598.621 226.957 598.621H230.874L227.287 595.298H232.289L235.414 598.18C235.975 597.875 236.369 597.4 236.501 596.79C236.534 596.62 236.534 596.486 236.534 596.349V586.248C236.534 586.146 236.534 586.011 236.501 585.875C236.237 584.723 235.119 584.079 233.473 584.079H226.957C225.049 584.079 223.832 584.926 223.832 586.248L223.831 596.248ZM264.243 601.502H264.868V599.061H265.724V598.552H263.387V599.061H264.243V601.502ZM269.047 601.502H269.606V598.552H268.751L267.995 600.587L267.239 598.552H266.35V601.502H266.942V599.265L267.765 601.502H268.192L269.015 599.265H269.048V601.502H269.047Z" fill="#CE8B2C"/>
</g>
<g filter="url(#filter2_d_2035_7948)">
<path d="M572.398 501.546C573.16 491.092 581.863 483 592.345 483H683.489C695.107 483 704.281 492.867 703.436 504.454L697.602 584.454C696.84 594.908 688.137 603 677.655 603H586.511C574.893 603 565.719 593.133 566.564 581.546L572.398 501.546Z" fill="white"/>
</g>
<path d="M635.021 493.276L637.188 497.266C637.675 498.003 638.203 498.654 638.825 499.261C640.648 501.026 642.347 502.91 643.91 504.899C647.582 509.626 650.059 514.876 651.828 520.553C652.889 524.021 653.465 527.579 653.508 531.176C653.685 541.932 649.925 551.167 642.342 558.842C641.109 560.059 639.776 561.176 638.358 562.181C637.607 562.181 637.251 561.616 636.942 561.096C636.378 560.132 636.003 559.073 635.835 557.974C635.569 556.673 635.394 555.371 635.48 554.028V553.421C635.419 553.292 634.757 493.582 635.021 493.276Z" fill="#599636"/>
<path d="M635.022 493.144C634.933 492.97 634.844 493.101 634.755 493.186C634.798 494.057 634.489 494.833 634.004 495.574C633.471 496.311 632.766 496.876 632.058 497.483C628.124 500.821 625.028 504.854 622.549 509.365C619.25 515.435 617.55 521.941 617.068 528.791C616.847 531.261 617.865 539.979 618.659 542.494C620.826 549.172 624.719 554.767 629.761 559.623C631 560.793 632.324 561.877 633.695 562.92C634.093 562.92 634.136 562.571 634.227 562.313C634.402 561.759 634.535 561.194 634.626 560.621L635.514 554.117L635.022 493.144Z" fill="#6CAC48"/>
<path d="M637.188 564.823C637.277 563.828 637.764 563.002 638.294 562.178C637.761 561.962 637.365 561.531 637.056 561.051C636.789 560.597 636.568 560.118 636.396 559.621C635.777 557.8 635.645 555.889 635.467 554.028V552.901C635.246 553.075 635.201 554.548 635.201 554.767C635.072 556.734 634.805 558.69 634.404 560.621C634.272 561.402 634.183 562.181 633.693 562.875C633.693 562.962 633.693 563.049 633.737 563.178C634.533 565.477 634.752 567.818 634.886 570.204V571.075C634.886 572.115 634.843 571.896 635.723 572.244C636.079 572.374 636.475 572.419 636.83 572.677C637.096 572.677 637.14 572.461 637.14 572.287L637.008 570.856V566.866C636.964 566.169 637.096 565.477 637.185 564.825L637.188 564.823Z" fill="#C2BFBF"/>
<path d="M606.624 579.6H610.628L609 589.72H609.22L612.63 579.6H616.634L612.784 595H609.946L612.806 584.946H612.608L608.802 595H606.778L607.988 584.946H607.79L605.612 595H602.796L606.624 579.6ZM615.43 587.278C615.958 585.1 617.608 583.56 619.984 583.56C622.382 583.56 623.328 585.122 622.778 587.278L621.722 591.502C621.194 593.658 619.456 595.22 617.08 595.22C614.704 595.22 613.824 593.68 614.374 591.502L615.43 587.278ZM618.378 587.124L617.234 591.678C617.08 592.316 617.256 592.712 617.718 592.712C618.18 592.712 618.598 592.316 618.752 591.678L619.896 587.124C620.072 586.442 619.874 586.068 619.412 586.068C618.95 586.068 618.554 586.442 618.378 587.124ZM621.551 595L624.345 583.78H627.271L626.941 585.056L627.161 585.034C627.865 584.066 628.701 583.56 629.559 583.56C630.769 583.56 631.517 584.55 631.011 586.596L628.921 595H625.995L627.997 587.014C628.129 586.464 627.953 586.09 627.557 586.09C627.205 586.09 626.809 586.376 626.501 586.816L624.477 595H621.551ZM639.75 583.78L636.648 596.232C636.098 598.366 634.448 599.62 632.16 599.62C629.85 599.62 628.794 598.344 629.322 596.254L629.454 595.704H632.38L632.292 596.078C632.116 596.716 632.292 597.112 632.732 597.112C633.194 597.112 633.612 596.716 633.766 596.034L634.338 593.724H634.14C633.458 594.692 632.578 595.22 631.742 595.22C630.4 595.22 629.828 593.966 630.312 592.052L631.676 586.596C632.138 584.748 633.304 583.56 634.624 583.56C635.46 583.56 636.098 584.066 636.296 585.056H636.516L636.824 583.78H639.75ZM636.054 586.904C635.988 586.442 635.746 586.134 635.416 586.134C635.02 586.134 634.624 586.53 634.47 587.058L633.326 591.656C633.194 592.228 633.348 592.668 633.722 592.668C634.074 592.668 634.514 592.338 634.8 591.876L636.054 586.904ZM639.557 587.278C640.085 585.1 641.735 583.56 644.111 583.56C646.509 583.56 647.455 585.122 646.905 587.278L645.849 591.502C645.321 593.658 643.583 595.22 641.207 595.22C638.831 595.22 637.951 593.68 638.501 591.502L639.557 587.278ZM642.505 587.124L641.361 591.678C641.207 592.316 641.383 592.712 641.845 592.712C642.307 592.712 642.725 592.316 642.879 591.678L644.023 587.124C644.199 586.442 644.001 586.068 643.539 586.068C643.077 586.068 642.681 586.442 642.505 587.124ZM649.55 579.6H653.4C655.952 579.6 657.096 580.92 656.48 583.428L654.544 591.172C653.906 593.702 652.102 595 649.572 595H645.7L649.55 579.6ZM651.97 582.284L649.462 592.316H650.21C650.87 592.316 651.266 591.964 651.442 591.216L653.4 583.362C653.598 582.614 653.4 582.284 652.762 582.284H651.97ZM658.165 579.6H661.927C664.479 579.6 665.601 580.964 664.985 583.406L664.963 583.516C664.413 585.738 662.983 586.882 661.839 587.014L661.795 587.234C662.917 587.344 663.951 588.708 663.401 590.93L663.335 591.172C662.719 593.592 660.805 595 658.143 595H654.337L658.165 579.6ZM660.585 582.284L659.705 585.782H660.343C661.025 585.782 661.399 585.474 661.597 584.682L661.905 583.406C662.103 582.614 661.971 582.284 661.267 582.284H660.585ZM659.045 588.466L658.077 592.316H658.781C659.507 592.316 659.903 591.942 660.101 591.128L660.475 589.588C660.695 588.774 660.475 588.466 659.727 588.466H659.045Z" fill="black"/>
<g filter="url(#filter3_d_2035_7948)">
<path d="M56.3977 351.546C57.16 341.092 65.8634 333 76.3448 333H167.489C179.107 333 188.281 342.867 187.436 354.454L181.602 434.454C180.84 444.908 172.137 453 161.655 453H70.5114C58.8928 453 49.7194 443.133 50.5644 431.546L56.3977 351.546Z" fill="white"/>
</g>
<g clip-path="url(#clip2_2035_7948)">
<path d="M74 348H164V438H74V348Z" fill="#F0DB4F"/>
<path d="M156.635 416.535C155.977 412.429 153.299 408.981 145.368 405.764C142.613 404.498 139.542 403.591 138.627 401.504C138.302 400.289 138.259 399.605 138.464 398.869C139.055 396.482 141.903 395.738 144.162 396.422C145.616 396.91 146.994 398.03 147.824 399.818C151.708 397.303 151.699 397.32 154.411 395.592C153.419 394.052 152.888 393.342 152.238 392.684C149.902 390.074 146.72 388.731 141.63 388.834C140.748 388.945 139.859 389.065 138.978 389.176C136.437 389.818 134.016 391.152 132.595 392.94C128.335 397.774 129.55 406.235 134.734 409.717C139.842 413.55 147.344 414.422 148.303 418.007C149.235 422.396 145.077 423.816 140.945 423.311C137.9 422.678 136.206 421.129 134.375 418.315C131.004 420.265 131.004 420.265 127.539 422.259C128.361 424.055 129.225 424.868 130.602 426.425C137.121 433.038 153.436 432.713 156.362 422.703C156.481 422.361 157.269 420.068 156.635 416.535ZM122.928 389.364H114.51C114.51 396.636 114.476 403.856 114.476 411.128C114.476 415.757 114.715 420 113.962 421.3C112.73 423.858 109.539 423.542 108.085 423.046C106.605 422.318 105.852 421.283 104.98 419.82C104.74 419.401 104.56 419.076 104.5 419.05C102.216 420.445 99.9405 421.848 97.6562 423.242C98.7942 425.578 100.471 427.605 102.618 428.923C105.826 430.848 110.138 431.438 114.647 430.403C117.581 429.547 120.113 427.777 121.44 425.082C123.356 421.548 122.945 417.271 122.928 412.54C122.971 404.823 122.928 397.106 122.928 389.364Z" fill="#323330"/>
</g>
<g filter="url(#filter4_d_2035_7948)">
<path d="M672.398 321.546C673.16 311.092 681.863 303 692.345 303H783.489C795.107 303 804.281 312.867 803.436 324.454L797.602 404.454C796.84 414.908 788.137 423 777.655 423H686.511C674.893 423 665.719 413.133 666.564 401.546L672.398 321.546Z" fill="white"/>
</g>
<g clip-path="url(#clip3_2035_7948)">
<path d="M690.08 363.588C689.825 363.313 689.514 363.094 689.171 362.94C688.828 362.786 688.462 362.714 688.087 362.714C687.713 362.705 687.346 362.786 687.003 362.932C686.661 363.086 686.35 363.305 686.095 363.58C685.832 363.847 685.625 364.163 685.489 364.511C685.354 364.867 685.282 365.24 685.282 365.612C685.274 365.993 685.346 366.365 685.489 366.713C685.633 367.061 685.84 367.377 686.103 367.644C686.358 367.92 686.667 368.138 687.01 368.284C687.353 368.43 687.723 368.502 688.095 368.494C688.467 368.496 688.835 368.422 689.177 368.276C689.519 368.13 689.829 367.915 690.088 367.644C690.359 367.385 690.566 367.069 690.709 366.721C690.853 366.373 690.925 366.001 690.925 365.62C690.925 365.24 690.853 364.867 690.709 364.519C690.558 364.163 690.351 363.847 690.08 363.588ZM723.434 357.014C723.394 358.827 723.481 360.649 723.689 362.454H723.593C723.37 362.009 722.876 361.183 722.119 359.977L703.947 331H698.432V367.992H702.672V341.25C702.72 339.558 702.648 337.866 702.473 336.174H702.632C702.935 336.983 703.326 337.76 703.788 338.489L722.453 367.992H727.674V331H723.434V357.014ZM756.421 363.928H741.438V351.111H754.548V347.209H741.438V334.919H755.504V331H737.094V367.992H756.397L756.421 363.928ZM759.665 331V334.919H770.105V367.992H774.345V334.919H784.905V331H759.665ZM718.11 377.19C717.051 377.619 716.094 378.273 715.304 379.109C714.491 379.991 713.854 381.028 713.439 382.169C713.025 383.311 712.842 384.517 712.889 385.723C712.81 387.958 713.575 390.144 715.041 391.812C715.775 392.597 716.667 393.204 717.655 393.609C718.644 394.014 719.704 394.192 720.764 394.144C722.358 394.2 723.944 393.86 725.386 393.148L725.402 391.261C724.079 392.047 722.573 392.435 721.043 392.395C720.222 392.427 719.401 392.281 718.644 391.966C717.887 391.65 717.201 391.164 716.643 390.549C715.477 389.172 714.877 387.392 714.97 385.578C714.874 383.659 715.52 381.78 716.763 380.339C717.353 379.675 718.078 379.157 718.883 378.801C719.691 378.452 720.563 378.283 721.441 378.307C722.836 378.283 724.207 378.631 725.426 379.319V377.287C724.161 376.769 722.804 376.526 721.441 376.574C720.301 376.558 719.162 376.761 718.11 377.19ZM737.979 382.987C737.446 382.418 736.798 381.972 736.08 381.682C735.362 381.391 734.59 381.262 733.818 381.303C732.997 381.262 732.184 381.4 731.419 381.7C730.654 381.999 729.961 382.452 729.371 383.027C728.797 383.675 728.359 384.428 728.072 385.254C727.785 386.08 727.666 386.946 727.721 387.82C727.642 389.48 728.208 391.107 729.291 392.346C729.833 392.937 730.487 393.407 731.22 393.723C731.953 394.03 732.742 394.184 733.531 394.152C734.336 394.176 735.141 394.022 735.89 393.706C736.64 393.391 737.309 392.913 737.859 392.306C738.977 391.026 739.555 389.351 739.469 387.642C739.565 385.942 739.031 384.282 737.979 382.987ZM736.52 391.302C736.169 391.713 735.731 392.037 735.237 392.249C734.744 392.461 734.21 392.555 733.675 392.524C733.125 392.549 732.583 392.443 732.081 392.233C731.579 392.014 731.132 391.69 730.766 391.269C730.002 390.309 729.618 389.093 729.69 387.861C729.618 386.59 730.001 385.335 730.766 384.331C731.125 383.91 731.571 383.578 732.073 383.351C732.575 383.133 733.125 383.027 733.667 383.052C734.209 383.019 734.743 383.124 735.237 383.343C735.731 383.562 736.169 383.894 736.52 384.315C737.244 385.333 737.597 386.575 737.516 387.828C737.596 389.059 737.245 390.298 736.52 391.302ZM745.757 382.193C745.159 382.736 744.721 383.44 744.506 384.226V381.683H742.513V393.86H744.506V387.65C744.442 386.525 744.729 385.4 745.319 384.444C745.534 384.096 745.821 383.805 746.172 383.602C746.522 383.4 746.913 383.278 747.311 383.27C747.821 383.23 748.331 383.367 748.762 383.659V381.651C748.395 381.529 748.013 381.473 747.63 381.489C746.945 381.481 746.283 381.732 745.757 382.193ZM760.422 387.221C760.517 385.675 760.063 384.153 759.147 382.922C758.692 382.404 758.134 381.991 757.505 381.724C756.875 381.457 756.198 381.335 755.52 381.376C754.771 381.351 754.022 381.505 753.329 381.813C752.643 382.121 752.029 382.582 751.535 383.165C750.453 384.448 749.892 386.1 749.965 387.788C749.862 389.472 750.38 391.14 751.416 392.451C751.918 393.01 752.54 393.447 753.225 393.739C753.91 394.03 754.66 394.152 755.401 394.119C756.875 394.192 758.334 393.787 759.561 392.962V391.132C758.512 391.997 757.206 392.477 755.855 392.492C755.337 392.524 754.811 392.443 754.325 392.249C753.839 392.055 753.392 391.771 753.026 391.391C752.314 390.515 751.952 389.4 752.014 388.266H760.438L760.422 387.221ZM751.998 386.654C752.101 385.691 752.516 384.784 753.169 384.08C753.462 383.76 753.818 383.506 754.213 383.335C754.608 383.163 755.035 383.078 755.464 383.084C755.879 383.06 756.285 383.133 756.668 383.294C757.05 383.456 757.385 383.699 757.656 384.015C758.214 384.768 758.493 385.691 758.453 386.63L751.998 386.654Z" fill="#621EE5"/>
</g>
<g filter="url(#filter5_d_2035_7948)">
<path d="M549.398 141.546C550.16 131.092 558.863 123 569.345 123H660.489C672.107 123 681.281 132.867 680.436 144.454L674.602 224.454C673.84 234.908 665.137 243 654.655 243H563.511C551.893 243 542.719 233.133 543.564 221.546L549.398 141.546Z" fill="white"/>
</g>
<path d="M595.421 217.6H599.205C601.757 217.6 602.879 218.986 602.197 221.714L602.131 222C601.559 224.288 600.063 225.564 598.941 225.674L598.897 225.894C599.931 226.004 600.789 227.412 600.217 229.656L600.173 229.876C599.843 231.196 599.645 232.142 599.601 233H596.543C596.565 232.076 596.807 231.042 597.115 229.854L597.489 228.27C597.687 227.478 597.511 227.126 596.851 227.126H596.125L594.651 233.022H591.571L595.421 217.6ZM597.819 220.284L596.785 224.442H597.489C598.171 224.442 598.567 223.98 598.743 223.232L599.183 221.45C599.381 220.636 599.205 220.284 598.545 220.284H597.819ZM604.256 228.094L603.86 229.656C603.706 230.316 603.882 230.712 604.344 230.712C604.806 230.712 605.246 230.316 605.4 229.656L605.62 228.754H608.546L608.348 229.502C607.798 231.768 605.972 233.22 603.706 233.22C601.44 233.22 600.406 231.79 600.978 229.502L602.034 225.278C602.606 222.99 604.366 221.56 606.632 221.56C608.876 221.56 609.976 223.012 609.404 225.278L608.7 228.094H604.256ZM605.004 225.124L604.652 226.51H606.192L606.544 225.124C606.698 224.464 606.522 224.068 606.06 224.068C605.598 224.068 605.158 224.464 605.004 225.124ZM614.579 225.102C614.755 224.464 614.579 224.068 614.117 224.068C613.677 224.068 613.281 224.464 613.105 225.102L612.775 226.444H609.849L610.157 225.278C610.707 222.99 612.445 221.56 614.711 221.56C616.955 221.56 618.033 223.012 617.461 225.278L615.525 233H612.599L612.885 231.9H612.797C612.005 232.78 611.147 233.22 610.311 233.22C609.013 233.22 608.353 232.23 608.727 230.778L609.079 229.348C609.431 227.896 610.773 226.928 612.445 226.928H614.117L614.579 225.102ZM613.281 230.272L613.765 228.358H613.259C612.577 228.358 612.159 228.622 612.027 229.172L611.785 230.14C611.675 230.624 611.829 230.932 612.247 230.932C612.621 230.932 613.017 230.69 613.281 230.272ZM621.096 225.124L619.952 229.678C619.776 230.316 619.974 230.712 620.436 230.712C620.898 230.712 621.316 230.316 621.47 229.678L621.932 227.874H624.836L624.44 229.502C623.868 231.768 622.064 233.22 619.798 233.22C617.532 233.22 616.498 231.79 617.07 229.502L618.126 225.278C618.698 222.99 620.436 221.56 622.702 221.56C624.968 221.56 626.046 223.012 625.496 225.278L625.078 226.906H622.174L622.614 225.124C622.768 224.464 622.592 224.068 622.13 224.068C621.668 224.068 621.25 224.464 621.096 225.124ZM626.075 224.288L626.691 221.78H627.703L628.297 219.36L631.245 219.184L630.607 221.78H632.499L631.861 224.288H629.991L628.693 229.458C628.473 230.338 628.913 230.624 629.529 230.624C629.749 230.624 630.035 230.58 630.321 230.514L629.727 233.022C629.067 233.154 628.451 233.22 627.923 233.22C626.075 233.22 625.063 232.34 625.745 229.612L627.065 224.288H626.075Z" fill="black"/>
<path d="M611.999 179.214C616.233 179.214 619.664 175.76 619.664 171.5C619.664 167.24 616.233 163.786 611.999 163.786C607.766 163.786 604.334 167.24 604.334 171.5C604.334 175.76 607.766 179.214 611.999 179.214Z" fill="#61DAFB"/>
<path d="M612.002 187.304C634.717 187.304 653.132 180.228 653.132 171.5C653.132 162.772 634.717 155.696 612.002 155.696C589.286 155.696 570.871 162.772 570.871 171.5C570.871 180.228 589.286 187.304 612.002 187.304Z" stroke="#61DAFB" stroke-width="4"/>
<path d="M598.402 179.402C609.759 199.199 625.056 211.71 632.567 207.346C640.078 202.981 636.96 183.395 625.602 163.598C614.244 143.801 598.948 131.29 591.437 135.655C583.925 140.019 587.044 159.605 598.402 179.402Z" stroke="#61DAFB" stroke-width="4"/>
<path d="M598.4 163.598C587.042 183.395 583.924 202.981 591.435 207.346C598.946 211.71 614.243 199.199 625.601 179.402C636.959 159.605 640.077 140.019 632.566 135.655C625.054 131.29 609.758 143.801 598.4 163.598Z" stroke="#61DAFB" stroke-width="4"/>
<g filter="url(#filter6_d_2035_7948)">
<path d="M169.398 171.546C170.16 161.092 178.863 153 189.345 153H280.489C292.107 153 301.281 162.867 300.436 174.454L294.602 254.454C293.84 264.908 285.137 273 274.655 273H183.511C171.893 273 162.719 263.133 163.564 251.546L169.398 171.546Z" fill="white"/>
</g>
<path d="M224.238 249.6H227.34L223.49 265H220.41L222.038 258.444H220.432L218.804 265H215.724L219.574 249.6H222.654L221.114 255.76H222.698L224.238 249.6ZM235.429 249.578L234.769 252.262H232.503L229.335 264.978H226.255L229.423 252.262H227.179L227.839 249.578H235.429ZM236.009 249.6H240.013L238.385 259.72H238.605L242.015 249.6H246.019L242.169 265H239.331L242.191 254.946H241.993L238.187 265H236.163L237.373 254.946H237.175L234.997 265H232.181L236.009 249.6ZM246.795 249.578H249.875L246.685 262.316H249.215L248.555 265H242.945L246.795 249.578Z" fill="black"/>
<g clip-path="url(#clip4_2035_7948)">
<path d="M202.861 234.62L197 163.134L267 163.277L260.802 234.62L232.264 242.866L202.861 234.62Z" fill="#E34F26"/>
<path d="M232.266 235.962V169.942L261.092 170.038L255.952 229.106L232.266 235.962Z" fill="#EF652A"/>
<path d="M253.163 186.435L253.979 177.709H209.635L212.085 204.462H242.689L241.489 215.873L231.688 218.51L221.743 215.633L221.214 208.825H212.421L213.623 222.729L231.687 227.763L249.895 222.729L252.345 195.592H220.205L219.292 186.435H253.163Z" fill="white"/>
</g>
<g filter="url(#filter7_d_2035_7948)">
<path d="M359.398 68.5455C360.16 58.0919 368.863 50 379.345 50H470.489C482.107 50 491.281 59.8667 490.436 71.4545L484.602 151.454C483.84 161.908 475.137 170 464.655 170H373.511C361.893 170 352.719 160.133 353.564 148.546L359.398 68.5455Z" fill="white"/>
</g>
<path d="M404.422 145.6H408.206C410.758 145.6 411.88 146.986 411.198 149.714L411.132 150C410.56 152.288 409.064 153.564 407.942 153.674L407.898 153.894C408.932 154.004 409.79 155.412 409.218 157.656L409.174 157.876C408.844 159.196 408.646 160.142 408.602 161H405.544C405.566 160.076 405.808 159.042 406.116 157.854L406.49 156.27C406.688 155.478 406.512 155.126 405.852 155.126H405.126L403.652 161.022H400.572L404.422 145.6ZM406.82 148.284L405.786 152.442H406.49C407.172 152.442 407.568 151.98 407.744 151.232L408.184 149.45C408.382 148.636 408.206 148.284 407.546 148.284H406.82ZM413.257 156.094L412.861 157.656C412.707 158.316 412.883 158.712 413.345 158.712C413.807 158.712 414.247 158.316 414.401 157.656L414.621 156.754H417.547L417.349 157.502C416.799 159.768 414.973 161.22 412.707 161.22C410.441 161.22 409.407 159.79 409.979 157.502L411.035 153.278C411.607 150.99 413.367 149.56 415.633 149.56C417.877 149.56 418.977 151.012 418.405 153.278L417.701 156.094H413.257ZM414.005 153.124L413.653 154.51H415.193L415.545 153.124C415.699 152.464 415.523 152.068 415.061 152.068C414.599 152.068 414.159 152.464 414.005 153.124ZM424.504 161H421.6L421.908 159.79H421.688C421.006 160.714 420.148 161.22 419.378 161.22C418.168 161.22 417.398 160.01 417.948 157.81L419.312 152.376C419.774 150.484 421.05 149.56 422.216 149.56C423.074 149.56 423.756 150.066 423.888 150.946H424.108L425.538 145.16H428.464L424.504 161ZM422.348 157.964L423.646 152.75C423.602 152.376 423.382 152.112 423.03 152.112C422.612 152.112 422.194 152.486 422.062 153.036L420.896 157.7C420.764 158.228 420.94 158.624 421.358 158.624C421.71 158.624 422.106 158.36 422.348 157.964ZM435.355 149.78L432.539 161H429.635L429.943 159.724H429.745C429.041 160.714 428.205 161.22 427.325 161.22C426.115 161.22 425.389 160.23 425.895 158.184L427.985 149.78H430.911L428.887 157.832C428.755 158.382 428.931 158.756 429.327 158.756C429.679 158.756 430.075 158.47 430.383 158.03L432.429 149.78H435.355ZM438.879 149.78L438.461 154.246H438.681L440.463 149.78H443.499L440.903 155.346L440.749 161H437.735L438.131 156.336H437.933L436.041 161H433.005L435.689 155.302L435.865 149.78H438.879Z" fill="black"/>
<g clip-path="url(#clip5_2035_7948)">
<path d="M438.589 115.04C441.763 114.711 444.17 111.975 444.061 108.69C443.951 105.406 441.215 102.779 437.932 102.779H437.713C434.321 102.888 431.694 105.734 431.804 109.128C431.913 110.77 432.57 112.193 433.555 113.179C429.834 120.514 424.143 125.878 415.607 130.366C409.806 133.432 403.787 134.527 397.768 133.76C392.844 133.104 389.013 130.914 386.605 127.301C383.103 121.937 382.775 116.135 385.73 110.333C387.81 106.172 391.092 103.107 393.172 101.574C392.734 100.151 392.077 97.7428 391.749 95.9914C375.88 107.486 377.522 123.032 382.338 130.366C385.949 135.841 393.281 139.234 401.38 139.234C403.568 139.234 405.757 139.015 407.946 138.468C421.954 135.731 432.57 127.411 438.589 115.04ZM457.85 101.465C449.533 91.7217 437.276 86.3575 423.267 86.3575H421.517C420.532 84.3869 418.452 83.073 416.154 83.073H415.935C412.543 83.1826 409.916 86.0288 410.026 89.4228C410.135 92.7069 412.871 95.3344 416.154 95.3344H416.373C418.78 95.2249 420.86 93.6922 421.735 91.6121H423.705C432.023 91.6121 439.902 94.0205 447.016 98.7281C452.488 102.341 456.428 107.048 458.616 112.741C460.477 117.339 460.367 121.827 458.397 125.659C455.333 131.461 450.19 134.636 443.404 134.636C439.027 134.636 434.868 133.322 432.679 132.337C431.475 133.432 429.286 135.183 427.754 136.278C432.46 138.468 437.276 139.672 441.872 139.672C452.378 139.672 460.148 133.87 463.103 128.068C466.277 121.718 466.058 110.77 457.85 101.465ZM402.255 116.901C402.365 120.185 405.101 122.812 408.384 122.812H408.603C411.995 122.703 414.622 119.857 414.512 116.463C414.403 113.178 411.667 110.551 408.384 110.551H408.165C407.946 110.551 407.618 110.551 407.399 110.66C402.912 103.216 401.052 95.1153 401.708 86.3571C402.146 79.7886 404.335 74.0957 408.165 69.3882C411.339 65.3375 417.467 63.367 421.626 63.2578C433.226 63.0387 438.151 77.4894 438.479 83.2918C439.902 83.6201 442.31 84.3866 443.951 84.934C442.638 67.1992 431.694 58.0031 421.188 58.0031C411.339 58.0031 402.255 65.1191 398.644 75.6287C393.61 89.6416 396.893 103.107 403.021 113.726C402.474 114.492 402.146 115.696 402.255 116.901Z" fill="#764ABC"/>
</g>
<defs>
<filter id="filter0_d_2035_7948" x="306.51" y="546" width="236.98" height="220" filterUnits="userSpaceOnUse" color-interpolation-filters="sRGB">
<feFlood flood-opacity="0" result="BackgroundImageFix"/>
<feColorMatrix in="SourceAlpha" type="matrix" values="0 0 0 0 0 0 0 0 0 0 0 0 0 0 0 0 0 0 127 0" result="hardAlpha"/>
<feOffset/>
<feGaussianBlur stdDeviation="25"/>
<feComposite in2="hardAlpha" operator="out"/>
<feColorMatrix type="matrix" values="0 0 0 0 0 0 0 0 0 0.591667 0 0 0 0 0.0234789 0 0 0 0.16 0"/>
<feBlend mode="normal" in2="BackgroundImageFix" result="effect1_dropShadow_2035_7948"/>
<feBlend mode="normal" in="SourceGraphic" in2="effect1_dropShadow_2035_7948" result="shape"/>
</filter>
<filter id="filter1_d_2035_7948" x="76.7344" y="463" width="256.531" height="220" filterUnits="userSpaceOnUse" color-interpolation-filters="sRGB">
<feFlood flood-opacity="0" result="BackgroundImageFix"/>
<feColorMatrix in="SourceAlpha" type="matrix" values="0 0 0 0 0 0 0 0 0 0 0 0 0 0 0 0 0 0 127 0" result="hardAlpha"/>
<feOffset/>
<feGaussianBlur stdDeviation="25"/>
<feComposite in2="hardAlpha" operator="out"/>
<feColorMatrix type="matrix" values="0 0 0 0 0 0 0 0 0 0.591667 0 0 0 0 0.0234789 0 0 0 0.16 0"/>
<feBlend mode="normal" in2="BackgroundImageFix" result="effect1_dropShadow_2035_7948"/>
<feBlend mode="normal" in="SourceGraphic" in2="effect1_dropShadow_2035_7948" result="shape"/>
</filter>
<filter id="filter2_d_2035_7948" x="516.51" y="433" width="236.98" height="220" filterUnits="userSpaceOnUse" color-interpolation-filters="sRGB">
<feFlood flood-opacity="0" result="BackgroundImageFix"/>
<feColorMatrix in="SourceAlpha" type="matrix" values="0 0 0 0 0 0 0 0 0 0 0 0 0 0 0 0 0 0 127 0" result="hardAlpha"/>
<feOffset/>
<feGaussianBlur stdDeviation="25"/>
<feComposite in2="hardAlpha" operator="out"/>
<feColorMatrix type="matrix" values="0 0 0 0 0 0 0 0 0 0.591667 0 0 0 0 0.0234789 0 0 0 0.16 0"/>
<feBlend mode="normal" in2="BackgroundImageFix" result="effect1_dropShadow_2035_7948"/>
<feBlend mode="normal" in="SourceGraphic" in2="effect1_dropShadow_2035_7948" result="shape"/>
</filter>
<filter id="filter3_d_2035_7948" x="0.509766" y="283" width="236.98" height="220" filterUnits="userSpaceOnUse" color-interpolation-filters="sRGB">
<feFlood flood-opacity="0" result="BackgroundImageFix"/>
<feColorMatrix in="SourceAlpha" type="matrix" values="0 0 0 0 0 0 0 0 0 0 0 0 0 0 0 0 0 0 127 0" result="hardAlpha"/>
<feOffset/>
<feGaussianBlur stdDeviation="25"/>
<feComposite in2="hardAlpha" operator="out"/>
<feColorMatrix type="matrix" values="0 0 0 0 0 0 0 0 0 0.591667 0 0 0 0 0.0234789 0 0 0 0.16 0"/>
<feBlend mode="normal" in2="BackgroundImageFix" result="effect1_dropShadow_2035_7948"/>
<feBlend mode="normal" in="SourceGraphic" in2="effect1_dropShadow_2035_7948" result="shape"/>
</filter>
<filter id="filter4_d_2035_7948" x="616.51" y="253" width="236.98" height="220" filterUnits="userSpaceOnUse" color-interpolation-filters="sRGB">
<feFlood flood-opacity="0" result="BackgroundImageFix"/>
<feColorMatrix in="SourceAlpha" type="matrix" values="0 0 0 0 0 0 0 0 0 0 0 0 0 0 0 0 0 0 127 0" result="hardAlpha"/>
<feOffset/>
<feGaussianBlur stdDeviation="25"/>
<feComposite in2="hardAlpha" operator="out"/>
<feColorMatrix type="matrix" values="0 0 0 0 0 0 0 0 0 0.591667 0 0 0 0 0.0234789 0 0 0 0.16 0"/>
<feBlend mode="normal" in2="BackgroundImageFix" result="effect1_dropShadow_2035_7948"/>
<feBlend mode="normal" in="SourceGraphic" in2="effect1_dropShadow_2035_7948" result="shape"/>
</filter>
<filter id="filter5_d_2035_7948" x="493.51" y="73" width="236.98" height="220" filterUnits="userSpaceOnUse" color-interpolation-filters="sRGB">
<feFlood flood-opacity="0" result="BackgroundImageFix"/>
<feColorMatrix in="SourceAlpha" type="matrix" values="0 0 0 0 0 0 0 0 0 0 0 0 0 0 0 0 0 0 127 0" result="hardAlpha"/>
<feOffset/>
<feGaussianBlur stdDeviation="25"/>
<feComposite in2="hardAlpha" operator="out"/>
<feColorMatrix type="matrix" values="0 0 0 0 0 0 0 0 0 0.591667 0 0 0 0 0.0234789 0 0 0 0.16 0"/>
<feBlend mode="normal" in2="BackgroundImageFix" result="effect1_dropShadow_2035_7948"/>
<feBlend mode="normal" in="SourceGraphic" in2="effect1_dropShadow_2035_7948" result="shape"/>
</filter>
<filter id="filter6_d_2035_7948" x="113.51" y="103" width="236.98" height="220" filterUnits="userSpaceOnUse" color-interpolation-filters="sRGB">
<feFlood flood-opacity="0" result="BackgroundImageFix"/>
<feColorMatrix in="SourceAlpha" type="matrix" values="0 0 0 0 0 0 0 0 0 0 0 0 0 0 0 0 0 0 127 0" result="hardAlpha"/>
<feOffset/>
<feGaussianBlur stdDeviation="25"/>
<feComposite in2="hardAlpha" operator="out"/>
<feColorMatrix type="matrix" values="0 0 0 0 0 0 0 0 0 0.591667 0 0 0 0 0.0234789 0 0 0 0.16 0"/>
<feBlend mode="normal" in2="BackgroundImageFix" result="effect1_dropShadow_2035_7948"/>
<feBlend mode="normal" in="SourceGraphic" in2="effect1_dropShadow_2035_7948" result="shape"/>
</filter>
<filter id="filter7_d_2035_7948" x="303.51" y="0" width="236.98" height="220" filterUnits="userSpaceOnUse" color-interpolation-filters="sRGB">
<feFlood flood-opacity="0" result="BackgroundImageFix"/>
<feColorMatrix in="SourceAlpha" type="matrix" values="0 0 0 0 0 0 0 0 0 0 0 0 0 0 0 0 0 0 127 0" result="hardAlpha"/>
<feOffset/>
<feGaussianBlur stdDeviation="25"/>
<feComposite in2="hardAlpha" operator="out"/>
<feColorMatrix type="matrix" values="0 0 0 0 0 0 0 0 0 0.591667 0 0 0 0 0.0234789 0 0 0 0.16 0"/>
<feBlend mode="normal" in2="BackgroundImageFix" result="effect1_dropShadow_2035_7948"/>
<feBlend mode="normal" in="SourceGraphic" in2="effect1_dropShadow_2035_7948" result="shape"/>
</filter>
<radialGradient id="paint0_radial_2035_7948" cx="0" cy="0" r="1" gradientUnits="userSpaceOnUse" gradientTransform="translate(424 378) rotate(90) scale(270 400)">
<stop stop-color="#19DF21" stop-opacity="0.8"/>
<stop offset="0.380208" stop-color="#19DF21" stop-opacity="0.6"/>
<stop offset="0.770833" stop-color="#19DF21" stop-opacity="0.2"/>
<stop offset="1" stop-color="#15E61D" stop-opacity="0.06"/>
</radialGradient>
<clipPath id="clip0_2035_7948">
<rect width="80" height="90" fill="white" transform="translate(385 611)"/>
</clipPath>
<clipPath id="clip1_2035_7948">
<rect width="130" height="70" fill="white" transform="translate(140 538)"/>
</clipPath>
<clipPath id="clip2_2035_7948">
<rect width="90" height="90" fill="white" transform="translate(74 348)"/>
</clipPath>
<clipPath id="clip3_2035_7948">
<rect width="100" height="64" fill="white" transform="translate(685 331)"/>
</clipPath>
<clipPath id="clip4_2035_7948">
<rect width="70" height="80" fill="white" transform="translate(197 163)"/>
</clipPath>
<clipPath id="clip5_2035_7948">
<rect width="86" height="82" fill="white" transform="translate(379 58)"/>
</clipPath>
</defs>
</svg>
