<svg width="854" height="766" viewBox="0 0 854 766" fill="none" xmlns="http://www.w3.org/2000/svg">
<path d="M714.224 310.186H714.161C714.161 309.734 714.224 309.283 714.224 308.831C714.224 247.24 665.28 197.258 604.827 197.258C597.049 197.258 589.461 198.097 582.189 199.709C560.499 145.922 508.71 108 448.13 108C402.664 108 362.131 129.412 335.572 162.819C317.94 153.674 298.441 148.901 278.66 148.889C213.212 148.889 159.462 199.709 153.202 264.783C82.0624 268.652 24.9611 328.115 24.0125 401.959C23.0008 478.835 83.3903 542.038 158.767 543.005C164.647 543.07 170.339 542.683 176.03 541.973C205.181 604.661 267.721 648 340.251 648C384.01 648 424.101 632.199 455.466 605.951C479.432 624.073 509.026 634.908 541.149 634.908C607.04 634.908 662.498 589.827 679.761 528.236C690.637 531.913 702.209 533.976 714.287 533.976C774.866 533.976 824 483.865 824 422.081C823.937 360.297 774.866 310.186 714.224 310.186Z" fill="url(#paint0_radial_2007_5585)"/>
<circle cx="424" cy="378" r="288" stroke="#A6F4A9" stroke-width="4"/>
<circle cx="424" cy="378" r="228" stroke="#E1FFE3" stroke-width="4"/>
<circle cx="424" cy="378" r="168" stroke="white" stroke-width="4"/>
<path d="M318.508 324H329.008C335.968 324 339.088 327.6 337.408 334.44L332.128 355.56C330.388 362.46 325.468 366 318.568 366H308.008L318.508 324ZM325.108 331.32L318.268 358.68H320.308C322.108 358.68 323.188 357.72 323.668 355.68L329.008 334.26C329.548 332.22 329.008 331.32 327.268 331.32H325.108ZM342.664 352.62L341.584 356.88C341.164 358.68 341.644 359.76 342.904 359.76C344.164 359.76 345.364 358.68 345.784 356.88L346.384 354.42H354.364L353.824 356.46C352.324 362.64 347.344 366.6 341.164 366.6C334.984 366.6 332.164 362.7 333.724 356.46L336.604 344.94C338.164 338.7 342.964 334.8 349.144 334.8C355.264 334.8 358.264 338.76 356.704 344.94L354.784 352.62H342.664ZM344.704 344.52L343.744 348.3H347.944L348.904 344.52C349.324 342.72 348.844 341.64 347.584 341.64C346.324 341.64 345.124 342.72 344.704 344.52ZM359.5 335.4H367.42L364 356.7H364.54L371.74 335.4H379.66L367.6 366H356.32L359.5 335.4ZM383.68 352.62L382.6 356.88C382.18 358.68 382.66 359.76 383.92 359.76C385.18 359.76 386.38 358.68 386.8 356.88L387.4 354.42H395.38L394.84 356.46C393.34 362.64 388.36 366.6 382.18 366.6C376 366.6 373.18 362.7 374.74 356.46L377.62 344.94C379.18 338.7 383.98 334.8 390.16 334.8C396.28 334.8 399.28 338.76 397.72 344.94L395.8 352.62H383.68ZM385.72 344.52L384.76 348.3H388.96L389.92 344.52C390.34 342.72 389.86 341.64 388.6 341.64C387.34 341.64 386.14 342.72 385.72 344.52ZM394.434 366L405.234 322.8H413.214L402.414 366H394.434ZM409.672 344.94C411.112 339 415.612 334.8 422.092 334.8C428.632 334.8 431.212 339.06 429.712 344.94L426.832 356.46C425.392 362.34 420.652 366.6 414.172 366.6C407.692 366.6 405.292 362.4 406.792 356.46L409.672 344.94ZM417.712 344.52L414.592 356.94C414.172 358.68 414.652 359.76 415.912 359.76C417.172 359.76 418.312 358.68 418.732 356.94L421.852 344.52C422.332 342.66 421.792 341.64 420.532 341.64C419.272 341.64 418.192 342.66 417.712 344.52ZM433.986 335.4H441.966L441.006 339.3H441.546C444.306 335.88 446.346 334.8 448.206 334.8C451.806 334.8 453.366 338.34 452.046 343.56L448.446 358.02C447.126 363.18 443.946 366.6 440.586 366.6C438.366 366.6 436.446 365.1 435.846 362.1H435.306L431.286 378.18H423.306L433.986 335.4ZM439.746 344.28L436.506 357.18C436.626 358.38 437.346 359.22 438.306 359.22C439.386 359.22 440.466 358.14 440.826 356.64L443.766 344.76C444.126 343.32 443.646 342.24 442.626 342.24C441.666 342.24 440.466 343.08 439.746 344.28ZM448.339 366L456.019 335.4H463.939L463.099 338.88L463.639 338.82C465.499 336.24 467.719 334.8 469.939 334.8C472.339 334.8 473.779 336.3 474.139 338.88H474.679C476.599 336.24 479.179 334.8 481.459 334.8C484.819 334.8 487.099 337.74 485.779 343.08L480.079 366H472.099L477.559 344.28C477.919 342.78 477.499 341.76 476.479 341.76C475.699 341.76 474.799 342.3 473.839 343.32C473.779 343.44 473.779 343.5 473.779 343.56L468.199 366H460.219L465.679 344.28C466.039 342.78 465.619 341.76 464.599 341.76C463.699 341.76 462.619 342.54 461.839 343.8L456.319 366H448.339ZM493.133 352.62L492.053 356.88C491.633 358.68 492.113 359.76 493.373 359.76C494.633 359.76 495.833 358.68 496.253 356.88L496.853 354.42H504.833L504.293 356.46C502.793 362.64 497.813 366.6 491.633 366.6C485.453 366.6 482.633 362.7 484.193 356.46L487.073 344.94C488.633 338.7 493.433 334.8 499.613 334.8C505.733 334.8 508.733 338.76 507.173 344.94L505.253 352.62H493.133ZM495.173 344.52L494.213 348.3H498.413L499.373 344.52C499.793 342.72 499.313 341.64 498.053 341.64C496.793 341.64 495.593 342.72 495.173 344.52ZM503.827 366L511.447 335.4H519.427L518.527 338.88L519.127 338.82C521.047 336.18 523.327 334.8 525.667 334.8C528.967 334.8 531.007 337.5 529.627 343.08L523.927 366H515.947L521.407 344.22C521.767 342.72 521.287 341.7 520.207 341.7C519.247 341.7 518.167 342.48 517.327 343.68L511.807 366H503.827ZM530.784 342.24L532.464 335.4H535.224L536.844 328.8L544.884 328.32L543.144 335.4H548.304L546.564 342.24H541.464L537.924 356.34C537.324 358.74 538.524 359.52 540.204 359.52C540.804 359.52 541.584 359.4 542.364 359.22L540.744 366.06C538.944 366.42 537.264 366.6 535.824 366.6C530.784 366.6 528.024 364.2 529.884 356.76L533.484 342.24H530.784ZM313.167 397.24L314.847 390.4H317.607L319.227 383.8L327.267 383.32L325.527 390.4H330.687L328.947 397.24H323.847L320.307 411.34C319.707 413.74 320.907 414.52 322.587 414.52C323.187 414.52 323.967 414.4 324.747 414.22L323.127 421.06C321.327 421.42 319.647 421.6 318.207 421.6C313.167 421.6 310.407 419.2 312.267 411.76L315.867 397.24H313.167ZM335.399 407.62L334.319 411.88C333.899 413.68 334.379 414.76 335.639 414.76C336.899 414.76 338.099 413.68 338.519 411.88L339.119 409.42H347.099L346.559 411.46C345.059 417.64 340.079 421.6 333.899 421.6C327.719 421.6 324.899 417.7 326.459 411.46L329.339 399.94C330.899 393.7 335.699 389.8 341.879 389.8C347.999 389.8 350.999 393.76 349.439 399.94L347.519 407.62H335.399ZM337.439 399.52L336.479 403.3H340.679L341.639 399.52C342.059 397.72 341.579 396.64 340.319 396.64C339.059 396.64 337.859 397.72 337.439 399.52ZM359.413 399.52L356.293 411.94C355.813 413.68 356.353 414.76 357.613 414.76C358.873 414.76 360.013 413.68 360.433 411.94L361.693 407.02H369.613L368.533 411.46C366.973 417.64 362.053 421.6 355.873 421.6C349.693 421.6 346.873 417.7 348.433 411.46L351.313 399.94C352.873 393.7 357.613 389.8 363.793 389.8C369.973 389.8 372.913 393.76 371.413 399.94L370.273 404.38H362.353L363.553 399.52C363.973 397.72 363.493 396.64 362.233 396.64C360.973 396.64 359.833 397.72 359.413 399.52ZM368.007 421L378.807 377.8H386.727L382.707 393.88H383.307C385.167 391.18 387.447 389.8 389.847 389.8C393.147 389.8 395.187 392.5 393.807 398.08L388.107 421H380.127L385.527 399.34C385.887 397.84 385.407 396.82 384.327 396.82C383.367 396.82 382.287 397.6 381.507 398.8L375.987 421H368.007ZM389.98 421L397.6 390.4H405.58L404.68 393.88L405.28 393.82C407.2 391.18 409.48 389.8 411.82 389.8C415.12 389.8 417.16 392.5 415.78 398.08L410.08 421H402.1L407.56 399.22C407.92 397.72 407.44 396.7 406.36 396.7C405.4 396.7 404.32 397.48 403.48 398.68L397.96 421H389.98ZM417.172 399.94C418.612 394 423.112 389.8 429.592 389.8C436.132 389.8 438.712 394.06 437.212 399.94L434.332 411.46C432.892 417.34 428.152 421.6 421.672 421.6C415.192 421.6 412.792 417.4 414.292 411.46L417.172 399.94ZM425.212 399.52L422.092 411.94C421.672 413.68 422.152 414.76 423.412 414.76C424.672 414.76 425.812 413.68 426.232 411.94L429.352 399.52C429.832 397.66 429.292 396.64 428.032 396.64C426.772 396.64 425.692 397.66 425.212 399.52ZM433.926 421L444.726 377.8H452.706L441.906 421H433.926ZM449.164 399.94C450.604 394 455.104 389.8 461.584 389.8C468.124 389.8 470.704 394.06 469.204 399.94L466.324 411.46C464.884 417.34 460.144 421.6 453.664 421.6C447.184 421.6 444.784 417.4 446.284 411.46L449.164 399.94ZM457.204 399.52L454.084 411.94C453.664 413.68 454.144 414.76 455.404 414.76C456.664 414.76 457.804 413.68 458.224 411.94L461.344 399.52C461.824 397.66 461.284 396.64 460.024 396.64C458.764 396.64 457.684 397.66 457.204 399.52ZM493.518 390.4L485.058 424.36C483.558 430.18 479.058 433.6 472.818 433.6C466.518 433.6 463.638 430.12 465.078 424.42L465.438 422.92H473.418L473.178 423.94C472.698 425.68 473.178 426.76 474.378 426.76C475.638 426.76 476.778 425.68 477.198 423.82L478.758 417.52H478.218C476.358 420.16 473.958 421.6 471.678 421.6C468.018 421.6 466.458 418.18 467.778 412.96L471.498 398.08C472.758 393.04 475.938 389.8 479.538 389.8C481.818 389.8 483.558 391.18 484.098 393.88H484.698L485.538 390.4H493.518ZM483.438 398.92C483.258 397.66 482.598 396.82 481.698 396.82C480.618 396.82 479.538 397.9 479.118 399.34L475.998 411.88C475.638 413.44 476.058 414.64 477.078 414.64C478.038 414.64 479.238 413.74 480.018 412.48L483.438 398.92ZM496.833 383.44C497.553 380.74 499.533 379.42 502.293 379.42C505.113 379.42 506.553 380.8 505.833 383.44C505.173 386.2 503.133 387.52 500.313 387.52C497.553 387.52 496.173 386.2 496.833 383.44ZM495.693 390.4H503.613L495.993 421H488.013L495.693 390.4ZM509.305 407.62L508.225 411.88C507.805 413.68 508.285 414.76 509.545 414.76C510.805 414.76 512.005 413.68 512.425 411.88L513.025 409.42H521.005L520.465 411.46C518.965 417.64 513.985 421.6 507.805 421.6C501.625 421.6 498.805 417.7 500.365 411.46L503.245 399.94C504.805 393.7 509.605 389.8 515.785 389.8C521.905 389.8 524.905 393.76 523.345 399.94L521.425 407.62H509.305ZM511.345 399.52L510.385 403.3H514.585L515.545 399.52C515.965 397.72 515.485 396.64 514.225 396.64C512.965 396.64 511.765 397.72 511.345 399.52ZM544.899 401.2H536.979L537.399 399.52C537.819 397.72 537.459 396.7 536.139 396.7C534.939 396.7 533.859 397.66 533.439 399.22V399.34C533.019 401.02 533.379 401.68 535.359 402.46L538.719 404.2C542.079 405.7 543.339 407.74 542.319 411.82L542.079 412.66C540.879 417.4 536.079 421.6 529.719 421.6C523.359 421.6 520.899 417.4 522.279 411.82L522.699 410.2H530.619L530.259 411.82C529.779 413.56 530.259 414.64 531.519 414.64C532.779 414.64 533.979 413.62 534.339 412.12V411.94C534.819 410.14 534.459 409.54 532.239 408.7L528.699 407.08C525.399 405.64 524.439 403.54 525.459 399.52L525.639 398.8C526.839 393.94 531.399 389.8 537.759 389.8C544.119 389.8 546.699 394 545.319 399.52L544.899 401.2Z" fill="white"/>
<g filter="url(#filter0_d_2007_5585)">
<path d="M327.842 633.397C329.148 623.443 337.632 616 347.672 616H504.203C516.283 616 525.605 626.626 524.033 638.603L516.158 698.603C514.852 708.557 506.368 716 496.328 716H339.797C327.717 716 318.395 705.374 319.967 693.397L327.842 633.397Z" fill="white"/>
</g>
<g clip-path="url(#clip0_2007_5585)">
<path fill-rule="evenodd" clip-rule="evenodd" d="M387.004 677.494V655.748H389.693L402.477 673.249V655.748H405.033V677.494H402.344L389.561 659.821V677.494H387.004ZM425.852 676.631C424.158 677.287 422.332 677.632 420.406 677.632C412.836 677.632 409.051 673.87 409.051 666.311C409.051 659.166 412.703 655.576 420.008 655.576C422.1 655.576 424.059 655.886 425.852 656.473V658.889C424.059 658.165 422.199 657.819 420.307 657.819C414.596 657.819 411.74 660.65 411.74 666.242C411.74 672.282 414.562 675.285 420.174 675.285C421.07 675.285 422.066 675.147 423.162 674.906V667.622H425.852V676.631ZM430.168 669.107V655.748H432.857V669.107C432.857 673.283 434.85 675.389 438.867 675.389C442.852 675.389 444.877 673.283 444.877 669.107V655.748H447.566V669.107C447.566 674.802 444.678 677.667 438.867 677.667C433.057 677.667 430.168 674.802 430.168 669.107ZM455.07 655.748V675.216H466.027V677.494H452.381V655.748H455.07ZM469.912 677.494H467.09L477.482 652.883L487.875 677.494H484.887L482.197 670.66H475.291L476.021 668.382H481.301L477.383 658.544L469.912 677.494ZM490.764 677.494V655.748H499.695C503.68 655.748 505.672 657.474 505.672 660.96C505.672 663.791 503.713 665.896 499.828 667.243L507 677.494H503.447L496.807 667.726V665.896C500.791 665.241 502.816 663.653 502.816 661.099C502.816 659.096 501.721 658.095 499.496 658.095H493.52V677.494H490.764Z" fill="#B52E31"/>
<path fill-rule="evenodd" clip-rule="evenodd" d="M337 649.949L358.416 642.01L380.396 649.811L376.844 679.255L358.416 689.852L340.287 679.393L337 649.949Z" fill="#E23237"/>
<path fill-rule="evenodd" clip-rule="evenodd" d="M380.396 649.811L358.416 642.01V689.852L376.844 679.255L380.396 649.811Z" fill="#B52E31"/>
<path fill-rule="evenodd" clip-rule="evenodd" d="M358.449 647.602L345.102 678.461L350.082 678.357L352.771 671.385H364.691L367.613 678.426L372.361 678.53L358.449 647.602ZM358.482 657.509L362.998 667.312H354.531L358.482 657.509Z" fill="white"/>
</g>
<g filter="url(#filter1_d_2007_5585)">
<path d="M117.472 531.339C118.336 520.973 127.001 513 137.403 513H247.264C258.965 513 268.167 523.001 267.195 534.661L260.528 614.661C259.664 625.027 250.999 633 240.597 633H130.736C119.035 633 109.833 622.999 110.805 611.339L117.472 531.339Z" fill="white"/>
</g>
<g clip-path="url(#clip1_2007_5585)">
<path fill-rule="evenodd" clip-rule="evenodd" d="M124.244 601.502H128.555V584.011L135.203 599.265C135.992 601.094 137.046 601.739 139.152 601.739C141.258 601.739 142.311 601.094 143.101 599.265L149.748 584.011V601.502H154.026V584.044C154.026 582.35 153.368 581.535 152.019 581.094C148.761 580.044 146.555 580.959 145.569 583.231L139.053 598.248L132.735 583.231C131.781 580.959 129.543 580.044 126.285 581.094C124.903 581.535 124.245 582.349 124.245 584.044V601.502H124.244ZM157.613 587.264H161.891V596.891C161.858 597.433 162.055 598.654 164.425 598.688C165.61 598.721 173.672 598.688 173.738 598.688V587.23H178.049C178.081 587.23 178.049 602.856 178.049 602.924C178.081 606.788 173.409 607.601 171.27 607.67H157.712V604.687C157.712 604.687 171.237 604.721 171.27 604.687C174.034 604.416 173.705 602.993 173.705 602.518V601.365H164.59C160.344 601.298 157.645 599.399 157.613 597.195C157.613 596.992 157.712 587.367 157.613 587.264ZM250.052 576.18C247.42 576.112 245.412 576.349 243.667 577.128C243.175 577.332 242.417 577.332 242.319 577.976C242.582 578.246 242.647 578.687 242.845 579.061C243.273 579.74 243.965 580.654 244.589 581.128C245.248 581.672 245.939 582.213 246.663 582.688C247.979 583.501 249.427 583.942 250.644 584.757C251.401 585.23 252.125 585.842 252.849 586.384C253.178 586.655 253.442 587.062 253.869 587.231V587.164C253.639 586.858 253.573 586.418 253.375 586.077L252.388 585.061C251.435 583.773 250.216 582.62 248.932 581.672C247.912 580.926 245.609 579.875 245.181 578.655C245.148 578.621 245.115 578.621 245.115 578.586C245.839 578.484 246.695 578.214 247.353 578.043C248.473 577.739 249.492 577.806 250.643 577.501C251.171 577.331 251.697 577.196 252.224 577.027V576.721C251.632 576.111 251.237 575.264 250.579 574.722C248.901 573.23 247.057 571.772 245.182 570.552C244.128 569.84 242.845 569.4 241.727 568.824C241.364 568.654 240.705 568.553 240.444 568.214C239.85 567.468 239.555 566.485 239.094 565.603C238.128 563.67 237.228 561.702 236.396 559.705C235.837 558.383 235.441 557.061 234.751 555.84C231.328 550.077 227.675 546.586 221.982 543.162C220.765 542.45 219.318 542.146 217.77 541.773C216.948 541.704 216.125 541.671 215.302 541.602C214.808 541.399 214.282 540.755 213.788 540.45C211.912 539.23 207.075 536.552 205.692 540.077C204.803 542.28 207.008 544.45 207.798 545.569C208.358 546.349 209.048 547.231 209.444 548.111C209.706 548.687 209.739 549.264 209.97 549.874C210.529 551.399 210.99 553.06 211.681 554.45C212.042 555.161 212.437 555.908 212.898 556.552C213.161 556.925 213.655 557.094 213.72 557.704C213.259 558.382 213.227 559.399 212.964 560.246C211.812 564.077 212.24 568.789 213.951 571.636C214.478 572.483 215.695 574.347 217.407 573.636C218.888 572.992 218.559 571.093 218.986 569.365C219.086 568.992 219.02 568.72 219.216 568.449V568.517C219.644 569.466 220.105 570.381 220.566 571.296C221.553 572.957 223.331 574.72 224.845 575.872C225.601 576.482 226.226 577.533 227.246 577.871V577.803H227.148C226.951 577.499 226.654 577.363 226.424 577.125C225.832 576.515 225.174 575.769 224.68 575.092C223.331 573.193 222.114 571.092 220.995 568.922C220.467 567.871 220.006 566.719 219.58 565.668C219.414 565.261 219.414 564.651 219.053 564.414C218.559 565.193 217.869 565.837 217.472 566.753C216.88 568.211 216.782 570.007 216.585 571.838C216.452 571.905 216.485 571.871 216.419 571.939C215.367 571.668 215.004 570.549 214.61 569.6C213.656 567.193 213.458 563.329 214.313 560.549C214.543 559.838 215.565 557.6 215.137 556.923C214.938 556.278 214.313 555.872 213.952 555.364C213.491 554.753 213.063 553.94 212.735 553.228C211.946 551.329 211.583 549.228 210.726 547.33C210.299 546.415 209.641 545.499 209.082 544.72C208.456 543.804 207.765 543.161 207.272 542.076C207.108 541.703 206.878 541.093 207.108 540.685C207.206 540.414 207.306 540.312 207.567 540.211C207.995 539.872 209.214 540.347 209.673 540.515C210.858 541.058 211.878 541.533 212.898 542.244C213.393 542.583 213.887 543.227 214.479 543.397H215.138C216.191 543.634 217.375 543.465 218.362 543.77C220.106 544.312 221.685 545.16 223.101 546.109C227.445 548.923 230.967 552.923 233.401 557.702C233.796 558.481 233.96 559.193 234.29 560.007C234.982 561.669 235.869 563.363 236.56 564.956C237.219 566.583 237.91 568.211 238.864 569.532C239.391 570.244 241.365 570.617 242.254 570.989C242.879 571.26 243.898 571.565 244.492 571.939C245.643 572.616 246.729 573.464 247.815 574.244C248.341 574.621 249.985 575.468 250.052 576.18Z" fill="#00678C"/>
<path fill-rule="evenodd" clip-rule="evenodd" d="M216.485 546.723C216.031 546.723 215.578 546.78 215.137 546.893V546.961H215.235C215.498 547.503 215.959 547.876 216.288 548.35C216.518 548.893 216.782 549.435 217.012 549.978L217.11 549.876C217.571 549.571 217.769 549.029 217.769 548.182C217.605 547.978 217.571 547.741 217.408 547.503C217.177 547.164 216.782 546.994 216.485 546.723Z" fill="#00678C"/>
<path fill-rule="evenodd" clip-rule="evenodd" d="M181.373 601.502H193.713C195.161 601.502 196.576 601.197 197.695 600.654C199.537 599.774 200.459 598.586 200.459 597.027V593.773C200.459 592.52 199.406 591.3 197.4 590.52C196.313 590.079 194.997 589.875 193.713 589.875H188.514C186.77 589.875 185.947 589.332 185.75 588.147C185.717 588.012 185.717 587.876 185.717 587.74V585.74C185.717 585.605 185.717 585.503 185.75 585.368C185.947 584.452 186.408 584.181 187.922 584.046C188.053 584.046 188.218 584.012 188.35 584.012H200.624V581.063H188.547C186.803 581.063 185.914 581.198 185.092 581.435C182.525 582.282 181.406 583.571 181.406 585.843V588.419C181.406 590.419 183.611 592.113 187.264 592.52C187.692 592.52 188.086 592.554 188.514 592.554H192.957C193.122 592.554 193.285 592.554 193.417 592.588C194.8 592.724 195.359 592.961 195.787 593.468C196.017 593.739 196.116 593.977 196.116 594.282V596.859C196.116 597.164 195.919 597.571 195.491 597.909C195.128 598.249 194.502 598.453 193.68 598.52C193.516 598.52 193.385 598.554 193.219 598.554H181.373V601.502ZM227.247 596.348C227.247 599.399 229.419 601.094 233.862 601.433C234.256 601.467 234.684 601.502 235.079 601.502H246.268V598.551H235.012C232.478 598.551 231.524 597.907 231.524 596.348V581.062H227.246V596.348H227.247ZM203.191 596.518V586.01C203.191 583.332 205 581.706 208.62 581.197C208.983 581.128 209.411 581.128 209.772 581.128H217.933C218.327 581.128 218.69 581.128 219.118 581.197C222.705 581.706 224.547 583.332 224.547 586.01V596.518C224.547 598.688 223.758 599.84 221.98 600.586L226.226 604.518H221.224L217.801 601.366L214.345 601.569H209.771C208.982 601.569 208.159 601.468 207.237 601.197C204.507 600.45 203.191 598.959 203.191 596.518ZM207.831 596.248C207.831 596.417 207.864 596.552 207.897 596.723C208.161 597.942 209.279 598.621 210.957 598.621H214.874L211.287 595.298H216.289L219.414 598.18C219.975 597.875 220.369 597.4 220.501 596.79C220.534 596.62 220.534 596.486 220.534 596.349V586.248C220.534 586.146 220.534 586.011 220.501 585.875C220.237 584.723 219.119 584.079 217.473 584.079H210.957C209.049 584.079 207.832 584.926 207.832 586.248L207.831 596.248ZM248.243 601.502H248.868V599.061H249.724V598.552H247.387V599.061H248.243V601.502ZM253.047 601.502H253.606V598.552H252.751L251.995 600.587L251.239 598.552H250.35V601.502H250.942V599.265L251.765 601.502H252.192L253.015 599.265H253.048V601.502H253.047Z" fill="#CE8B2C"/>
</g>
<g filter="url(#filter2_d_2007_5585)">
<path d="M582.398 501.546C583.16 491.092 591.863 483 602.345 483H693.489C705.107 483 714.281 492.867 713.436 504.454L707.602 584.454C706.84 594.908 698.137 603 687.655 603H596.511C584.893 603 575.719 593.133 576.564 581.546L582.398 501.546Z" fill="white"/>
</g>
<g clip-path="url(#clip2_2007_5585)">
<path d="M684.644 524.642C684.644 523.144 684.323 521.82 683.675 520.684C683.039 519.566 682.085 518.63 680.806 517.889C670.25 511.803 659.683 505.735 649.13 499.642C646.285 498 643.526 498.06 640.702 499.726C636.5 502.204 615.463 514.255 609.194 517.886C606.612 519.38 605.356 521.667 605.356 524.64C605.352 536.88 605.356 549.12 605.352 561.36C605.352 562.825 605.659 564.124 606.279 565.243C606.916 566.394 607.882 567.357 609.191 568.114C615.46 571.745 636.5 583.795 640.701 586.274C643.526 587.94 646.285 588 649.131 586.357C659.684 580.264 670.252 574.197 680.81 568.11C682.118 567.353 683.085 566.39 683.722 565.24C684.34 564.121 684.649 562.822 684.649 561.357C684.649 561.357 684.649 536.883 684.644 524.642Z" fill="#A179DC"/>
<path d="M645.12 542.881L606.277 565.243C606.914 566.394 607.881 567.357 609.189 568.114C615.459 571.745 636.499 583.795 640.699 586.274C643.525 587.94 646.283 588 649.129 586.357C659.683 580.264 670.25 574.197 680.808 568.11C682.117 567.353 683.084 566.39 683.72 565.24L645.12 542.881Z" fill="#280068"/>
<path d="M684.644 524.642C684.644 523.144 684.323 521.82 683.675 520.684L645.121 542.881L683.722 565.24C684.34 564.121 684.648 562.822 684.648 561.357C684.648 561.357 684.648 536.883 684.644 524.642Z" fill="#390091"/>
<path d="M667.991 534.521V538.701H672.172V534.521H674.262V538.701H678.442V540.791H674.262V544.971H678.442V547.061H674.262V551.241H672.172V547.061H667.991V551.241H665.901V547.061H661.721V544.971H665.901V540.791H661.721V538.701H665.901V534.521H667.991ZM672.172 540.791H667.991V544.971H672.172V540.791Z" fill="white"/>
<path d="M645.207 513.528C656.111 513.528 665.631 519.449 670.73 528.251L670.68 528.166L657.851 535.552C655.324 531.273 650.69 528.385 645.375 528.325L645.207 528.324C637.102 528.324 630.53 534.895 630.53 543C630.528 545.554 631.195 548.065 632.466 550.281C634.996 554.697 639.752 557.675 645.207 557.675C650.697 557.675 655.48 554.659 657.997 550.196L657.936 550.303L670.745 557.723C665.702 566.45 656.313 572.352 645.536 572.47L645.207 572.472C634.269 572.472 624.723 566.514 619.636 557.666C617.153 553.347 615.732 548.34 615.732 543C615.732 526.723 628.928 513.528 645.207 513.528L645.207 513.528Z" fill="white"/>
</g>
<g filter="url(#filter3_d_2007_5585)">
<path d="M56.3977 351.546C57.16 341.092 65.8634 333 76.3448 333H167.489C179.107 333 188.281 342.867 187.436 354.454L181.602 434.454C180.84 444.908 172.137 453 161.655 453H70.5114C58.8928 453 49.7194 443.133 50.5644 431.546L56.3977 351.546Z" fill="white"/>
</g>
<g clip-path="url(#clip3_2007_5585)">
<path d="M74 348H164V438H74V348Z" fill="#F0DB4F"/>
<path d="M156.635 416.535C155.977 412.429 153.299 408.981 145.368 405.764C142.613 404.498 139.542 403.591 138.627 401.504C138.302 400.289 138.259 399.605 138.464 398.869C139.055 396.482 141.903 395.738 144.162 396.422C145.616 396.91 146.994 398.03 147.824 399.818C151.708 397.303 151.699 397.32 154.411 395.592C153.419 394.052 152.888 393.342 152.238 392.684C149.902 390.074 146.72 388.731 141.63 388.834C140.748 388.945 139.859 389.065 138.978 389.176C136.437 389.818 134.016 391.152 132.595 392.94C128.335 397.774 129.55 406.235 134.734 409.717C139.842 413.55 147.344 414.422 148.303 418.007C149.235 422.396 145.077 423.816 140.945 423.311C137.9 422.678 136.206 421.129 134.375 418.315C131.004 420.265 131.004 420.265 127.539 422.259C128.361 424.055 129.225 424.868 130.602 426.425C137.121 433.038 153.436 432.713 156.362 422.703C156.481 422.361 157.269 420.068 156.635 416.535ZM122.928 389.364H114.51C114.51 396.636 114.476 403.856 114.476 411.128C114.476 415.757 114.715 420 113.962 421.3C112.73 423.858 109.539 423.542 108.085 423.046C106.605 422.318 105.852 421.283 104.98 419.82C104.74 419.401 104.56 419.076 104.5 419.05C102.216 420.445 99.9405 421.848 97.6562 423.242C98.7942 425.578 100.471 427.605 102.618 428.923C105.826 430.848 110.138 431.438 114.647 430.403C117.581 429.547 120.113 427.777 121.44 425.082C123.356 421.548 122.945 417.271 122.928 412.54C122.971 404.823 122.928 397.106 122.928 389.364Z" fill="#323330"/>
</g>
<g filter="url(#filter4_d_2007_5585)">
<path d="M672.398 321.546C673.16 311.092 681.863 303 692.345 303H783.489C795.107 303 804.281 312.867 803.436 324.454L797.602 404.454C796.84 414.908 788.137 423 777.655 423H686.511C674.893 423 665.719 413.133 666.564 401.546L672.398 321.546Z" fill="white"/>
</g>
<g clip-path="url(#clip4_2007_5585)">
<path d="M690.08 363.588C689.825 363.313 689.514 363.094 689.171 362.94C688.828 362.786 688.462 362.714 688.087 362.714C687.713 362.705 687.346 362.786 687.003 362.932C686.661 363.086 686.35 363.305 686.095 363.58C685.832 363.847 685.625 364.163 685.489 364.511C685.354 364.867 685.282 365.24 685.282 365.612C685.274 365.993 685.346 366.365 685.489 366.713C685.633 367.061 685.84 367.377 686.103 367.644C686.358 367.92 686.667 368.138 687.01 368.284C687.353 368.43 687.723 368.502 688.095 368.494C688.467 368.496 688.835 368.422 689.177 368.276C689.519 368.13 689.829 367.915 690.088 367.644C690.359 367.385 690.566 367.069 690.709 366.721C690.853 366.373 690.925 366.001 690.925 365.62C690.925 365.24 690.853 364.867 690.709 364.519C690.558 364.163 690.351 363.847 690.08 363.588ZM723.434 357.014C723.394 358.827 723.481 360.649 723.689 362.454H723.593C723.37 362.009 722.876 361.183 722.119 359.977L703.947 331H698.432V367.992H702.672V341.25C702.72 339.558 702.648 337.866 702.473 336.174H702.632C702.935 336.983 703.326 337.76 703.788 338.489L722.453 367.992H727.674V331H723.434V357.014ZM756.421 363.928H741.438V351.111H754.548V347.209H741.438V334.919H755.504V331H737.094V367.992H756.397L756.421 363.928ZM759.665 331V334.919H770.105V367.992H774.345V334.919H784.905V331H759.665ZM718.11 377.19C717.051 377.619 716.094 378.273 715.304 379.109C714.491 379.991 713.854 381.028 713.439 382.169C713.025 383.311 712.842 384.517 712.889 385.723C712.81 387.958 713.575 390.144 715.041 391.812C715.775 392.597 716.667 393.204 717.655 393.609C718.644 394.014 719.704 394.192 720.764 394.144C722.358 394.2 723.944 393.86 725.386 393.148L725.402 391.261C724.079 392.047 722.573 392.435 721.043 392.395C720.222 392.427 719.401 392.281 718.644 391.966C717.887 391.65 717.201 391.164 716.643 390.549C715.477 389.172 714.877 387.392 714.97 385.578C714.874 383.659 715.52 381.78 716.763 380.339C717.353 379.675 718.078 379.157 718.883 378.801C719.691 378.452 720.563 378.283 721.441 378.307C722.836 378.283 724.207 378.631 725.426 379.319V377.287C724.161 376.769 722.804 376.526 721.441 376.574C720.301 376.558 719.162 376.761 718.11 377.19ZM737.979 382.987C737.446 382.418 736.798 381.972 736.08 381.682C735.362 381.391 734.59 381.262 733.818 381.303C732.997 381.262 732.184 381.4 731.419 381.7C730.654 381.999 729.961 382.452 729.371 383.027C728.797 383.675 728.359 384.428 728.072 385.254C727.785 386.08 727.666 386.946 727.721 387.82C727.642 389.48 728.208 391.107 729.291 392.346C729.833 392.937 730.487 393.407 731.22 393.723C731.953 394.03 732.742 394.184 733.531 394.152C734.336 394.176 735.141 394.022 735.89 393.706C736.64 393.391 737.309 392.913 737.859 392.306C738.977 391.026 739.555 389.351 739.469 387.642C739.565 385.942 739.031 384.282 737.979 382.987ZM736.52 391.302C736.169 391.713 735.731 392.037 735.237 392.249C734.744 392.461 734.21 392.555 733.675 392.524C733.125 392.549 732.583 392.443 732.081 392.233C731.579 392.014 731.132 391.69 730.766 391.269C730.002 390.309 729.618 389.093 729.69 387.861C729.618 386.59 730.001 385.335 730.766 384.331C731.125 383.91 731.571 383.578 732.073 383.351C732.575 383.133 733.125 383.027 733.667 383.052C734.209 383.019 734.743 383.124 735.237 383.343C735.731 383.562 736.169 383.894 736.52 384.315C737.244 385.333 737.597 386.575 737.516 387.828C737.596 389.059 737.245 390.298 736.52 391.302ZM745.757 382.193C745.159 382.736 744.721 383.44 744.506 384.226V381.683H742.513V393.86H744.506V387.65C744.442 386.525 744.729 385.4 745.319 384.444C745.534 384.096 745.821 383.805 746.172 383.602C746.522 383.4 746.913 383.278 747.311 383.27C747.821 383.23 748.331 383.367 748.762 383.659V381.651C748.395 381.529 748.013 381.473 747.63 381.489C746.945 381.481 746.283 381.732 745.757 382.193ZM760.422 387.221C760.517 385.675 760.063 384.153 759.147 382.922C758.692 382.404 758.134 381.991 757.505 381.724C756.875 381.457 756.198 381.335 755.52 381.376C754.771 381.351 754.022 381.505 753.329 381.813C752.643 382.121 752.029 382.582 751.535 383.165C750.453 384.448 749.892 386.1 749.965 387.788C749.862 389.472 750.38 391.14 751.416 392.451C751.918 393.01 752.54 393.447 753.225 393.739C753.91 394.03 754.66 394.152 755.401 394.119C756.875 394.192 758.334 393.787 759.561 392.962V391.132C758.512 391.997 757.206 392.477 755.855 392.492C755.337 392.524 754.811 392.443 754.325 392.249C753.839 392.055 753.392 391.771 753.026 391.391C752.314 390.515 751.952 389.4 752.014 388.266H760.438L760.422 387.221ZM751.998 386.654C752.101 385.691 752.516 384.784 753.169 384.08C753.462 383.76 753.818 383.506 754.213 383.335C754.608 383.163 755.035 383.078 755.464 383.084C755.879 383.06 756.285 383.133 756.668 383.294C757.05 383.456 757.385 383.699 757.656 384.015C758.214 384.768 758.493 385.691 758.453 386.63L751.998 386.654Z" fill="#621EE5"/>
</g>
<g filter="url(#filter5_d_2007_5585)">
<path d="M549.398 141.546C550.16 131.092 558.863 123 569.345 123H660.489C672.107 123 681.281 132.867 680.436 144.454L674.602 224.454C673.84 234.908 665.137 243 654.655 243H563.511C551.893 243 542.719 233.133 543.564 221.546L549.398 141.546Z" fill="white"/>
</g>
<path d="M595.421 217.6H599.205C601.757 217.6 602.879 218.986 602.197 221.714L602.131 222C601.559 224.288 600.063 225.564 598.941 225.674L598.897 225.894C599.931 226.004 600.789 227.412 600.217 229.656L600.173 229.876C599.843 231.196 599.645 232.142 599.601 233H596.543C596.565 232.076 596.807 231.042 597.115 229.854L597.489 228.27C597.687 227.478 597.511 227.126 596.851 227.126H596.125L594.651 233.022H591.571L595.421 217.6ZM597.819 220.284L596.785 224.442H597.489C598.171 224.442 598.567 223.98 598.743 223.232L599.183 221.45C599.381 220.636 599.205 220.284 598.545 220.284H597.819ZM604.256 228.094L603.86 229.656C603.706 230.316 603.882 230.712 604.344 230.712C604.806 230.712 605.246 230.316 605.4 229.656L605.62 228.754H608.546L608.348 229.502C607.798 231.768 605.972 233.22 603.706 233.22C601.44 233.22 600.406 231.79 600.978 229.502L602.034 225.278C602.606 222.99 604.366 221.56 606.632 221.56C608.876 221.56 609.976 223.012 609.404 225.278L608.7 228.094H604.256ZM605.004 225.124L604.652 226.51H606.192L606.544 225.124C606.698 224.464 606.522 224.068 606.06 224.068C605.598 224.068 605.158 224.464 605.004 225.124ZM614.579 225.102C614.755 224.464 614.579 224.068 614.117 224.068C613.677 224.068 613.281 224.464 613.105 225.102L612.775 226.444H609.849L610.157 225.278C610.707 222.99 612.445 221.56 614.711 221.56C616.955 221.56 618.033 223.012 617.461 225.278L615.525 233H612.599L612.885 231.9H612.797C612.005 232.78 611.147 233.22 610.311 233.22C609.013 233.22 608.353 232.23 608.727 230.778L609.079 229.348C609.431 227.896 610.773 226.928 612.445 226.928H614.117L614.579 225.102ZM613.281 230.272L613.765 228.358H613.259C612.577 228.358 612.159 228.622 612.027 229.172L611.785 230.14C611.675 230.624 611.829 230.932 612.247 230.932C612.621 230.932 613.017 230.69 613.281 230.272ZM621.096 225.124L619.952 229.678C619.776 230.316 619.974 230.712 620.436 230.712C620.898 230.712 621.316 230.316 621.47 229.678L621.932 227.874H624.836L624.44 229.502C623.868 231.768 622.064 233.22 619.798 233.22C617.532 233.22 616.498 231.79 617.07 229.502L618.126 225.278C618.698 222.99 620.436 221.56 622.702 221.56C624.968 221.56 626.046 223.012 625.496 225.278L625.078 226.906H622.174L622.614 225.124C622.768 224.464 622.592 224.068 622.13 224.068C621.668 224.068 621.25 224.464 621.096 225.124ZM626.075 224.288L626.691 221.78H627.703L628.297 219.36L631.245 219.184L630.607 221.78H632.499L631.861 224.288H629.991L628.693 229.458C628.473 230.338 628.913 230.624 629.529 230.624C629.749 230.624 630.035 230.58 630.321 230.514L629.727 233.022C629.067 233.154 628.451 233.22 627.923 233.22C626.075 233.22 625.063 232.34 625.745 229.612L627.065 224.288H626.075Z" fill="black"/>
<path d="M611.999 179.214C616.233 179.214 619.664 175.76 619.664 171.5C619.664 167.24 616.233 163.786 611.999 163.786C607.766 163.786 604.334 167.24 604.334 171.5C604.334 175.76 607.766 179.214 611.999 179.214Z" fill="#61DAFB"/>
<path d="M612.002 187.304C634.717 187.304 653.132 180.228 653.132 171.5C653.132 162.772 634.717 155.696 612.002 155.696C589.286 155.696 570.871 162.772 570.871 171.5C570.871 180.228 589.286 187.304 612.002 187.304Z" stroke="#61DAFB" stroke-width="4"/>
<path d="M598.402 179.402C609.759 199.199 625.056 211.71 632.567 207.346C640.078 202.981 636.96 183.395 625.602 163.598C614.244 143.801 598.948 131.29 591.437 135.655C583.925 140.019 587.044 159.605 598.402 179.402Z" stroke="#61DAFB" stroke-width="4"/>
<path d="M598.4 163.598C587.042 183.395 583.924 202.981 591.435 207.346C598.946 211.71 614.243 199.199 625.601 179.402C636.959 159.605 640.077 140.019 632.566 135.655C625.054 131.29 609.758 143.801 598.4 163.598Z" stroke="#61DAFB" stroke-width="4"/>
<g filter="url(#filter6_d_2007_5585)">
<path d="M169.398 171.546C170.16 161.092 178.863 153 189.345 153H280.489C292.107 153 301.281 162.867 300.436 174.454L294.602 254.454C293.84 264.908 285.137 273 274.655 273H183.511C171.893 273 162.719 263.133 163.564 251.546L169.398 171.546Z" fill="white"/>
</g>
<g clip-path="url(#clip5_2007_5585)">
<path d="M262.329 215.018C262.329 214.874 262.287 214.771 262.202 214.703C262.108 214.631 261.945 214.592 261.718 214.592H261.391V215.45H261.785C262.149 215.45 262.329 215.306 262.329 215.018ZM262.838 216.806H262.389L262.103 216.203C261.958 215.901 261.802 215.749 261.633 215.749H261.391V216.806H261.022V214.291H261.762C262.091 214.291 262.339 214.359 262.508 214.501C262.652 214.624 262.724 214.781 262.724 214.976C262.724 215.149 262.665 215.295 262.547 215.415C262.432 215.538 262.267 215.62 262.055 215.663V215.674C262.202 215.707 262.349 215.861 262.491 216.138L262.838 216.808V216.806ZM263.657 215.573C263.657 215.079 263.48 214.661 263.128 214.33C262.774 213.998 262.343 213.832 261.834 213.832C261.309 213.832 260.872 213.998 260.526 214.332C260.179 214.668 260.007 215.083 260.007 215.573C260.007 216.075 260.186 216.494 260.543 216.828C260.895 217.162 261.327 217.327 261.834 217.327C262.339 217.327 262.77 217.161 263.125 216.823C263.48 216.49 263.657 216.072 263.657 215.573ZM263.906 215.563C263.906 216.118 263.706 216.584 263.305 216.959C262.904 217.337 262.412 217.525 261.824 217.525C261.232 217.525 260.74 217.34 260.349 216.975C259.958 216.606 259.764 216.141 259.764 215.578C259.764 215.027 259.962 214.563 260.359 214.183C260.756 213.803 261.25 213.614 261.841 213.614C262.421 213.614 262.907 213.795 263.301 214.157C263.705 214.528 263.906 214.995 263.906 215.563Z" fill="black"/>
<path d="M207.671 222.576H206.396V215.6C206.396 215.049 206.434 214.378 206.502 213.586H206.473C206.354 214.049 206.245 214.385 206.148 214.592L202.442 222.576H201.821L198.107 214.65C198.002 214.429 197.893 214.073 197.782 213.586H197.754C197.793 214.003 197.815 214.677 197.815 215.613V222.576H196.586V212.187H198.268L201.602 219.431C201.854 219.977 202.016 220.392 202.095 220.675H202.148C202.365 220.108 202.538 219.682 202.669 219.401L206.075 212.187H207.671V222.576H207.671Z" fill="black"/>
<path d="M211.594 222.576H210.354V215.157H211.594V222.576ZM211.808 212.497C211.808 212.716 211.727 212.899 211.568 213.048C211.411 213.198 211.217 213.274 210.99 213.274C210.768 213.274 210.576 213.201 210.418 213.057C210.259 212.911 210.182 212.725 210.182 212.497C210.182 212.283 210.26 212.1 210.418 211.952C210.576 211.803 210.768 211.732 210.99 211.732C211.217 211.732 211.411 211.803 211.568 211.952C211.727 212.1 211.808 212.283 211.808 212.497Z" fill="black"/>
<path d="M219.34 222.232C218.745 222.582 218.035 222.755 217.214 222.755C216.101 222.755 215.205 222.402 214.521 221.696C213.856 221.012 213.521 220.128 213.521 219.045C213.521 217.83 213.885 216.846 214.618 216.099C215.347 215.35 216.328 214.976 217.562 214.976C218.236 214.976 218.834 215.102 219.357 215.352V216.571C218.778 216.182 218.165 215.99 217.508 215.99C216.718 215.99 216.075 216.254 215.576 216.78C215.057 217.319 214.794 218.039 214.794 218.938C214.794 219.801 215.034 220.484 215.511 220.989C215.99 221.49 216.627 221.742 217.431 221.742C218.109 221.742 218.745 221.529 219.34 221.104V222.232Z" fill="black"/>
<path d="M225.266 216.36C225.047 216.2 224.733 216.121 224.317 216.121C223.812 216.121 223.388 216.337 223.045 216.773C222.655 217.259 222.461 217.933 222.461 218.793V222.575H221.219V215.156H222.461V216.686H222.491C222.674 216.145 222.955 215.728 223.332 215.433C223.684 215.163 224.083 215.027 224.521 215.027C224.852 215.027 225.098 215.061 225.266 215.128V216.36L225.266 216.36Z" fill="black"/>
<path d="M232.191 218.88C232.191 217.93 231.967 217.204 231.518 216.707C231.083 216.229 230.474 215.989 229.691 215.989C228.919 215.989 228.299 216.231 227.836 216.715C227.346 217.232 227.101 217.962 227.101 218.909C227.101 219.796 227.334 220.493 227.805 220.991C228.272 221.491 228.901 221.741 229.691 221.741C230.508 221.741 231.133 221.487 231.561 220.981C231.981 220.486 232.191 219.787 232.191 218.88ZM233.465 218.838C233.465 220.02 233.116 220.97 232.42 221.682C231.721 222.396 230.781 222.754 229.599 222.754C228.434 222.754 227.507 222.396 226.827 221.682C226.161 220.993 225.826 220.083 225.826 218.952C225.826 217.661 226.204 216.666 226.963 215.96C227.665 215.304 228.604 214.975 229.78 214.975C230.937 214.975 231.842 215.319 232.493 216.003C233.139 216.69 233.465 217.635 233.465 218.838Z" fill="black"/>
<path d="M239.625 220.591C239.625 221.198 239.388 221.701 238.912 222.103C238.393 222.537 237.68 222.754 236.783 222.754C236.048 222.754 235.404 222.607 234.857 222.308V221.031C235.466 221.503 236.137 221.741 236.875 221.741C237.858 221.741 238.351 221.395 238.351 220.705C238.351 220.415 238.243 220.174 238.025 219.989C237.806 219.799 237.382 219.573 236.751 219.307C236.101 219.035 235.638 218.756 235.365 218.466C235.037 218.122 234.872 217.676 234.872 217.126C234.872 216.51 235.129 215.998 235.638 215.59C236.149 215.18 236.804 214.975 237.609 214.975C238.226 214.975 238.778 215.091 239.268 215.323V216.519C238.757 216.165 238.172 215.989 237.507 215.989C237.096 215.989 236.765 216.087 236.519 216.278C236.271 216.473 236.146 216.722 236.146 217.026C236.146 217.354 236.25 217.61 236.458 217.793C236.642 217.962 237.033 218.168 237.622 218.408C238.285 218.674 238.764 218.949 239.056 219.23C239.434 219.586 239.625 220.04 239.625 220.591Z" fill="black"/>
<path d="M247.217 218.88C247.217 217.93 246.992 217.204 246.542 216.707C246.108 216.229 245.498 215.989 244.716 215.989C243.944 215.989 243.325 216.231 242.859 216.715C242.37 217.232 242.127 217.962 242.127 218.909C242.127 219.797 242.36 220.493 242.826 220.991C243.299 221.491 243.928 221.741 244.716 221.741C245.534 221.741 246.158 221.487 246.587 220.981C247.007 220.486 247.217 219.787 247.217 218.88ZM248.493 218.838C248.493 220.02 248.141 220.97 247.444 221.682C246.748 222.396 245.807 222.754 244.626 222.754C243.46 222.754 242.532 222.396 241.852 221.682C241.187 220.993 240.852 220.083 240.852 218.952C240.852 217.661 241.233 216.666 241.987 215.96C242.689 215.304 243.629 214.975 244.807 214.975C245.964 214.975 246.867 215.32 247.517 216.003C248.164 216.69 248.493 217.635 248.493 218.838Z" fill="black"/>
<path d="M253.967 212.636C253.723 212.507 253.451 212.441 253.142 212.441C252.272 212.441 251.841 212.964 251.841 214.013V215.157H253.66V216.163H251.841V222.575H250.597V216.163H249.277V215.157H250.597V213.954C250.597 213.138 250.859 212.497 251.391 212.035C251.847 211.634 252.404 211.435 253.067 211.435C253.451 211.435 253.75 211.479 253.967 211.564V212.636Z" fill="black"/>
<path d="M258.87 222.501C258.577 222.662 258.186 222.742 257.703 222.742C256.348 222.742 255.671 222.012 255.671 220.552V216.164H254.34V215.156H255.671V213.346C256.068 213.227 256.481 213.096 256.916 212.961V215.156H258.87V216.164H256.916V220.35C256.916 220.848 257.001 221.204 257.179 221.41C257.359 221.623 257.652 221.727 258.067 221.727C258.376 221.727 258.643 221.648 258.87 221.488V222.501Z" fill="black"/>
<path d="M191.716 251.531C191.716 252.112 191.499 252.615 191.061 253.04C190.624 253.463 190.093 253.676 189.471 253.676C188.862 253.676 188.345 253.463 187.921 253.04C187.496 252.615 187.285 252.112 187.285 251.531C187.285 250.933 187.496 250.429 187.921 250.011C188.345 249.592 188.862 249.384 189.471 249.384C190.093 249.384 190.624 249.594 191.061 250.019C191.499 250.444 191.716 250.948 191.716 251.531Z" fill="black"/>
<path d="M219.531 253.239H215.479L200.772 231.528C200.428 231.006 200.132 230.438 199.881 229.819H199.76C199.865 230.4 199.918 231.648 199.918 233.56V253.239H196.578V226.001H200.913L215.18 247.37C215.748 248.217 216.136 248.825 216.333 249.191H216.412C216.28 248.407 216.211 247.071 216.211 245.186V226.001H219.531V253.239H219.531Z" fill="black"/>
<path d="M240.942 253.239H225.84V226.001H240.286V228.887H229.177V237.948H239.471V240.836H229.177V250.352H240.942V253.239Z" fill="black"/>
<path d="M263.849 228.887H255.641V253.24H252.302V228.887H244.078V225.999H263.849V228.887Z" fill="black"/>
<path d="M218.398 178.953C221.62 188.371 222.841 205.173 232.263 205.173C232.98 205.173 233.705 205.106 234.432 204.974C225.868 203.065 224.853 186.446 219.626 177.839C219.216 178.195 218.81 178.566 218.398 178.953Z" fill="url(#paint1_linear_2007_5585)"/>
<path d="M219.627 177.839C224.853 186.446 225.868 203.065 234.433 204.974C235.106 204.856 235.78 204.677 236.456 204.452C228.768 200.851 226.643 184.713 220.708 176.943C220.349 177.229 219.988 177.529 219.627 177.839Z" fill="url(#paint2_linear_2007_5585)"/>
<path d="M227.156 172.721C226.44 172.721 225.714 172.788 224.985 172.92C223.079 173.264 221.142 174.049 219.189 175.236C219.723 175.739 220.23 176.315 220.708 176.943C222.693 175.368 224.666 174.204 226.631 173.504C227.369 173.243 228.104 173.047 228.841 172.918C228.309 172.788 227.748 172.721 227.156 172.721Z" fill="#14559A"/>
<path d="M242.457 201.132C243.244 200.535 244.032 199.873 244.821 199.152C241.547 189.777 240.376 172.735 230.888 172.735C230.209 172.735 229.525 172.795 228.842 172.916C237.484 174.971 238.591 192.945 242.457 201.132Z" fill="url(#paint3_linear_2007_5585)"/>
<path d="M228.841 172.917C228.309 172.788 227.749 172.72 227.156 172.72L230.887 172.734C230.209 172.734 229.524 172.794 228.841 172.916" fill="#3092C4"/>
<path d="M242.291 203.124C241.92 202.786 241.568 202.415 241.221 202.019C239.625 203.099 238.035 203.918 236.455 204.452C237.017 204.714 237.607 204.909 238.232 205.03C238.717 205.125 239.218 205.173 239.746 205.173C241.519 205.173 242.921 204.973 244.114 204.426C243.457 204.086 242.855 203.646 242.291 203.124Z" fill="#1969BC"/>
<path d="M226.633 173.506C234.374 177.376 235.047 194.902 241.223 202.019C241.637 201.74 242.047 201.444 242.457 201.132C238.591 192.945 237.485 174.97 228.844 172.916C228.107 173.048 227.37 173.243 226.633 173.506Z" fill="url(#paint4_linear_2007_5585)"/>
<path d="M220.707 176.943C226.642 184.713 228.767 200.851 236.455 204.452C238.035 203.918 239.625 203.099 241.221 202.019C235.044 194.902 234.372 177.376 226.631 173.506C224.665 174.204 222.693 175.368 220.707 176.943Z" fill="url(#paint5_linear_2007_5585)"/>
<path d="M214.602 178.726C213.671 180.737 212.721 183.38 211.572 186.829C213.857 183.752 216.134 181.101 218.399 178.953C218.087 178.036 217.752 177.191 217.391 176.438C216.465 177.115 215.532 177.878 214.602 178.726Z" fill="url(#paint6_linear_2007_5585)"/>
<path d="M218.214 175.858C217.941 176.045 217.667 176.236 217.391 176.438C217.751 177.191 218.085 178.036 218.397 178.953C218.808 178.568 219.216 178.196 219.625 177.84C219.186 177.119 218.72 176.454 218.214 175.858Z" fill="#2B74B1"/>
<path d="M219.19 175.236C218.865 175.433 218.541 175.64 218.215 175.857C218.721 176.454 219.187 177.119 219.627 177.841C219.988 177.529 220.348 177.228 220.708 176.943C220.231 176.315 219.723 175.739 219.19 175.236Z" fill="#125A9E"/>
<path d="M271.989 172.004C267.611 188.143 258.467 201.106 250.801 204.375H250.786C250.647 204.435 250.509 204.49 250.372 204.544C250.353 204.555 250.336 204.556 250.322 204.562C250.282 204.578 250.244 204.59 250.204 204.605C250.185 204.616 250.168 204.62 250.151 204.626C250.086 204.648 250.023 204.667 249.96 204.691C249.932 204.702 249.906 204.709 249.88 204.718C249.852 204.728 249.819 204.739 249.786 204.747C249.757 204.758 249.727 204.766 249.694 204.778C249.666 204.789 249.637 204.794 249.612 204.804C249.556 204.82 249.504 204.833 249.448 204.852C249.425 204.852 249.403 204.864 249.379 204.869C249.344 204.88 249.305 204.888 249.268 204.898C249.242 204.909 249.221 204.912 249.193 204.918C249.154 204.929 249.111 204.939 249.072 204.948C249.021 204.958 248.975 204.969 248.926 204.978C249.272 205.101 249.633 205.163 250.023 205.163C257.292 205.163 264.622 192.709 276.749 172H271.987L271.989 172.004Z" fill="url(#paint7_linear_2007_5585)"/>
<path d="M209.993 173.376C209.998 173.376 210.004 173.365 210.006 173.365C210.012 173.365 210.021 173.365 210.024 173.354H210.033C210.073 173.341 210.111 173.326 210.151 173.311C210.161 173.311 210.166 173.311 210.174 173.3C210.184 173.3 210.194 173.29 210.204 173.288C210.247 173.275 210.29 173.26 210.331 173.245H210.338C210.434 173.218 210.523 173.184 210.616 173.152C210.63 173.152 210.642 173.141 210.658 173.141C210.697 173.129 210.737 173.116 210.777 173.107C210.796 173.096 210.815 173.096 210.832 173.09C210.874 173.078 210.914 173.065 210.953 173.056C210.97 173.056 210.986 173.045 210.999 173.044C211.133 173.009 211.265 172.976 211.399 172.945C211.417 172.945 211.433 172.934 211.453 172.933C211.492 172.922 211.528 172.917 211.57 172.911C211.587 172.9 211.607 172.9 211.627 172.895C211.666 172.884 211.703 172.883 211.745 172.874H211.772C211.853 172.858 211.935 172.845 212.015 172.831H212.064C212.103 172.82 212.138 172.819 212.176 172.812C212.198 172.812 212.22 172.801 212.24 172.801C212.276 172.801 212.312 172.79 212.347 172.786C212.366 172.786 212.385 172.786 212.406 172.775C212.491 172.764 212.579 172.759 212.668 172.753C212.416 172.729 212.158 172.714 211.895 172.714C203.708 172.714 192.429 187.234 187.348 206.039H188.327C189.953 203.267 191.414 200.644 192.749 198.183C196.308 184.864 203.556 175.78 209.994 173.374" fill="url(#paint8_linear_2007_5585)"/>
<path d="M214.602 178.726C215.532 177.878 216.465 177.115 217.391 176.438C217.18 175.995 216.961 175.585 216.727 175.21C215.978 176.079 215.293 177.225 214.602 178.726Z" fill="#0D82CA"/>
<path d="M215.275 173.486C215.81 173.915 216.289 174.505 216.728 175.211C216.866 175.049 217.005 174.899 217.15 174.759C216.542 174.216 215.885 173.771 215.172 173.435C215.201 173.451 215.229 173.463 215.259 173.475C215.259 173.475 215.271 173.486 215.276 173.486" fill="#0D82CA"/>
<path d="M192.748 198.184C200.213 184.434 203.75 175.731 209.993 173.375C203.556 175.783 196.307 184.867 192.748 198.184Z" fill="url(#paint9_linear_2007_5585)"/>
<path d="M217.149 174.758C217.004 174.9 216.866 175.048 216.727 175.211C216.961 175.586 217.179 175.994 217.392 176.438C217.668 176.236 217.943 176.045 218.216 175.858C217.878 175.459 217.522 175.09 217.149 174.758Z" fill="#127BCA"/>
<path d="M196.137 205.979C196.091 205.99 196.045 205.99 196.002 205.994H195.976C195.937 205.994 195.897 206.005 195.861 206.005H195.842C195.749 206.016 195.657 206.016 195.568 206.023H195.539C203.095 205.821 206.548 202.205 208.262 196.96C209.564 192.984 210.634 189.634 211.572 186.824C208.407 191.082 205.228 196.157 202.032 201.843C200.491 204.584 198.147 205.728 196.137 205.973" fill="url(#paint10_linear_2007_5585)"/>
<path d="M196.139 205.976C198.149 205.731 200.492 204.588 202.034 201.846C205.23 196.161 208.41 191.084 211.572 186.827C212.722 183.375 213.671 180.734 214.602 178.723C208.301 184.457 201.975 193.991 196.139 205.973" fill="url(#paint11_linear_2007_5585)"/>
<path d="M192.749 198.185C191.413 200.646 189.952 203.269 188.326 206.041H191.174C191.551 203.288 192.086 200.663 192.749 198.186" fill="#05A1E6"/>
<path d="M212.406 172.782C212.383 172.782 212.366 172.793 212.345 172.793C212.311 172.803 212.275 172.803 212.239 172.807C212.218 172.807 212.197 172.807 212.176 172.818C212.137 172.829 212.101 172.83 212.064 172.837C212.046 172.837 212.029 172.837 212.015 172.848C211.933 172.861 211.852 172.875 211.772 172.888H211.744C211.703 172.899 211.665 172.905 211.627 172.91C211.606 172.921 211.586 172.921 211.568 172.926C211.529 172.936 211.49 172.941 211.453 172.948C211.432 172.959 211.417 172.959 211.398 172.96C211.264 172.99 211.132 173.023 210.998 173.059C210.984 173.059 210.969 173.069 210.952 173.072C210.912 173.083 210.873 173.094 210.831 173.106C210.814 173.117 210.794 173.117 210.777 173.121C210.737 173.132 210.696 173.143 210.657 173.155C210.642 173.155 210.629 173.166 210.614 173.166C210.522 173.199 210.432 173.232 210.337 173.259C210.297 173.271 210.253 173.287 210.21 173.301C210.193 173.312 210.177 173.315 210.157 173.322C210.117 173.334 210.077 173.35 210.039 173.364C210.025 173.375 210.011 173.376 210.001 173.382C203.758 175.737 200.221 184.44 192.756 198.191C192.093 200.667 191.557 203.292 191.182 206.045H191.581C192.707 206.045 193.025 206.034 194.32 206.034H194.386H194.579H194.645H194.664H194.73H194.767H194.793H194.845H195.006H195.167H195.302H195.338H195.575C195.665 206.024 195.757 206.024 195.85 206.017H195.867C195.906 206.017 195.945 206.006 195.982 206.006H196.01C196.051 206.006 196.099 205.995 196.145 205.99C201.981 194.008 208.307 184.474 214.608 178.74C215.301 177.239 215.984 176.093 216.732 175.226C216.295 174.52 215.816 173.929 215.281 173.5C215.281 173.5 215.267 173.5 215.266 173.489C215.235 173.477 215.207 173.462 215.177 173.448C215.146 173.433 215.12 173.421 215.089 173.405C215.062 173.394 215.03 173.38 215.003 173.366C214.965 173.355 214.935 173.339 214.902 173.325C214.875 173.314 214.85 173.303 214.823 173.292C214.767 173.271 214.711 173.249 214.658 173.226C214.633 173.215 214.61 173.209 214.587 173.201C214.548 173.187 214.504 173.17 214.463 173.153C214.443 173.143 214.42 173.14 214.397 173.132C214.338 173.114 214.281 173.094 214.226 173.076H214.212C214.146 173.055 214.081 173.04 214.013 173.023C213.998 173.012 213.985 173.012 213.969 173.009C213.91 172.994 213.858 172.979 213.802 172.964C213.788 172.964 213.775 172.953 213.763 172.953C213.628 172.919 213.489 172.892 213.348 172.867C213.333 172.867 213.319 172.856 213.305 172.856C213.244 172.845 213.185 172.835 213.125 172.828C213.111 172.817 213.102 172.817 213.089 172.817C213.017 172.806 212.947 172.799 212.876 172.791H212.839C212.782 172.78 212.728 172.779 212.675 172.773C212.584 172.784 212.498 172.789 212.413 172.796" fill="url(#paint12_linear_2007_5585)"/>
<path d="M254.889 180.939C253.453 185.337 252.29 188.965 251.277 191.95C255.218 186.766 259.1 180.245 262.797 172.719C258.485 174.013 256.184 176.976 254.889 180.939Z" fill="url(#paint13_linear_2007_5585)"/>
<path d="M251.402 204.099C251.2 204.197 250.999 204.29 250.801 204.374C258.467 201.106 267.611 188.143 271.989 172.003H271.102C261.043 189.179 257.808 200.677 251.402 204.099Z" fill="url(#paint14_linear_2007_5585)"/>
<path d="M246.397 202.657C248.065 200.711 249.423 197.403 251.278 191.95C249.139 194.76 246.985 197.174 244.83 199.144C244.83 199.155 244.83 199.155 244.818 199.162C245.289 200.508 245.805 201.697 246.393 202.657" fill="#079AE1"/>
<path d="M246.396 202.657C245.828 203.319 245.228 203.824 244.559 204.198C244.412 204.279 244.264 204.356 244.113 204.426C244.819 204.79 245.59 205.033 246.452 205.131C246.579 205.143 246.704 205.154 246.835 205.163H246.858C246.917 205.163 246.979 205.163 247.042 205.173H247.067H247.256H247.459H247.522H247.666C247.689 205.173 247.713 205.173 247.736 205.163C247.781 205.163 247.828 205.163 247.874 205.152H247.89H247.942C247.989 205.152 248.041 205.141 248.091 205.136H248.103C248.118 205.136 248.134 205.125 248.149 205.125C248.202 205.114 248.257 205.11 248.308 205.102H248.356C248.414 205.091 248.475 205.084 248.535 205.074H248.547H248.564C248.685 205.051 248.803 205.03 248.922 205.001C247.933 204.655 247.105 203.838 246.391 202.676" fill="#1969BC"/>
<path d="M232.262 205.173C232.979 205.173 233.704 205.106 234.431 204.973C235.104 204.856 235.778 204.677 236.454 204.452C237.016 204.714 237.606 204.91 238.23 205.03C238.714 205.125 239.218 205.173 239.745 205.173H232.262Z" fill="#1E5CB3"/>
<path d="M239.747 205.173C241.519 205.173 242.922 204.973 244.114 204.426C244.82 204.79 245.59 205.033 246.453 205.131C246.58 205.143 246.705 205.154 246.835 205.163H246.859C246.917 205.163 246.979 205.163 247.043 205.174H247.069H247.257H239.742L239.747 205.173Z" fill="#1E5CB3"/>
<path d="M247.262 205.173H247.466H247.529H247.672C247.696 205.173 247.719 205.173 247.742 205.163C247.787 205.163 247.834 205.163 247.881 205.152H247.896H247.949C247.996 205.152 248.048 205.141 248.097 205.136H248.11C248.125 205.136 248.14 205.126 248.155 205.126C248.208 205.115 248.263 205.11 248.314 205.102C248.332 205.102 248.345 205.102 248.364 205.092C248.422 205.081 248.483 205.075 248.544 205.064H248.555H248.572C248.693 205.042 248.811 205.02 248.93 204.991C249.277 205.114 249.638 205.176 250.027 205.176L247.264 205.187L247.262 205.173Z" fill="#1D60B5"/>
<path d="M244.821 199.162V199.151C244.032 199.872 243.244 200.534 242.458 201.131C242.046 201.443 241.637 201.739 241.223 202.018C241.569 202.414 241.921 202.785 242.292 203.123C242.856 203.645 243.458 204.085 244.115 204.424C244.265 204.354 244.414 204.277 244.56 204.196C245.23 203.822 245.831 203.318 246.399 202.656C245.81 201.696 245.294 200.507 244.824 199.16" fill="#175FAB"/>
<path d="M268.293 172.004H264.563H264.192H263.841H263.828C263.586 172.014 263.352 172.022 263.12 172.037C263.011 172.261 262.899 172.485 262.791 172.71C259.095 180.236 255.213 186.758 251.272 191.942C249.419 197.394 248.058 200.702 246.391 202.648C247.104 203.811 247.933 204.629 248.92 204.975C248.948 204.964 248.971 204.964 248.997 204.958H249.013C249.031 204.958 249.049 204.948 249.068 204.948C249.108 204.937 249.151 204.93 249.192 204.918C249.217 204.907 249.239 204.906 249.265 204.898C249.302 204.887 249.341 204.879 249.376 204.871C249.399 204.86 249.422 204.856 249.445 204.852C249.502 204.834 249.554 204.821 249.608 204.804C249.634 204.794 249.662 204.785 249.69 204.778C249.722 204.767 249.754 204.759 249.783 204.746C249.816 204.735 249.849 204.73 249.877 204.718C249.903 204.707 249.931 204.7 249.955 204.69C250.02 204.668 250.083 204.649 250.148 204.625C250.165 204.625 250.182 204.61 250.201 204.606C250.24 204.591 250.28 204.579 250.319 204.562C250.333 204.552 250.35 204.55 250.369 204.545C250.504 204.491 250.644 204.436 250.783 204.376H250.798C250.996 204.292 251.197 204.198 251.397 204.101C257.805 200.679 261.04 189.181 271.099 172.005H268.29L268.293 172.004Z" fill="url(#paint15_linear_2007_5585)"/>
<path d="M212.668 172.758C212.684 172.758 212.698 172.758 212.714 172.769C212.753 172.769 212.792 172.769 212.83 172.781H212.869C212.94 172.792 213.01 172.798 213.082 172.808C213.095 172.808 213.107 172.808 213.118 172.819C213.177 172.83 213.237 172.839 213.298 172.847C213.311 172.847 213.328 172.858 213.342 172.858C213.48 172.885 213.621 172.912 213.756 172.946C213.769 172.946 213.782 172.957 213.794 172.957C213.851 172.97 213.903 172.987 213.961 173.002C213.978 173.002 213.991 173.013 214.007 173.015C214.074 173.032 214.137 173.048 214.204 173.069C214.206 173.069 214.21 173.069 214.218 173.08C214.274 173.096 214.332 173.118 214.391 173.136C214.414 173.147 214.435 173.152 214.457 173.157C214.497 173.174 214.542 173.19 214.58 173.206C214.603 173.206 214.626 173.221 214.651 173.229C214.704 173.252 214.76 173.273 214.815 173.295C214.843 173.306 214.868 173.318 214.895 173.328C214.927 173.343 214.96 173.357 214.994 173.368C215.023 173.381 215.055 173.396 215.082 173.408C215.112 173.423 215.141 173.435 215.17 173.451C215.883 173.786 216.54 174.233 217.148 174.774C217.372 174.549 217.607 174.347 217.85 174.165C216.52 173.264 215.013 172.75 213.275 172.75C213.073 172.75 212.872 172.761 212.668 172.775" fill="#7DCBEC"/>
<path d="M217.148 174.758C217.521 175.09 217.877 175.459 218.215 175.858C218.542 175.641 218.865 175.432 219.19 175.237C218.764 174.83 218.316 174.464 217.849 174.149C217.606 174.33 217.373 174.533 217.148 174.758Z" fill="#5EC5ED"/>
<path d="M212.668 172.758C212.872 172.742 213.073 172.735 213.275 172.735C215.013 172.735 216.52 173.249 217.85 174.149C219.253 173.091 220.95 172.721 223.306 172.721H211.895C212.158 172.721 212.415 172.736 212.668 172.758Z" fill="url(#paint16_linear_2007_5585)"/>
<path d="M223.306 172.721C220.949 172.721 219.253 173.091 217.85 174.149C218.315 174.464 218.764 174.829 219.19 175.236C221.144 174.049 223.079 173.263 224.987 172.919C225.714 172.789 226.44 172.721 227.156 172.721H223.306Z" fill="url(#paint17_linear_2007_5585)"/>
<path d="M251.277 191.953C252.291 188.965 253.451 185.338 254.89 180.939C256.187 176.975 258.483 174.012 262.795 172.718C262.909 172.497 263.016 172.269 263.127 172.045C256.098 172.448 252.813 175.866 251.159 180.928C248.268 189.765 246.517 195.493 244.83 199.144C246.984 197.176 249.138 194.759 251.277 191.953Z" fill="url(#paint18_linear_2007_5585)"/>
<path d="M261.591 202.819H260.794V205.186H260.469V202.819H259.67V202.538H261.591V202.819Z" fill="black"/>
<path d="M264.852 205.186H264.528V203.407C264.528 203.267 264.54 203.095 264.555 202.893C264.522 203.014 264.494 203.098 264.469 203.152L263.525 205.186H263.367L262.421 203.167C262.394 203.111 262.366 203.02 262.336 202.893H262.325C262.336 203 262.34 203.172 262.34 203.411V205.186H262.029V202.537H262.458L263.307 204.386C263.372 204.525 263.412 204.632 263.433 204.703H263.445C263.501 204.558 263.547 204.449 263.579 204.377L264.446 202.537H264.854V205.186H264.852Z" fill="black"/>
</g>
<g filter="url(#filter7_d_2007_5585)">
<path d="M359.398 68.5455C360.16 58.0919 368.863 50 379.345 50H470.489C482.107 50 491.281 59.8667 490.436 71.4545L484.602 151.454C483.84 161.908 475.137 170 464.655 170H373.511C361.893 170 352.719 160.133 353.564 148.546L359.398 68.5455Z" fill="white"/>
</g>
<path d="M404.422 145.6H408.206C410.758 145.6 411.88 146.986 411.198 149.714L411.132 150C410.56 152.288 409.064 153.564 407.942 153.674L407.898 153.894C408.932 154.004 409.79 155.412 409.218 157.656L409.174 157.876C408.844 159.196 408.646 160.142 408.602 161H405.544C405.566 160.076 405.808 159.042 406.116 157.854L406.49 156.27C406.688 155.478 406.512 155.126 405.852 155.126H405.126L403.652 161.022H400.572L404.422 145.6ZM406.82 148.284L405.786 152.442H406.49C407.172 152.442 407.568 151.98 407.744 151.232L408.184 149.45C408.382 148.636 408.206 148.284 407.546 148.284H406.82ZM413.257 156.094L412.861 157.656C412.707 158.316 412.883 158.712 413.345 158.712C413.807 158.712 414.247 158.316 414.401 157.656L414.621 156.754H417.547L417.349 157.502C416.799 159.768 414.973 161.22 412.707 161.22C410.441 161.22 409.407 159.79 409.979 157.502L411.035 153.278C411.607 150.99 413.367 149.56 415.633 149.56C417.877 149.56 418.977 151.012 418.405 153.278L417.701 156.094H413.257ZM414.005 153.124L413.653 154.51H415.193L415.545 153.124C415.699 152.464 415.523 152.068 415.061 152.068C414.599 152.068 414.159 152.464 414.005 153.124ZM424.504 161H421.6L421.908 159.79H421.688C421.006 160.714 420.148 161.22 419.378 161.22C418.168 161.22 417.398 160.01 417.948 157.81L419.312 152.376C419.774 150.484 421.05 149.56 422.216 149.56C423.074 149.56 423.756 150.066 423.888 150.946H424.108L425.538 145.16H428.464L424.504 161ZM422.348 157.964L423.646 152.75C423.602 152.376 423.382 152.112 423.03 152.112C422.612 152.112 422.194 152.486 422.062 153.036L420.896 157.7C420.764 158.228 420.94 158.624 421.358 158.624C421.71 158.624 422.106 158.36 422.348 157.964ZM435.355 149.78L432.539 161H429.635L429.943 159.724H429.745C429.041 160.714 428.205 161.22 427.325 161.22C426.115 161.22 425.389 160.23 425.895 158.184L427.985 149.78H430.911L428.887 157.832C428.755 158.382 428.931 158.756 429.327 158.756C429.679 158.756 430.075 158.47 430.383 158.03L432.429 149.78H435.355ZM438.879 149.78L438.461 154.246H438.681L440.463 149.78H443.499L440.903 155.346L440.749 161H437.735L438.131 156.336H437.933L436.041 161H433.005L435.689 155.302L435.865 149.78H438.879Z" fill="black"/>
<g clip-path="url(#clip6_2007_5585)">
<path d="M438.589 115.04C441.763 114.711 444.17 111.975 444.061 108.69C443.951 105.406 441.215 102.779 437.932 102.779H437.713C434.32 102.888 431.694 105.734 431.804 109.128C431.913 110.77 432.57 112.193 433.555 113.179C429.834 120.514 424.143 125.878 415.607 130.366C409.806 133.432 403.787 134.527 397.768 133.76C392.844 133.104 389.013 130.914 386.605 127.301C383.103 121.937 382.775 116.135 385.73 110.333C387.81 106.172 391.092 103.107 393.172 101.574C392.734 100.151 392.077 97.7428 391.749 95.9914C375.88 107.486 377.522 123.032 382.338 130.366C385.949 135.841 393.281 139.234 401.38 139.234C403.568 139.234 405.757 139.015 407.946 138.468C421.954 135.731 432.57 127.411 438.589 115.04ZM457.85 101.465C449.533 91.7217 437.276 86.3575 423.267 86.3575H421.517C420.532 84.3869 418.452 83.073 416.154 83.073H415.935C412.543 83.1826 409.916 86.0288 410.026 89.4228C410.135 92.7069 412.871 95.3344 416.154 95.3344H416.373C418.78 95.2249 420.86 93.6922 421.735 91.6121H423.705C432.023 91.6121 439.902 94.0205 447.016 98.7281C452.488 102.341 456.428 107.048 458.616 112.741C460.477 117.339 460.367 121.827 458.397 125.659C455.333 131.461 450.19 134.636 443.404 134.636C439.027 134.636 434.868 133.322 432.679 132.337C431.475 133.432 429.286 135.183 427.754 136.278C432.46 138.468 437.276 139.672 441.872 139.672C452.378 139.672 460.148 133.87 463.103 128.068C466.277 121.718 466.058 110.77 457.85 101.465ZM402.255 116.901C402.365 120.185 405.101 122.812 408.384 122.812H408.603C411.995 122.703 414.622 119.857 414.512 116.463C414.403 113.178 411.667 110.551 408.384 110.551H408.165C407.946 110.551 407.618 110.551 407.399 110.66C402.912 103.216 401.052 95.1153 401.708 86.3571C402.146 79.7886 404.335 74.0957 408.165 69.3882C411.339 65.3375 417.467 63.367 421.626 63.2578C433.226 63.0387 438.151 77.4894 438.479 83.2918C439.902 83.6201 442.31 84.3866 443.951 84.934C442.638 67.1992 431.694 58.0031 421.188 58.0031C411.339 58.0031 402.255 65.1191 398.644 75.6287C393.61 89.6416 396.893 103.107 403.021 113.726C402.474 114.492 402.146 115.696 402.255 116.901Z" fill="#764ABC"/>
</g>
<defs>
<filter id="filter0_d_2007_5585" x="269.793" y="566" width="304.414" height="200" filterUnits="userSpaceOnUse" color-interpolation-filters="sRGB">
<feFlood flood-opacity="0" result="BackgroundImageFix"/>
<feColorMatrix in="SourceAlpha" type="matrix" values="0 0 0 0 0 0 0 0 0 0 0 0 0 0 0 0 0 0 127 0" result="hardAlpha"/>
<feOffset/>
<feGaussianBlur stdDeviation="25"/>
<feComposite in2="hardAlpha" operator="out"/>
<feColorMatrix type="matrix" values="0 0 0 0 0 0 0 0 0 0.591667 0 0 0 0 0.0234789 0 0 0 0.16 0"/>
<feBlend mode="normal" in2="BackgroundImageFix" result="effect1_dropShadow_2007_5585"/>
<feBlend mode="normal" in="SourceGraphic" in2="effect1_dropShadow_2007_5585" result="shape"/>
</filter>
<filter id="filter1_d_2007_5585" x="60.7344" y="463" width="256.531" height="220" filterUnits="userSpaceOnUse" color-interpolation-filters="sRGB">
<feFlood flood-opacity="0" result="BackgroundImageFix"/>
<feColorMatrix in="SourceAlpha" type="matrix" values="0 0 0 0 0 0 0 0 0 0 0 0 0 0 0 0 0 0 127 0" result="hardAlpha"/>
<feOffset/>
<feGaussianBlur stdDeviation="25"/>
<feComposite in2="hardAlpha" operator="out"/>
<feColorMatrix type="matrix" values="0 0 0 0 0 0 0 0 0 0.591667 0 0 0 0 0.0234789 0 0 0 0.16 0"/>
<feBlend mode="normal" in2="BackgroundImageFix" result="effect1_dropShadow_2007_5585"/>
<feBlend mode="normal" in="SourceGraphic" in2="effect1_dropShadow_2007_5585" result="shape"/>
</filter>
<filter id="filter2_d_2007_5585" x="526.51" y="433" width="236.98" height="220" filterUnits="userSpaceOnUse" color-interpolation-filters="sRGB">
<feFlood flood-opacity="0" result="BackgroundImageFix"/>
<feColorMatrix in="SourceAlpha" type="matrix" values="0 0 0 0 0 0 0 0 0 0 0 0 0 0 0 0 0 0 127 0" result="hardAlpha"/>
<feOffset/>
<feGaussianBlur stdDeviation="25"/>
<feComposite in2="hardAlpha" operator="out"/>
<feColorMatrix type="matrix" values="0 0 0 0 0 0 0 0 0 0.591667 0 0 0 0 0.0234789 0 0 0 0.16 0"/>
<feBlend mode="normal" in2="BackgroundImageFix" result="effect1_dropShadow_2007_5585"/>
<feBlend mode="normal" in="SourceGraphic" in2="effect1_dropShadow_2007_5585" result="shape"/>
</filter>
<filter id="filter3_d_2007_5585" x="0.509766" y="283" width="236.98" height="220" filterUnits="userSpaceOnUse" color-interpolation-filters="sRGB">
<feFlood flood-opacity="0" result="BackgroundImageFix"/>
<feColorMatrix in="SourceAlpha" type="matrix" values="0 0 0 0 0 0 0 0 0 0 0 0 0 0 0 0 0 0 127 0" result="hardAlpha"/>
<feOffset/>
<feGaussianBlur stdDeviation="25"/>
<feComposite in2="hardAlpha" operator="out"/>
<feColorMatrix type="matrix" values="0 0 0 0 0 0 0 0 0 0.591667 0 0 0 0 0.0234789 0 0 0 0.16 0"/>
<feBlend mode="normal" in2="BackgroundImageFix" result="effect1_dropShadow_2007_5585"/>
<feBlend mode="normal" in="SourceGraphic" in2="effect1_dropShadow_2007_5585" result="shape"/>
</filter>
<filter id="filter4_d_2007_5585" x="616.51" y="253" width="236.98" height="220" filterUnits="userSpaceOnUse" color-interpolation-filters="sRGB">
<feFlood flood-opacity="0" result="BackgroundImageFix"/>
<feColorMatrix in="SourceAlpha" type="matrix" values="0 0 0 0 0 0 0 0 0 0 0 0 0 0 0 0 0 0 127 0" result="hardAlpha"/>
<feOffset/>
<feGaussianBlur stdDeviation="25"/>
<feComposite in2="hardAlpha" operator="out"/>
<feColorMatrix type="matrix" values="0 0 0 0 0 0 0 0 0 0.591667 0 0 0 0 0.0234789 0 0 0 0.16 0"/>
<feBlend mode="normal" in2="BackgroundImageFix" result="effect1_dropShadow_2007_5585"/>
<feBlend mode="normal" in="SourceGraphic" in2="effect1_dropShadow_2007_5585" result="shape"/>
</filter>
<filter id="filter5_d_2007_5585" x="493.51" y="73" width="236.98" height="220" filterUnits="userSpaceOnUse" color-interpolation-filters="sRGB">
<feFlood flood-opacity="0" result="BackgroundImageFix"/>
<feColorMatrix in="SourceAlpha" type="matrix" values="0 0 0 0 0 0 0 0 0 0 0 0 0 0 0 0 0 0 127 0" result="hardAlpha"/>
<feOffset/>
<feGaussianBlur stdDeviation="25"/>
<feComposite in2="hardAlpha" operator="out"/>
<feColorMatrix type="matrix" values="0 0 0 0 0 0 0 0 0 0.591667 0 0 0 0 0.0234789 0 0 0 0.16 0"/>
<feBlend mode="normal" in2="BackgroundImageFix" result="effect1_dropShadow_2007_5585"/>
<feBlend mode="normal" in="SourceGraphic" in2="effect1_dropShadow_2007_5585" result="shape"/>
</filter>
<filter id="filter6_d_2007_5585" x="113.51" y="103" width="236.98" height="220" filterUnits="userSpaceOnUse" color-interpolation-filters="sRGB">
<feFlood flood-opacity="0" result="BackgroundImageFix"/>
<feColorMatrix in="SourceAlpha" type="matrix" values="0 0 0 0 0 0 0 0 0 0 0 0 0 0 0 0 0 0 127 0" result="hardAlpha"/>
<feOffset/>
<feGaussianBlur stdDeviation="25"/>
<feComposite in2="hardAlpha" operator="out"/>
<feColorMatrix type="matrix" values="0 0 0 0 0 0 0 0 0 0.591667 0 0 0 0 0.0234789 0 0 0 0.16 0"/>
<feBlend mode="normal" in2="BackgroundImageFix" result="effect1_dropShadow_2007_5585"/>
<feBlend mode="normal" in="SourceGraphic" in2="effect1_dropShadow_2007_5585" result="shape"/>
</filter>
<filter id="filter7_d_2007_5585" x="303.51" y="0" width="236.98" height="220" filterUnits="userSpaceOnUse" color-interpolation-filters="sRGB">
<feFlood flood-opacity="0" result="BackgroundImageFix"/>
<feColorMatrix in="SourceAlpha" type="matrix" values="0 0 0 0 0 0 0 0 0 0 0 0 0 0 0 0 0 0 127 0" result="hardAlpha"/>
<feOffset/>
<feGaussianBlur stdDeviation="25"/>
<feComposite in2="hardAlpha" operator="out"/>
<feColorMatrix type="matrix" values="0 0 0 0 0 0 0 0 0 0.591667 0 0 0 0 0.0234789 0 0 0 0.16 0"/>
<feBlend mode="normal" in2="BackgroundImageFix" result="effect1_dropShadow_2007_5585"/>
<feBlend mode="normal" in="SourceGraphic" in2="effect1_dropShadow_2007_5585" result="shape"/>
</filter>
<radialGradient id="paint0_radial_2007_5585" cx="0" cy="0" r="1" gradientUnits="userSpaceOnUse" gradientTransform="translate(424 378) rotate(90) scale(270 400)">
<stop stop-color="#19DF21" stop-opacity="0.8"/>
<stop offset="0.380208" stop-color="#19DF21" stop-opacity="0.6"/>
<stop offset="0.770833" stop-color="#19DF21" stop-opacity="0.2"/>
<stop offset="1" stop-color="#15E61D" stop-opacity="0.06"/>
</radialGradient>
<linearGradient id="paint1_linear_2007_5585" x1="1020.05" y1="-355.61" x2="1020.05" y2="3721" gradientUnits="userSpaceOnUse">
<stop stop-color="#0994DC"/>
<stop offset="0.350006" stop-color="#66CEF5"/>
<stop offset="0.846161" stop-color="#127BCA"/>
<stop offset="1" stop-color="#127BCA"/>
</linearGradient>
<linearGradient id="paint2_linear_2007_5585" x1="1061.09" y1="-370.108" x2="1061.09" y2="3810.39" gradientUnits="userSpaceOnUse">
<stop stop-color="#0E76BC"/>
<stop offset="0.360001" stop-color="#36AEE8"/>
<stop offset="0.846161" stop-color="#00ADEF"/>
<stop offset="1" stop-color="#00ADEF"/>
</linearGradient>
<linearGradient id="paint3_linear_2007_5585" x1="1027.79" y1="3322.64" x2="1027.79" y2="-3.72625" gradientUnits="userSpaceOnUse">
<stop stop-color="#1C63B7"/>
<stop offset="0.5" stop-color="#33BDF2"/>
<stop offset="1" stop-color="#33BDF2" stop-opacity="0.419608"/>
</linearGradient>
<linearGradient id="paint4_linear_2007_5585" x1="1017.85" y1="-395.023" x2="1017.85" y2="3945.42" gradientUnits="userSpaceOnUse">
<stop stop-color="#166AB8"/>
<stop offset="0.399994" stop-color="#36AEE8"/>
<stop offset="0.846161" stop-color="#0798DD"/>
<stop offset="1" stop-color="#0798DD"/>
</linearGradient>
<linearGradient id="paint5_linear_2007_5585" x1="1246.38" y1="-430.588" x2="1246.38" y2="4184.9" gradientUnits="userSpaceOnUse">
<stop stop-color="#124379"/>
<stop offset="0.389999" stop-color="#1487CB"/>
<stop offset="0.780228" stop-color="#165197"/>
<stop offset="1" stop-color="#165197"/>
</linearGradient>
<linearGradient id="paint6_linear_2007_5585" x1="211.574" y1="696.032" x2="894.224" y2="696.032" gradientUnits="userSpaceOnUse">
<stop stop-color="#33BDF2" stop-opacity="0.698039"/>
<stop offset="1" stop-color="#1DACD8"/>
</linearGradient>
<linearGradient id="paint7_linear_2007_5585" x1="1640.37" y1="3312.04" x2="1640.37" y2="71.6973" gradientUnits="userSpaceOnUse">
<stop stop-color="#136AB4"/>
<stop offset="0.6" stop-color="#59CAF5" stop-opacity="0.54902"/>
<stop offset="1" stop-color="#59CAF5" stop-opacity="0.235294"/>
</linearGradient>
<linearGradient id="paint8_linear_2007_5585" x1="187.328" y1="1838.94" x2="2719.37" y2="1838.94" gradientUnits="userSpaceOnUse">
<stop stop-color="#05A1E6" stop-opacity="0.247059"/>
<stop offset="1" stop-color="#05A1E6"/>
</linearGradient>
<linearGradient id="paint9_linear_2007_5585" x1="1054.95" y1="3257.49" x2="1054.95" y2="-60.3605" gradientUnits="userSpaceOnUse">
<stop stop-color="#318ED5"/>
<stop offset="1" stop-color="#38A7E4"/>
</linearGradient>
<linearGradient id="paint10_linear_2007_5585" x1="997.142" y1="1937.76" x2="997.142" y2="-1287.37" gradientUnits="userSpaceOnUse">
<stop stop-color="#05A1E6"/>
<stop offset="1" stop-color="#05A1E6" stop-opacity="0.54902"/>
</linearGradient>
<linearGradient id="paint11_linear_2007_5585" x1="1119.33" y1="2904.29" x2="1119.33" y2="179.001" gradientUnits="userSpaceOnUse">
<stop stop-color="#1959A6"/>
<stop offset="0.5" stop-color="#05A1E6"/>
<stop offset="0.917587" stop-color="#7EC5EA"/>
<stop offset="1" stop-color="#7EC5EA"/>
</linearGradient>
<linearGradient id="paint12_linear_2007_5585" x1="1719.2" y1="3319.24" x2="828.699" y2="472.309" gradientUnits="userSpaceOnUse">
<stop stop-color="#165096"/>
<stop offset="1" stop-color="#0D82CA"/>
</linearGradient>
<linearGradient id="paint13_linear_2007_5585" x1="827.186" y1="1653.53" x2="827.186" y2="109.274" gradientUnits="userSpaceOnUse">
<stop stop-color="#05A1E6"/>
<stop offset="0.873627" stop-color="#0495D6"/>
<stop offset="1" stop-color="#0495D6"/>
</linearGradient>
<linearGradient id="paint14_linear_2007_5585" x1="1633.62" y1="37.294" x2="237.52" y2="3279.98" gradientUnits="userSpaceOnUse">
<stop stop-color="#38A7E4" stop-opacity="0.329412"/>
<stop offset="0.961533" stop-color="#0E88D3"/>
<stop offset="1" stop-color="#0E88D3"/>
</linearGradient>
<linearGradient id="paint15_linear_2007_5585" x1="1482.22" y1="162.251" x2="1482.22" y2="3531.21" gradientUnits="userSpaceOnUse">
<stop stop-color="#168CD4"/>
<stop offset="0.5" stop-color="#1C87CC"/>
<stop offset="1" stop-color="#154B8D"/>
</linearGradient>
<linearGradient id="paint16_linear_2007_5585" x1="402.168" y1="-119.395" x2="416.125" y2="233.985" gradientUnits="userSpaceOnUse">
<stop stop-color="#97D6EE"/>
<stop offset="0.703293" stop-color="#55C1EA"/>
<stop offset="1" stop-color="#55C1EA"/>
</linearGradient>
<linearGradient id="paint17_linear_2007_5585" x1="281.974" y1="159.39" x2="345.217" y2="-215.857" gradientUnits="userSpaceOnUse">
<stop stop-color="#7ACCEC"/>
<stop offset="1" stop-color="#3FB7ED"/>
</linearGradient>
<linearGradient id="paint18_linear_2007_5585" x1="1159.62" y1="344.47" x2="1159.62" y2="3639.65" gradientUnits="userSpaceOnUse">
<stop stop-color="#1DA7E7"/>
<stop offset="1" stop-color="#37ABE7" stop-opacity="0"/>
</linearGradient>
<clipPath id="clip0_2007_5585">
<rect width="170" height="48" fill="white" transform="translate(337 642)"/>
</clipPath>
<clipPath id="clip1_2007_5585">
<rect width="130" height="70" fill="white" transform="translate(124 538)"/>
</clipPath>
<clipPath id="clip2_2007_5585">
<rect width="80" height="90" fill="white" transform="translate(605 498)"/>
</clipPath>
<clipPath id="clip3_2007_5585">
<rect width="90" height="90" fill="white" transform="translate(74 348)"/>
</clipPath>
<clipPath id="clip4_2007_5585">
<rect width="100" height="64" fill="white" transform="translate(685 331)"/>
</clipPath>
<clipPath id="clip5_2007_5585">
<rect width="90" height="82" fill="white" transform="translate(187 172)"/>
</clipPath>
<clipPath id="clip6_2007_5585">
<rect width="86" height="82" fill="white" transform="translate(379 58)"/>
</clipPath>
</defs>
</svg>
