<?xml version="1.0" encoding="UTF-8"?>
<!DOCTYPE svg PUBLIC "-//W3C//DTD SVG 1.1//EN" "http://www.w3.org/Graphics/SVG/1.1/DTD/svg11.dtd">
<!-- Creator: CorelDRAW -->
<svg xmlns="http://www.w3.org/2000/svg" xml:space="preserve" width="210mm" height="297mm" version="1.1" style="shape-rendering:geometricPrecision; text-rendering:geometricPrecision; image-rendering:optimizeQuality; fill-rule:evenodd; clip-rule:evenodd"
viewBox="0 0 21000 29700"
 xmlns:xlink="http://www.w3.org/1999/xlink"
 xmlns:xodm="http://www.corel.com/coreldraw/odm/2003">
 <defs>
  <style type="text/css">
   <![CDATA[
    .fil0 {fill:black;fill-rule:nonzero}
   ]]>
  </style>
 </defs>
 <g id="Слой_x0020_1">
  <metadata id="CorelCorpID_0Corel-Layer"/>
  <g id="_1785328566960">
   <path class="fil0" d="M6824.3 16887.03l0 -4074.04c0,-225 -182.24,-407.45 -407.45,-407.45 -225.21,0 -407.45,182.45 -407.45,407.45l0.01 4074.04c0,225 182.24,407.45 407.45,407.45 225.21,0 407.44,-182.45 407.44,-407.45z"/>
   <path class="fil0" d="M8046.54 12812.99l0 4074.04c0,225 182.24,407.45 407.45,407.45 225.21,0 407.45,-182.45 407.45,-407.45l-0.01 -4074.04c0,-225 -182.24,-407.45 -407.45,-407.45 -225.21,0.01 -407.44,182.56 -407.44,407.45z"/>
   <path class="fil0" d="M10083.55 12812.99l0 4074.04c0,225 182.24,407.45 407.45,407.45 225.21,0 407.45,-182.45 407.45,-407.45l-0.01 -4074.04c0,-225 -182.24,-407.45 -407.45,-407.45 -225.21,0 -407.44,182.56 -407.44,407.45z"/>
   <path class="fil0" d="M12120.47 12812.99l0 4074.04c0,225 182.24,407.45 407.45,407.45 225.21,0 407.45,-182.45 407.45,-407.45l-0.01 -4074.04c0,-225 -182.24,-407.45 -407.45,-407.45 -225.21,0 -407.44,182.56 -407.44,407.45z"/>
   <path class="fil0" d="M14157.48 12812.99l0 4074.04c0,225 182.24,407.45 407.45,407.45 225.21,0 407.45,-182.45 407.45,-407.45l-0.01 -4074.04c0,-225 -182.24,-407.45 -407.45,-407.45 -225.2,0.11 -407.44,182.56 -407.44,407.45z"/>
   <path class="fil0" d="M4787.39 16887.03l0 -4074.04c0,-141.25 -73.19,-272.36 -193.32,-346.49 -120.13,-74.13 -270.17,-80.92 -396.26,-17.88l-4074.03 2037.02c-276.13,138.12 -276.13,590.83 0,728.84l4073.93 2037.02c126.09,63.05 276.13,56.25 396.26,-17.88 120.23,-74.23 193.42,-205.34 193.42,-346.59zm-3570.4 -2037.02l2755.51 -1377.7 0 2755.51 -2755.51 -1377.81z"/>
   <path class="fil0" d="M16194.5 12812.99l0 4074.04c0,141.25 73.19,272.36 193.32,346.49 120.13,74.23 270.17,80.92 396.26,17.88l4074.04 -2037.02c138.01,-69.01 225.21,-210.05 225.21,-364.37 0,-154.32 -87.09,-295.36 -225.21,-364.37l-4074.04 -2037.02c-126.09,-63.05 -276.13,-56.25 -396.26,17.88 -120.13,74.13 -193.32,205.34 -193.32,346.49zm3570.3 2037.02l-2755.51 1377.7 0 -2755.51 2755.51 1377.81z"/>
  </g>
 </g>
</svg>
